%TF.GenerationSoftware,KiCad,Pcbnew,(6.0.5)*%
%TF.CreationDate,2022-06-01T14:16:48+01:00*%
%TF.ProjectId,Project Fauxbow - Bottom Pl ate,50726f6a-6563-4742-9046-617578626f77,rev?*%
%TF.SameCoordinates,Original*%
%TF.FileFunction,Legend,Top*%
%TF.FilePolarity,Positive*%
%FSLAX46Y46*%
G04 Gerber Fmt 4.6, Leading zero omitted, Abs format (unit mm)*
G04 Created by KiCad (PCBNEW (6.0.5)) date 2022-06-01 14:16:48*
%MOMM*%
%LPD*%
G01*
G04 APERTURE LIST*
%ADD10C,0.150000*%
%ADD11C,4.500000*%
G04 APERTURE END LIST*
D10*
%TO.C,H5*%
X205360302Y-82453071D02*
X205360302Y-81453071D01*
X205360302Y-81929262D02*
X205931730Y-81929262D01*
X205931730Y-82453071D02*
X205931730Y-81453071D01*
X206884111Y-81453071D02*
X206407921Y-81453071D01*
X206360302Y-81929262D01*
X206407921Y-81881643D01*
X206503159Y-81834024D01*
X206741254Y-81834024D01*
X206836492Y-81881643D01*
X206884111Y-81929262D01*
X206931730Y-82024500D01*
X206931730Y-82262595D01*
X206884111Y-82357833D01*
X206836492Y-82405452D01*
X206741254Y-82453071D01*
X206503159Y-82453071D01*
X206407921Y-82405452D01*
X206360302Y-82357833D01*
%TO.C,H6*%
X97060302Y-109853071D02*
X97060302Y-108853071D01*
X97060302Y-109329262D02*
X97631730Y-109329262D01*
X97631730Y-109853071D02*
X97631730Y-108853071D01*
X98536492Y-108853071D02*
X98346016Y-108853071D01*
X98250778Y-108900691D01*
X98203159Y-108948310D01*
X98107921Y-109091167D01*
X98060302Y-109281643D01*
X98060302Y-109662595D01*
X98107921Y-109757833D01*
X98155540Y-109805452D01*
X98250778Y-109853071D01*
X98441254Y-109853071D01*
X98536492Y-109805452D01*
X98584111Y-109757833D01*
X98631730Y-109662595D01*
X98631730Y-109424500D01*
X98584111Y-109329262D01*
X98536492Y-109281643D01*
X98441254Y-109234024D01*
X98250778Y-109234024D01*
X98155540Y-109281643D01*
X98107921Y-109329262D01*
X98060302Y-109424500D01*
%TO.C,H3*%
X124464970Y-106157739D02*
X124464970Y-105157739D01*
X124464970Y-105633930D02*
X125036398Y-105633930D01*
X125036398Y-106157739D02*
X125036398Y-105157739D01*
X125417351Y-105157739D02*
X126036398Y-105157739D01*
X125703065Y-105538692D01*
X125845922Y-105538692D01*
X125941160Y-105586311D01*
X125988779Y-105633930D01*
X126036398Y-105729168D01*
X126036398Y-105967263D01*
X125988779Y-106062501D01*
X125941160Y-106110120D01*
X125845922Y-106157739D01*
X125560208Y-106157739D01*
X125464970Y-106110120D01*
X125417351Y-106062501D01*
%TO.C,H1*%
X109460302Y-63253071D02*
X109460302Y-62253071D01*
X109460302Y-62729262D02*
X110031730Y-62729262D01*
X110031730Y-63253071D02*
X110031730Y-62253071D01*
X111031730Y-63253071D02*
X110460302Y-63253071D01*
X110746016Y-63253071D02*
X110746016Y-62253071D01*
X110650778Y-62395929D01*
X110555540Y-62491167D01*
X110460302Y-62538786D01*
%TO.C,H4*%
X189464970Y-108357739D02*
X189464970Y-107357739D01*
X189464970Y-107833930D02*
X190036398Y-107833930D01*
X190036398Y-108357739D02*
X190036398Y-107357739D01*
X190941160Y-107691073D02*
X190941160Y-108357739D01*
X190703065Y-107310120D02*
X190464970Y-108024406D01*
X191084017Y-108024406D01*
%TO.C,H2*%
X186960302Y-45153071D02*
X186960302Y-44153071D01*
X186960302Y-44629262D02*
X187531730Y-44629262D01*
X187531730Y-45153071D02*
X187531730Y-44153071D01*
X187960302Y-44248310D02*
X188007921Y-44200691D01*
X188103159Y-44153071D01*
X188341254Y-44153071D01*
X188436492Y-44200691D01*
X188484111Y-44248310D01*
X188531730Y-44343548D01*
X188531730Y-44438786D01*
X188484111Y-44581643D01*
X187912683Y-45153071D01*
X188531730Y-45153071D01*
%TD*%
%LPC*%
D11*
%TO.C,H5*%
X206122207Y-85250691D03*
%TD*%
%TO.C,H6*%
X97822207Y-112650691D03*
%TD*%
%TO.C,H3*%
X125226875Y-108955359D03*
%TD*%
%TO.C,H1*%
X110222207Y-66050691D03*
%TD*%
%TO.C,H4*%
X190226875Y-111155359D03*
%TD*%
%TO.C,H2*%
X187722207Y-47950691D03*
%TD*%
M02*
