%TF.GenerationSoftware,KiCad,Pcbnew,(6.0.5)*%
%TF.CreationDate,2022-06-01T14:27:17+01:00*%
%TF.ProjectId,Project Fauxbow - top Plate,50726f6a-6563-4742-9046-617578626f77,rev?*%
%TF.SameCoordinates,Original*%
%TF.FileFunction,Legend,Top*%
%TF.FilePolarity,Positive*%
%FSLAX46Y46*%
G04 Gerber Fmt 4.6, Leading zero omitted, Abs format (unit mm)*
G04 Created by KiCad (PCBNEW (6.0.5)) date 2022-06-01 14:27:17*
%MOMM*%
%LPD*%
G01*
G04 APERTURE LIST*
%ADD10C,0.150000*%
%ADD11C,4.500000*%
G04 APERTURE END LIST*
D10*
%TO.C,H4*%
X242935762Y-108102381D02*
X242935762Y-107102381D01*
X242935762Y-107578572D02*
X243507190Y-107578572D01*
X243507190Y-108102381D02*
X243507190Y-107102381D01*
X244411952Y-107435715D02*
X244411952Y-108102381D01*
X244173857Y-107054762D02*
X243935762Y-107769048D01*
X244554809Y-107769048D01*
%TO.C,H2*%
X240431094Y-44897713D02*
X240431094Y-43897713D01*
X240431094Y-44373904D02*
X241002522Y-44373904D01*
X241002522Y-44897713D02*
X241002522Y-43897713D01*
X241431094Y-43992952D02*
X241478713Y-43945333D01*
X241573951Y-43897713D01*
X241812046Y-43897713D01*
X241907284Y-43945333D01*
X241954903Y-43992952D01*
X242002522Y-44088190D01*
X242002522Y-44183428D01*
X241954903Y-44326285D01*
X241383475Y-44897713D01*
X242002522Y-44897713D01*
%TO.C,H5*%
X258831094Y-82197713D02*
X258831094Y-81197713D01*
X258831094Y-81673904D02*
X259402522Y-81673904D01*
X259402522Y-82197713D02*
X259402522Y-81197713D01*
X260354903Y-81197713D02*
X259878713Y-81197713D01*
X259831094Y-81673904D01*
X259878713Y-81626285D01*
X259973951Y-81578666D01*
X260212046Y-81578666D01*
X260307284Y-81626285D01*
X260354903Y-81673904D01*
X260402522Y-81769142D01*
X260402522Y-82007237D01*
X260354903Y-82102475D01*
X260307284Y-82150094D01*
X260212046Y-82197713D01*
X259973951Y-82197713D01*
X259878713Y-82150094D01*
X259831094Y-82102475D01*
%TO.C,H3*%
X177935762Y-105902381D02*
X177935762Y-104902381D01*
X177935762Y-105378572D02*
X178507190Y-105378572D01*
X178507190Y-105902381D02*
X178507190Y-104902381D01*
X178888143Y-104902381D02*
X179507190Y-104902381D01*
X179173857Y-105283334D01*
X179316714Y-105283334D01*
X179411952Y-105330953D01*
X179459571Y-105378572D01*
X179507190Y-105473810D01*
X179507190Y-105711905D01*
X179459571Y-105807143D01*
X179411952Y-105854762D01*
X179316714Y-105902381D01*
X179031000Y-105902381D01*
X178935762Y-105854762D01*
X178888143Y-105807143D01*
%TO.C,H6*%
X150531094Y-109597713D02*
X150531094Y-108597713D01*
X150531094Y-109073904D02*
X151102522Y-109073904D01*
X151102522Y-109597713D02*
X151102522Y-108597713D01*
X152007284Y-108597713D02*
X151816808Y-108597713D01*
X151721570Y-108645333D01*
X151673951Y-108692952D01*
X151578713Y-108835809D01*
X151531094Y-109026285D01*
X151531094Y-109407237D01*
X151578713Y-109502475D01*
X151626332Y-109550094D01*
X151721570Y-109597713D01*
X151912046Y-109597713D01*
X152007284Y-109550094D01*
X152054903Y-109502475D01*
X152102522Y-109407237D01*
X152102522Y-109169142D01*
X152054903Y-109073904D01*
X152007284Y-109026285D01*
X151912046Y-108978666D01*
X151721570Y-108978666D01*
X151626332Y-109026285D01*
X151578713Y-109073904D01*
X151531094Y-109169142D01*
%TO.C,H1*%
X162931094Y-62997713D02*
X162931094Y-61997713D01*
X162931094Y-62473904D02*
X163502522Y-62473904D01*
X163502522Y-62997713D02*
X163502522Y-61997713D01*
X164502522Y-62997713D02*
X163931094Y-62997713D01*
X164216808Y-62997713D02*
X164216808Y-61997713D01*
X164121570Y-62140571D01*
X164026332Y-62235809D01*
X163931094Y-62283428D01*
%TD*%
%LPC*%
D11*
%TO.C,H4*%
X243697667Y-110900001D03*
%TD*%
%TO.C,H2*%
X241192999Y-47695333D03*
%TD*%
%TO.C,H5*%
X259592999Y-84995333D03*
%TD*%
%TO.C,H3*%
X178697667Y-108700001D03*
%TD*%
%TO.C,H6*%
X151292999Y-112395333D03*
%TD*%
%TO.C,H1*%
X163692999Y-65795333D03*
%TD*%
M02*
