%FSLAX45Y45*%
G04 Gerber Fmt 4.5, Leading zero omitted, Abs format (unit mm)*
G04 Created by KiCad (PCBNEW (6.0.5)) date 2022-06-01 14:27:18*
%MOMM*%
%LPD*%
G01*
G04 APERTURE LIST*
%TA.AperFunction,Profile*%
%ADD10C,0.200000*%
%TD*%
%ADD11C,0.200000*%
%ADD12C,0.270000*%
G04 APERTURE END LIST*
D10*
X14559767Y-10750000D02*
X14569533Y-5029533D01*
X14539769Y-14169999D02*
G75*
G03*
X15236050Y-14372546I439471J212689D01*
G01*
X26359767Y-12640000D02*
X26369066Y-5029533D01*
X14049767Y-11900000D02*
G75*
G03*
X14559767Y-10750000I-1307236J1267817D01*
G01*
X16879767Y-13590000D02*
X25409767Y-13580000D01*
X15629533Y-3969533D02*
X25309066Y-3969533D01*
X15236050Y-14372546D02*
X16224026Y-13801649D01*
X16879767Y-13590001D02*
G75*
G03*
X16224026Y-13801649I55013J-1292099D01*
G01*
X14539767Y-14170000D02*
X13759300Y-12819533D01*
X26369067Y-5029533D02*
G75*
G03*
X25309066Y-3969533I-1060007J-7D01*
G01*
X15629533Y-3969533D02*
G75*
G03*
X14569533Y-5029533I0J-1060000D01*
G01*
X25409767Y-13580000D02*
G75*
G03*
X26359767Y-12640000I30217J919515D01*
G01*
X14049767Y-11900001D02*
G75*
G03*
X13759300Y-12819533I566393J-684559D01*
G01*
X19919300Y-9579533D02*
X18519300Y-9579533D01*
X18519300Y-9579533D02*
X18519300Y-8179533D01*
X18519300Y-8179533D02*
X19919300Y-8179533D01*
X19919300Y-8179533D02*
X19919300Y-9579533D01*
X21719300Y-12979533D02*
X20319300Y-12979533D01*
X20319300Y-12979533D02*
X20319300Y-11579533D01*
X20319300Y-11579533D02*
X21719300Y-11579533D01*
X21719300Y-11579533D02*
X21719300Y-12979533D01*
X18129300Y-10219533D02*
X16729300Y-10219533D01*
X16729300Y-10219533D02*
X16729300Y-8819533D01*
X16729300Y-8819533D02*
X18129300Y-8819533D01*
X18129300Y-8819533D02*
X18129300Y-10219533D01*
X21719300Y-7599533D02*
X20319300Y-7599533D01*
X20319300Y-7599533D02*
X20319300Y-6199533D01*
X20319300Y-6199533D02*
X21719300Y-6199533D01*
X21719300Y-6199533D02*
X21719300Y-7599533D01*
X21719300Y-5839533D02*
X20319300Y-5839533D01*
X20319300Y-5839533D02*
X20319300Y-4439533D01*
X20319300Y-4439533D02*
X21719300Y-4439533D01*
X21719300Y-4439533D02*
X21719300Y-5839533D01*
X23519300Y-9579533D02*
X22119300Y-9579533D01*
X22119300Y-9579533D02*
X22119300Y-8179533D01*
X22119300Y-8179533D02*
X23519300Y-8179533D01*
X23519300Y-8179533D02*
X23519300Y-9579533D01*
X19919300Y-12979533D02*
X18519300Y-12979533D01*
X18519300Y-12979533D02*
X18519300Y-11579533D01*
X18519300Y-11579533D02*
X19919300Y-11579533D01*
X19919300Y-11579533D02*
X19919300Y-12979533D01*
X19919300Y-5839533D02*
X18519300Y-5839533D01*
X18519300Y-5839533D02*
X18519300Y-4439533D01*
X18519300Y-4439533D02*
X19919300Y-4439533D01*
X19919300Y-4439533D02*
X19919300Y-5839533D01*
X25309300Y-10219533D02*
X23909300Y-10219533D01*
X23909300Y-10219533D02*
X23909300Y-8819533D01*
X23909300Y-8819533D02*
X25309300Y-8819533D01*
X25309300Y-8819533D02*
X25309300Y-10219533D01*
X25319300Y-8520000D02*
X23919300Y-8520000D01*
X23919300Y-8520000D02*
X23919300Y-7120000D01*
X23919300Y-7120000D02*
X25319300Y-7120000D01*
X25319300Y-7120000D02*
X25319300Y-8520000D01*
X18119300Y-8519533D02*
X16719300Y-8519533D01*
X16719300Y-8519533D02*
X16719300Y-7119533D01*
X16719300Y-7119533D02*
X18119300Y-7119533D01*
X18119300Y-7119533D02*
X18119300Y-8519533D01*
X21719300Y-11279533D02*
X20319300Y-11279533D01*
X20319300Y-11279533D02*
X20319300Y-9879533D01*
X20319300Y-9879533D02*
X21719300Y-9879533D01*
X21719300Y-9879533D02*
X21719300Y-11279533D01*
X19919300Y-11279533D02*
X18519300Y-11279533D01*
X18519300Y-11279533D02*
X18519300Y-9879533D01*
X18519300Y-9879533D02*
X19919300Y-9879533D01*
X19919300Y-9879533D02*
X19919300Y-11279533D01*
X19919300Y-7599533D02*
X18519300Y-7599533D01*
X18519300Y-7599533D02*
X18519300Y-6199533D01*
X18519300Y-6199533D02*
X19919300Y-6199533D01*
X19919300Y-6199533D02*
X19919300Y-7599533D01*
X23519300Y-7599533D02*
X22119300Y-7599533D01*
X22119300Y-7599533D02*
X22119300Y-6199533D01*
X22119300Y-6199533D02*
X23519300Y-6199533D01*
X23519300Y-6199533D02*
X23519300Y-7599533D01*
X21719300Y-9579533D02*
X20319300Y-9579533D01*
X20319300Y-9579533D02*
X20319300Y-8179533D01*
X20319300Y-8179533D02*
X21719300Y-8179533D01*
X21719300Y-8179533D02*
X21719300Y-9579533D01*
X23499300Y-12979533D02*
X22099300Y-12979533D01*
X22099300Y-12979533D02*
X22099300Y-11579533D01*
X22099300Y-11579533D02*
X23499300Y-11579533D01*
X23499300Y-11579533D02*
X23499300Y-12979533D01*
X23519300Y-11279533D02*
X22119300Y-11279533D01*
X22119300Y-11279533D02*
X22119300Y-9879533D01*
X22119300Y-9879533D02*
X23519300Y-9879533D01*
X23519300Y-9879533D02*
X23519300Y-11279533D01*
X23519300Y-5839533D02*
X22119300Y-5839533D01*
X22119300Y-5839533D02*
X22119300Y-4439533D01*
X22119300Y-4439533D02*
X23519300Y-4439533D01*
X23519300Y-4439533D02*
X23519300Y-5839533D01*
D11*
D12*
X14994300Y-11104533D02*
X15264300Y-11374533D01*
X15264300Y-11104533D02*
X14994300Y-11374533D01*
X16234300Y-6444533D02*
X16504300Y-6714533D01*
X16504300Y-6444533D02*
X16234300Y-6714533D01*
X17734767Y-10735000D02*
X18004767Y-11005000D01*
X18004767Y-10735000D02*
X17734767Y-11005000D01*
X23984300Y-4634533D02*
X24254300Y-4904533D01*
X24254300Y-4634533D02*
X23984300Y-4904533D01*
X24234767Y-10955000D02*
X24504767Y-11225000D01*
X24504767Y-10955000D02*
X24234767Y-11225000D01*
X25824300Y-8364533D02*
X26094300Y-8634533D01*
X26094300Y-8364533D02*
X25824300Y-8634533D01*
D11*
X13975285Y-14766019D02*
X13975285Y-14566019D01*
X14022904Y-14566019D01*
X14051475Y-14575543D01*
X14070523Y-14594591D01*
X14080047Y-14613638D01*
X14089571Y-14651734D01*
X14089571Y-14680305D01*
X14080047Y-14718400D01*
X14070523Y-14737448D01*
X14051475Y-14756496D01*
X14022904Y-14766019D01*
X13975285Y-14766019D01*
X14175285Y-14766019D02*
X14175285Y-14632686D01*
X14175285Y-14670781D02*
X14184809Y-14651734D01*
X14194333Y-14642210D01*
X14213380Y-14632686D01*
X14232428Y-14632686D01*
X14299094Y-14766019D02*
X14299094Y-14632686D01*
X14299094Y-14566019D02*
X14289571Y-14575543D01*
X14299094Y-14585067D01*
X14308618Y-14575543D01*
X14299094Y-14566019D01*
X14299094Y-14585067D01*
X14422904Y-14766019D02*
X14403856Y-14756496D01*
X14394333Y-14737448D01*
X14394333Y-14566019D01*
X14527666Y-14766019D02*
X14508618Y-14756496D01*
X14499094Y-14737448D01*
X14499094Y-14566019D01*
X14756237Y-14766019D02*
X14756237Y-14566019D01*
X14822904Y-14708877D01*
X14889571Y-14566019D01*
X14889571Y-14766019D01*
X15070523Y-14766019D02*
X15070523Y-14661257D01*
X15060999Y-14642210D01*
X15041952Y-14632686D01*
X15003856Y-14632686D01*
X14984809Y-14642210D01*
X15070523Y-14756496D02*
X15051475Y-14766019D01*
X15003856Y-14766019D01*
X14984809Y-14756496D01*
X14975285Y-14737448D01*
X14975285Y-14718400D01*
X14984809Y-14699353D01*
X15003856Y-14689829D01*
X15051475Y-14689829D01*
X15070523Y-14680305D01*
X15165761Y-14632686D02*
X15165761Y-14832686D01*
X15165761Y-14642210D02*
X15184809Y-14632686D01*
X15222904Y-14632686D01*
X15241952Y-14642210D01*
X15251475Y-14651734D01*
X15260999Y-14670781D01*
X15260999Y-14727924D01*
X15251475Y-14746972D01*
X15241952Y-14756496D01*
X15222904Y-14766019D01*
X15184809Y-14766019D01*
X15165761Y-14756496D01*
X15346714Y-14746972D02*
X15356237Y-14756496D01*
X15346714Y-14766019D01*
X15337190Y-14756496D01*
X15346714Y-14746972D01*
X15346714Y-14766019D01*
X15346714Y-14642210D02*
X15356237Y-14651734D01*
X15346714Y-14661257D01*
X15337190Y-14651734D01*
X15346714Y-14642210D01*
X15346714Y-14661257D01*
X13517666Y-14995543D02*
X13717666Y-15195543D01*
X13717666Y-14995543D02*
X13517666Y-15195543D01*
X13965761Y-15005067D02*
X13975285Y-14995543D01*
X13994333Y-14986019D01*
X14041952Y-14986019D01*
X14060999Y-14995543D01*
X14070523Y-15005067D01*
X14080047Y-15024115D01*
X14080047Y-15043162D01*
X14070523Y-15071734D01*
X13956237Y-15186019D01*
X14080047Y-15186019D01*
X14165761Y-15166972D02*
X14175285Y-15176496D01*
X14165761Y-15186019D01*
X14156237Y-15176496D01*
X14165761Y-15166972D01*
X14165761Y-15186019D01*
X14241952Y-14986019D02*
X14375285Y-14986019D01*
X14289571Y-15186019D01*
X14489571Y-14986019D02*
X14508618Y-14986019D01*
X14527666Y-14995543D01*
X14537190Y-15005067D01*
X14546714Y-15024115D01*
X14556237Y-15062210D01*
X14556237Y-15109829D01*
X14546714Y-15147924D01*
X14537190Y-15166972D01*
X14527666Y-15176496D01*
X14508618Y-15186019D01*
X14489571Y-15186019D01*
X14470523Y-15176496D01*
X14460999Y-15166972D01*
X14451475Y-15147924D01*
X14441952Y-15109829D01*
X14441952Y-15062210D01*
X14451475Y-15024115D01*
X14460999Y-15005067D01*
X14470523Y-14995543D01*
X14489571Y-14986019D01*
X14680047Y-14986019D02*
X14699094Y-14986019D01*
X14718142Y-14995543D01*
X14727666Y-15005067D01*
X14737190Y-15024115D01*
X14746714Y-15062210D01*
X14746714Y-15109829D01*
X14737190Y-15147924D01*
X14727666Y-15166972D01*
X14718142Y-15176496D01*
X14699094Y-15186019D01*
X14680047Y-15186019D01*
X14660999Y-15176496D01*
X14651475Y-15166972D01*
X14641952Y-15147924D01*
X14632428Y-15109829D01*
X14632428Y-15062210D01*
X14641952Y-15024115D01*
X14651475Y-15005067D01*
X14660999Y-14995543D01*
X14680047Y-14986019D01*
X14832428Y-15186019D02*
X14832428Y-15052686D01*
X14832428Y-15071734D02*
X14841952Y-15062210D01*
X14860999Y-15052686D01*
X14889571Y-15052686D01*
X14908618Y-15062210D01*
X14918142Y-15081257D01*
X14918142Y-15186019D01*
X14918142Y-15081257D02*
X14927666Y-15062210D01*
X14946714Y-15052686D01*
X14975285Y-15052686D01*
X14994333Y-15062210D01*
X15003856Y-15081257D01*
X15003856Y-15186019D01*
X15099094Y-15186019D02*
X15099094Y-15052686D01*
X15099094Y-15071734D02*
X15108618Y-15062210D01*
X15127666Y-15052686D01*
X15156237Y-15052686D01*
X15175285Y-15062210D01*
X15184809Y-15081257D01*
X15184809Y-15186019D01*
X15184809Y-15081257D02*
X15194333Y-15062210D01*
X15213380Y-15052686D01*
X15241952Y-15052686D01*
X15260999Y-15062210D01*
X15270523Y-15081257D01*
X15270523Y-15186019D01*
X15660999Y-14976496D02*
X15489571Y-15233638D01*
X15918142Y-14986019D02*
X15937190Y-14986019D01*
X15956237Y-14995543D01*
X15965761Y-15005067D01*
X15975285Y-15024115D01*
X15984809Y-15062210D01*
X15984809Y-15109829D01*
X15975285Y-15147924D01*
X15965761Y-15166972D01*
X15956237Y-15176496D01*
X15937190Y-15186019D01*
X15918142Y-15186019D01*
X15899094Y-15176496D01*
X15889571Y-15166972D01*
X15880047Y-15147924D01*
X15870523Y-15109829D01*
X15870523Y-15062210D01*
X15880047Y-15024115D01*
X15889571Y-15005067D01*
X15899094Y-14995543D01*
X15918142Y-14986019D01*
X16070523Y-15166972D02*
X16080047Y-15176496D01*
X16070523Y-15186019D01*
X16060999Y-15176496D01*
X16070523Y-15166972D01*
X16070523Y-15186019D01*
X16270523Y-15186019D02*
X16156237Y-15186019D01*
X16213380Y-15186019D02*
X16213380Y-14986019D01*
X16194333Y-15014591D01*
X16175285Y-15033638D01*
X16156237Y-15043162D01*
X16394333Y-14986019D02*
X16413380Y-14986019D01*
X16432428Y-14995543D01*
X16441952Y-15005067D01*
X16451475Y-15024115D01*
X16460999Y-15062210D01*
X16460999Y-15109829D01*
X16451475Y-15147924D01*
X16441952Y-15166972D01*
X16432428Y-15176496D01*
X16413380Y-15186019D01*
X16394333Y-15186019D01*
X16375285Y-15176496D01*
X16365761Y-15166972D01*
X16356237Y-15147924D01*
X16346714Y-15109829D01*
X16346714Y-15062210D01*
X16356237Y-15024115D01*
X16365761Y-15005067D01*
X16375285Y-14995543D01*
X16394333Y-14986019D01*
X16632428Y-14986019D02*
X16594333Y-14986019D01*
X16575285Y-14995543D01*
X16565761Y-15005067D01*
X16546714Y-15033638D01*
X16537190Y-15071734D01*
X16537190Y-15147924D01*
X16546714Y-15166972D01*
X16556237Y-15176496D01*
X16575285Y-15186019D01*
X16613380Y-15186019D01*
X16632428Y-15176496D01*
X16641952Y-15166972D01*
X16651475Y-15147924D01*
X16651475Y-15100305D01*
X16641952Y-15081257D01*
X16632428Y-15071734D01*
X16613380Y-15062210D01*
X16575285Y-15062210D01*
X16556237Y-15071734D01*
X16546714Y-15081257D01*
X16537190Y-15100305D01*
X16718142Y-14986019D02*
X16841952Y-14986019D01*
X16775285Y-15062210D01*
X16803856Y-15062210D01*
X16822904Y-15071734D01*
X16832428Y-15081257D01*
X16841952Y-15100305D01*
X16841952Y-15147924D01*
X16832428Y-15166972D01*
X16822904Y-15176496D01*
X16803856Y-15186019D01*
X16746714Y-15186019D01*
X16727666Y-15176496D01*
X16718142Y-15166972D01*
X16918142Y-14986019D02*
X16918142Y-15024115D01*
X16994333Y-14986019D02*
X16994333Y-15024115D01*
X17289571Y-15262210D02*
X17280047Y-15252686D01*
X17260999Y-15224115D01*
X17251476Y-15205067D01*
X17241952Y-15176496D01*
X17232428Y-15128877D01*
X17232428Y-15090781D01*
X17241952Y-15043162D01*
X17251476Y-15014591D01*
X17260999Y-14995543D01*
X17280047Y-14966972D01*
X17289571Y-14957448D01*
X17451476Y-14986019D02*
X17413380Y-14986019D01*
X17394333Y-14995543D01*
X17384809Y-15005067D01*
X17365761Y-15033638D01*
X17356237Y-15071734D01*
X17356237Y-15147924D01*
X17365761Y-15166972D01*
X17375285Y-15176496D01*
X17394333Y-15186019D01*
X17432428Y-15186019D01*
X17451476Y-15176496D01*
X17460999Y-15166972D01*
X17470523Y-15147924D01*
X17470523Y-15100305D01*
X17460999Y-15081257D01*
X17451476Y-15071734D01*
X17432428Y-15062210D01*
X17394333Y-15062210D01*
X17375285Y-15071734D01*
X17365761Y-15081257D01*
X17356237Y-15100305D01*
X17708618Y-15186019D02*
X17708618Y-14986019D01*
X17794333Y-15186019D02*
X17794333Y-15081257D01*
X17784809Y-15062210D01*
X17765761Y-15052686D01*
X17737190Y-15052686D01*
X17718142Y-15062210D01*
X17708618Y-15071734D01*
X17918142Y-15186019D02*
X17899095Y-15176496D01*
X17889571Y-15166972D01*
X17880047Y-15147924D01*
X17880047Y-15090781D01*
X17889571Y-15071734D01*
X17899095Y-15062210D01*
X17918142Y-15052686D01*
X17946714Y-15052686D01*
X17965761Y-15062210D01*
X17975285Y-15071734D01*
X17984809Y-15090781D01*
X17984809Y-15147924D01*
X17975285Y-15166972D01*
X17965761Y-15176496D01*
X17946714Y-15186019D01*
X17918142Y-15186019D01*
X18099095Y-15186019D02*
X18080047Y-15176496D01*
X18070523Y-15157448D01*
X18070523Y-14986019D01*
X18251476Y-15176496D02*
X18232428Y-15186019D01*
X18194333Y-15186019D01*
X18175285Y-15176496D01*
X18165761Y-15157448D01*
X18165761Y-15081257D01*
X18175285Y-15062210D01*
X18194333Y-15052686D01*
X18232428Y-15052686D01*
X18251476Y-15062210D01*
X18260999Y-15081257D01*
X18260999Y-15100305D01*
X18165761Y-15119353D01*
X18337190Y-15176496D02*
X18356237Y-15186019D01*
X18394333Y-15186019D01*
X18413380Y-15176496D01*
X18422904Y-15157448D01*
X18422904Y-15147924D01*
X18413380Y-15128877D01*
X18394333Y-15119353D01*
X18365761Y-15119353D01*
X18346714Y-15109829D01*
X18337190Y-15090781D01*
X18337190Y-15081257D01*
X18346714Y-15062210D01*
X18365761Y-15052686D01*
X18394333Y-15052686D01*
X18413380Y-15062210D01*
X18489571Y-15262210D02*
X18499095Y-15252686D01*
X18518142Y-15224115D01*
X18527666Y-15205067D01*
X18537190Y-15176496D01*
X18546714Y-15128877D01*
X18546714Y-15090781D01*
X18537190Y-15043162D01*
X18527666Y-15014591D01*
X18518142Y-14995543D01*
X18499095Y-14966972D01*
X18489571Y-14957448D01*
M02*
