%FSLAX45Y45*%
G04 Gerber Fmt 4.5, Leading zero omitted, Abs format (unit mm)*
G04 Created by KiCad (PCBNEW (6.0.5)) date 2022-06-01 17:00:20*
%MOMM*%
%LPD*%
G01*
G04 APERTURE LIST*
%TA.AperFunction,Profile*%
%ADD10C,0.200000*%
%TD*%
%ADD11C,0.200000*%
%ADD12C,0.040000*%
%ADD13C,0.060000*%
%ADD14C,0.092000*%
%ADD15C,0.099000*%
%ADD16C,0.130000*%
%ADD17C,0.230000*%
%ADD18C,0.270000*%
%ADD19C,0.300000*%
G04 APERTURE END LIST*
D10*
X13960467Y-13830467D02*
G75*
G03*
X14470467Y-12680467I-1307237J1267817D01*
G01*
X14450467Y-16100467D02*
X13670000Y-14750000D01*
X25320467Y-15510469D02*
G75*
G03*
X26270467Y-14570467I30213J919519D01*
G01*
X15540233Y-5900000D02*
X25219767Y-5900000D01*
X15146750Y-16303012D02*
X16134726Y-15732115D01*
X26270467Y-14570467D02*
X26279767Y-6960000D01*
X13960467Y-13830467D02*
G75*
G03*
X13670000Y-14750000I566397J-684560D01*
G01*
X26279770Y-6960000D02*
G75*
G03*
X25219767Y-5900000I-1060010J-10D01*
G01*
X14470467Y-12680467D02*
X14480233Y-6960000D01*
X16790467Y-15520467D02*
X25320467Y-15510467D01*
X15540233Y-5900003D02*
G75*
G03*
X14480233Y-6960000I-3J-1059997D01*
G01*
X16790467Y-15520468D02*
G75*
G03*
X16134726Y-15732115I55013J-1292102D01*
G01*
X14450470Y-16100465D02*
G75*
G03*
X15146750Y-16303012I439470J212685D01*
G01*
D11*
D12*
X15620000Y-9510000D02*
X15660000Y-9550000D01*
X15660000Y-9510000D02*
X15620000Y-9550000D01*
X15710000Y-14970000D02*
X15750000Y-15010000D01*
X15750000Y-14970000D02*
X15710000Y-15010000D01*
X16210000Y-6800000D02*
X16250000Y-6840000D01*
X16250000Y-6800000D02*
X16210000Y-6840000D01*
X16390000Y-7170000D02*
X16430000Y-7210000D01*
X16430000Y-7170000D02*
X16390000Y-7210000D01*
X16470000Y-7350000D02*
X16510000Y-7390000D01*
X16510000Y-7350000D02*
X16470000Y-7390000D01*
X16500000Y-7540000D02*
X16540000Y-7580000D01*
X16540000Y-7540000D02*
X16500000Y-7580000D01*
X16570000Y-8310000D02*
X16610000Y-8350000D01*
X16610000Y-8310000D02*
X16570000Y-8350000D01*
X16660000Y-7290000D02*
X16700000Y-7330000D01*
X16700000Y-7290000D02*
X16660000Y-7330000D01*
X16720000Y-11620000D02*
X16760000Y-11660000D01*
X16760000Y-11620000D02*
X16720000Y-11660000D01*
X16790000Y-7260000D02*
X16830000Y-7300000D01*
X16830000Y-7260000D02*
X16790000Y-7300000D01*
X16876737Y-8446121D02*
X16916737Y-8486121D01*
X16916737Y-8446121D02*
X16876737Y-8486121D01*
X16910000Y-8030000D02*
X16950000Y-8070000D01*
X16950000Y-8030000D02*
X16910000Y-8070000D01*
X16920000Y-7570000D02*
X16960000Y-7610000D01*
X16960000Y-7570000D02*
X16920000Y-7610000D01*
X17050000Y-11620000D02*
X17090000Y-11660000D01*
X17090000Y-11620000D02*
X17050000Y-11660000D01*
X17100000Y-8220000D02*
X17140000Y-8260000D01*
X17140000Y-8220000D02*
X17100000Y-8260000D01*
X17250000Y-8030000D02*
X17290000Y-8070000D01*
X17290000Y-8030000D02*
X17250000Y-8070000D01*
X17272868Y-8320900D02*
X17312868Y-8360900D01*
X17312868Y-8320900D02*
X17272868Y-8360900D01*
X17380000Y-8230000D02*
X17420000Y-8270000D01*
X17420000Y-8230000D02*
X17380000Y-8270000D01*
X17435026Y-7854974D02*
X17475026Y-7894974D01*
X17475026Y-7854974D02*
X17435026Y-7894974D01*
X17540000Y-12210000D02*
X17580000Y-12250000D01*
X17580000Y-12210000D02*
X17540000Y-12250000D01*
X17625382Y-8654618D02*
X17665382Y-8694618D01*
X17665382Y-8654618D02*
X17625382Y-8694618D01*
X17670000Y-8490000D02*
X17710000Y-8530000D01*
X17710000Y-8490000D02*
X17670000Y-8530000D01*
X17680000Y-10050000D02*
X17720000Y-10090000D01*
X17720000Y-10050000D02*
X17680000Y-10090000D01*
X17732158Y-8407842D02*
X17772158Y-8447842D01*
X17772158Y-8407842D02*
X17732158Y-8447842D01*
X17820000Y-11812450D02*
X17860000Y-11852450D01*
X17860000Y-11812450D02*
X17820000Y-11852450D01*
X18000000Y-6190000D02*
X18040000Y-6230000D01*
X18040000Y-6190000D02*
X18000000Y-6230000D01*
X18050000Y-6490000D02*
X18090000Y-6530000D01*
X18090000Y-6490000D02*
X18050000Y-6530000D01*
X18057550Y-8460000D02*
X18097550Y-8500000D01*
X18097550Y-8460000D02*
X18057550Y-8500000D01*
X18100000Y-14170000D02*
X18140000Y-14210000D01*
X18140000Y-14170000D02*
X18100000Y-14210000D01*
X18210000Y-8370000D02*
X18250000Y-8410000D01*
X18250000Y-8370000D02*
X18210000Y-8410000D01*
X18270000Y-13330000D02*
X18310000Y-13370000D01*
X18310000Y-13330000D02*
X18270000Y-13370000D01*
X18310000Y-11500000D02*
X18350000Y-11540000D01*
X18350000Y-11500000D02*
X18310000Y-11540000D01*
X18560000Y-9360000D02*
X18600000Y-9400000D01*
X18600000Y-9360000D02*
X18560000Y-9400000D01*
X18620000Y-7540000D02*
X18660000Y-7580000D01*
X18660000Y-7540000D02*
X18620000Y-7580000D01*
X18620000Y-14660000D02*
X18660000Y-14700000D01*
X18660000Y-14660000D02*
X18620000Y-14700000D01*
X18630000Y-12990000D02*
X18670000Y-13030000D01*
X18670000Y-12990000D02*
X18630000Y-13030000D01*
X18690000Y-11240000D02*
X18730000Y-11280000D01*
X18730000Y-11240000D02*
X18690000Y-11280000D01*
X19130000Y-13250000D02*
X19170000Y-13290000D01*
X19170000Y-13250000D02*
X19130000Y-13290000D01*
X19150000Y-9570000D02*
X19190000Y-9610000D01*
X19190000Y-9570000D02*
X19150000Y-9610000D01*
X19720000Y-11490000D02*
X19760000Y-11530000D01*
X19760000Y-11490000D02*
X19720000Y-11530000D01*
X19740000Y-9770000D02*
X19780000Y-9810000D01*
X19780000Y-9770000D02*
X19740000Y-9810000D01*
X19780000Y-7790000D02*
X19820000Y-7830000D01*
X19820000Y-7790000D02*
X19780000Y-7830000D01*
X20160000Y-9570000D02*
X20200000Y-9610000D01*
X20200000Y-9570000D02*
X20160000Y-9610000D01*
X20280000Y-13250000D02*
X20320000Y-13290000D01*
X20320000Y-13250000D02*
X20280000Y-13290000D01*
X20360000Y-9290000D02*
X20400000Y-9330000D01*
X20400000Y-9290000D02*
X20360000Y-9330000D01*
X20360000Y-11280000D02*
X20400000Y-11320000D01*
X20400000Y-11280000D02*
X20360000Y-11320000D01*
X20420000Y-7490000D02*
X20460000Y-7530000D01*
X20460000Y-7490000D02*
X20420000Y-7530000D01*
X20460000Y-14640000D02*
X20500000Y-14680000D01*
X20500000Y-14640000D02*
X20460000Y-14680000D01*
X20470000Y-9460000D02*
X20510000Y-9500000D01*
X20510000Y-9460000D02*
X20470000Y-9500000D01*
X20470000Y-12960000D02*
X20510000Y-13000000D01*
X20510000Y-12960000D02*
X20470000Y-13000000D01*
X20510000Y-13140000D02*
X20550000Y-13180000D01*
X20550000Y-13140000D02*
X20510000Y-13180000D01*
X21610000Y-6240000D02*
X21650000Y-6280000D01*
X21650000Y-6240000D02*
X21610000Y-6280000D01*
X22020000Y-9570000D02*
X22060000Y-9610000D01*
X22060000Y-9570000D02*
X22020000Y-9610000D01*
X22200000Y-13297550D02*
X22240000Y-13337550D01*
X22240000Y-13297550D02*
X22200000Y-13337550D01*
X22210000Y-11270000D02*
X22250000Y-11310000D01*
X22250000Y-11270000D02*
X22210000Y-11310000D01*
X22230000Y-9270000D02*
X22270000Y-9310000D01*
X22270000Y-9270000D02*
X22230000Y-9310000D01*
X22280000Y-7510000D02*
X22320000Y-7550000D01*
X22320000Y-7510000D02*
X22280000Y-7550000D01*
X22290000Y-12990000D02*
X22330000Y-13030000D01*
X22330000Y-12990000D02*
X22290000Y-13030000D01*
X22290000Y-14640000D02*
X22330000Y-14680000D01*
X22330000Y-14640000D02*
X22290000Y-14680000D01*
X22320000Y-9490000D02*
X22360000Y-9530000D01*
X22360000Y-9490000D02*
X22320000Y-9530000D01*
X22430000Y-13200000D02*
X22470000Y-13240000D01*
X22470000Y-13200000D02*
X22430000Y-13240000D01*
X23060000Y-11070000D02*
X23100000Y-11110000D01*
X23100000Y-11070000D02*
X23060000Y-11110000D01*
X23130000Y-7520000D02*
X23170000Y-7560000D01*
X23170000Y-7520000D02*
X23130000Y-7560000D01*
X23540000Y-11210000D02*
X23580000Y-11250000D01*
X23580000Y-11210000D02*
X23540000Y-11250000D01*
X23590000Y-9650000D02*
X23630000Y-9690000D01*
X23630000Y-9650000D02*
X23590000Y-9690000D01*
X23720000Y-10600000D02*
X23760000Y-10640000D01*
X23760000Y-10600000D02*
X23720000Y-10640000D01*
X23740000Y-9730000D02*
X23780000Y-9770000D01*
X23780000Y-9730000D02*
X23740000Y-9770000D01*
X23810000Y-8950000D02*
X23850000Y-8990000D01*
X23850000Y-8950000D02*
X23810000Y-8990000D01*
X23970000Y-10150000D02*
X24010000Y-10190000D01*
X24010000Y-10150000D02*
X23970000Y-10190000D01*
X23990000Y-8940000D02*
X24030000Y-8980000D01*
X24030000Y-8940000D02*
X23990000Y-8980000D01*
X24016230Y-10616230D02*
X24056230Y-10656230D01*
X24056230Y-10616230D02*
X24016230Y-10656230D01*
X24023770Y-7173770D02*
X24063770Y-7213770D01*
X24063770Y-7173770D02*
X24023770Y-7213770D01*
X24030000Y-11880000D02*
X24070000Y-11920000D01*
X24070000Y-11880000D02*
X24030000Y-11920000D01*
X24080000Y-10490000D02*
X24120000Y-10530000D01*
X24120000Y-10490000D02*
X24080000Y-10530000D01*
X24200000Y-7480000D02*
X24240000Y-7520000D01*
X24240000Y-7480000D02*
X24200000Y-7520000D01*
X24280000Y-9000000D02*
X24320000Y-9040000D01*
X24320000Y-9000000D02*
X24280000Y-9040000D01*
X24360000Y-7070000D02*
X24400000Y-7110000D01*
X24400000Y-7070000D02*
X24360000Y-7110000D01*
X24390000Y-7180000D02*
X24430000Y-7220000D01*
X24430000Y-7180000D02*
X24390000Y-7220000D01*
X24440000Y-6890000D02*
X24480000Y-6930000D01*
X24480000Y-6890000D02*
X24440000Y-6930000D01*
X24492973Y-6805242D02*
X24532973Y-6845242D01*
X24532973Y-6805242D02*
X24492973Y-6845242D01*
X24510000Y-7690000D02*
X24550000Y-7730000D01*
X24550000Y-7690000D02*
X24510000Y-7730000D01*
X24550000Y-8390000D02*
X24590000Y-8430000D01*
X24590000Y-8390000D02*
X24550000Y-8430000D01*
X24550000Y-8922450D02*
X24590000Y-8962450D01*
X24590000Y-8922450D02*
X24550000Y-8962450D01*
X24590000Y-7860000D02*
X24630000Y-7900000D01*
X24630000Y-7860000D02*
X24590000Y-7900000D01*
X24620000Y-7250000D02*
X24660000Y-7290000D01*
X24660000Y-7250000D02*
X24620000Y-7290000D01*
X24720000Y-7070000D02*
X24760000Y-7110000D01*
X24760000Y-7070000D02*
X24720000Y-7110000D01*
X24770000Y-12220000D02*
X24810000Y-12260000D01*
X24810000Y-12220000D02*
X24770000Y-12260000D01*
X24780000Y-11750000D02*
X24820000Y-11790000D01*
X24820000Y-11750000D02*
X24780000Y-11790000D01*
X24790000Y-9910000D02*
X24830000Y-9950000D01*
X24830000Y-9910000D02*
X24790000Y-9950000D01*
X24840000Y-6890000D02*
X24880000Y-6930000D01*
X24880000Y-6890000D02*
X24840000Y-6930000D01*
X24840000Y-7150000D02*
X24880000Y-7190000D01*
X24880000Y-7150000D02*
X24840000Y-7190000D01*
X24850000Y-6370000D02*
X24890000Y-6410000D01*
X24890000Y-6370000D02*
X24850000Y-6410000D01*
X24930000Y-7430000D02*
X24970000Y-7470000D01*
X24970000Y-7430000D02*
X24930000Y-7470000D01*
X24970000Y-10350000D02*
X25010000Y-10390000D01*
X25010000Y-10350000D02*
X24970000Y-10390000D01*
X24980000Y-9960000D02*
X25020000Y-10000000D01*
X25020000Y-9960000D02*
X24980000Y-10000000D01*
X24990000Y-8930000D02*
X25030000Y-8970000D01*
X25030000Y-8930000D02*
X24990000Y-8970000D01*
X25010000Y-6840000D02*
X25050000Y-6880000D01*
X25050000Y-6840000D02*
X25010000Y-6880000D01*
X25010000Y-7330000D02*
X25050000Y-7370000D01*
X25050000Y-7330000D02*
X25010000Y-7370000D01*
X25020000Y-8740000D02*
X25060000Y-8780000D01*
X25060000Y-8740000D02*
X25020000Y-8780000D01*
X25050000Y-7610000D02*
X25090000Y-7650000D01*
X25090000Y-7610000D02*
X25050000Y-7650000D01*
X25060000Y-7430000D02*
X25100000Y-7470000D01*
X25100000Y-7430000D02*
X25060000Y-7470000D01*
X25150000Y-7940000D02*
X25190000Y-7980000D01*
X25190000Y-7940000D02*
X25150000Y-7980000D01*
X25160000Y-10020000D02*
X25200000Y-10060000D01*
X25200000Y-10020000D02*
X25160000Y-10060000D01*
X25180000Y-7040000D02*
X25220000Y-7080000D01*
X25220000Y-7040000D02*
X25180000Y-7080000D01*
X25200000Y-9000000D02*
X25240000Y-9040000D01*
X25240000Y-9000000D02*
X25200000Y-9040000D01*
X25210000Y-8760000D02*
X25250000Y-8800000D01*
X25250000Y-8760000D02*
X25210000Y-8800000D01*
X25210000Y-9520000D02*
X25250000Y-9560000D01*
X25250000Y-9520000D02*
X25210000Y-9560000D01*
X25220000Y-11380000D02*
X25260000Y-11420000D01*
X25260000Y-11380000D02*
X25220000Y-11420000D01*
X25280000Y-7030000D02*
X25320000Y-7070000D01*
X25320000Y-7030000D02*
X25280000Y-7070000D01*
X25280000Y-7960000D02*
X25320000Y-8000000D01*
X25320000Y-7960000D02*
X25280000Y-8000000D01*
X25340000Y-7330000D02*
X25380000Y-7370000D01*
X25380000Y-7330000D02*
X25340000Y-7370000D01*
X25400000Y-6370000D02*
X25440000Y-6410000D01*
X25440000Y-6370000D02*
X25400000Y-6410000D01*
X25400000Y-6800000D02*
X25440000Y-6840000D01*
X25440000Y-6800000D02*
X25400000Y-6840000D01*
X25520000Y-7260000D02*
X25560000Y-7300000D01*
X25560000Y-7260000D02*
X25520000Y-7300000D01*
X25560000Y-7820000D02*
X25600000Y-7860000D01*
X25600000Y-7820000D02*
X25560000Y-7860000D01*
X25728770Y-6451230D02*
X25768770Y-6491230D01*
X25768770Y-6451230D02*
X25728770Y-6491230D01*
X25730000Y-6230000D02*
X25770000Y-6270000D01*
X25770000Y-6230000D02*
X25730000Y-6270000D01*
X25738770Y-7988770D02*
X25778770Y-8028770D01*
X25778770Y-7988770D02*
X25738770Y-8028770D01*
X25740000Y-6130000D02*
X25780000Y-6170000D01*
X25780000Y-6130000D02*
X25740000Y-6170000D01*
X25741230Y-7638770D02*
X25781230Y-7678770D01*
X25781230Y-7638770D02*
X25741230Y-7678770D01*
X25860000Y-7970000D02*
X25900000Y-8010000D01*
X25900000Y-7970000D02*
X25860000Y-8010000D01*
X25891230Y-8231230D02*
X25931230Y-8271230D01*
X25931230Y-8231230D02*
X25891230Y-8271230D01*
X25919638Y-7597902D02*
X25959638Y-7637902D01*
X25959638Y-7597902D02*
X25919638Y-7637902D01*
X25920000Y-7810000D02*
X25960000Y-7850000D01*
X25960000Y-7810000D02*
X25920000Y-7850000D01*
X26050000Y-8020000D02*
X26090000Y-8060000D01*
X26090000Y-8020000D02*
X26050000Y-8060000D01*
X26130000Y-8270000D02*
X26170000Y-8310000D01*
X26170000Y-8270000D02*
X26130000Y-8310000D01*
X26150000Y-7970000D02*
X26190000Y-8010000D01*
X26190000Y-7970000D02*
X26150000Y-8010000D01*
D13*
X16068000Y-6166000D02*
G75*
G03*
X16068000Y-6166000I-30000J0D01*
G01*
D11*
X16018000Y-6126000D02*
X16018000Y-6206000D01*
X16058000Y-6126000D02*
X16058000Y-6206000D01*
X16018000Y-6206000D02*
G75*
G03*
X16058000Y-6206000I20000J0D01*
G01*
X16058000Y-6126000D02*
G75*
G03*
X16018000Y-6126000I-20000J0D01*
G01*
D13*
X16068000Y-6583000D02*
G75*
G03*
X16068000Y-6583000I-30000J0D01*
G01*
D11*
X16018000Y-6528000D02*
X16018000Y-6638000D01*
X16058000Y-6528000D02*
X16058000Y-6638000D01*
X16018000Y-6638000D02*
G75*
G03*
X16058000Y-6638000I20000J0D01*
G01*
X16058000Y-6528000D02*
G75*
G03*
X16018000Y-6528000I-20000J0D01*
G01*
D13*
X16932000Y-6166000D02*
G75*
G03*
X16932000Y-6166000I-30000J0D01*
G01*
D11*
X16882000Y-6126000D02*
X16882000Y-6206000D01*
X16922000Y-6126000D02*
X16922000Y-6206000D01*
X16882000Y-6206000D02*
G75*
G03*
X16922000Y-6206000I20000J0D01*
G01*
X16922000Y-6126000D02*
G75*
G03*
X16882000Y-6126000I-20000J0D01*
G01*
D13*
X16932000Y-6583000D02*
G75*
G03*
X16932000Y-6583000I-30000J0D01*
G01*
D11*
X16882000Y-6528000D02*
X16882000Y-6638000D01*
X16922000Y-6528000D02*
X16922000Y-6638000D01*
X16882000Y-6638000D02*
G75*
G03*
X16922000Y-6638000I20000J0D01*
G01*
X16922000Y-6528000D02*
G75*
G03*
X16882000Y-6528000I-20000J0D01*
G01*
D14*
X15809000Y-9554000D02*
X15809000Y-9646000D01*
X15763000Y-9600000D02*
X15855000Y-9600000D01*
X15809000Y-9804000D02*
X15809000Y-9896000D01*
X15763000Y-9850000D02*
X15855000Y-9850000D01*
X15809000Y-10004000D02*
X15809000Y-10096000D01*
X15763000Y-10050000D02*
X15855000Y-10050000D01*
X15809000Y-10254000D02*
X15809000Y-10346000D01*
X15763000Y-10300000D02*
X15855000Y-10300000D01*
X15809000Y-11714000D02*
X15809000Y-11806000D01*
X15763000Y-11760000D02*
X15855000Y-11760000D01*
X15809000Y-11964000D02*
X15809000Y-12056000D01*
X15763000Y-12010000D02*
X15855000Y-12010000D01*
X15809000Y-12164000D02*
X15809000Y-12256000D01*
X15763000Y-12210000D02*
X15855000Y-12210000D01*
X15809000Y-12414000D02*
X15809000Y-12506000D01*
X15763000Y-12460000D02*
X15855000Y-12460000D01*
X15819000Y-7414000D02*
X15819000Y-7506000D01*
X15773000Y-7460000D02*
X15865000Y-7460000D01*
X15819000Y-7664000D02*
X15819000Y-7756000D01*
X15773000Y-7710000D02*
X15865000Y-7710000D01*
X15819000Y-7864000D02*
X15819000Y-7956000D01*
X15773000Y-7910000D02*
X15865000Y-7910000D01*
X15819000Y-8114000D02*
X15819000Y-8206000D01*
X15773000Y-8160000D02*
X15865000Y-8160000D01*
D15*
X24823752Y-13902502D02*
X24823752Y-13832498D01*
X24753748Y-13832498D01*
X24753748Y-13902502D01*
X24823752Y-13902502D01*
X24823752Y-14402502D02*
X24823752Y-14332498D01*
X24753748Y-14332498D01*
X24753748Y-14402502D01*
X24823752Y-14402502D01*
D16*
X24539750Y-13832500D02*
X24604750Y-13767500D01*
X24539750Y-13702500D01*
X24474750Y-13767500D01*
X24539750Y-13832500D01*
X24539750Y-14533500D02*
X24604750Y-14468500D01*
X24539750Y-14403500D01*
X24474750Y-14468500D01*
X24539750Y-14533500D01*
D17*
X15423000Y-9178000D02*
X15653000Y-9408000D01*
X15653000Y-9178000D02*
X15423000Y-9408000D01*
X15653000Y-9293000D02*
G75*
G03*
X15653000Y-9293000I-115000J0D01*
G01*
X15423000Y-10492000D02*
X15653000Y-10722000D01*
X15653000Y-10492000D02*
X15423000Y-10722000D01*
X15653000Y-10607000D02*
G75*
G03*
X15653000Y-10607000I-115000J0D01*
G01*
X15423000Y-11338000D02*
X15653000Y-11568000D01*
X15653000Y-11338000D02*
X15423000Y-11568000D01*
X15653000Y-11453000D02*
G75*
G03*
X15653000Y-11453000I-115000J0D01*
G01*
X15423000Y-12652000D02*
X15653000Y-12882000D01*
X15653000Y-12652000D02*
X15423000Y-12882000D01*
X15653000Y-12767000D02*
G75*
G03*
X15653000Y-12767000I-115000J0D01*
G01*
X15433000Y-7038000D02*
X15663000Y-7268000D01*
X15663000Y-7038000D02*
X15433000Y-7268000D01*
X15663000Y-7153000D02*
G75*
G03*
X15663000Y-7153000I-115000J0D01*
G01*
X15433000Y-8352000D02*
X15663000Y-8582000D01*
X15663000Y-8352000D02*
X15433000Y-8582000D01*
X15663000Y-8467000D02*
G75*
G03*
X15663000Y-8467000I-115000J0D01*
G01*
D18*
X14905000Y-13035000D02*
X15175000Y-13305000D01*
X15175000Y-13035000D02*
X14905000Y-13305000D01*
X15040000Y-13035000D02*
X15040000Y-13305000D01*
X14905000Y-13170000D02*
X15175000Y-13170000D01*
X16145000Y-8375000D02*
X16415000Y-8645000D01*
X16415000Y-8375000D02*
X16145000Y-8645000D01*
X16280000Y-8375000D02*
X16280000Y-8645000D01*
X16145000Y-8510000D02*
X16415000Y-8510000D01*
X17645467Y-12665467D02*
X17915467Y-12935467D01*
X17915467Y-12665467D02*
X17645467Y-12935467D01*
X17780467Y-12665467D02*
X17780467Y-12935467D01*
X17645467Y-12800467D02*
X17915467Y-12800467D01*
X23895000Y-6565000D02*
X24165000Y-6835000D01*
X24165000Y-6565000D02*
X23895000Y-6835000D01*
X24030000Y-6565000D02*
X24030000Y-6835000D01*
X23895000Y-6700000D02*
X24165000Y-6700000D01*
X24145467Y-12885467D02*
X24415467Y-13155467D01*
X24415467Y-12885467D02*
X24145467Y-13155467D01*
X24280467Y-12885467D02*
X24280467Y-13155467D01*
X24145467Y-13020467D02*
X24415467Y-13020467D01*
X25735000Y-10295000D02*
X26005000Y-10565000D01*
X26005000Y-10295000D02*
X25735000Y-10565000D01*
X25870000Y-10295000D02*
X25870000Y-10565000D01*
X25735000Y-10430000D02*
X26005000Y-10430000D01*
D19*
X15296549Y-14157673D02*
X15596549Y-14457673D01*
X15596549Y-14157673D02*
X15296549Y-14457673D01*
X15552616Y-14413740D02*
X15552616Y-14201606D01*
X15340482Y-14201606D01*
X15340482Y-14413740D01*
X15552616Y-14413740D01*
X15719475Y-13620203D02*
X16019475Y-13920203D01*
X16019475Y-13620203D02*
X15719475Y-13920203D01*
X15975542Y-13876270D02*
X15975542Y-13664136D01*
X15763408Y-13664136D01*
X15763408Y-13876270D01*
X15975542Y-13876270D01*
X16799000Y-9346000D02*
X17099000Y-9646000D01*
X17099000Y-9346000D02*
X16799000Y-9646000D01*
X17055067Y-9602067D02*
X17055067Y-9389933D01*
X16842933Y-9389933D01*
X16842933Y-9602067D01*
X17055067Y-9602067D01*
X16808500Y-11046000D02*
X17108500Y-11346000D01*
X17108500Y-11046000D02*
X16808500Y-11346000D01*
X17064567Y-11302067D02*
X17064567Y-11089933D01*
X16852433Y-11089933D01*
X16852433Y-11302067D01*
X17064567Y-11302067D01*
X17434000Y-9092000D02*
X17734000Y-9392000D01*
X17734000Y-9092000D02*
X17434000Y-9392000D01*
X17690067Y-9348067D02*
X17690067Y-9135933D01*
X17477933Y-9135933D01*
X17477933Y-9348067D01*
X17690067Y-9348067D01*
X17443500Y-10792000D02*
X17743500Y-11092000D01*
X17743500Y-10792000D02*
X17443500Y-11092000D01*
X17699567Y-11048067D02*
X17699567Y-10835933D01*
X17487433Y-10835933D01*
X17487433Y-11048067D01*
X17699567Y-11048067D01*
X18599000Y-6666000D02*
X18899000Y-6966000D01*
X18899000Y-6666000D02*
X18599000Y-6966000D01*
X18855067Y-6922067D02*
X18855067Y-6709933D01*
X18642933Y-6709933D01*
X18642933Y-6922067D01*
X18855067Y-6922067D01*
X18599000Y-8426000D02*
X18899000Y-8726000D01*
X18899000Y-8426000D02*
X18599000Y-8726000D01*
X18855067Y-8682067D02*
X18855067Y-8469933D01*
X18642933Y-8469933D01*
X18642933Y-8682067D01*
X18855067Y-8682067D01*
X18599000Y-10406000D02*
X18899000Y-10706000D01*
X18899000Y-10406000D02*
X18599000Y-10706000D01*
X18855067Y-10662067D02*
X18855067Y-10449933D01*
X18642933Y-10449933D01*
X18642933Y-10662067D01*
X18855067Y-10662067D01*
X18599000Y-12106000D02*
X18899000Y-12406000D01*
X18899000Y-12106000D02*
X18599000Y-12406000D01*
X18855067Y-12362067D02*
X18855067Y-12149933D01*
X18642933Y-12149933D01*
X18642933Y-12362067D01*
X18855067Y-12362067D01*
X18599000Y-13806000D02*
X18899000Y-14106000D01*
X18899000Y-13806000D02*
X18599000Y-14106000D01*
X18855067Y-14062067D02*
X18855067Y-13849933D01*
X18642933Y-13849933D01*
X18642933Y-14062067D01*
X18855067Y-14062067D01*
X19234000Y-6412000D02*
X19534000Y-6712000D01*
X19534000Y-6412000D02*
X19234000Y-6712000D01*
X19490067Y-6668067D02*
X19490067Y-6455933D01*
X19277933Y-6455933D01*
X19277933Y-6668067D01*
X19490067Y-6668067D01*
X19234000Y-8172000D02*
X19534000Y-8472000D01*
X19534000Y-8172000D02*
X19234000Y-8472000D01*
X19490067Y-8428067D02*
X19490067Y-8215933D01*
X19277933Y-8215933D01*
X19277933Y-8428067D01*
X19490067Y-8428067D01*
X19234000Y-10152000D02*
X19534000Y-10452000D01*
X19534000Y-10152000D02*
X19234000Y-10452000D01*
X19490067Y-10408067D02*
X19490067Y-10195933D01*
X19277933Y-10195933D01*
X19277933Y-10408067D01*
X19490067Y-10408067D01*
X19234000Y-11852000D02*
X19534000Y-12152000D01*
X19534000Y-11852000D02*
X19234000Y-12152000D01*
X19490067Y-12108067D02*
X19490067Y-11895933D01*
X19277933Y-11895933D01*
X19277933Y-12108067D01*
X19490067Y-12108067D01*
X19234000Y-13552000D02*
X19534000Y-13852000D01*
X19534000Y-13552000D02*
X19234000Y-13852000D01*
X19490067Y-13808067D02*
X19490067Y-13595933D01*
X19277933Y-13595933D01*
X19277933Y-13808067D01*
X19490067Y-13808067D01*
X20399000Y-6666000D02*
X20699000Y-6966000D01*
X20699000Y-6666000D02*
X20399000Y-6966000D01*
X20655067Y-6922067D02*
X20655067Y-6709933D01*
X20442933Y-6709933D01*
X20442933Y-6922067D01*
X20655067Y-6922067D01*
X20399000Y-8426000D02*
X20699000Y-8726000D01*
X20699000Y-8426000D02*
X20399000Y-8726000D01*
X20655067Y-8682067D02*
X20655067Y-8469933D01*
X20442933Y-8469933D01*
X20442933Y-8682067D01*
X20655067Y-8682067D01*
X20399000Y-10406000D02*
X20699000Y-10706000D01*
X20699000Y-10406000D02*
X20399000Y-10706000D01*
X20655067Y-10662067D02*
X20655067Y-10449933D01*
X20442933Y-10449933D01*
X20442933Y-10662067D01*
X20655067Y-10662067D01*
X20399000Y-12106000D02*
X20699000Y-12406000D01*
X20699000Y-12106000D02*
X20399000Y-12406000D01*
X20655067Y-12362067D02*
X20655067Y-12149933D01*
X20442933Y-12149933D01*
X20442933Y-12362067D01*
X20655067Y-12362067D01*
X20399000Y-13806000D02*
X20699000Y-14106000D01*
X20699000Y-13806000D02*
X20399000Y-14106000D01*
X20655067Y-14062067D02*
X20655067Y-13849933D01*
X20442933Y-13849933D01*
X20442933Y-14062067D01*
X20655067Y-14062067D01*
X21034000Y-6412000D02*
X21334000Y-6712000D01*
X21334000Y-6412000D02*
X21034000Y-6712000D01*
X21290067Y-6668067D02*
X21290067Y-6455933D01*
X21077933Y-6455933D01*
X21077933Y-6668067D01*
X21290067Y-6668067D01*
X21034000Y-8172000D02*
X21334000Y-8472000D01*
X21334000Y-8172000D02*
X21034000Y-8472000D01*
X21290067Y-8428067D02*
X21290067Y-8215933D01*
X21077933Y-8215933D01*
X21077933Y-8428067D01*
X21290067Y-8428067D01*
X21034000Y-10152000D02*
X21334000Y-10452000D01*
X21334000Y-10152000D02*
X21034000Y-10452000D01*
X21290067Y-10408067D02*
X21290067Y-10195933D01*
X21077933Y-10195933D01*
X21077933Y-10408067D01*
X21290067Y-10408067D01*
X21034000Y-11852000D02*
X21334000Y-12152000D01*
X21334000Y-11852000D02*
X21034000Y-12152000D01*
X21290067Y-12108067D02*
X21290067Y-11895933D01*
X21077933Y-11895933D01*
X21077933Y-12108067D01*
X21290067Y-12108067D01*
X21034000Y-13552000D02*
X21334000Y-13852000D01*
X21334000Y-13552000D02*
X21034000Y-13852000D01*
X21290067Y-13808067D02*
X21290067Y-13595933D01*
X21077933Y-13595933D01*
X21077933Y-13808067D01*
X21290067Y-13808067D01*
X22177500Y-13806000D02*
X22477500Y-14106000D01*
X22477500Y-13806000D02*
X22177500Y-14106000D01*
X22433567Y-14062067D02*
X22433567Y-13849933D01*
X22221433Y-13849933D01*
X22221433Y-14062067D01*
X22433567Y-14062067D01*
X22199000Y-6666000D02*
X22499000Y-6966000D01*
X22499000Y-6666000D02*
X22199000Y-6966000D01*
X22455067Y-6922067D02*
X22455067Y-6709933D01*
X22242933Y-6709933D01*
X22242933Y-6922067D01*
X22455067Y-6922067D01*
X22199000Y-8426000D02*
X22499000Y-8726000D01*
X22499000Y-8426000D02*
X22199000Y-8726000D01*
X22455067Y-8682067D02*
X22455067Y-8469933D01*
X22242933Y-8469933D01*
X22242933Y-8682067D01*
X22455067Y-8682067D01*
X22199000Y-10406000D02*
X22499000Y-10706000D01*
X22499000Y-10406000D02*
X22199000Y-10706000D01*
X22455067Y-10662067D02*
X22455067Y-10449933D01*
X22242933Y-10449933D01*
X22242933Y-10662067D01*
X22455067Y-10662067D01*
X22199000Y-12106000D02*
X22499000Y-12406000D01*
X22499000Y-12106000D02*
X22199000Y-12406000D01*
X22455067Y-12362067D02*
X22455067Y-12149933D01*
X22242933Y-12149933D01*
X22242933Y-12362067D01*
X22455067Y-12362067D01*
X22812500Y-13552000D02*
X23112500Y-13852000D01*
X23112500Y-13552000D02*
X22812500Y-13852000D01*
X23068567Y-13808067D02*
X23068567Y-13595933D01*
X22856433Y-13595933D01*
X22856433Y-13808067D01*
X23068567Y-13808067D01*
X22834000Y-6412000D02*
X23134000Y-6712000D01*
X23134000Y-6412000D02*
X22834000Y-6712000D01*
X23090067Y-6668067D02*
X23090067Y-6455933D01*
X22877933Y-6455933D01*
X22877933Y-6668067D01*
X23090067Y-6668067D01*
X22834000Y-8172000D02*
X23134000Y-8472000D01*
X23134000Y-8172000D02*
X22834000Y-8472000D01*
X23090067Y-8428067D02*
X23090067Y-8215933D01*
X22877933Y-8215933D01*
X22877933Y-8428067D01*
X23090067Y-8428067D01*
X22834000Y-10152000D02*
X23134000Y-10452000D01*
X23134000Y-10152000D02*
X22834000Y-10452000D01*
X23090067Y-10408067D02*
X23090067Y-10195933D01*
X22877933Y-10195933D01*
X22877933Y-10408067D01*
X23090067Y-10408067D01*
X22834000Y-11852000D02*
X23134000Y-12152000D01*
X23134000Y-11852000D02*
X22834000Y-12152000D01*
X23090067Y-12108067D02*
X23090067Y-11895933D01*
X22877933Y-11895933D01*
X22877933Y-12108067D01*
X23090067Y-12108067D01*
X23992500Y-11046000D02*
X24292500Y-11346000D01*
X24292500Y-11046000D02*
X23992500Y-11346000D01*
X24248567Y-11302067D02*
X24248567Y-11089933D01*
X24036433Y-11089933D01*
X24036433Y-11302067D01*
X24248567Y-11302067D01*
X23999000Y-9346000D02*
X24299000Y-9646000D01*
X24299000Y-9346000D02*
X23999000Y-9646000D01*
X24255067Y-9602067D02*
X24255067Y-9389933D01*
X24042933Y-9389933D01*
X24042933Y-9602067D01*
X24255067Y-9602067D01*
X24627500Y-10792000D02*
X24927500Y-11092000D01*
X24927500Y-10792000D02*
X24627500Y-11092000D01*
X24883567Y-11048067D02*
X24883567Y-10835933D01*
X24671433Y-10835933D01*
X24671433Y-11048067D01*
X24883567Y-11048067D01*
X24634000Y-9092000D02*
X24934000Y-9392000D01*
X24934000Y-9092000D02*
X24634000Y-9392000D01*
X24890067Y-9348067D02*
X24890067Y-9135933D01*
X24677933Y-9135933D01*
X24677933Y-9348067D01*
X24890067Y-9348067D01*
D11*
X13885985Y-16696487D02*
X13885985Y-16496487D01*
X13933604Y-16496487D01*
X13962176Y-16506011D01*
X13981223Y-16525058D01*
X13990747Y-16544106D01*
X14000271Y-16582201D01*
X14000271Y-16610772D01*
X13990747Y-16648868D01*
X13981223Y-16667915D01*
X13962176Y-16686963D01*
X13933604Y-16696487D01*
X13885985Y-16696487D01*
X14085985Y-16696487D02*
X14085985Y-16563153D01*
X14085985Y-16601249D02*
X14095509Y-16582201D01*
X14105033Y-16572677D01*
X14124081Y-16563153D01*
X14143128Y-16563153D01*
X14209795Y-16696487D02*
X14209795Y-16563153D01*
X14209795Y-16496487D02*
X14200271Y-16506011D01*
X14209795Y-16515534D01*
X14219319Y-16506011D01*
X14209795Y-16496487D01*
X14209795Y-16515534D01*
X14333604Y-16696487D02*
X14314557Y-16686963D01*
X14305033Y-16667915D01*
X14305033Y-16496487D01*
X14438366Y-16696487D02*
X14419319Y-16686963D01*
X14409795Y-16667915D01*
X14409795Y-16496487D01*
X14666938Y-16696487D02*
X14666938Y-16496487D01*
X14733604Y-16639344D01*
X14800271Y-16496487D01*
X14800271Y-16696487D01*
X14981223Y-16696487D02*
X14981223Y-16591725D01*
X14971700Y-16572677D01*
X14952652Y-16563153D01*
X14914557Y-16563153D01*
X14895509Y-16572677D01*
X14981223Y-16686963D02*
X14962176Y-16696487D01*
X14914557Y-16696487D01*
X14895509Y-16686963D01*
X14885985Y-16667915D01*
X14885985Y-16648868D01*
X14895509Y-16629820D01*
X14914557Y-16620296D01*
X14962176Y-16620296D01*
X14981223Y-16610772D01*
X15076462Y-16563153D02*
X15076462Y-16763153D01*
X15076462Y-16572677D02*
X15095509Y-16563153D01*
X15133604Y-16563153D01*
X15152652Y-16572677D01*
X15162176Y-16582201D01*
X15171700Y-16601249D01*
X15171700Y-16658391D01*
X15162176Y-16677439D01*
X15152652Y-16686963D01*
X15133604Y-16696487D01*
X15095509Y-16696487D01*
X15076462Y-16686963D01*
X15257414Y-16677439D02*
X15266938Y-16686963D01*
X15257414Y-16696487D01*
X15247890Y-16686963D01*
X15257414Y-16677439D01*
X15257414Y-16696487D01*
X15257414Y-16572677D02*
X15266938Y-16582201D01*
X15257414Y-16591725D01*
X15247890Y-16582201D01*
X15257414Y-16572677D01*
X15257414Y-16591725D01*
D12*
X13588366Y-17006011D02*
X13628366Y-17046011D01*
X13628366Y-17006011D02*
X13588366Y-17046011D01*
D11*
X13924081Y-16916487D02*
X13943128Y-16916487D01*
X13962176Y-16926011D01*
X13971700Y-16935534D01*
X13981223Y-16954582D01*
X13990747Y-16992677D01*
X13990747Y-17040296D01*
X13981223Y-17078392D01*
X13971700Y-17097439D01*
X13962176Y-17106963D01*
X13943128Y-17116487D01*
X13924081Y-17116487D01*
X13905033Y-17106963D01*
X13895509Y-17097439D01*
X13885985Y-17078392D01*
X13876462Y-17040296D01*
X13876462Y-16992677D01*
X13885985Y-16954582D01*
X13895509Y-16935534D01*
X13905033Y-16926011D01*
X13924081Y-16916487D01*
X14076462Y-17097439D02*
X14085985Y-17106963D01*
X14076462Y-17116487D01*
X14066938Y-17106963D01*
X14076462Y-17097439D01*
X14076462Y-17116487D01*
X14257414Y-16983153D02*
X14257414Y-17116487D01*
X14209795Y-16906963D02*
X14162176Y-17049820D01*
X14285985Y-17049820D01*
X14400271Y-16916487D02*
X14419319Y-16916487D01*
X14438366Y-16926011D01*
X14447890Y-16935534D01*
X14457414Y-16954582D01*
X14466938Y-16992677D01*
X14466938Y-17040296D01*
X14457414Y-17078392D01*
X14447890Y-17097439D01*
X14438366Y-17106963D01*
X14419319Y-17116487D01*
X14400271Y-17116487D01*
X14381223Y-17106963D01*
X14371700Y-17097439D01*
X14362176Y-17078392D01*
X14352652Y-17040296D01*
X14352652Y-16992677D01*
X14362176Y-16954582D01*
X14371700Y-16935534D01*
X14381223Y-16926011D01*
X14400271Y-16916487D01*
X14590747Y-16916487D02*
X14609795Y-16916487D01*
X14628842Y-16926011D01*
X14638366Y-16935534D01*
X14647890Y-16954582D01*
X14657414Y-16992677D01*
X14657414Y-17040296D01*
X14647890Y-17078392D01*
X14638366Y-17097439D01*
X14628842Y-17106963D01*
X14609795Y-17116487D01*
X14590747Y-17116487D01*
X14571700Y-17106963D01*
X14562176Y-17097439D01*
X14552652Y-17078392D01*
X14543128Y-17040296D01*
X14543128Y-16992677D01*
X14552652Y-16954582D01*
X14562176Y-16935534D01*
X14571700Y-16926011D01*
X14590747Y-16916487D01*
X14743128Y-17116487D02*
X14743128Y-16983153D01*
X14743128Y-17002201D02*
X14752652Y-16992677D01*
X14771700Y-16983153D01*
X14800271Y-16983153D01*
X14819319Y-16992677D01*
X14828842Y-17011725D01*
X14828842Y-17116487D01*
X14828842Y-17011725D02*
X14838366Y-16992677D01*
X14857414Y-16983153D01*
X14885985Y-16983153D01*
X14905033Y-16992677D01*
X14914557Y-17011725D01*
X14914557Y-17116487D01*
X15009795Y-17116487D02*
X15009795Y-16983153D01*
X15009795Y-17002201D02*
X15019319Y-16992677D01*
X15038366Y-16983153D01*
X15066938Y-16983153D01*
X15085985Y-16992677D01*
X15095509Y-17011725D01*
X15095509Y-17116487D01*
X15095509Y-17011725D02*
X15105033Y-16992677D01*
X15124081Y-16983153D01*
X15152652Y-16983153D01*
X15171700Y-16992677D01*
X15181223Y-17011725D01*
X15181223Y-17116487D01*
X15571700Y-16906963D02*
X15400271Y-17164106D01*
X15828842Y-16916487D02*
X15847890Y-16916487D01*
X15866938Y-16926011D01*
X15876462Y-16935534D01*
X15885985Y-16954582D01*
X15895509Y-16992677D01*
X15895509Y-17040296D01*
X15885985Y-17078392D01*
X15876462Y-17097439D01*
X15866938Y-17106963D01*
X15847890Y-17116487D01*
X15828842Y-17116487D01*
X15809795Y-17106963D01*
X15800271Y-17097439D01*
X15790747Y-17078392D01*
X15781223Y-17040296D01*
X15781223Y-16992677D01*
X15790747Y-16954582D01*
X15800271Y-16935534D01*
X15809795Y-16926011D01*
X15828842Y-16916487D01*
X15981223Y-17097439D02*
X15990747Y-17106963D01*
X15981223Y-17116487D01*
X15971700Y-17106963D01*
X15981223Y-17097439D01*
X15981223Y-17116487D01*
X16114557Y-16916487D02*
X16133604Y-16916487D01*
X16152652Y-16926011D01*
X16162176Y-16935534D01*
X16171700Y-16954582D01*
X16181223Y-16992677D01*
X16181223Y-17040296D01*
X16171700Y-17078392D01*
X16162176Y-17097439D01*
X16152652Y-17106963D01*
X16133604Y-17116487D01*
X16114557Y-17116487D01*
X16095509Y-17106963D01*
X16085985Y-17097439D01*
X16076462Y-17078392D01*
X16066938Y-17040296D01*
X16066938Y-16992677D01*
X16076462Y-16954582D01*
X16085985Y-16935534D01*
X16095509Y-16926011D01*
X16114557Y-16916487D01*
X16371700Y-17116487D02*
X16257414Y-17116487D01*
X16314557Y-17116487D02*
X16314557Y-16916487D01*
X16295509Y-16945058D01*
X16276462Y-16964106D01*
X16257414Y-16973630D01*
X16552652Y-16916487D02*
X16457414Y-16916487D01*
X16447890Y-17011725D01*
X16457414Y-17002201D01*
X16476462Y-16992677D01*
X16524081Y-16992677D01*
X16543128Y-17002201D01*
X16552652Y-17011725D01*
X16562176Y-17030773D01*
X16562176Y-17078392D01*
X16552652Y-17097439D01*
X16543128Y-17106963D01*
X16524081Y-17116487D01*
X16476462Y-17116487D01*
X16457414Y-17106963D01*
X16447890Y-17097439D01*
X16628842Y-16916487D02*
X16762176Y-16916487D01*
X16676462Y-17116487D01*
X16828843Y-16916487D02*
X16828843Y-16954582D01*
X16905033Y-16916487D02*
X16905033Y-16954582D01*
X17200271Y-17192677D02*
X17190747Y-17183153D01*
X17171700Y-17154582D01*
X17162176Y-17135534D01*
X17152652Y-17106963D01*
X17143128Y-17059344D01*
X17143128Y-17021249D01*
X17152652Y-16973630D01*
X17162176Y-16945058D01*
X17171700Y-16926011D01*
X17190747Y-16897439D01*
X17200271Y-16887915D01*
X17381224Y-17116487D02*
X17266938Y-17116487D01*
X17324081Y-17116487D02*
X17324081Y-16916487D01*
X17305033Y-16945058D01*
X17285985Y-16964106D01*
X17266938Y-16973630D01*
X17457414Y-16935534D02*
X17466938Y-16926011D01*
X17485985Y-16916487D01*
X17533604Y-16916487D01*
X17552652Y-16926011D01*
X17562176Y-16935534D01*
X17571700Y-16954582D01*
X17571700Y-16973630D01*
X17562176Y-17002201D01*
X17447890Y-17116487D01*
X17571700Y-17116487D01*
X17638366Y-16916487D02*
X17771700Y-16916487D01*
X17685985Y-17116487D01*
X18000271Y-17116487D02*
X18000271Y-16916487D01*
X18085985Y-17116487D02*
X18085985Y-17011725D01*
X18076462Y-16992677D01*
X18057414Y-16983153D01*
X18028843Y-16983153D01*
X18009795Y-16992677D01*
X18000271Y-17002201D01*
X18209795Y-17116487D02*
X18190747Y-17106963D01*
X18181224Y-17097439D01*
X18171700Y-17078392D01*
X18171700Y-17021249D01*
X18181224Y-17002201D01*
X18190747Y-16992677D01*
X18209795Y-16983153D01*
X18238366Y-16983153D01*
X18257414Y-16992677D01*
X18266938Y-17002201D01*
X18276462Y-17021249D01*
X18276462Y-17078392D01*
X18266938Y-17097439D01*
X18257414Y-17106963D01*
X18238366Y-17116487D01*
X18209795Y-17116487D01*
X18390747Y-17116487D02*
X18371700Y-17106963D01*
X18362176Y-17087915D01*
X18362176Y-16916487D01*
X18543128Y-17106963D02*
X18524081Y-17116487D01*
X18485985Y-17116487D01*
X18466938Y-17106963D01*
X18457414Y-17087915D01*
X18457414Y-17011725D01*
X18466938Y-16992677D01*
X18485985Y-16983153D01*
X18524081Y-16983153D01*
X18543128Y-16992677D01*
X18552652Y-17011725D01*
X18552652Y-17030773D01*
X18457414Y-17049820D01*
X18628843Y-17106963D02*
X18647890Y-17116487D01*
X18685985Y-17116487D01*
X18705033Y-17106963D01*
X18714557Y-17087915D01*
X18714557Y-17078392D01*
X18705033Y-17059344D01*
X18685985Y-17049820D01*
X18657414Y-17049820D01*
X18638366Y-17040296D01*
X18628843Y-17021249D01*
X18628843Y-17011725D01*
X18638366Y-16992677D01*
X18657414Y-16983153D01*
X18685985Y-16983153D01*
X18705033Y-16992677D01*
X18781224Y-17192677D02*
X18790747Y-17183153D01*
X18809795Y-17154582D01*
X18819319Y-17135534D01*
X18828843Y-17106963D01*
X18838366Y-17059344D01*
X18838366Y-17021249D01*
X18828843Y-16973630D01*
X18819319Y-16945058D01*
X18809795Y-16926011D01*
X18790747Y-16897439D01*
X18781224Y-16887915D01*
D13*
X13628366Y-17290011D02*
G75*
G03*
X13628366Y-17290011I-30000J0D01*
G01*
D11*
X13924081Y-17180487D02*
X13943128Y-17180487D01*
X13962176Y-17190011D01*
X13971700Y-17199534D01*
X13981223Y-17218582D01*
X13990747Y-17256677D01*
X13990747Y-17304296D01*
X13981223Y-17342392D01*
X13971700Y-17361439D01*
X13962176Y-17370963D01*
X13943128Y-17380487D01*
X13924081Y-17380487D01*
X13905033Y-17370963D01*
X13895509Y-17361439D01*
X13885985Y-17342392D01*
X13876462Y-17304296D01*
X13876462Y-17256677D01*
X13885985Y-17218582D01*
X13895509Y-17199534D01*
X13905033Y-17190011D01*
X13924081Y-17180487D01*
X14076462Y-17361439D02*
X14085985Y-17370963D01*
X14076462Y-17380487D01*
X14066938Y-17370963D01*
X14076462Y-17361439D01*
X14076462Y-17380487D01*
X14257414Y-17180487D02*
X14219319Y-17180487D01*
X14200271Y-17190011D01*
X14190747Y-17199534D01*
X14171700Y-17228106D01*
X14162176Y-17266201D01*
X14162176Y-17342392D01*
X14171700Y-17361439D01*
X14181223Y-17370963D01*
X14200271Y-17380487D01*
X14238366Y-17380487D01*
X14257414Y-17370963D01*
X14266938Y-17361439D01*
X14276462Y-17342392D01*
X14276462Y-17294773D01*
X14266938Y-17275725D01*
X14257414Y-17266201D01*
X14238366Y-17256677D01*
X14200271Y-17256677D01*
X14181223Y-17266201D01*
X14171700Y-17275725D01*
X14162176Y-17294773D01*
X14400271Y-17180487D02*
X14419319Y-17180487D01*
X14438366Y-17190011D01*
X14447890Y-17199534D01*
X14457414Y-17218582D01*
X14466938Y-17256677D01*
X14466938Y-17304296D01*
X14457414Y-17342392D01*
X14447890Y-17361439D01*
X14438366Y-17370963D01*
X14419319Y-17380487D01*
X14400271Y-17380487D01*
X14381223Y-17370963D01*
X14371700Y-17361439D01*
X14362176Y-17342392D01*
X14352652Y-17304296D01*
X14352652Y-17256677D01*
X14362176Y-17218582D01*
X14371700Y-17199534D01*
X14381223Y-17190011D01*
X14400271Y-17180487D01*
X14590747Y-17180487D02*
X14609795Y-17180487D01*
X14628842Y-17190011D01*
X14638366Y-17199534D01*
X14647890Y-17218582D01*
X14657414Y-17256677D01*
X14657414Y-17304296D01*
X14647890Y-17342392D01*
X14638366Y-17361439D01*
X14628842Y-17370963D01*
X14609795Y-17380487D01*
X14590747Y-17380487D01*
X14571700Y-17370963D01*
X14562176Y-17361439D01*
X14552652Y-17342392D01*
X14543128Y-17304296D01*
X14543128Y-17256677D01*
X14552652Y-17218582D01*
X14562176Y-17199534D01*
X14571700Y-17190011D01*
X14590747Y-17180487D01*
X14743128Y-17380487D02*
X14743128Y-17247153D01*
X14743128Y-17266201D02*
X14752652Y-17256677D01*
X14771700Y-17247153D01*
X14800271Y-17247153D01*
X14819319Y-17256677D01*
X14828842Y-17275725D01*
X14828842Y-17380487D01*
X14828842Y-17275725D02*
X14838366Y-17256677D01*
X14857414Y-17247153D01*
X14885985Y-17247153D01*
X14905033Y-17256677D01*
X14914557Y-17275725D01*
X14914557Y-17380487D01*
X15009795Y-17380487D02*
X15009795Y-17247153D01*
X15009795Y-17266201D02*
X15019319Y-17256677D01*
X15038366Y-17247153D01*
X15066938Y-17247153D01*
X15085985Y-17256677D01*
X15095509Y-17275725D01*
X15095509Y-17380487D01*
X15095509Y-17275725D02*
X15105033Y-17256677D01*
X15124081Y-17247153D01*
X15152652Y-17247153D01*
X15171700Y-17256677D01*
X15181223Y-17275725D01*
X15181223Y-17380487D01*
X15571700Y-17170963D02*
X15400271Y-17428106D01*
X15828842Y-17180487D02*
X15847890Y-17180487D01*
X15866938Y-17190011D01*
X15876462Y-17199534D01*
X15885985Y-17218582D01*
X15895509Y-17256677D01*
X15895509Y-17304296D01*
X15885985Y-17342392D01*
X15876462Y-17361439D01*
X15866938Y-17370963D01*
X15847890Y-17380487D01*
X15828842Y-17380487D01*
X15809795Y-17370963D01*
X15800271Y-17361439D01*
X15790747Y-17342392D01*
X15781223Y-17304296D01*
X15781223Y-17256677D01*
X15790747Y-17218582D01*
X15800271Y-17199534D01*
X15809795Y-17190011D01*
X15828842Y-17180487D01*
X15981223Y-17361439D02*
X15990747Y-17370963D01*
X15981223Y-17380487D01*
X15971700Y-17370963D01*
X15981223Y-17361439D01*
X15981223Y-17380487D01*
X16114557Y-17180487D02*
X16133604Y-17180487D01*
X16152652Y-17190011D01*
X16162176Y-17199534D01*
X16171700Y-17218582D01*
X16181223Y-17256677D01*
X16181223Y-17304296D01*
X16171700Y-17342392D01*
X16162176Y-17361439D01*
X16152652Y-17370963D01*
X16133604Y-17380487D01*
X16114557Y-17380487D01*
X16095509Y-17370963D01*
X16085985Y-17361439D01*
X16076462Y-17342392D01*
X16066938Y-17304296D01*
X16066938Y-17256677D01*
X16076462Y-17218582D01*
X16085985Y-17199534D01*
X16095509Y-17190011D01*
X16114557Y-17180487D01*
X16257414Y-17199534D02*
X16266938Y-17190011D01*
X16285985Y-17180487D01*
X16333604Y-17180487D01*
X16352652Y-17190011D01*
X16362176Y-17199534D01*
X16371700Y-17218582D01*
X16371700Y-17237630D01*
X16362176Y-17266201D01*
X16247890Y-17380487D01*
X16371700Y-17380487D01*
X16438366Y-17180487D02*
X16562176Y-17180487D01*
X16495509Y-17256677D01*
X16524081Y-17256677D01*
X16543128Y-17266201D01*
X16552652Y-17275725D01*
X16562176Y-17294773D01*
X16562176Y-17342392D01*
X16552652Y-17361439D01*
X16543128Y-17370963D01*
X16524081Y-17380487D01*
X16466938Y-17380487D01*
X16447890Y-17370963D01*
X16438366Y-17361439D01*
X16733604Y-17180487D02*
X16695509Y-17180487D01*
X16676462Y-17190011D01*
X16666938Y-17199534D01*
X16647890Y-17228106D01*
X16638366Y-17266201D01*
X16638366Y-17342392D01*
X16647890Y-17361439D01*
X16657414Y-17370963D01*
X16676462Y-17380487D01*
X16714557Y-17380487D01*
X16733604Y-17370963D01*
X16743128Y-17361439D01*
X16752652Y-17342392D01*
X16752652Y-17294773D01*
X16743128Y-17275725D01*
X16733604Y-17266201D01*
X16714557Y-17256677D01*
X16676462Y-17256677D01*
X16657414Y-17266201D01*
X16647890Y-17275725D01*
X16638366Y-17294773D01*
X16828843Y-17180487D02*
X16828843Y-17218582D01*
X16905033Y-17180487D02*
X16905033Y-17218582D01*
X17200271Y-17456677D02*
X17190747Y-17447153D01*
X17171700Y-17418582D01*
X17162176Y-17399534D01*
X17152652Y-17370963D01*
X17143128Y-17323344D01*
X17143128Y-17285249D01*
X17152652Y-17237630D01*
X17162176Y-17209058D01*
X17171700Y-17190011D01*
X17190747Y-17161439D01*
X17200271Y-17151915D01*
X17314557Y-17180487D02*
X17333604Y-17180487D01*
X17352652Y-17190011D01*
X17362176Y-17199534D01*
X17371700Y-17218582D01*
X17381224Y-17256677D01*
X17381224Y-17304296D01*
X17371700Y-17342392D01*
X17362176Y-17361439D01*
X17352652Y-17370963D01*
X17333604Y-17380487D01*
X17314557Y-17380487D01*
X17295509Y-17370963D01*
X17285985Y-17361439D01*
X17276462Y-17342392D01*
X17266938Y-17304296D01*
X17266938Y-17256677D01*
X17276462Y-17218582D01*
X17285985Y-17199534D01*
X17295509Y-17190011D01*
X17314557Y-17180487D01*
X17619319Y-17380487D02*
X17619319Y-17180487D01*
X17705033Y-17380487D02*
X17705033Y-17275725D01*
X17695509Y-17256677D01*
X17676462Y-17247153D01*
X17647890Y-17247153D01*
X17628843Y-17256677D01*
X17619319Y-17266201D01*
X17828843Y-17380487D02*
X17809795Y-17370963D01*
X17800271Y-17361439D01*
X17790747Y-17342392D01*
X17790747Y-17285249D01*
X17800271Y-17266201D01*
X17809795Y-17256677D01*
X17828843Y-17247153D01*
X17857414Y-17247153D01*
X17876462Y-17256677D01*
X17885985Y-17266201D01*
X17895509Y-17285249D01*
X17895509Y-17342392D01*
X17885985Y-17361439D01*
X17876462Y-17370963D01*
X17857414Y-17380487D01*
X17828843Y-17380487D01*
X18009795Y-17380487D02*
X17990747Y-17370963D01*
X17981224Y-17351915D01*
X17981224Y-17180487D01*
X18162176Y-17370963D02*
X18143128Y-17380487D01*
X18105033Y-17380487D01*
X18085985Y-17370963D01*
X18076462Y-17351915D01*
X18076462Y-17275725D01*
X18085985Y-17256677D01*
X18105033Y-17247153D01*
X18143128Y-17247153D01*
X18162176Y-17256677D01*
X18171700Y-17275725D01*
X18171700Y-17294773D01*
X18076462Y-17313820D01*
X18247890Y-17370963D02*
X18266938Y-17380487D01*
X18305033Y-17380487D01*
X18324081Y-17370963D01*
X18333604Y-17351915D01*
X18333604Y-17342392D01*
X18324081Y-17323344D01*
X18305033Y-17313820D01*
X18276462Y-17313820D01*
X18257414Y-17304296D01*
X18247890Y-17285249D01*
X18247890Y-17275725D01*
X18257414Y-17256677D01*
X18276462Y-17247153D01*
X18305033Y-17247153D01*
X18324081Y-17256677D01*
X18571700Y-17304296D02*
X18724081Y-17304296D01*
X18647890Y-17380487D02*
X18647890Y-17228106D01*
X19057414Y-17247153D02*
X19057414Y-17380487D01*
X19009795Y-17170963D02*
X18962176Y-17313820D01*
X19085985Y-17313820D01*
X19305033Y-17370963D02*
X19324081Y-17380487D01*
X19362176Y-17380487D01*
X19381224Y-17370963D01*
X19390747Y-17351915D01*
X19390747Y-17342392D01*
X19381224Y-17323344D01*
X19362176Y-17313820D01*
X19333604Y-17313820D01*
X19314557Y-17304296D01*
X19305033Y-17285249D01*
X19305033Y-17275725D01*
X19314557Y-17256677D01*
X19333604Y-17247153D01*
X19362176Y-17247153D01*
X19381224Y-17256677D01*
X19505033Y-17380487D02*
X19485985Y-17370963D01*
X19476462Y-17351915D01*
X19476462Y-17180487D01*
X19609795Y-17380487D02*
X19590747Y-17370963D01*
X19581224Y-17361439D01*
X19571700Y-17342392D01*
X19571700Y-17285249D01*
X19581224Y-17266201D01*
X19590747Y-17256677D01*
X19609795Y-17247153D01*
X19638366Y-17247153D01*
X19657414Y-17256677D01*
X19666938Y-17266201D01*
X19676462Y-17285249D01*
X19676462Y-17342392D01*
X19666938Y-17361439D01*
X19657414Y-17370963D01*
X19638366Y-17380487D01*
X19609795Y-17380487D01*
X19733604Y-17247153D02*
X19809795Y-17247153D01*
X19762176Y-17180487D02*
X19762176Y-17351915D01*
X19771700Y-17370963D01*
X19790747Y-17380487D01*
X19809795Y-17380487D01*
X19866938Y-17370963D02*
X19885985Y-17380487D01*
X19924081Y-17380487D01*
X19943128Y-17370963D01*
X19952652Y-17351915D01*
X19952652Y-17342392D01*
X19943128Y-17323344D01*
X19924081Y-17313820D01*
X19895509Y-17313820D01*
X19876462Y-17304296D01*
X19866938Y-17285249D01*
X19866938Y-17275725D01*
X19876462Y-17256677D01*
X19895509Y-17247153D01*
X19924081Y-17247153D01*
X19943128Y-17256677D01*
X20019319Y-17456677D02*
X20028843Y-17447153D01*
X20047890Y-17418582D01*
X20057414Y-17399534D01*
X20066938Y-17370963D01*
X20076462Y-17323344D01*
X20076462Y-17285249D01*
X20066938Y-17237630D01*
X20057414Y-17209058D01*
X20047890Y-17190011D01*
X20028843Y-17161439D01*
X20019319Y-17151915D01*
D14*
X13582366Y-17508011D02*
X13582366Y-17600011D01*
X13536366Y-17554011D02*
X13628366Y-17554011D01*
D11*
X13924081Y-17444487D02*
X13943128Y-17444487D01*
X13962176Y-17454011D01*
X13971700Y-17463534D01*
X13981223Y-17482582D01*
X13990747Y-17520677D01*
X13990747Y-17568296D01*
X13981223Y-17606392D01*
X13971700Y-17625439D01*
X13962176Y-17634963D01*
X13943128Y-17644487D01*
X13924081Y-17644487D01*
X13905033Y-17634963D01*
X13895509Y-17625439D01*
X13885985Y-17606392D01*
X13876462Y-17568296D01*
X13876462Y-17520677D01*
X13885985Y-17482582D01*
X13895509Y-17463534D01*
X13905033Y-17454011D01*
X13924081Y-17444487D01*
X14076462Y-17625439D02*
X14085985Y-17634963D01*
X14076462Y-17644487D01*
X14066938Y-17634963D01*
X14076462Y-17625439D01*
X14076462Y-17644487D01*
X14181223Y-17644487D02*
X14219319Y-17644487D01*
X14238366Y-17634963D01*
X14247890Y-17625439D01*
X14266938Y-17596868D01*
X14276462Y-17558773D01*
X14276462Y-17482582D01*
X14266938Y-17463534D01*
X14257414Y-17454011D01*
X14238366Y-17444487D01*
X14200271Y-17444487D01*
X14181223Y-17454011D01*
X14171700Y-17463534D01*
X14162176Y-17482582D01*
X14162176Y-17530201D01*
X14171700Y-17549249D01*
X14181223Y-17558773D01*
X14200271Y-17568296D01*
X14238366Y-17568296D01*
X14257414Y-17558773D01*
X14266938Y-17549249D01*
X14276462Y-17530201D01*
X14352652Y-17463534D02*
X14362176Y-17454011D01*
X14381223Y-17444487D01*
X14428842Y-17444487D01*
X14447890Y-17454011D01*
X14457414Y-17463534D01*
X14466938Y-17482582D01*
X14466938Y-17501630D01*
X14457414Y-17530201D01*
X14343128Y-17644487D01*
X14466938Y-17644487D01*
X14590747Y-17444487D02*
X14609795Y-17444487D01*
X14628842Y-17454011D01*
X14638366Y-17463534D01*
X14647890Y-17482582D01*
X14657414Y-17520677D01*
X14657414Y-17568296D01*
X14647890Y-17606392D01*
X14638366Y-17625439D01*
X14628842Y-17634963D01*
X14609795Y-17644487D01*
X14590747Y-17644487D01*
X14571700Y-17634963D01*
X14562176Y-17625439D01*
X14552652Y-17606392D01*
X14543128Y-17568296D01*
X14543128Y-17520677D01*
X14552652Y-17482582D01*
X14562176Y-17463534D01*
X14571700Y-17454011D01*
X14590747Y-17444487D01*
X14743128Y-17644487D02*
X14743128Y-17511153D01*
X14743128Y-17530201D02*
X14752652Y-17520677D01*
X14771700Y-17511153D01*
X14800271Y-17511153D01*
X14819319Y-17520677D01*
X14828842Y-17539725D01*
X14828842Y-17644487D01*
X14828842Y-17539725D02*
X14838366Y-17520677D01*
X14857414Y-17511153D01*
X14885985Y-17511153D01*
X14905033Y-17520677D01*
X14914557Y-17539725D01*
X14914557Y-17644487D01*
X15009795Y-17644487D02*
X15009795Y-17511153D01*
X15009795Y-17530201D02*
X15019319Y-17520677D01*
X15038366Y-17511153D01*
X15066938Y-17511153D01*
X15085985Y-17520677D01*
X15095509Y-17539725D01*
X15095509Y-17644487D01*
X15095509Y-17539725D02*
X15105033Y-17520677D01*
X15124081Y-17511153D01*
X15152652Y-17511153D01*
X15171700Y-17520677D01*
X15181223Y-17539725D01*
X15181223Y-17644487D01*
X15571700Y-17434963D02*
X15400271Y-17692106D01*
X15828842Y-17444487D02*
X15847890Y-17444487D01*
X15866938Y-17454011D01*
X15876462Y-17463534D01*
X15885985Y-17482582D01*
X15895509Y-17520677D01*
X15895509Y-17568296D01*
X15885985Y-17606392D01*
X15876462Y-17625439D01*
X15866938Y-17634963D01*
X15847890Y-17644487D01*
X15828842Y-17644487D01*
X15809795Y-17634963D01*
X15800271Y-17625439D01*
X15790747Y-17606392D01*
X15781223Y-17568296D01*
X15781223Y-17520677D01*
X15790747Y-17482582D01*
X15800271Y-17463534D01*
X15809795Y-17454011D01*
X15828842Y-17444487D01*
X15981223Y-17625439D02*
X15990747Y-17634963D01*
X15981223Y-17644487D01*
X15971700Y-17634963D01*
X15981223Y-17625439D01*
X15981223Y-17644487D01*
X16114557Y-17444487D02*
X16133604Y-17444487D01*
X16152652Y-17454011D01*
X16162176Y-17463534D01*
X16171700Y-17482582D01*
X16181223Y-17520677D01*
X16181223Y-17568296D01*
X16171700Y-17606392D01*
X16162176Y-17625439D01*
X16152652Y-17634963D01*
X16133604Y-17644487D01*
X16114557Y-17644487D01*
X16095509Y-17634963D01*
X16085985Y-17625439D01*
X16076462Y-17606392D01*
X16066938Y-17568296D01*
X16066938Y-17520677D01*
X16076462Y-17482582D01*
X16085985Y-17463534D01*
X16095509Y-17454011D01*
X16114557Y-17444487D01*
X16247890Y-17444487D02*
X16371700Y-17444487D01*
X16305033Y-17520677D01*
X16333604Y-17520677D01*
X16352652Y-17530201D01*
X16362176Y-17539725D01*
X16371700Y-17558773D01*
X16371700Y-17606392D01*
X16362176Y-17625439D01*
X16352652Y-17634963D01*
X16333604Y-17644487D01*
X16276462Y-17644487D01*
X16257414Y-17634963D01*
X16247890Y-17625439D01*
X16543128Y-17444487D02*
X16505033Y-17444487D01*
X16485985Y-17454011D01*
X16476462Y-17463534D01*
X16457414Y-17492106D01*
X16447890Y-17530201D01*
X16447890Y-17606392D01*
X16457414Y-17625439D01*
X16466938Y-17634963D01*
X16485985Y-17644487D01*
X16524081Y-17644487D01*
X16543128Y-17634963D01*
X16552652Y-17625439D01*
X16562176Y-17606392D01*
X16562176Y-17558773D01*
X16552652Y-17539725D01*
X16543128Y-17530201D01*
X16524081Y-17520677D01*
X16485985Y-17520677D01*
X16466938Y-17530201D01*
X16457414Y-17539725D01*
X16447890Y-17558773D01*
X16638366Y-17463534D02*
X16647890Y-17454011D01*
X16666938Y-17444487D01*
X16714557Y-17444487D01*
X16733604Y-17454011D01*
X16743128Y-17463534D01*
X16752652Y-17482582D01*
X16752652Y-17501630D01*
X16743128Y-17530201D01*
X16628842Y-17644487D01*
X16752652Y-17644487D01*
X16828843Y-17444487D02*
X16828843Y-17482582D01*
X16905033Y-17444487D02*
X16905033Y-17482582D01*
X17200271Y-17720677D02*
X17190747Y-17711153D01*
X17171700Y-17682582D01*
X17162176Y-17663534D01*
X17152652Y-17634963D01*
X17143128Y-17587344D01*
X17143128Y-17549249D01*
X17152652Y-17501630D01*
X17162176Y-17473058D01*
X17171700Y-17454011D01*
X17190747Y-17425439D01*
X17200271Y-17415915D01*
X17381224Y-17644487D02*
X17266938Y-17644487D01*
X17324081Y-17644487D02*
X17324081Y-17444487D01*
X17305033Y-17473058D01*
X17285985Y-17492106D01*
X17266938Y-17501630D01*
X17457414Y-17463534D02*
X17466938Y-17454011D01*
X17485985Y-17444487D01*
X17533604Y-17444487D01*
X17552652Y-17454011D01*
X17562176Y-17463534D01*
X17571700Y-17482582D01*
X17571700Y-17501630D01*
X17562176Y-17530201D01*
X17447890Y-17644487D01*
X17571700Y-17644487D01*
X17809795Y-17644487D02*
X17809795Y-17444487D01*
X17895509Y-17644487D02*
X17895509Y-17539725D01*
X17885985Y-17520677D01*
X17866938Y-17511153D01*
X17838366Y-17511153D01*
X17819319Y-17520677D01*
X17809795Y-17530201D01*
X18019319Y-17644487D02*
X18000271Y-17634963D01*
X17990747Y-17625439D01*
X17981224Y-17606392D01*
X17981224Y-17549249D01*
X17990747Y-17530201D01*
X18000271Y-17520677D01*
X18019319Y-17511153D01*
X18047890Y-17511153D01*
X18066938Y-17520677D01*
X18076462Y-17530201D01*
X18085985Y-17549249D01*
X18085985Y-17606392D01*
X18076462Y-17625439D01*
X18066938Y-17634963D01*
X18047890Y-17644487D01*
X18019319Y-17644487D01*
X18200271Y-17644487D02*
X18181224Y-17634963D01*
X18171700Y-17615915D01*
X18171700Y-17444487D01*
X18352652Y-17634963D02*
X18333604Y-17644487D01*
X18295509Y-17644487D01*
X18276462Y-17634963D01*
X18266938Y-17615915D01*
X18266938Y-17539725D01*
X18276462Y-17520677D01*
X18295509Y-17511153D01*
X18333604Y-17511153D01*
X18352652Y-17520677D01*
X18362176Y-17539725D01*
X18362176Y-17558773D01*
X18266938Y-17577820D01*
X18438366Y-17634963D02*
X18457414Y-17644487D01*
X18495509Y-17644487D01*
X18514557Y-17634963D01*
X18524081Y-17615915D01*
X18524081Y-17606392D01*
X18514557Y-17587344D01*
X18495509Y-17577820D01*
X18466938Y-17577820D01*
X18447890Y-17568296D01*
X18438366Y-17549249D01*
X18438366Y-17539725D01*
X18447890Y-17520677D01*
X18466938Y-17511153D01*
X18495509Y-17511153D01*
X18514557Y-17520677D01*
X18590747Y-17720677D02*
X18600271Y-17711153D01*
X18619319Y-17682582D01*
X18628843Y-17663534D01*
X18638366Y-17634963D01*
X18647890Y-17587344D01*
X18647890Y-17549249D01*
X18638366Y-17501630D01*
X18628843Y-17473058D01*
X18619319Y-17454011D01*
X18600271Y-17425439D01*
X18590747Y-17415915D01*
D15*
X13613868Y-17853013D02*
X13613868Y-17783009D01*
X13543864Y-17783009D01*
X13543864Y-17853013D01*
X13613868Y-17853013D01*
D11*
X13924081Y-17708487D02*
X13943128Y-17708487D01*
X13962176Y-17718011D01*
X13971700Y-17727534D01*
X13981223Y-17746582D01*
X13990747Y-17784677D01*
X13990747Y-17832296D01*
X13981223Y-17870392D01*
X13971700Y-17889439D01*
X13962176Y-17898963D01*
X13943128Y-17908487D01*
X13924081Y-17908487D01*
X13905033Y-17898963D01*
X13895509Y-17889439D01*
X13885985Y-17870392D01*
X13876462Y-17832296D01*
X13876462Y-17784677D01*
X13885985Y-17746582D01*
X13895509Y-17727534D01*
X13905033Y-17718011D01*
X13924081Y-17708487D01*
X14076462Y-17889439D02*
X14085985Y-17898963D01*
X14076462Y-17908487D01*
X14066938Y-17898963D01*
X14076462Y-17889439D01*
X14076462Y-17908487D01*
X14181223Y-17908487D02*
X14219319Y-17908487D01*
X14238366Y-17898963D01*
X14247890Y-17889439D01*
X14266938Y-17860868D01*
X14276462Y-17822773D01*
X14276462Y-17746582D01*
X14266938Y-17727534D01*
X14257414Y-17718011D01*
X14238366Y-17708487D01*
X14200271Y-17708487D01*
X14181223Y-17718011D01*
X14171700Y-17727534D01*
X14162176Y-17746582D01*
X14162176Y-17794201D01*
X14171700Y-17813249D01*
X14181223Y-17822773D01*
X14200271Y-17832296D01*
X14238366Y-17832296D01*
X14257414Y-17822773D01*
X14266938Y-17813249D01*
X14276462Y-17794201D01*
X14371700Y-17908487D02*
X14409795Y-17908487D01*
X14428842Y-17898963D01*
X14438366Y-17889439D01*
X14457414Y-17860868D01*
X14466938Y-17822773D01*
X14466938Y-17746582D01*
X14457414Y-17727534D01*
X14447890Y-17718011D01*
X14428842Y-17708487D01*
X14390747Y-17708487D01*
X14371700Y-17718011D01*
X14362176Y-17727534D01*
X14352652Y-17746582D01*
X14352652Y-17794201D01*
X14362176Y-17813249D01*
X14371700Y-17822773D01*
X14390747Y-17832296D01*
X14428842Y-17832296D01*
X14447890Y-17822773D01*
X14457414Y-17813249D01*
X14466938Y-17794201D01*
X14590747Y-17708487D02*
X14609795Y-17708487D01*
X14628842Y-17718011D01*
X14638366Y-17727534D01*
X14647890Y-17746582D01*
X14657414Y-17784677D01*
X14657414Y-17832296D01*
X14647890Y-17870392D01*
X14638366Y-17889439D01*
X14628842Y-17898963D01*
X14609795Y-17908487D01*
X14590747Y-17908487D01*
X14571700Y-17898963D01*
X14562176Y-17889439D01*
X14552652Y-17870392D01*
X14543128Y-17832296D01*
X14543128Y-17784677D01*
X14552652Y-17746582D01*
X14562176Y-17727534D01*
X14571700Y-17718011D01*
X14590747Y-17708487D01*
X14743128Y-17908487D02*
X14743128Y-17775153D01*
X14743128Y-17794201D02*
X14752652Y-17784677D01*
X14771700Y-17775153D01*
X14800271Y-17775153D01*
X14819319Y-17784677D01*
X14828842Y-17803725D01*
X14828842Y-17908487D01*
X14828842Y-17803725D02*
X14838366Y-17784677D01*
X14857414Y-17775153D01*
X14885985Y-17775153D01*
X14905033Y-17784677D01*
X14914557Y-17803725D01*
X14914557Y-17908487D01*
X15009795Y-17908487D02*
X15009795Y-17775153D01*
X15009795Y-17794201D02*
X15019319Y-17784677D01*
X15038366Y-17775153D01*
X15066938Y-17775153D01*
X15085985Y-17784677D01*
X15095509Y-17803725D01*
X15095509Y-17908487D01*
X15095509Y-17803725D02*
X15105033Y-17784677D01*
X15124081Y-17775153D01*
X15152652Y-17775153D01*
X15171700Y-17784677D01*
X15181223Y-17803725D01*
X15181223Y-17908487D01*
X15571700Y-17698963D02*
X15400271Y-17956106D01*
X15828842Y-17708487D02*
X15847890Y-17708487D01*
X15866938Y-17718011D01*
X15876462Y-17727534D01*
X15885985Y-17746582D01*
X15895509Y-17784677D01*
X15895509Y-17832296D01*
X15885985Y-17870392D01*
X15876462Y-17889439D01*
X15866938Y-17898963D01*
X15847890Y-17908487D01*
X15828842Y-17908487D01*
X15809795Y-17898963D01*
X15800271Y-17889439D01*
X15790747Y-17870392D01*
X15781223Y-17832296D01*
X15781223Y-17784677D01*
X15790747Y-17746582D01*
X15800271Y-17727534D01*
X15809795Y-17718011D01*
X15828842Y-17708487D01*
X15981223Y-17889439D02*
X15990747Y-17898963D01*
X15981223Y-17908487D01*
X15971700Y-17898963D01*
X15981223Y-17889439D01*
X15981223Y-17908487D01*
X16114557Y-17708487D02*
X16133604Y-17708487D01*
X16152652Y-17718011D01*
X16162176Y-17727534D01*
X16171700Y-17746582D01*
X16181223Y-17784677D01*
X16181223Y-17832296D01*
X16171700Y-17870392D01*
X16162176Y-17889439D01*
X16152652Y-17898963D01*
X16133604Y-17908487D01*
X16114557Y-17908487D01*
X16095509Y-17898963D01*
X16085985Y-17889439D01*
X16076462Y-17870392D01*
X16066938Y-17832296D01*
X16066938Y-17784677D01*
X16076462Y-17746582D01*
X16085985Y-17727534D01*
X16095509Y-17718011D01*
X16114557Y-17708487D01*
X16247890Y-17708487D02*
X16371700Y-17708487D01*
X16305033Y-17784677D01*
X16333604Y-17784677D01*
X16352652Y-17794201D01*
X16362176Y-17803725D01*
X16371700Y-17822773D01*
X16371700Y-17870392D01*
X16362176Y-17889439D01*
X16352652Y-17898963D01*
X16333604Y-17908487D01*
X16276462Y-17908487D01*
X16257414Y-17898963D01*
X16247890Y-17889439D01*
X16466938Y-17908487D02*
X16505033Y-17908487D01*
X16524081Y-17898963D01*
X16533604Y-17889439D01*
X16552652Y-17860868D01*
X16562176Y-17822773D01*
X16562176Y-17746582D01*
X16552652Y-17727534D01*
X16543128Y-17718011D01*
X16524081Y-17708487D01*
X16485985Y-17708487D01*
X16466938Y-17718011D01*
X16457414Y-17727534D01*
X16447890Y-17746582D01*
X16447890Y-17794201D01*
X16457414Y-17813249D01*
X16466938Y-17822773D01*
X16485985Y-17832296D01*
X16524081Y-17832296D01*
X16543128Y-17822773D01*
X16552652Y-17813249D01*
X16562176Y-17794201D01*
X16685985Y-17708487D02*
X16705033Y-17708487D01*
X16724081Y-17718011D01*
X16733604Y-17727534D01*
X16743128Y-17746582D01*
X16752652Y-17784677D01*
X16752652Y-17832296D01*
X16743128Y-17870392D01*
X16733604Y-17889439D01*
X16724081Y-17898963D01*
X16705033Y-17908487D01*
X16685985Y-17908487D01*
X16666938Y-17898963D01*
X16657414Y-17889439D01*
X16647890Y-17870392D01*
X16638366Y-17832296D01*
X16638366Y-17784677D01*
X16647890Y-17746582D01*
X16657414Y-17727534D01*
X16666938Y-17718011D01*
X16685985Y-17708487D01*
X16828843Y-17708487D02*
X16828843Y-17746582D01*
X16905033Y-17708487D02*
X16905033Y-17746582D01*
X17200271Y-17984677D02*
X17190747Y-17975153D01*
X17171700Y-17946582D01*
X17162176Y-17927534D01*
X17152652Y-17898963D01*
X17143128Y-17851344D01*
X17143128Y-17813249D01*
X17152652Y-17765630D01*
X17162176Y-17737058D01*
X17171700Y-17718011D01*
X17190747Y-17689439D01*
X17200271Y-17679915D01*
X17266938Y-17727534D02*
X17276462Y-17718011D01*
X17295509Y-17708487D01*
X17343128Y-17708487D01*
X17362176Y-17718011D01*
X17371700Y-17727534D01*
X17381224Y-17746582D01*
X17381224Y-17765630D01*
X17371700Y-17794201D01*
X17257414Y-17908487D01*
X17381224Y-17908487D01*
X17619319Y-17908487D02*
X17619319Y-17708487D01*
X17705033Y-17908487D02*
X17705033Y-17803725D01*
X17695509Y-17784677D01*
X17676462Y-17775153D01*
X17647890Y-17775153D01*
X17628843Y-17784677D01*
X17619319Y-17794201D01*
X17828843Y-17908487D02*
X17809795Y-17898963D01*
X17800271Y-17889439D01*
X17790747Y-17870392D01*
X17790747Y-17813249D01*
X17800271Y-17794201D01*
X17809795Y-17784677D01*
X17828843Y-17775153D01*
X17857414Y-17775153D01*
X17876462Y-17784677D01*
X17885985Y-17794201D01*
X17895509Y-17813249D01*
X17895509Y-17870392D01*
X17885985Y-17889439D01*
X17876462Y-17898963D01*
X17857414Y-17908487D01*
X17828843Y-17908487D01*
X18009795Y-17908487D02*
X17990747Y-17898963D01*
X17981224Y-17879915D01*
X17981224Y-17708487D01*
X18162176Y-17898963D02*
X18143128Y-17908487D01*
X18105033Y-17908487D01*
X18085985Y-17898963D01*
X18076462Y-17879915D01*
X18076462Y-17803725D01*
X18085985Y-17784677D01*
X18105033Y-17775153D01*
X18143128Y-17775153D01*
X18162176Y-17784677D01*
X18171700Y-17803725D01*
X18171700Y-17822773D01*
X18076462Y-17841820D01*
X18247890Y-17898963D02*
X18266938Y-17908487D01*
X18305033Y-17908487D01*
X18324081Y-17898963D01*
X18333604Y-17879915D01*
X18333604Y-17870392D01*
X18324081Y-17851344D01*
X18305033Y-17841820D01*
X18276462Y-17841820D01*
X18257414Y-17832296D01*
X18247890Y-17813249D01*
X18247890Y-17803725D01*
X18257414Y-17784677D01*
X18276462Y-17775153D01*
X18305033Y-17775153D01*
X18324081Y-17784677D01*
X18400271Y-17984677D02*
X18409795Y-17975153D01*
X18428843Y-17946582D01*
X18438366Y-17927534D01*
X18447890Y-17898963D01*
X18457414Y-17851344D01*
X18457414Y-17813249D01*
X18447890Y-17765630D01*
X18438366Y-17737058D01*
X18428843Y-17718011D01*
X18409795Y-17689439D01*
X18400271Y-17679915D01*
D16*
X13563366Y-18147011D02*
X13628366Y-18082011D01*
X13563366Y-18017011D01*
X13498366Y-18082011D01*
X13563366Y-18147011D01*
D11*
X13990747Y-18172487D02*
X13876462Y-18172487D01*
X13933604Y-18172487D02*
X13933604Y-17972487D01*
X13914557Y-18001058D01*
X13895509Y-18020106D01*
X13876462Y-18029630D01*
X14076462Y-18153439D02*
X14085985Y-18162963D01*
X14076462Y-18172487D01*
X14066938Y-18162963D01*
X14076462Y-18153439D01*
X14076462Y-18172487D01*
X14152652Y-17972487D02*
X14276462Y-17972487D01*
X14209795Y-18048677D01*
X14238366Y-18048677D01*
X14257414Y-18058201D01*
X14266938Y-18067725D01*
X14276462Y-18086773D01*
X14276462Y-18134392D01*
X14266938Y-18153439D01*
X14257414Y-18162963D01*
X14238366Y-18172487D01*
X14181223Y-18172487D01*
X14162176Y-18162963D01*
X14152652Y-18153439D01*
X14400271Y-17972487D02*
X14419319Y-17972487D01*
X14438366Y-17982011D01*
X14447890Y-17991534D01*
X14457414Y-18010582D01*
X14466938Y-18048677D01*
X14466938Y-18096296D01*
X14457414Y-18134392D01*
X14447890Y-18153439D01*
X14438366Y-18162963D01*
X14419319Y-18172487D01*
X14400271Y-18172487D01*
X14381223Y-18162963D01*
X14371700Y-18153439D01*
X14362176Y-18134392D01*
X14352652Y-18096296D01*
X14352652Y-18048677D01*
X14362176Y-18010582D01*
X14371700Y-17991534D01*
X14381223Y-17982011D01*
X14400271Y-17972487D01*
X14590747Y-17972487D02*
X14609795Y-17972487D01*
X14628842Y-17982011D01*
X14638366Y-17991534D01*
X14647890Y-18010582D01*
X14657414Y-18048677D01*
X14657414Y-18096296D01*
X14647890Y-18134392D01*
X14638366Y-18153439D01*
X14628842Y-18162963D01*
X14609795Y-18172487D01*
X14590747Y-18172487D01*
X14571700Y-18162963D01*
X14562176Y-18153439D01*
X14552652Y-18134392D01*
X14543128Y-18096296D01*
X14543128Y-18048677D01*
X14552652Y-18010582D01*
X14562176Y-17991534D01*
X14571700Y-17982011D01*
X14590747Y-17972487D01*
X14743128Y-18172487D02*
X14743128Y-18039153D01*
X14743128Y-18058201D02*
X14752652Y-18048677D01*
X14771700Y-18039153D01*
X14800271Y-18039153D01*
X14819319Y-18048677D01*
X14828842Y-18067725D01*
X14828842Y-18172487D01*
X14828842Y-18067725D02*
X14838366Y-18048677D01*
X14857414Y-18039153D01*
X14885985Y-18039153D01*
X14905033Y-18048677D01*
X14914557Y-18067725D01*
X14914557Y-18172487D01*
X15009795Y-18172487D02*
X15009795Y-18039153D01*
X15009795Y-18058201D02*
X15019319Y-18048677D01*
X15038366Y-18039153D01*
X15066938Y-18039153D01*
X15085985Y-18048677D01*
X15095509Y-18067725D01*
X15095509Y-18172487D01*
X15095509Y-18067725D02*
X15105033Y-18048677D01*
X15124081Y-18039153D01*
X15152652Y-18039153D01*
X15171700Y-18048677D01*
X15181223Y-18067725D01*
X15181223Y-18172487D01*
X15571700Y-17962963D02*
X15400271Y-18220106D01*
X15828842Y-17972487D02*
X15847890Y-17972487D01*
X15866938Y-17982011D01*
X15876462Y-17991534D01*
X15885985Y-18010582D01*
X15895509Y-18048677D01*
X15895509Y-18096296D01*
X15885985Y-18134392D01*
X15876462Y-18153439D01*
X15866938Y-18162963D01*
X15847890Y-18172487D01*
X15828842Y-18172487D01*
X15809795Y-18162963D01*
X15800271Y-18153439D01*
X15790747Y-18134392D01*
X15781223Y-18096296D01*
X15781223Y-18048677D01*
X15790747Y-18010582D01*
X15800271Y-17991534D01*
X15809795Y-17982011D01*
X15828842Y-17972487D01*
X15981223Y-18153439D02*
X15990747Y-18162963D01*
X15981223Y-18172487D01*
X15971700Y-18162963D01*
X15981223Y-18153439D01*
X15981223Y-18172487D01*
X16114557Y-17972487D02*
X16133604Y-17972487D01*
X16152652Y-17982011D01*
X16162176Y-17991534D01*
X16171700Y-18010582D01*
X16181223Y-18048677D01*
X16181223Y-18096296D01*
X16171700Y-18134392D01*
X16162176Y-18153439D01*
X16152652Y-18162963D01*
X16133604Y-18172487D01*
X16114557Y-18172487D01*
X16095509Y-18162963D01*
X16085985Y-18153439D01*
X16076462Y-18134392D01*
X16066938Y-18096296D01*
X16066938Y-18048677D01*
X16076462Y-18010582D01*
X16085985Y-17991534D01*
X16095509Y-17982011D01*
X16114557Y-17972487D01*
X16362176Y-17972487D02*
X16266938Y-17972487D01*
X16257414Y-18067725D01*
X16266938Y-18058201D01*
X16285985Y-18048677D01*
X16333604Y-18048677D01*
X16352652Y-18058201D01*
X16362176Y-18067725D01*
X16371700Y-18086773D01*
X16371700Y-18134392D01*
X16362176Y-18153439D01*
X16352652Y-18162963D01*
X16333604Y-18172487D01*
X16285985Y-18172487D01*
X16266938Y-18162963D01*
X16257414Y-18153439D01*
X16562176Y-18172487D02*
X16447890Y-18172487D01*
X16505033Y-18172487D02*
X16505033Y-17972487D01*
X16485985Y-18001058D01*
X16466938Y-18020106D01*
X16447890Y-18029630D01*
X16638366Y-17991534D02*
X16647890Y-17982011D01*
X16666938Y-17972487D01*
X16714557Y-17972487D01*
X16733604Y-17982011D01*
X16743128Y-17991534D01*
X16752652Y-18010582D01*
X16752652Y-18029630D01*
X16743128Y-18058201D01*
X16628842Y-18172487D01*
X16752652Y-18172487D01*
X16828843Y-17972487D02*
X16828843Y-18010582D01*
X16905033Y-17972487D02*
X16905033Y-18010582D01*
X17200271Y-18248677D02*
X17190747Y-18239153D01*
X17171700Y-18210582D01*
X17162176Y-18191534D01*
X17152652Y-18162963D01*
X17143128Y-18115344D01*
X17143128Y-18077249D01*
X17152652Y-18029630D01*
X17162176Y-18001058D01*
X17171700Y-17982011D01*
X17190747Y-17953439D01*
X17200271Y-17943915D01*
X17266938Y-17991534D02*
X17276462Y-17982011D01*
X17295509Y-17972487D01*
X17343128Y-17972487D01*
X17362176Y-17982011D01*
X17371700Y-17991534D01*
X17381224Y-18010582D01*
X17381224Y-18029630D01*
X17371700Y-18058201D01*
X17257414Y-18172487D01*
X17381224Y-18172487D01*
X17619319Y-18172487D02*
X17619319Y-17972487D01*
X17705033Y-18172487D02*
X17705033Y-18067725D01*
X17695509Y-18048677D01*
X17676462Y-18039153D01*
X17647890Y-18039153D01*
X17628843Y-18048677D01*
X17619319Y-18058201D01*
X17828843Y-18172487D02*
X17809795Y-18162963D01*
X17800271Y-18153439D01*
X17790747Y-18134392D01*
X17790747Y-18077249D01*
X17800271Y-18058201D01*
X17809795Y-18048677D01*
X17828843Y-18039153D01*
X17857414Y-18039153D01*
X17876462Y-18048677D01*
X17885985Y-18058201D01*
X17895509Y-18077249D01*
X17895509Y-18134392D01*
X17885985Y-18153439D01*
X17876462Y-18162963D01*
X17857414Y-18172487D01*
X17828843Y-18172487D01*
X18009795Y-18172487D02*
X17990747Y-18162963D01*
X17981224Y-18143915D01*
X17981224Y-17972487D01*
X18162176Y-18162963D02*
X18143128Y-18172487D01*
X18105033Y-18172487D01*
X18085985Y-18162963D01*
X18076462Y-18143915D01*
X18076462Y-18067725D01*
X18085985Y-18048677D01*
X18105033Y-18039153D01*
X18143128Y-18039153D01*
X18162176Y-18048677D01*
X18171700Y-18067725D01*
X18171700Y-18086773D01*
X18076462Y-18105820D01*
X18247890Y-18162963D02*
X18266938Y-18172487D01*
X18305033Y-18172487D01*
X18324081Y-18162963D01*
X18333604Y-18143915D01*
X18333604Y-18134392D01*
X18324081Y-18115344D01*
X18305033Y-18105820D01*
X18276462Y-18105820D01*
X18257414Y-18096296D01*
X18247890Y-18077249D01*
X18247890Y-18067725D01*
X18257414Y-18048677D01*
X18276462Y-18039153D01*
X18305033Y-18039153D01*
X18324081Y-18048677D01*
X18400271Y-18248677D02*
X18409795Y-18239153D01*
X18428843Y-18210582D01*
X18438366Y-18191534D01*
X18447890Y-18162963D01*
X18457414Y-18115344D01*
X18457414Y-18077249D01*
X18447890Y-18029630D01*
X18438366Y-18001058D01*
X18428843Y-17982011D01*
X18409795Y-17953439D01*
X18400271Y-17943915D01*
X13428366Y-18246011D02*
X13628366Y-18446011D01*
X13628366Y-18246011D02*
X13428366Y-18446011D01*
X13628366Y-18346011D02*
G75*
G03*
X13628366Y-18346011I-100000J0D01*
G01*
X13876462Y-18255534D02*
X13885985Y-18246011D01*
X13905033Y-18236487D01*
X13952652Y-18236487D01*
X13971700Y-18246011D01*
X13981223Y-18255534D01*
X13990747Y-18274582D01*
X13990747Y-18293630D01*
X13981223Y-18322201D01*
X13866938Y-18436487D01*
X13990747Y-18436487D01*
X14076462Y-18417439D02*
X14085985Y-18426963D01*
X14076462Y-18436487D01*
X14066938Y-18426963D01*
X14076462Y-18417439D01*
X14076462Y-18436487D01*
X14152652Y-18236487D02*
X14276462Y-18236487D01*
X14209795Y-18312677D01*
X14238366Y-18312677D01*
X14257414Y-18322201D01*
X14266938Y-18331725D01*
X14276462Y-18350773D01*
X14276462Y-18398392D01*
X14266938Y-18417439D01*
X14257414Y-18426963D01*
X14238366Y-18436487D01*
X14181223Y-18436487D01*
X14162176Y-18426963D01*
X14152652Y-18417439D01*
X14400271Y-18236487D02*
X14419319Y-18236487D01*
X14438366Y-18246011D01*
X14447890Y-18255534D01*
X14457414Y-18274582D01*
X14466938Y-18312677D01*
X14466938Y-18360296D01*
X14457414Y-18398392D01*
X14447890Y-18417439D01*
X14438366Y-18426963D01*
X14419319Y-18436487D01*
X14400271Y-18436487D01*
X14381223Y-18426963D01*
X14371700Y-18417439D01*
X14362176Y-18398392D01*
X14352652Y-18360296D01*
X14352652Y-18312677D01*
X14362176Y-18274582D01*
X14371700Y-18255534D01*
X14381223Y-18246011D01*
X14400271Y-18236487D01*
X14590747Y-18236487D02*
X14609795Y-18236487D01*
X14628842Y-18246011D01*
X14638366Y-18255534D01*
X14647890Y-18274582D01*
X14657414Y-18312677D01*
X14657414Y-18360296D01*
X14647890Y-18398392D01*
X14638366Y-18417439D01*
X14628842Y-18426963D01*
X14609795Y-18436487D01*
X14590747Y-18436487D01*
X14571700Y-18426963D01*
X14562176Y-18417439D01*
X14552652Y-18398392D01*
X14543128Y-18360296D01*
X14543128Y-18312677D01*
X14552652Y-18274582D01*
X14562176Y-18255534D01*
X14571700Y-18246011D01*
X14590747Y-18236487D01*
X14743128Y-18436487D02*
X14743128Y-18303153D01*
X14743128Y-18322201D02*
X14752652Y-18312677D01*
X14771700Y-18303153D01*
X14800271Y-18303153D01*
X14819319Y-18312677D01*
X14828842Y-18331725D01*
X14828842Y-18436487D01*
X14828842Y-18331725D02*
X14838366Y-18312677D01*
X14857414Y-18303153D01*
X14885985Y-18303153D01*
X14905033Y-18312677D01*
X14914557Y-18331725D01*
X14914557Y-18436487D01*
X15009795Y-18436487D02*
X15009795Y-18303153D01*
X15009795Y-18322201D02*
X15019319Y-18312677D01*
X15038366Y-18303153D01*
X15066938Y-18303153D01*
X15085985Y-18312677D01*
X15095509Y-18331725D01*
X15095509Y-18436487D01*
X15095509Y-18331725D02*
X15105033Y-18312677D01*
X15124081Y-18303153D01*
X15152652Y-18303153D01*
X15171700Y-18312677D01*
X15181223Y-18331725D01*
X15181223Y-18436487D01*
X15571700Y-18226963D02*
X15400271Y-18484106D01*
X15828842Y-18236487D02*
X15847890Y-18236487D01*
X15866938Y-18246011D01*
X15876462Y-18255534D01*
X15885985Y-18274582D01*
X15895509Y-18312677D01*
X15895509Y-18360296D01*
X15885985Y-18398392D01*
X15876462Y-18417439D01*
X15866938Y-18426963D01*
X15847890Y-18436487D01*
X15828842Y-18436487D01*
X15809795Y-18426963D01*
X15800271Y-18417439D01*
X15790747Y-18398392D01*
X15781223Y-18360296D01*
X15781223Y-18312677D01*
X15790747Y-18274582D01*
X15800271Y-18255534D01*
X15809795Y-18246011D01*
X15828842Y-18236487D01*
X15981223Y-18417439D02*
X15990747Y-18426963D01*
X15981223Y-18436487D01*
X15971700Y-18426963D01*
X15981223Y-18417439D01*
X15981223Y-18436487D01*
X16114557Y-18236487D02*
X16133604Y-18236487D01*
X16152652Y-18246011D01*
X16162176Y-18255534D01*
X16171700Y-18274582D01*
X16181223Y-18312677D01*
X16181223Y-18360296D01*
X16171700Y-18398392D01*
X16162176Y-18417439D01*
X16152652Y-18426963D01*
X16133604Y-18436487D01*
X16114557Y-18436487D01*
X16095509Y-18426963D01*
X16085985Y-18417439D01*
X16076462Y-18398392D01*
X16066938Y-18360296D01*
X16066938Y-18312677D01*
X16076462Y-18274582D01*
X16085985Y-18255534D01*
X16095509Y-18246011D01*
X16114557Y-18236487D01*
X16276462Y-18436487D02*
X16314557Y-18436487D01*
X16333604Y-18426963D01*
X16343128Y-18417439D01*
X16362176Y-18388868D01*
X16371700Y-18350773D01*
X16371700Y-18274582D01*
X16362176Y-18255534D01*
X16352652Y-18246011D01*
X16333604Y-18236487D01*
X16295509Y-18236487D01*
X16276462Y-18246011D01*
X16266938Y-18255534D01*
X16257414Y-18274582D01*
X16257414Y-18322201D01*
X16266938Y-18341249D01*
X16276462Y-18350773D01*
X16295509Y-18360296D01*
X16333604Y-18360296D01*
X16352652Y-18350773D01*
X16362176Y-18341249D01*
X16371700Y-18322201D01*
X16495509Y-18236487D02*
X16514557Y-18236487D01*
X16533604Y-18246011D01*
X16543128Y-18255534D01*
X16552652Y-18274582D01*
X16562176Y-18312677D01*
X16562176Y-18360296D01*
X16552652Y-18398392D01*
X16543128Y-18417439D01*
X16533604Y-18426963D01*
X16514557Y-18436487D01*
X16495509Y-18436487D01*
X16476462Y-18426963D01*
X16466938Y-18417439D01*
X16457414Y-18398392D01*
X16447890Y-18360296D01*
X16447890Y-18312677D01*
X16457414Y-18274582D01*
X16466938Y-18255534D01*
X16476462Y-18246011D01*
X16495509Y-18236487D01*
X16733604Y-18236487D02*
X16695509Y-18236487D01*
X16676462Y-18246011D01*
X16666938Y-18255534D01*
X16647890Y-18284106D01*
X16638366Y-18322201D01*
X16638366Y-18398392D01*
X16647890Y-18417439D01*
X16657414Y-18426963D01*
X16676462Y-18436487D01*
X16714557Y-18436487D01*
X16733604Y-18426963D01*
X16743128Y-18417439D01*
X16752652Y-18398392D01*
X16752652Y-18350773D01*
X16743128Y-18331725D01*
X16733604Y-18322201D01*
X16714557Y-18312677D01*
X16676462Y-18312677D01*
X16657414Y-18322201D01*
X16647890Y-18331725D01*
X16638366Y-18350773D01*
X16828843Y-18236487D02*
X16828843Y-18274582D01*
X16905033Y-18236487D02*
X16905033Y-18274582D01*
X17200271Y-18512677D02*
X17190747Y-18503153D01*
X17171700Y-18474582D01*
X17162176Y-18455534D01*
X17152652Y-18426963D01*
X17143128Y-18379344D01*
X17143128Y-18341249D01*
X17152652Y-18293630D01*
X17162176Y-18265058D01*
X17171700Y-18246011D01*
X17190747Y-18217439D01*
X17200271Y-18207915D01*
X17362176Y-18236487D02*
X17324081Y-18236487D01*
X17305033Y-18246011D01*
X17295509Y-18255534D01*
X17276462Y-18284106D01*
X17266938Y-18322201D01*
X17266938Y-18398392D01*
X17276462Y-18417439D01*
X17285985Y-18426963D01*
X17305033Y-18436487D01*
X17343128Y-18436487D01*
X17362176Y-18426963D01*
X17371700Y-18417439D01*
X17381224Y-18398392D01*
X17381224Y-18350773D01*
X17371700Y-18331725D01*
X17362176Y-18322201D01*
X17343128Y-18312677D01*
X17305033Y-18312677D01*
X17285985Y-18322201D01*
X17276462Y-18331725D01*
X17266938Y-18350773D01*
X17619319Y-18436487D02*
X17619319Y-18236487D01*
X17705033Y-18436487D02*
X17705033Y-18331725D01*
X17695509Y-18312677D01*
X17676462Y-18303153D01*
X17647890Y-18303153D01*
X17628843Y-18312677D01*
X17619319Y-18322201D01*
X17828843Y-18436487D02*
X17809795Y-18426963D01*
X17800271Y-18417439D01*
X17790747Y-18398392D01*
X17790747Y-18341249D01*
X17800271Y-18322201D01*
X17809795Y-18312677D01*
X17828843Y-18303153D01*
X17857414Y-18303153D01*
X17876462Y-18312677D01*
X17885985Y-18322201D01*
X17895509Y-18341249D01*
X17895509Y-18398392D01*
X17885985Y-18417439D01*
X17876462Y-18426963D01*
X17857414Y-18436487D01*
X17828843Y-18436487D01*
X18009795Y-18436487D02*
X17990747Y-18426963D01*
X17981224Y-18407915D01*
X17981224Y-18236487D01*
X18162176Y-18426963D02*
X18143128Y-18436487D01*
X18105033Y-18436487D01*
X18085985Y-18426963D01*
X18076462Y-18407915D01*
X18076462Y-18331725D01*
X18085985Y-18312677D01*
X18105033Y-18303153D01*
X18143128Y-18303153D01*
X18162176Y-18312677D01*
X18171700Y-18331725D01*
X18171700Y-18350773D01*
X18076462Y-18369820D01*
X18247890Y-18426963D02*
X18266938Y-18436487D01*
X18305033Y-18436487D01*
X18324081Y-18426963D01*
X18333604Y-18407915D01*
X18333604Y-18398392D01*
X18324081Y-18379344D01*
X18305033Y-18369820D01*
X18276462Y-18369820D01*
X18257414Y-18360296D01*
X18247890Y-18341249D01*
X18247890Y-18331725D01*
X18257414Y-18312677D01*
X18276462Y-18303153D01*
X18305033Y-18303153D01*
X18324081Y-18312677D01*
X18400271Y-18512677D02*
X18409795Y-18503153D01*
X18428843Y-18474582D01*
X18438366Y-18455534D01*
X18447890Y-18426963D01*
X18457414Y-18379344D01*
X18457414Y-18341249D01*
X18447890Y-18293630D01*
X18438366Y-18265058D01*
X18428843Y-18246011D01*
X18409795Y-18217439D01*
X18400271Y-18207915D01*
X13428366Y-18566011D02*
X13628366Y-18766011D01*
X13628366Y-18566011D02*
X13428366Y-18766011D01*
X13528366Y-18566011D02*
X13528366Y-18766011D01*
X13428366Y-18666011D02*
X13628366Y-18666011D01*
X13876462Y-18575534D02*
X13885985Y-18566011D01*
X13905033Y-18556487D01*
X13952652Y-18556487D01*
X13971700Y-18566011D01*
X13981223Y-18575534D01*
X13990747Y-18594582D01*
X13990747Y-18613630D01*
X13981223Y-18642201D01*
X13866938Y-18756487D01*
X13990747Y-18756487D01*
X14076462Y-18737439D02*
X14085985Y-18746963D01*
X14076462Y-18756487D01*
X14066938Y-18746963D01*
X14076462Y-18737439D01*
X14076462Y-18756487D01*
X14152652Y-18556487D02*
X14285985Y-18556487D01*
X14200271Y-18756487D01*
X14400271Y-18556487D02*
X14419319Y-18556487D01*
X14438366Y-18566011D01*
X14447890Y-18575534D01*
X14457414Y-18594582D01*
X14466938Y-18632677D01*
X14466938Y-18680296D01*
X14457414Y-18718392D01*
X14447890Y-18737439D01*
X14438366Y-18746963D01*
X14419319Y-18756487D01*
X14400271Y-18756487D01*
X14381223Y-18746963D01*
X14371700Y-18737439D01*
X14362176Y-18718392D01*
X14352652Y-18680296D01*
X14352652Y-18632677D01*
X14362176Y-18594582D01*
X14371700Y-18575534D01*
X14381223Y-18566011D01*
X14400271Y-18556487D01*
X14590747Y-18556487D02*
X14609795Y-18556487D01*
X14628842Y-18566011D01*
X14638366Y-18575534D01*
X14647890Y-18594582D01*
X14657414Y-18632677D01*
X14657414Y-18680296D01*
X14647890Y-18718392D01*
X14638366Y-18737439D01*
X14628842Y-18746963D01*
X14609795Y-18756487D01*
X14590747Y-18756487D01*
X14571700Y-18746963D01*
X14562176Y-18737439D01*
X14552652Y-18718392D01*
X14543128Y-18680296D01*
X14543128Y-18632677D01*
X14552652Y-18594582D01*
X14562176Y-18575534D01*
X14571700Y-18566011D01*
X14590747Y-18556487D01*
X14743128Y-18756487D02*
X14743128Y-18623153D01*
X14743128Y-18642201D02*
X14752652Y-18632677D01*
X14771700Y-18623153D01*
X14800271Y-18623153D01*
X14819319Y-18632677D01*
X14828842Y-18651725D01*
X14828842Y-18756487D01*
X14828842Y-18651725D02*
X14838366Y-18632677D01*
X14857414Y-18623153D01*
X14885985Y-18623153D01*
X14905033Y-18632677D01*
X14914557Y-18651725D01*
X14914557Y-18756487D01*
X15009795Y-18756487D02*
X15009795Y-18623153D01*
X15009795Y-18642201D02*
X15019319Y-18632677D01*
X15038366Y-18623153D01*
X15066938Y-18623153D01*
X15085985Y-18632677D01*
X15095509Y-18651725D01*
X15095509Y-18756487D01*
X15095509Y-18651725D02*
X15105033Y-18632677D01*
X15124081Y-18623153D01*
X15152652Y-18623153D01*
X15171700Y-18632677D01*
X15181223Y-18651725D01*
X15181223Y-18756487D01*
X15571700Y-18546963D02*
X15400271Y-18804106D01*
X15828842Y-18556487D02*
X15847890Y-18556487D01*
X15866938Y-18566011D01*
X15876462Y-18575534D01*
X15885985Y-18594582D01*
X15895509Y-18632677D01*
X15895509Y-18680296D01*
X15885985Y-18718392D01*
X15876462Y-18737439D01*
X15866938Y-18746963D01*
X15847890Y-18756487D01*
X15828842Y-18756487D01*
X15809795Y-18746963D01*
X15800271Y-18737439D01*
X15790747Y-18718392D01*
X15781223Y-18680296D01*
X15781223Y-18632677D01*
X15790747Y-18594582D01*
X15800271Y-18575534D01*
X15809795Y-18566011D01*
X15828842Y-18556487D01*
X15981223Y-18737439D02*
X15990747Y-18746963D01*
X15981223Y-18756487D01*
X15971700Y-18746963D01*
X15981223Y-18737439D01*
X15981223Y-18756487D01*
X16181223Y-18756487D02*
X16066938Y-18756487D01*
X16124081Y-18756487D02*
X16124081Y-18556487D01*
X16105033Y-18585058D01*
X16085985Y-18604106D01*
X16066938Y-18613630D01*
X16305033Y-18556487D02*
X16324081Y-18556487D01*
X16343128Y-18566011D01*
X16352652Y-18575534D01*
X16362176Y-18594582D01*
X16371700Y-18632677D01*
X16371700Y-18680296D01*
X16362176Y-18718392D01*
X16352652Y-18737439D01*
X16343128Y-18746963D01*
X16324081Y-18756487D01*
X16305033Y-18756487D01*
X16285985Y-18746963D01*
X16276462Y-18737439D01*
X16266938Y-18718392D01*
X16257414Y-18680296D01*
X16257414Y-18632677D01*
X16266938Y-18594582D01*
X16276462Y-18575534D01*
X16285985Y-18566011D01*
X16305033Y-18556487D01*
X16543128Y-18556487D02*
X16505033Y-18556487D01*
X16485985Y-18566011D01*
X16476462Y-18575534D01*
X16457414Y-18604106D01*
X16447890Y-18642201D01*
X16447890Y-18718392D01*
X16457414Y-18737439D01*
X16466938Y-18746963D01*
X16485985Y-18756487D01*
X16524081Y-18756487D01*
X16543128Y-18746963D01*
X16552652Y-18737439D01*
X16562176Y-18718392D01*
X16562176Y-18670773D01*
X16552652Y-18651725D01*
X16543128Y-18642201D01*
X16524081Y-18632677D01*
X16485985Y-18632677D01*
X16466938Y-18642201D01*
X16457414Y-18651725D01*
X16447890Y-18670773D01*
X16628842Y-18556487D02*
X16752652Y-18556487D01*
X16685985Y-18632677D01*
X16714557Y-18632677D01*
X16733604Y-18642201D01*
X16743128Y-18651725D01*
X16752652Y-18670773D01*
X16752652Y-18718392D01*
X16743128Y-18737439D01*
X16733604Y-18746963D01*
X16714557Y-18756487D01*
X16657414Y-18756487D01*
X16638366Y-18746963D01*
X16628842Y-18737439D01*
X16828843Y-18556487D02*
X16828843Y-18594582D01*
X16905033Y-18556487D02*
X16905033Y-18594582D01*
X17200271Y-18832677D02*
X17190747Y-18823153D01*
X17171700Y-18794582D01*
X17162176Y-18775534D01*
X17152652Y-18746963D01*
X17143128Y-18699344D01*
X17143128Y-18661249D01*
X17152652Y-18613630D01*
X17162176Y-18585058D01*
X17171700Y-18566011D01*
X17190747Y-18537439D01*
X17200271Y-18527915D01*
X17362176Y-18556487D02*
X17324081Y-18556487D01*
X17305033Y-18566011D01*
X17295509Y-18575534D01*
X17276462Y-18604106D01*
X17266938Y-18642201D01*
X17266938Y-18718392D01*
X17276462Y-18737439D01*
X17285985Y-18746963D01*
X17305033Y-18756487D01*
X17343128Y-18756487D01*
X17362176Y-18746963D01*
X17371700Y-18737439D01*
X17381224Y-18718392D01*
X17381224Y-18670773D01*
X17371700Y-18651725D01*
X17362176Y-18642201D01*
X17343128Y-18632677D01*
X17305033Y-18632677D01*
X17285985Y-18642201D01*
X17276462Y-18651725D01*
X17266938Y-18670773D01*
X17619319Y-18756487D02*
X17619319Y-18556487D01*
X17705033Y-18756487D02*
X17705033Y-18651725D01*
X17695509Y-18632677D01*
X17676462Y-18623153D01*
X17647890Y-18623153D01*
X17628843Y-18632677D01*
X17619319Y-18642201D01*
X17828843Y-18756487D02*
X17809795Y-18746963D01*
X17800271Y-18737439D01*
X17790747Y-18718392D01*
X17790747Y-18661249D01*
X17800271Y-18642201D01*
X17809795Y-18632677D01*
X17828843Y-18623153D01*
X17857414Y-18623153D01*
X17876462Y-18632677D01*
X17885985Y-18642201D01*
X17895509Y-18661249D01*
X17895509Y-18718392D01*
X17885985Y-18737439D01*
X17876462Y-18746963D01*
X17857414Y-18756487D01*
X17828843Y-18756487D01*
X18009795Y-18756487D02*
X17990747Y-18746963D01*
X17981224Y-18727915D01*
X17981224Y-18556487D01*
X18162176Y-18746963D02*
X18143128Y-18756487D01*
X18105033Y-18756487D01*
X18085985Y-18746963D01*
X18076462Y-18727915D01*
X18076462Y-18651725D01*
X18085985Y-18632677D01*
X18105033Y-18623153D01*
X18143128Y-18623153D01*
X18162176Y-18632677D01*
X18171700Y-18651725D01*
X18171700Y-18670773D01*
X18076462Y-18689820D01*
X18247890Y-18746963D02*
X18266938Y-18756487D01*
X18305033Y-18756487D01*
X18324081Y-18746963D01*
X18333604Y-18727915D01*
X18333604Y-18718392D01*
X18324081Y-18699344D01*
X18305033Y-18689820D01*
X18276462Y-18689820D01*
X18257414Y-18680296D01*
X18247890Y-18661249D01*
X18247890Y-18651725D01*
X18257414Y-18632677D01*
X18276462Y-18623153D01*
X18305033Y-18623153D01*
X18324081Y-18632677D01*
X18400271Y-18832677D02*
X18409795Y-18823153D01*
X18428843Y-18794582D01*
X18438366Y-18775534D01*
X18447890Y-18746963D01*
X18457414Y-18699344D01*
X18457414Y-18661249D01*
X18447890Y-18613630D01*
X18438366Y-18585058D01*
X18428843Y-18566011D01*
X18409795Y-18537439D01*
X18400271Y-18527915D01*
X13428366Y-18886011D02*
X13628366Y-19086011D01*
X13628366Y-18886011D02*
X13428366Y-19086011D01*
X13599078Y-19056722D02*
X13599078Y-18915299D01*
X13457655Y-18915299D01*
X13457655Y-19056722D01*
X13599078Y-19056722D01*
X13866938Y-18876487D02*
X13990747Y-18876487D01*
X13924081Y-18952677D01*
X13952652Y-18952677D01*
X13971700Y-18962201D01*
X13981223Y-18971725D01*
X13990747Y-18990773D01*
X13990747Y-19038392D01*
X13981223Y-19057439D01*
X13971700Y-19066963D01*
X13952652Y-19076487D01*
X13895509Y-19076487D01*
X13876462Y-19066963D01*
X13866938Y-19057439D01*
X14076462Y-19057439D02*
X14085985Y-19066963D01*
X14076462Y-19076487D01*
X14066938Y-19066963D01*
X14076462Y-19057439D01*
X14076462Y-19076487D01*
X14209795Y-18876487D02*
X14228842Y-18876487D01*
X14247890Y-18886011D01*
X14257414Y-18895534D01*
X14266938Y-18914582D01*
X14276462Y-18952677D01*
X14276462Y-19000296D01*
X14266938Y-19038392D01*
X14257414Y-19057439D01*
X14247890Y-19066963D01*
X14228842Y-19076487D01*
X14209795Y-19076487D01*
X14190747Y-19066963D01*
X14181223Y-19057439D01*
X14171700Y-19038392D01*
X14162176Y-19000296D01*
X14162176Y-18952677D01*
X14171700Y-18914582D01*
X14181223Y-18895534D01*
X14190747Y-18886011D01*
X14209795Y-18876487D01*
X14400271Y-18876487D02*
X14419319Y-18876487D01*
X14438366Y-18886011D01*
X14447890Y-18895534D01*
X14457414Y-18914582D01*
X14466938Y-18952677D01*
X14466938Y-19000296D01*
X14457414Y-19038392D01*
X14447890Y-19057439D01*
X14438366Y-19066963D01*
X14419319Y-19076487D01*
X14400271Y-19076487D01*
X14381223Y-19066963D01*
X14371700Y-19057439D01*
X14362176Y-19038392D01*
X14352652Y-19000296D01*
X14352652Y-18952677D01*
X14362176Y-18914582D01*
X14371700Y-18895534D01*
X14381223Y-18886011D01*
X14400271Y-18876487D01*
X14590747Y-18876487D02*
X14609795Y-18876487D01*
X14628842Y-18886011D01*
X14638366Y-18895534D01*
X14647890Y-18914582D01*
X14657414Y-18952677D01*
X14657414Y-19000296D01*
X14647890Y-19038392D01*
X14638366Y-19057439D01*
X14628842Y-19066963D01*
X14609795Y-19076487D01*
X14590747Y-19076487D01*
X14571700Y-19066963D01*
X14562176Y-19057439D01*
X14552652Y-19038392D01*
X14543128Y-19000296D01*
X14543128Y-18952677D01*
X14552652Y-18914582D01*
X14562176Y-18895534D01*
X14571700Y-18886011D01*
X14590747Y-18876487D01*
X14743128Y-19076487D02*
X14743128Y-18943153D01*
X14743128Y-18962201D02*
X14752652Y-18952677D01*
X14771700Y-18943153D01*
X14800271Y-18943153D01*
X14819319Y-18952677D01*
X14828842Y-18971725D01*
X14828842Y-19076487D01*
X14828842Y-18971725D02*
X14838366Y-18952677D01*
X14857414Y-18943153D01*
X14885985Y-18943153D01*
X14905033Y-18952677D01*
X14914557Y-18971725D01*
X14914557Y-19076487D01*
X15009795Y-19076487D02*
X15009795Y-18943153D01*
X15009795Y-18962201D02*
X15019319Y-18952677D01*
X15038366Y-18943153D01*
X15066938Y-18943153D01*
X15085985Y-18952677D01*
X15095509Y-18971725D01*
X15095509Y-19076487D01*
X15095509Y-18971725D02*
X15105033Y-18952677D01*
X15124081Y-18943153D01*
X15152652Y-18943153D01*
X15171700Y-18952677D01*
X15181223Y-18971725D01*
X15181223Y-19076487D01*
X15571700Y-18866963D02*
X15400271Y-19124106D01*
X15828842Y-18876487D02*
X15847890Y-18876487D01*
X15866938Y-18886011D01*
X15876462Y-18895534D01*
X15885985Y-18914582D01*
X15895509Y-18952677D01*
X15895509Y-19000296D01*
X15885985Y-19038392D01*
X15876462Y-19057439D01*
X15866938Y-19066963D01*
X15847890Y-19076487D01*
X15828842Y-19076487D01*
X15809795Y-19066963D01*
X15800271Y-19057439D01*
X15790747Y-19038392D01*
X15781223Y-19000296D01*
X15781223Y-18952677D01*
X15790747Y-18914582D01*
X15800271Y-18895534D01*
X15809795Y-18886011D01*
X15828842Y-18876487D01*
X15981223Y-19057439D02*
X15990747Y-19066963D01*
X15981223Y-19076487D01*
X15971700Y-19066963D01*
X15981223Y-19057439D01*
X15981223Y-19076487D01*
X16181223Y-19076487D02*
X16066938Y-19076487D01*
X16124081Y-19076487D02*
X16124081Y-18876487D01*
X16105033Y-18905058D01*
X16085985Y-18924106D01*
X16066938Y-18933630D01*
X16371700Y-19076487D02*
X16257414Y-19076487D01*
X16314557Y-19076487D02*
X16314557Y-18876487D01*
X16295509Y-18905058D01*
X16276462Y-18924106D01*
X16257414Y-18933630D01*
X16485985Y-18962201D02*
X16466938Y-18952677D01*
X16457414Y-18943153D01*
X16447890Y-18924106D01*
X16447890Y-18914582D01*
X16457414Y-18895534D01*
X16466938Y-18886011D01*
X16485985Y-18876487D01*
X16524081Y-18876487D01*
X16543128Y-18886011D01*
X16552652Y-18895534D01*
X16562176Y-18914582D01*
X16562176Y-18924106D01*
X16552652Y-18943153D01*
X16543128Y-18952677D01*
X16524081Y-18962201D01*
X16485985Y-18962201D01*
X16466938Y-18971725D01*
X16457414Y-18981249D01*
X16447890Y-19000296D01*
X16447890Y-19038392D01*
X16457414Y-19057439D01*
X16466938Y-19066963D01*
X16485985Y-19076487D01*
X16524081Y-19076487D01*
X16543128Y-19066963D01*
X16552652Y-19057439D01*
X16562176Y-19038392D01*
X16562176Y-19000296D01*
X16552652Y-18981249D01*
X16543128Y-18971725D01*
X16524081Y-18962201D01*
X16752652Y-19076487D02*
X16638366Y-19076487D01*
X16695509Y-19076487D02*
X16695509Y-18876487D01*
X16676462Y-18905058D01*
X16657414Y-18924106D01*
X16638366Y-18933630D01*
X16828843Y-18876487D02*
X16828843Y-18914582D01*
X16905033Y-18876487D02*
X16905033Y-18914582D01*
X17200271Y-19152677D02*
X17190747Y-19143153D01*
X17171700Y-19114582D01*
X17162176Y-19095534D01*
X17152652Y-19066963D01*
X17143128Y-19019344D01*
X17143128Y-18981249D01*
X17152652Y-18933630D01*
X17162176Y-18905058D01*
X17171700Y-18886011D01*
X17190747Y-18857439D01*
X17200271Y-18847915D01*
X17362176Y-18943153D02*
X17362176Y-19076487D01*
X17314557Y-18866963D02*
X17266938Y-19009820D01*
X17390747Y-19009820D01*
X17505033Y-18876487D02*
X17524081Y-18876487D01*
X17543128Y-18886011D01*
X17552652Y-18895534D01*
X17562176Y-18914582D01*
X17571700Y-18952677D01*
X17571700Y-19000296D01*
X17562176Y-19038392D01*
X17552652Y-19057439D01*
X17543128Y-19066963D01*
X17524081Y-19076487D01*
X17505033Y-19076487D01*
X17485985Y-19066963D01*
X17476462Y-19057439D01*
X17466938Y-19038392D01*
X17457414Y-19000296D01*
X17457414Y-18952677D01*
X17466938Y-18914582D01*
X17476462Y-18895534D01*
X17485985Y-18886011D01*
X17505033Y-18876487D01*
X17809795Y-19076487D02*
X17809795Y-18876487D01*
X17895509Y-19076487D02*
X17895509Y-18971725D01*
X17885985Y-18952677D01*
X17866938Y-18943153D01*
X17838366Y-18943153D01*
X17819319Y-18952677D01*
X17809795Y-18962201D01*
X18019319Y-19076487D02*
X18000271Y-19066963D01*
X17990747Y-19057439D01*
X17981224Y-19038392D01*
X17981224Y-18981249D01*
X17990747Y-18962201D01*
X18000271Y-18952677D01*
X18019319Y-18943153D01*
X18047890Y-18943153D01*
X18066938Y-18952677D01*
X18076462Y-18962201D01*
X18085985Y-18981249D01*
X18085985Y-19038392D01*
X18076462Y-19057439D01*
X18066938Y-19066963D01*
X18047890Y-19076487D01*
X18019319Y-19076487D01*
X18200271Y-19076487D02*
X18181224Y-19066963D01*
X18171700Y-19047915D01*
X18171700Y-18876487D01*
X18352652Y-19066963D02*
X18333604Y-19076487D01*
X18295509Y-19076487D01*
X18276462Y-19066963D01*
X18266938Y-19047915D01*
X18266938Y-18971725D01*
X18276462Y-18952677D01*
X18295509Y-18943153D01*
X18333604Y-18943153D01*
X18352652Y-18952677D01*
X18362176Y-18971725D01*
X18362176Y-18990773D01*
X18266938Y-19009820D01*
X18438366Y-19066963D02*
X18457414Y-19076487D01*
X18495509Y-19076487D01*
X18514557Y-19066963D01*
X18524081Y-19047915D01*
X18524081Y-19038392D01*
X18514557Y-19019344D01*
X18495509Y-19009820D01*
X18466938Y-19009820D01*
X18447890Y-19000296D01*
X18438366Y-18981249D01*
X18438366Y-18971725D01*
X18447890Y-18952677D01*
X18466938Y-18943153D01*
X18495509Y-18943153D01*
X18514557Y-18952677D01*
X18590747Y-19152677D02*
X18600271Y-19143153D01*
X18619319Y-19114582D01*
X18628843Y-19095534D01*
X18638366Y-19066963D01*
X18647890Y-19019344D01*
X18647890Y-18981249D01*
X18638366Y-18933630D01*
X18628843Y-18905058D01*
X18619319Y-18886011D01*
X18600271Y-18857439D01*
X18590747Y-18847915D01*
M02*
