%TF.GenerationSoftware,KiCad,Pcbnew,(6.0.5)*%
%TF.CreationDate,2022-06-01T16:59:18+01:00*%
%TF.ProjectId,Project Fauxbow,50726f6a-6563-4742-9046-617578626f77,rev?*%
%TF.SameCoordinates,Original*%
%TF.FileFunction,Copper,L1,Top*%
%TF.FilePolarity,Positive*%
%FSLAX46Y46*%
G04 Gerber Fmt 4.6, Leading zero omitted, Abs format (unit mm)*
G04 Created by KiCad (PCBNEW (6.0.5)) date 2022-06-01 16:59:18*
%MOMM*%
%LPD*%
G01*
G04 APERTURE LIST*
G04 Aperture macros list*
%AMRoundRect*
0 Rectangle with rounded corners*
0 $1 Rounding radius*
0 $2 $3 $4 $5 $6 $7 $8 $9 X,Y pos of 4 corners*
0 Add a 4 corners polygon primitive as box body*
4,1,4,$2,$3,$4,$5,$6,$7,$8,$9,$2,$3,0*
0 Add four circle primitives for the rounded corners*
1,1,$1+$1,$2,$3*
1,1,$1+$1,$4,$5*
1,1,$1+$1,$6,$7*
1,1,$1+$1,$8,$9*
0 Add four rect primitives between the rounded corners*
20,1,$1+$1,$2,$3,$4,$5,0*
20,1,$1+$1,$4,$5,$6,$7,0*
20,1,$1+$1,$6,$7,$8,$9,0*
20,1,$1+$1,$8,$9,$2,$3,0*%
%AMRotRect*
0 Rectangle, with rotation*
0 The origin of the aperture is its center*
0 $1 length*
0 $2 width*
0 $3 Rotation angle, in degrees counterclockwise*
0 Add horizontal line*
21,1,$1,$2,0,0,$3*%
G04 Aperture macros list end*
%TA.AperFunction,SMDPad,CuDef*%
%ADD10RoundRect,0.250000X0.132583X-0.503814X0.503814X-0.132583X-0.132583X0.503814X-0.503814X0.132583X0*%
%TD*%
%TA.AperFunction,SMDPad,CuDef*%
%ADD11RoundRect,0.250000X0.167938X-0.751301X0.751301X-0.167938X-0.167938X0.751301X-0.751301X0.167938X0*%
%TD*%
%TA.AperFunction,SMDPad,CuDef*%
%ADD12RoundRect,0.075000X-0.521491X0.415425X0.415425X-0.521491X0.521491X-0.415425X-0.415425X0.521491X0*%
%TD*%
%TA.AperFunction,SMDPad,CuDef*%
%ADD13RoundRect,0.075000X-0.521491X-0.415425X-0.415425X-0.521491X0.521491X0.415425X0.415425X0.521491X0*%
%TD*%
%TA.AperFunction,ComponentPad*%
%ADD14C,4.500000*%
%TD*%
%TA.AperFunction,SMDPad,CuDef*%
%ADD15RoundRect,0.250000X0.262500X0.450000X-0.262500X0.450000X-0.262500X-0.450000X0.262500X-0.450000X0*%
%TD*%
%TA.AperFunction,SMDPad,CuDef*%
%ADD16RoundRect,0.250000X-0.250000X-0.475000X0.250000X-0.475000X0.250000X0.475000X-0.250000X0.475000X0*%
%TD*%
%TA.AperFunction,SMDPad,CuDef*%
%ADD17RotRect,1.950000X1.650000X135.000000*%
%TD*%
%TA.AperFunction,SMDPad,CuDef*%
%ADD18RoundRect,0.250000X-0.400000X-0.625000X0.400000X-0.625000X0.400000X0.625000X-0.400000X0.625000X0*%
%TD*%
%TA.AperFunction,SMDPad,CuDef*%
%ADD19R,0.600000X1.160000*%
%TD*%
%TA.AperFunction,SMDPad,CuDef*%
%ADD20R,0.300000X1.160000*%
%TD*%
%TA.AperFunction,ComponentPad*%
%ADD21O,0.900000X1.700000*%
%TD*%
%TA.AperFunction,ComponentPad*%
%ADD22O,0.900000X2.000000*%
%TD*%
%TA.AperFunction,SMDPad,CuDef*%
%ADD23RotRect,1.500000X0.550000X315.000000*%
%TD*%
%TA.AperFunction,SMDPad,CuDef*%
%ADD24RotRect,1.500000X0.550000X45.000000*%
%TD*%
%TA.AperFunction,SMDPad,CuDef*%
%ADD25RoundRect,0.250000X0.159099X-0.512652X0.512652X-0.159099X-0.159099X0.512652X-0.512652X0.159099X0*%
%TD*%
%TA.AperFunction,SMDPad,CuDef*%
%ADD26R,1.400000X1.200000*%
%TD*%
%TA.AperFunction,ComponentPad*%
%ADD27R,1.600000X1.600000*%
%TD*%
%TA.AperFunction,ComponentPad*%
%ADD28C,1.600000*%
%TD*%
%TA.AperFunction,ComponentPad*%
%ADD29C,3.000000*%
%TD*%
%TA.AperFunction,SMDPad,CuDef*%
%ADD30RoundRect,0.250000X-0.262500X-0.450000X0.262500X-0.450000X0.262500X0.450000X-0.262500X0.450000X0*%
%TD*%
%TA.AperFunction,SMDPad,CuDef*%
%ADD31R,1.500000X2.000000*%
%TD*%
%TA.AperFunction,SMDPad,CuDef*%
%ADD32R,3.800000X2.000000*%
%TD*%
%TA.AperFunction,ComponentPad*%
%ADD33C,2.100000*%
%TD*%
%TA.AperFunction,ComponentPad*%
%ADD34C,1.750000*%
%TD*%
%TA.AperFunction,ComponentPad*%
%ADD35C,3.300000*%
%TD*%
%TA.AperFunction,ViaPad*%
%ADD36C,0.800000*%
%TD*%
%TA.AperFunction,Conductor*%
%ADD37C,0.250000*%
%TD*%
%TA.AperFunction,Conductor*%
%ADD38C,0.200000*%
%TD*%
G04 APERTURE END LIST*
D10*
X178054765Y-86245235D03*
X179345235Y-84954765D03*
D11*
X238795146Y-79004854D03*
X241004854Y-76795146D03*
D12*
X172101212Y-75712124D03*
X171747658Y-76065678D03*
X171394105Y-76419231D03*
X171040551Y-76772785D03*
X170686998Y-77126338D03*
X170333445Y-77479891D03*
X169979891Y-77833445D03*
X169626338Y-78186998D03*
X169272785Y-78540551D03*
X168919231Y-78894105D03*
X168565678Y-79247658D03*
X168212124Y-79601212D03*
D13*
X168212124Y-81598788D03*
X168565678Y-81952342D03*
X168919231Y-82305895D03*
X169272785Y-82659449D03*
X169626338Y-83013002D03*
X169979891Y-83366555D03*
X170333445Y-83720109D03*
X170686998Y-84073662D03*
X171040551Y-84427215D03*
X171394105Y-84780769D03*
X171747658Y-85134322D03*
X172101212Y-85487876D03*
D12*
X174098788Y-85487876D03*
X174452342Y-85134322D03*
X174805895Y-84780769D03*
X175159449Y-84427215D03*
X175513002Y-84073662D03*
X175866555Y-83720109D03*
X176220109Y-83366555D03*
X176573662Y-83013002D03*
X176927215Y-82659449D03*
X177280769Y-82305895D03*
X177634322Y-81952342D03*
X177987876Y-81598788D03*
D13*
X177987876Y-79601212D03*
X177634322Y-79247658D03*
X177280769Y-78894105D03*
X176927215Y-78540551D03*
X176573662Y-78186998D03*
X176220109Y-77833445D03*
X175866555Y-77479891D03*
X175513002Y-77126338D03*
X175159449Y-76772785D03*
X174805895Y-76419231D03*
X174452342Y-76065678D03*
X174098788Y-75712124D03*
D14*
X162800000Y-85100000D03*
D15*
X162812500Y-69900000D03*
X160987500Y-69900000D03*
D16*
X176550000Y-61300000D03*
X178450000Y-61300000D03*
D14*
X177804668Y-128004668D03*
X240300000Y-67000000D03*
D17*
X244850089Y-81094454D03*
X242905546Y-79149911D03*
X241349911Y-80705546D03*
X243294454Y-82650089D03*
D18*
X244750000Y-148300000D03*
X247850000Y-148300000D03*
D14*
X258700000Y-104300000D03*
D19*
X167900000Y-66410000D03*
X167100000Y-66410000D03*
D20*
X165950000Y-66410000D03*
X164950000Y-66410000D03*
X164450000Y-66410000D03*
X163450000Y-66410000D03*
D19*
X162300000Y-66410000D03*
X161500000Y-66410000D03*
X161500000Y-66410000D03*
X162300000Y-66410000D03*
D20*
X162950000Y-66410000D03*
X163950000Y-66410000D03*
X165450000Y-66410000D03*
X166450000Y-66410000D03*
D19*
X167100000Y-66410000D03*
X167900000Y-66410000D03*
D21*
X160380000Y-61660000D03*
D22*
X160380000Y-65830000D03*
X169020000Y-65830000D03*
D21*
X169020000Y-61660000D03*
D23*
X250597918Y-64941064D03*
X250032233Y-65506750D03*
X249466548Y-66072435D03*
X248900862Y-66638120D03*
X248335177Y-67203806D03*
X247769491Y-67769491D03*
X247203806Y-68335177D03*
X246638120Y-68900862D03*
X246072435Y-69466548D03*
X245506750Y-70032233D03*
X244941064Y-70597918D03*
D24*
X244941064Y-73002082D03*
X245506750Y-73567767D03*
X246072435Y-74133452D03*
X246638120Y-74699138D03*
X247203806Y-75264823D03*
X247769491Y-75830509D03*
X248335177Y-76396194D03*
X248900862Y-76961880D03*
X249466548Y-77527565D03*
X250032233Y-78093250D03*
X250597918Y-78658936D03*
D23*
X253002082Y-78658936D03*
X253567767Y-78093250D03*
X254133452Y-77527565D03*
X254699138Y-76961880D03*
X255264823Y-76396194D03*
X255830509Y-75830509D03*
X256396194Y-75264823D03*
X256961880Y-74699138D03*
X257527565Y-74133452D03*
X258093250Y-73567767D03*
X258658936Y-73002082D03*
D24*
X258658936Y-70597918D03*
X258093250Y-70032233D03*
X257527565Y-69466548D03*
X256961880Y-68900862D03*
X256396194Y-68335177D03*
X255830509Y-67769491D03*
X255264823Y-67203806D03*
X254699138Y-66638120D03*
X254133452Y-66072435D03*
X253567767Y-65506750D03*
X253002082Y-64941064D03*
D14*
X242804668Y-130204668D03*
D25*
X168428249Y-74671751D03*
X169771751Y-73328249D03*
D26*
X165500000Y-78250000D03*
X163300000Y-78250000D03*
X163300000Y-79950000D03*
X165500000Y-79950000D03*
D27*
X158090000Y-96000000D03*
D28*
X158090000Y-98500000D03*
X158090000Y-100500000D03*
X158090000Y-103000000D03*
D29*
X155380000Y-106070000D03*
X155380000Y-92930000D03*
D30*
X166187500Y-69800000D03*
X168012500Y-69800000D03*
D11*
X244795146Y-85204854D03*
X247004854Y-82995146D03*
D31*
X178600000Y-64850000D03*
D32*
X176300000Y-71150000D03*
D31*
X176300000Y-64850000D03*
X174000000Y-64850000D03*
D33*
X245397500Y-137675000D03*
X245397500Y-144685000D03*
D34*
X247887500Y-138675000D03*
X247887500Y-143675000D03*
D27*
X158190000Y-74600000D03*
D28*
X158190000Y-77100000D03*
X158190000Y-79100000D03*
X158190000Y-81600000D03*
D29*
X155480000Y-84670000D03*
X155480000Y-71530000D03*
D27*
X158090000Y-117600000D03*
D28*
X158090000Y-120100000D03*
X158090000Y-122100000D03*
X158090000Y-124600000D03*
D29*
X155380000Y-114530000D03*
X155380000Y-127670000D03*
D14*
X150400000Y-131700000D03*
D35*
X187490000Y-105560000D03*
X193840000Y-103020000D03*
X187490000Y-85760000D03*
X193840000Y-83220000D03*
X223275000Y-139560000D03*
X229625000Y-137020000D03*
X241490000Y-94960000D03*
X247840000Y-92420000D03*
X154465491Y-143076735D03*
X158694753Y-137702031D03*
X187490000Y-139560000D03*
X193840000Y-137020000D03*
X205490000Y-105560000D03*
X211840000Y-103020000D03*
X205490000Y-122560000D03*
X211840000Y-120020000D03*
X169490000Y-94960000D03*
X175840000Y-92420000D03*
X169585000Y-111960000D03*
X175935000Y-109420000D03*
X223490000Y-85760000D03*
X229840000Y-83220000D03*
X187490000Y-68160000D03*
X193840000Y-65620000D03*
X187490000Y-122560000D03*
X193840000Y-120020000D03*
X205490000Y-139560000D03*
X211840000Y-137020000D03*
X205490000Y-68160000D03*
X211840000Y-65620000D03*
X205490000Y-85760000D03*
X211840000Y-83220000D03*
X223490000Y-122560000D03*
X229840000Y-120020000D03*
X223490000Y-68160000D03*
X229840000Y-65620000D03*
X241425000Y-111960000D03*
X247775000Y-109420000D03*
X223490000Y-105560000D03*
X229840000Y-103020000D03*
D36*
X182300000Y-83900000D03*
X235600000Y-112300000D03*
X178400000Y-118324500D03*
X250300000Y-68600000D03*
X253000000Y-79800000D03*
X180700000Y-65100000D03*
X245700000Y-84100000D03*
X177000000Y-100700000D03*
X230800000Y-110900000D03*
X231500000Y-75400000D03*
X248000000Y-117700000D03*
X250300000Y-73500000D03*
X246100000Y-78800000D03*
X245300000Y-77100000D03*
X169300000Y-80500000D03*
X171200000Y-82400000D03*
X172928678Y-83409002D03*
X174550264Y-78749736D03*
X176453817Y-86746183D03*
X172700000Y-80500000D03*
X169400000Y-75900000D03*
X174000000Y-82500000D03*
X177521584Y-84278416D03*
X164100000Y-71900000D03*
X176900000Y-85100000D03*
X164900000Y-73700000D03*
X156400000Y-95300000D03*
X168967372Y-84661212D03*
X253000000Y-70500000D03*
X245129735Y-68252424D03*
X244600000Y-69100000D03*
X238300000Y-89700000D03*
X236100000Y-96700000D03*
X243000000Y-90200000D03*
X243800000Y-70900000D03*
X241000000Y-105100000D03*
X260700000Y-80400000D03*
X252000000Y-70600000D03*
X198000000Y-78100000D03*
X223100000Y-130100000D03*
X187100000Y-112600000D03*
X186400000Y-75600000D03*
X203800000Y-113000000D03*
X247400000Y-70900000D03*
X248600000Y-69100000D03*
X239900000Y-101700000D03*
X186500000Y-130100000D03*
X204400000Y-75100000D03*
X257600000Y-61500000D03*
X185800000Y-93800000D03*
X222500000Y-92900000D03*
X186400000Y-146800000D03*
X167400000Y-116400000D03*
X203800000Y-93100000D03*
X254200000Y-63900000D03*
X240500000Y-119000000D03*
X223000000Y-75300000D03*
X222300000Y-112900000D03*
X204900000Y-129800000D03*
X170700000Y-116400000D03*
X204800000Y-146600000D03*
X223100000Y-146600000D03*
X157300000Y-149900000D03*
X162300000Y-68200000D03*
X197600000Y-97900000D03*
X197400000Y-115100000D03*
X191700000Y-95900000D03*
X201800000Y-95900000D03*
X182900000Y-133500000D03*
X181200000Y-141900000D03*
X191500000Y-132700000D03*
X203000000Y-132700000D03*
X220400000Y-95900000D03*
X204900000Y-94800000D03*
X205300000Y-131600000D03*
X222200000Y-133175500D03*
X223400000Y-95100000D03*
X175600000Y-122300000D03*
X247900000Y-122400000D03*
X224500000Y-132200000D03*
X248600000Y-71700000D03*
X253600000Y-73500000D03*
X255400000Y-72800000D03*
X240437701Y-71937701D03*
X244100000Y-72000000D03*
X242200000Y-75000000D03*
X240100000Y-89600000D03*
X237600000Y-97500000D03*
X245700000Y-89424500D03*
X259396383Y-76179018D03*
X240362299Y-106362299D03*
X261700000Y-79900000D03*
X257587701Y-80087701D03*
X257612299Y-76587701D03*
X259400000Y-78300000D03*
X261500000Y-82900000D03*
X246400000Y-72700000D03*
X249500000Y-74500000D03*
X249900000Y-103700000D03*
X252300000Y-87800000D03*
X252300000Y-95400000D03*
X250700000Y-76300000D03*
X251700000Y-79600000D03*
X252200000Y-90200000D03*
X237400000Y-106200000D03*
X250100000Y-89500000D03*
X250400000Y-87600000D03*
X252400000Y-114000000D03*
X259112299Y-82512299D03*
X257500000Y-62500000D03*
X250800000Y-74500000D03*
X180775500Y-84800000D03*
X180200000Y-62100000D03*
X255800000Y-78400000D03*
X250000000Y-99800000D03*
X183300000Y-115200000D03*
X251800000Y-100400000D03*
X248100000Y-99300000D03*
X258800000Y-79900000D03*
X254200000Y-68200000D03*
X257487701Y-64712299D03*
X166800000Y-73100000D03*
X248700000Y-63900000D03*
X168100000Y-72800000D03*
X165200000Y-75600000D03*
X165900000Y-83300000D03*
X216300000Y-62600000D03*
D37*
X253000000Y-78661018D02*
X253002082Y-78658936D01*
X252000000Y-74675386D02*
X251100103Y-73775489D01*
X176110912Y-87500000D02*
X178248891Y-87500000D01*
X161500000Y-66410000D02*
X160960000Y-66410000D01*
X171961561Y-83338439D02*
X172500000Y-82800000D01*
X171400000Y-77900000D02*
X172500000Y-77900000D01*
X169771751Y-71559251D02*
X168012500Y-69800000D01*
X250100000Y-73300000D02*
X250300000Y-73500000D01*
X169020000Y-61180000D02*
X170100000Y-60100000D01*
X234200000Y-110900000D02*
X230800000Y-110900000D01*
X254600000Y-70800000D02*
X251437259Y-67637259D01*
X178600000Y-64850000D02*
X178600000Y-61450000D01*
X172710912Y-84100000D02*
X174098788Y-85487876D01*
X174025126Y-77200000D02*
X173200000Y-77200000D01*
X179345235Y-84954765D02*
X179222531Y-84954765D01*
X169771751Y-73382663D02*
X172101212Y-75712124D01*
X258402082Y-73002082D02*
X257400000Y-72000000D01*
X172500000Y-82474874D02*
X170962563Y-80937437D01*
X169932234Y-82000000D02*
X169932234Y-81967766D01*
X171394105Y-84780769D02*
X172074874Y-84100000D01*
X257400000Y-70725483D02*
X258093250Y-70032233D01*
X176700000Y-116624500D02*
X176700000Y-114000000D01*
X174660000Y-111960000D02*
X169585000Y-111960000D01*
X238795146Y-79995146D02*
X238795146Y-79004854D01*
X180700000Y-65100000D02*
X178850000Y-65100000D01*
X179400000Y-85009530D02*
X179345235Y-84954765D01*
X171394105Y-84780769D02*
X171961561Y-84213313D01*
X167900000Y-66410000D02*
X168440000Y-66410000D01*
X160987500Y-69900000D02*
X161500000Y-69387500D01*
X180400000Y-83900000D02*
X179345235Y-84954765D01*
X258093250Y-70032233D02*
X257325483Y-70800000D01*
X170686998Y-77126338D02*
X169626338Y-78186998D01*
X246638120Y-74699138D02*
X246700862Y-74699138D01*
X160960000Y-66410000D02*
X160380000Y-65830000D01*
X179348891Y-86400000D02*
X179400000Y-86400000D01*
X241425000Y-115038049D02*
X241425000Y-111960000D01*
X251437259Y-67637259D02*
X251387093Y-67687424D01*
X168012500Y-68012500D02*
X167900000Y-67900000D01*
X174805895Y-76419231D02*
X174025126Y-77200000D01*
X169020000Y-61660000D02*
X169020000Y-61180000D01*
X160987500Y-69900000D02*
X157110000Y-69900000D01*
X176700000Y-114000000D02*
X174660000Y-111960000D01*
X168012500Y-69800000D02*
X168012500Y-68012500D01*
X257400000Y-72000000D02*
X257400000Y-70725483D01*
X169771751Y-73328249D02*
X169771751Y-71559251D01*
X251100103Y-73775489D02*
X250575489Y-73775489D01*
X165250000Y-79950000D02*
X163550000Y-78250000D01*
X168440000Y-66410000D02*
X169020000Y-65830000D01*
X179400000Y-86400000D02*
X179400000Y-85009530D01*
X253000000Y-79800000D02*
X253000000Y-78661018D01*
X251387093Y-67687424D02*
X250187424Y-67687424D01*
X178450000Y-60750000D02*
X178450000Y-61300000D01*
X173200000Y-76810912D02*
X172101212Y-75712124D01*
X169585000Y-111960000D02*
X164025000Y-106400000D01*
X164000000Y-106400000D02*
X164000000Y-103487091D01*
X252000000Y-77800000D02*
X252000000Y-74675386D01*
X169272785Y-82659449D02*
X169932234Y-82000000D01*
X235104854Y-79004854D02*
X231500000Y-75400000D01*
X169862563Y-79837437D02*
X170962563Y-80937437D01*
X178600000Y-61450000D02*
X178450000Y-61300000D01*
X172074874Y-84100000D02*
X172710912Y-84100000D01*
X171961561Y-84213313D02*
X171961561Y-83338439D01*
X164350000Y-77200000D02*
X167225126Y-77200000D01*
X169932234Y-81967766D02*
X170962563Y-80937437D01*
X244086951Y-117700000D02*
X241425000Y-115038049D01*
X182300000Y-83900000D02*
X180400000Y-83900000D01*
X178850000Y-65100000D02*
X178600000Y-64850000D01*
X172500000Y-77900000D02*
X173200000Y-77200000D01*
X169490000Y-97997091D02*
X172192909Y-100700000D01*
X246700862Y-74699138D02*
X248100000Y-73300000D01*
X165500000Y-79950000D02*
X165250000Y-79950000D01*
X170100000Y-60100000D02*
X177800000Y-60100000D01*
X257325483Y-70800000D02*
X254600000Y-70800000D01*
X177800000Y-60100000D02*
X178450000Y-60750000D01*
X163300000Y-78250000D02*
X164350000Y-77200000D01*
X244795146Y-85204854D02*
X244795146Y-85004854D01*
X248000000Y-117700000D02*
X244086951Y-117700000D01*
X171400000Y-77900000D02*
X171400000Y-78300000D01*
X250187424Y-67687424D02*
X248818795Y-67687424D01*
X173200000Y-77200000D02*
X173200000Y-76810912D01*
X252858936Y-78658936D02*
X252000000Y-77800000D01*
X238795146Y-79004854D02*
X235104854Y-79004854D01*
X171400000Y-78300000D02*
X169862563Y-79837437D01*
X176359758Y-79108008D02*
X175933134Y-79108008D01*
X172500000Y-82800000D02*
X172500000Y-82474874D01*
X172192909Y-100700000D02*
X177000000Y-100700000D01*
X167900000Y-67900000D02*
X167900000Y-66410000D01*
X175933134Y-79108008D02*
X174025126Y-77200000D01*
X168919231Y-78894105D02*
X169862563Y-79837437D01*
X253002082Y-78658936D02*
X252858936Y-78658936D01*
X253567767Y-65506750D02*
X251437259Y-67637259D01*
X178400000Y-118324500D02*
X176700000Y-116624500D01*
X157110000Y-69900000D02*
X155480000Y-71530000D01*
X174098788Y-85487876D02*
X176110912Y-87500000D01*
X161500000Y-69387500D02*
X161500000Y-66410000D01*
X258658936Y-73002082D02*
X258402082Y-73002082D01*
X244004854Y-85204854D02*
X238795146Y-79995146D01*
X170686998Y-77126338D02*
X170686998Y-77186998D01*
X178248891Y-87500000D02*
X179348891Y-86400000D01*
X250300000Y-67800000D02*
X250187424Y-67687424D01*
X163550000Y-78250000D02*
X163300000Y-78250000D01*
X176927215Y-78540551D02*
X176359758Y-79108008D01*
X248818795Y-67687424D02*
X248335177Y-67203806D01*
X169490000Y-97997091D02*
X169490000Y-94960000D01*
X170686998Y-77186998D02*
X171400000Y-77900000D01*
X164025000Y-106400000D02*
X164000000Y-106400000D01*
X250300000Y-68600000D02*
X250300000Y-67800000D01*
X244795146Y-85204854D02*
X244004854Y-85204854D01*
X235600000Y-112300000D02*
X234200000Y-110900000D01*
X169771751Y-73328249D02*
X169771751Y-73382663D01*
X164000000Y-103487091D02*
X169490000Y-97997091D01*
X179222531Y-84954765D02*
X176927215Y-82659449D01*
X167225126Y-77200000D02*
X168919231Y-78894105D01*
X244795146Y-85004854D02*
X245700000Y-84100000D01*
X250575489Y-73775489D02*
X250300000Y-73500000D01*
X163700000Y-78250000D02*
X163300000Y-78250000D01*
X248100000Y-73300000D02*
X250100000Y-73300000D01*
X242905546Y-79149911D02*
X244450089Y-79149911D01*
X244450089Y-79149911D02*
X247769491Y-75830509D01*
X242905546Y-79149911D02*
X241004854Y-77249219D01*
X241004854Y-77249219D02*
X241004854Y-76795146D01*
X244850089Y-81094454D02*
X246100000Y-79844543D01*
X246100000Y-79844543D02*
X246100000Y-78800000D01*
X247135177Y-75264823D02*
X247203806Y-75264823D01*
X246750781Y-82995146D02*
X244850089Y-81094454D01*
X247004854Y-82995146D02*
X246750781Y-82995146D01*
X245300000Y-77100000D02*
X247135177Y-75264823D01*
X178201212Y-81598788D02*
X178600000Y-81200000D01*
X175300000Y-81900000D02*
X174900000Y-82300000D01*
X174955456Y-74955456D02*
X174855456Y-74955456D01*
X174238438Y-84213312D02*
X174805895Y-84780769D01*
X173500000Y-80900000D02*
X174900000Y-82300000D01*
X176713313Y-81738439D02*
X175461561Y-81738439D01*
X172949520Y-83388160D02*
X172949520Y-82288677D01*
X178555332Y-79033756D02*
X177987876Y-79601212D01*
X177619541Y-77619541D02*
X178555332Y-78555332D01*
X172928678Y-83409002D02*
X173732988Y-84213312D01*
X168212124Y-81598788D02*
X168212124Y-81587876D01*
X176573662Y-78186998D02*
X177141119Y-77619541D01*
X175860660Y-82300000D02*
X174900000Y-82300000D01*
X177280769Y-82305895D02*
X176713313Y-81738439D01*
X171200000Y-82400000D02*
X171200000Y-82853554D01*
X174098788Y-75712124D02*
X174855456Y-74955456D01*
X176300000Y-64850000D02*
X176300000Y-71150000D01*
X171200000Y-82853554D02*
X170333445Y-83720109D01*
X173732988Y-84213312D02*
X174238438Y-84213312D01*
X177987876Y-81598788D02*
X178201212Y-81598788D01*
X168212124Y-81587876D02*
X169300000Y-80500000D01*
X176300000Y-73510912D02*
X176300000Y-71150000D01*
X177987876Y-81598788D02*
X177420420Y-81031332D01*
X178600000Y-80100000D02*
X178101212Y-79601212D01*
X177141119Y-77619541D02*
X177619541Y-77619541D01*
X172928678Y-83409002D02*
X172949520Y-83388160D01*
X172928678Y-81471322D02*
X173500000Y-80900000D01*
X174855456Y-74955456D02*
X176300000Y-73510912D01*
X176300000Y-64850000D02*
X176300000Y-61550000D01*
X178600000Y-81200000D02*
X178600000Y-80100000D01*
X178101212Y-79601212D02*
X177987876Y-79601212D01*
X176300000Y-61550000D02*
X176550000Y-61300000D01*
X176168668Y-81031332D02*
X175300000Y-81900000D01*
X177420420Y-81031332D02*
X176168668Y-81031332D01*
X175461561Y-81738439D02*
X175300000Y-81900000D01*
X177200000Y-77200000D02*
X174955456Y-74955456D01*
X176573662Y-78186998D02*
X177200000Y-77560660D01*
X176573662Y-83013002D02*
X175860660Y-82300000D01*
X172928678Y-82267835D02*
X172928678Y-81471322D01*
X178555332Y-78555332D02*
X178555332Y-79033756D01*
X172949520Y-82288677D02*
X172928678Y-82267835D01*
X177200000Y-77560660D02*
X177200000Y-77200000D01*
X172700000Y-80500000D02*
X174450264Y-78749736D01*
X169272785Y-78540551D02*
X168032234Y-77300000D01*
X175513002Y-84073662D02*
X174639340Y-83200000D01*
X169646625Y-74671751D02*
X171394105Y-76419231D01*
X174450264Y-78749736D02*
X174550264Y-78749736D01*
X169400000Y-75900000D02*
X169400000Y-75643502D01*
X168428249Y-74671751D02*
X169646625Y-74671751D01*
X174452342Y-85134322D02*
X176064203Y-86746183D01*
X169400000Y-75643502D02*
X168428249Y-74671751D01*
X176453817Y-86746183D02*
X176064203Y-86746183D01*
X168000000Y-77300000D02*
X169400000Y-75900000D01*
X174639340Y-83200000D02*
X174600000Y-83200000D01*
X174600000Y-83200000D02*
X174000000Y-82600000D01*
X168032234Y-77300000D02*
X168000000Y-77300000D01*
X174000000Y-82600000D02*
X174000000Y-82500000D01*
X165950000Y-69562500D02*
X165950000Y-66410000D01*
X166187500Y-69800000D02*
X165950000Y-69562500D01*
D38*
X163950000Y-66410000D02*
X163950000Y-67950000D01*
X177131970Y-84278416D02*
X176220109Y-83366555D01*
X164174016Y-67950000D02*
X163950000Y-67950000D01*
X163950000Y-67950000D02*
X163950000Y-71750000D01*
X164950000Y-66410000D02*
X164950000Y-67174016D01*
X164950000Y-67174016D02*
X164174016Y-67950000D01*
X177521584Y-84278416D02*
X177131970Y-84278416D01*
X163950000Y-71750000D02*
X164100000Y-71900000D01*
X165000000Y-67689022D02*
X165450000Y-67239022D01*
X165300000Y-65500000D02*
X165450000Y-65650000D01*
X164450000Y-66410000D02*
X164450000Y-65750000D01*
X164900000Y-73700000D02*
X165000000Y-73600000D01*
X176900000Y-85100000D02*
X176900000Y-84753554D01*
X176900000Y-84753554D02*
X175866555Y-83720109D01*
X165450000Y-67239022D02*
X165450000Y-66410000D01*
X164450000Y-65750000D02*
X164700000Y-65500000D01*
X164700000Y-65500000D02*
X165300000Y-65500000D01*
X165000000Y-73600000D02*
X165000000Y-67689022D01*
X165450000Y-65650000D02*
X165450000Y-66410000D01*
D37*
X163024511Y-67273533D02*
X162950000Y-67199022D01*
X162812500Y-69900000D02*
X163024511Y-69687989D01*
X163024511Y-69687989D02*
X163024511Y-67273533D01*
X162950000Y-67199022D02*
X162950000Y-66410000D01*
D38*
X159800000Y-96600000D02*
X170600000Y-85800000D01*
X171081980Y-85800000D02*
X171747658Y-85134322D01*
X158090000Y-120100000D02*
X159800000Y-118390000D01*
X159800000Y-118390000D02*
X159800000Y-96600000D01*
X170600000Y-85800000D02*
X171081980Y-85800000D01*
X158090000Y-122100000D02*
X160199519Y-119990481D01*
X171400000Y-86400000D02*
X172101212Y-85698788D01*
X171100000Y-86400000D02*
X171400000Y-86400000D01*
X172101212Y-85698788D02*
X172101212Y-85487876D01*
X160199519Y-119990481D02*
X160199519Y-97100481D01*
X160199519Y-97100481D02*
X171000000Y-86300000D01*
X171000000Y-86300000D02*
X171100000Y-86400000D01*
X164900000Y-89990000D02*
X160090000Y-94800000D01*
X156400000Y-95200000D02*
X156400000Y-95300000D01*
X168800000Y-85400000D02*
X164900000Y-89300000D01*
X160090000Y-94800000D02*
X159300000Y-94800000D01*
X164900000Y-89300000D02*
X164900000Y-89990000D01*
X170686998Y-84073662D02*
X169360660Y-85400000D01*
X159300000Y-94800000D02*
X156800000Y-94800000D01*
X156800000Y-94800000D02*
X156400000Y-95200000D01*
X169360660Y-85400000D02*
X168800000Y-85400000D01*
X158090000Y-100500000D02*
X159300000Y-99290000D01*
X159300000Y-96167766D02*
X171040551Y-84427215D01*
X159300000Y-99290000D02*
X159300000Y-96167766D01*
X169626338Y-83013002D02*
X168239340Y-84400000D01*
X163700000Y-88100000D02*
X161300000Y-88100000D01*
X165500000Y-84600000D02*
X165500000Y-86300000D01*
X159600000Y-77600000D02*
X159100000Y-77100000D01*
X159100000Y-77100000D02*
X158190000Y-77100000D01*
X165700000Y-84400000D02*
X165500000Y-84600000D01*
X168239340Y-84400000D02*
X165700000Y-84400000D01*
X159600000Y-86400000D02*
X159600000Y-77600000D01*
X161300000Y-88100000D02*
X159600000Y-86400000D01*
X165500000Y-86300000D02*
X163700000Y-88100000D01*
X168967372Y-84661212D02*
X168967372Y-84379074D01*
X168967372Y-84379074D02*
X169979891Y-83366555D01*
D37*
X252375489Y-69875489D02*
X247612747Y-69875489D01*
X253000000Y-70500000D02*
X252375489Y-69875489D01*
X247612747Y-69875489D02*
X246638120Y-68900862D01*
X245129735Y-68252424D02*
X245129735Y-68523848D01*
X245129735Y-68523848D02*
X246072435Y-69466548D01*
X244600000Y-69100000D02*
X244600000Y-69125483D01*
X236100000Y-96700000D02*
X237000000Y-96700000D01*
X238300000Y-95400000D02*
X238300000Y-89700000D01*
X237000000Y-96700000D02*
X237700000Y-96000000D01*
X237700000Y-96000000D02*
X238300000Y-95400000D01*
X244600000Y-69125483D02*
X245506750Y-70032233D01*
X241600000Y-97642381D02*
X243500000Y-95742381D01*
X241600000Y-104500000D02*
X241600000Y-97642381D01*
X244638982Y-70900000D02*
X244941064Y-70597918D01*
X243500000Y-95742381D02*
X243500000Y-90700000D01*
X241000000Y-105100000D02*
X241600000Y-104500000D01*
X243500000Y-90700000D02*
X243000000Y-90200000D01*
X243800000Y-70900000D02*
X244638982Y-70900000D01*
X259100000Y-79100000D02*
X255830509Y-75830509D01*
X260700000Y-80400000D02*
X259400000Y-79100000D01*
X259400000Y-79100000D02*
X259100000Y-79100000D01*
X252014892Y-70600000D02*
X256396194Y-74981302D01*
X252000000Y-70600000D02*
X252014892Y-70600000D01*
X256396194Y-74981302D02*
X256396194Y-75264823D01*
X254800000Y-61000000D02*
X259200000Y-65400000D01*
X199700000Y-63800000D02*
X202500000Y-61000000D01*
X259200000Y-68100000D02*
X259000000Y-68300000D01*
X199700000Y-76400000D02*
X199700000Y-63800000D01*
X198000000Y-78100000D02*
X199700000Y-76400000D01*
X258694113Y-68300000D02*
X257527565Y-69466548D01*
X259000000Y-68300000D02*
X258694113Y-68300000D01*
X202500000Y-61000000D02*
X254800000Y-61000000D01*
X259200000Y-65400000D02*
X259200000Y-68100000D01*
X247968629Y-69100000D02*
X247203806Y-68335177D01*
X222850000Y-150150000D02*
X223100000Y-149900000D01*
X221600000Y-116700000D02*
X233800000Y-116700000D01*
X186400000Y-130200000D02*
X186400000Y-133600000D01*
X203900000Y-147500000D02*
X203900000Y-150300000D01*
X151600000Y-96200000D02*
X151600000Y-78500000D01*
X239600000Y-73600000D02*
X242200000Y-76200000D01*
X177634322Y-81952342D02*
X178201778Y-82519798D01*
X261800103Y-83624511D02*
X262424511Y-83000103D01*
X204900000Y-129800000D02*
X204100000Y-130600000D01*
X221600000Y-113600000D02*
X221600000Y-116700000D01*
X222300000Y-112900000D02*
X221600000Y-113600000D01*
X203900000Y-150300000D02*
X222700000Y-150300000D01*
X244750000Y-148300000D02*
X242900000Y-150150000D01*
X242900000Y-150150000D02*
X222850000Y-150150000D01*
X258658936Y-70597918D02*
X259142554Y-70114300D01*
X185900000Y-79700000D02*
X185900000Y-77400000D01*
X185800000Y-93800000D02*
X185800000Y-95900000D01*
X204000000Y-133900000D02*
X222900000Y-133900000D01*
X223000000Y-75300000D02*
X224700000Y-73600000D01*
X259700000Y-63600000D02*
X257600000Y-61500000D01*
X262424511Y-83000103D02*
X262424511Y-73924511D01*
X183800000Y-112600000D02*
X187100000Y-112600000D01*
X246072435Y-74133452D02*
X246072435Y-74127565D01*
X182100000Y-125700000D02*
X182100000Y-114300000D01*
X238200000Y-116700000D02*
X240500000Y-119000000D01*
X158090000Y-96000000D02*
X157890000Y-96200000D01*
X186300000Y-96400000D02*
X186700000Y-96800000D01*
X185900000Y-77400000D02*
X185900000Y-79400000D01*
X167400000Y-116400000D02*
X170700000Y-116400000D01*
X232500000Y-96800000D02*
X235000000Y-96800000D01*
X155869751Y-117600000D02*
X151600000Y-113330249D01*
X167500000Y-64200000D02*
X166500000Y-65200000D01*
X185900000Y-79400000D02*
X186100000Y-79600000D01*
X188100000Y-116700000D02*
X203700000Y-116700000D01*
X203800000Y-93100000D02*
X203300000Y-93600000D01*
X188400000Y-79600000D02*
X202900000Y-79600000D01*
X218700000Y-79600000D02*
X223000000Y-75300000D01*
X204100000Y-133800000D02*
X204000000Y-133900000D01*
X183162608Y-150037392D02*
X183425216Y-150300000D01*
X206900000Y-144500000D02*
X206900000Y-140942381D01*
X183800000Y-112600000D02*
X183800000Y-95800000D01*
X185800000Y-95900000D02*
X186300000Y-96400000D01*
X262424511Y-73924511D02*
X259097918Y-70597918D01*
X173350000Y-64200000D02*
X167500000Y-64200000D01*
X167500000Y-64200000D02*
X163913918Y-64200000D01*
X151600000Y-78500000D02*
X155500000Y-74600000D01*
X183080202Y-91080202D02*
X183080202Y-82519798D01*
X259700000Y-63800000D02*
X259700000Y-63600000D01*
X203800000Y-113000000D02*
X203800000Y-116600000D01*
X186500000Y-130100000D02*
X186400000Y-130200000D01*
X178201778Y-82519798D02*
X183080202Y-82519798D01*
X155500000Y-74600000D02*
X158190000Y-74600000D01*
X157300000Y-149900000D02*
X157437392Y-150037392D01*
X204800000Y-146600000D02*
X206900000Y-144500000D01*
X246072435Y-74127565D02*
X247700000Y-72500000D01*
X247700000Y-72500000D02*
X250500000Y-72500000D01*
X222900000Y-133900000D02*
X223100000Y-133700000D01*
X174000000Y-64850000D02*
X173350000Y-64200000D01*
X203800000Y-116600000D02*
X203700000Y-116700000D01*
X259097918Y-70597918D02*
X258658936Y-70597918D01*
X185900000Y-76100000D02*
X185900000Y-77400000D01*
X167100000Y-66410000D02*
X167100000Y-65813918D01*
X254200000Y-63900000D02*
X254043146Y-63900000D01*
X163913918Y-64200000D02*
X162300000Y-65813918D01*
X186100000Y-79600000D02*
X188400000Y-79600000D01*
X204400000Y-75100000D02*
X202900000Y-76600000D01*
X247700000Y-72500000D02*
X247400000Y-72200000D01*
X194100000Y-133900000D02*
X204000000Y-133900000D01*
X244005887Y-76200000D02*
X246072435Y-74133452D01*
X166700000Y-65413918D02*
X166700000Y-65400000D01*
X253567767Y-78093250D02*
X259099028Y-83624511D01*
X183080202Y-82519798D02*
X185900000Y-79700000D01*
X158090000Y-117600000D02*
X155869751Y-117600000D01*
X203300000Y-96800000D02*
X222400000Y-96800000D01*
X186700000Y-96800000D02*
X203300000Y-96800000D01*
X182100000Y-114300000D02*
X183800000Y-112600000D01*
X224700000Y-73600000D02*
X239600000Y-73600000D01*
X233800000Y-116700000D02*
X238200000Y-116700000D01*
X248600000Y-69100000D02*
X247968629Y-69100000D01*
X223100000Y-149900000D02*
X223100000Y-146600000D01*
X259099028Y-83624511D02*
X261800103Y-83624511D01*
X222400000Y-96800000D02*
X232500000Y-96800000D01*
X185800000Y-93800000D02*
X183080202Y-91080202D01*
X183425216Y-150300000D02*
X203900000Y-150300000D01*
X203700000Y-116700000D02*
X221600000Y-116700000D01*
X186400000Y-75600000D02*
X185900000Y-76100000D01*
X166700000Y-65400000D02*
X166500000Y-65200000D01*
X204100000Y-130600000D02*
X204100000Y-133800000D01*
X259142554Y-70114300D02*
X259142554Y-69042554D01*
X202900000Y-76600000D02*
X202900000Y-79600000D01*
X222700000Y-150300000D02*
X222850000Y-150150000D01*
X187100000Y-115700000D02*
X187600000Y-116200000D01*
X206900000Y-140942381D02*
X207600000Y-140242381D01*
X223100000Y-133700000D02*
X223100000Y-130100000D01*
X242200000Y-76200000D02*
X244005887Y-76200000D01*
X207600000Y-140242381D02*
X207600000Y-133900000D01*
X222500000Y-92900000D02*
X222400000Y-93000000D01*
X203300000Y-93600000D02*
X203300000Y-96800000D01*
X254043146Y-63900000D02*
X253002082Y-64941064D01*
X157890000Y-96200000D02*
X151600000Y-96200000D01*
X235000000Y-96800000D02*
X239900000Y-101700000D01*
X187600000Y-116200000D02*
X188100000Y-116700000D01*
X187100000Y-112600000D02*
X187100000Y-115700000D01*
X186700000Y-133900000D02*
X194100000Y-133900000D01*
X253000000Y-75000000D02*
X253000000Y-77600000D01*
X247400000Y-72200000D02*
X247400000Y-70900000D01*
X183800000Y-95800000D02*
X185800000Y-93800000D01*
X259700000Y-68485108D02*
X259700000Y-63800000D01*
X202900000Y-79600000D02*
X218700000Y-79600000D01*
X186500000Y-130100000D02*
X182100000Y-125700000D01*
X204800000Y-146600000D02*
X203900000Y-147500000D01*
X183162608Y-150037392D02*
X186400000Y-146800000D01*
X162300000Y-65813918D02*
X162300000Y-66410000D01*
X162300000Y-68200000D02*
X162300000Y-66410000D01*
X186400000Y-133600000D02*
X186700000Y-133900000D01*
X250500000Y-72500000D02*
X253000000Y-75000000D01*
X157437392Y-150037392D02*
X183162608Y-150037392D01*
X259142554Y-69042554D02*
X259700000Y-68485108D01*
X222400000Y-93000000D02*
X222400000Y-96800000D01*
X151600000Y-113330249D02*
X151600000Y-96200000D01*
X167100000Y-65813918D02*
X166700000Y-65413918D01*
X197629521Y-97929521D02*
X197600000Y-97900000D01*
X197629521Y-114870479D02*
X197629521Y-97929521D01*
X197400000Y-115100000D02*
X197629521Y-114870479D01*
X191700000Y-95900000D02*
X201800000Y-95900000D01*
X181200000Y-141900000D02*
X181200000Y-135200000D01*
X181200000Y-135200000D02*
X182900000Y-133500000D01*
X191500000Y-132700000D02*
X203000000Y-132700000D01*
X220300000Y-96000000D02*
X220400000Y-95900000D01*
X204900000Y-94800000D02*
X204900000Y-95800000D01*
X205100000Y-96000000D02*
X220300000Y-96000000D01*
X204900000Y-95800000D02*
X205100000Y-96000000D01*
X206400000Y-133200000D02*
X222175500Y-133200000D01*
X205300000Y-132100000D02*
X206400000Y-133200000D01*
X205300000Y-131600000D02*
X205300000Y-132100000D01*
X222175500Y-133200000D02*
X222200000Y-133175500D01*
X235900000Y-89800000D02*
X237000000Y-88700000D01*
X153700000Y-153800000D02*
X150600000Y-150700000D01*
X162600000Y-124300000D02*
X172400000Y-124300000D01*
X253900000Y-90700000D02*
X253900000Y-96600000D01*
X235900000Y-93900000D02*
X235900000Y-89800000D01*
X253900000Y-96600000D02*
X253900000Y-149500000D01*
X237000000Y-88700000D02*
X251900000Y-88700000D01*
X233800000Y-96000000D02*
X235900000Y-93900000D01*
X162500000Y-153800000D02*
X153700000Y-153800000D01*
X253900000Y-149500000D02*
X250000000Y-153400000D01*
X251900000Y-88700000D02*
X253900000Y-90700000D01*
X150600000Y-150700000D02*
X148200000Y-148300000D01*
X173600000Y-124300000D02*
X175600000Y-122300000D01*
X172400000Y-124300000D02*
X173600000Y-124300000D01*
X250000000Y-153400000D02*
X249600000Y-153800000D01*
X223400000Y-95100000D02*
X224300000Y-96000000D01*
X224300000Y-96000000D02*
X233800000Y-96000000D01*
X249600000Y-153800000D02*
X162500000Y-153800000D01*
X148200000Y-148300000D02*
X148200000Y-138700000D01*
X148200000Y-138700000D02*
X162600000Y-124300000D01*
X233000000Y-132400000D02*
X235300000Y-132400000D01*
X235300000Y-132400000D02*
X244600000Y-123100000D01*
X224700000Y-132400000D02*
X233000000Y-132400000D01*
X245300000Y-122400000D02*
X247900000Y-122400000D01*
X224500000Y-132200000D02*
X224700000Y-132400000D01*
X244600000Y-123100000D02*
X245300000Y-122400000D01*
X240437701Y-71937701D02*
X244037701Y-71937701D01*
X248600000Y-71700000D02*
X251800000Y-71700000D01*
X255400000Y-72800000D02*
X256400000Y-73800000D01*
X251800000Y-71700000D02*
X253600000Y-73500000D01*
X244037701Y-71937701D02*
X244100000Y-72000000D01*
X256400000Y-73800000D02*
X256400000Y-74200000D01*
X237600000Y-97500000D02*
X239100000Y-96000000D01*
X239100000Y-96000000D02*
X239100000Y-91900000D01*
X239100000Y-90600000D02*
X240100000Y-89600000D01*
X239100000Y-91900000D02*
X239100000Y-90600000D01*
X242200000Y-75000000D02*
X244197918Y-73002082D01*
X244197918Y-73002082D02*
X244941064Y-73002082D01*
X240362299Y-106362299D02*
X240762315Y-106362299D01*
X248000000Y-95372381D02*
X245700000Y-93072381D01*
X248000000Y-97100000D02*
X248000000Y-95372381D01*
X242049520Y-101450480D02*
X243600000Y-99900000D01*
X259396383Y-76179018D02*
X257527565Y-74310200D01*
X245700000Y-93072381D02*
X245700000Y-89424500D01*
X240762315Y-106362299D02*
X242049520Y-105075094D01*
X246249454Y-99900000D02*
X248000000Y-98149454D01*
X242049520Y-104600000D02*
X242049520Y-101450480D01*
X248000000Y-98149454D02*
X248000000Y-97100000D01*
X243600000Y-99900000D02*
X246249454Y-99900000D01*
X242049520Y-105075094D02*
X242049520Y-104600000D01*
X257527565Y-74310200D02*
X257527565Y-74133452D01*
X261700000Y-79900000D02*
X261700000Y-77458037D01*
X258093250Y-73851287D02*
X258093250Y-73567767D01*
X261700000Y-77458037D02*
X258093250Y-73851287D01*
X246374517Y-72700000D02*
X245506750Y-73567767D01*
X259000000Y-81200000D02*
X258700000Y-81200000D01*
X246400000Y-72700000D02*
X246374517Y-72700000D01*
X261500000Y-82900000D02*
X259800000Y-81200000D01*
X247850000Y-148300000D02*
X247887500Y-148262500D01*
X258700000Y-81200000D02*
X257587701Y-80087701D01*
X259400000Y-78300000D02*
X259324598Y-78300000D01*
X247887500Y-148262500D02*
X247887500Y-143675000D01*
X259800000Y-81200000D02*
X259000000Y-81200000D01*
X259324598Y-78300000D02*
X257612299Y-76587701D01*
X249500000Y-75231371D02*
X248335177Y-76396194D01*
X249500000Y-74500000D02*
X249500000Y-75231371D01*
X247900000Y-77962742D02*
X248900862Y-76961880D01*
X234600000Y-88100000D02*
X244400000Y-88100000D01*
X229840000Y-83220000D02*
X234600000Y-87980000D01*
X244400000Y-88100000D02*
X249000000Y-83500000D01*
X247900000Y-79900000D02*
X247900000Y-77962742D01*
X249000000Y-83500000D02*
X249000000Y-81000000D01*
X234600000Y-87980000D02*
X234600000Y-88100000D01*
X249000000Y-81000000D02*
X247900000Y-79900000D01*
X237400000Y-106200000D02*
X239100000Y-107900000D01*
X252300000Y-80200000D02*
X252300000Y-87800000D01*
X239100000Y-107900000D02*
X242600000Y-107900000D01*
X245700000Y-107900000D02*
X249900000Y-103700000D01*
X252300000Y-90300000D02*
X252200000Y-90200000D01*
X251700000Y-79600000D02*
X252300000Y-80200000D01*
X252300000Y-95400000D02*
X252300000Y-90300000D01*
X250700000Y-76300000D02*
X250694113Y-76300000D01*
X242600000Y-107900000D02*
X245700000Y-107900000D01*
X250694113Y-76300000D02*
X249466548Y-77527565D01*
X250900000Y-112500000D02*
X250900000Y-98747091D01*
X250900000Y-98747091D02*
X251629521Y-98017570D01*
X251629521Y-96982430D02*
X250900000Y-96252909D01*
X252400000Y-114000000D02*
X250900000Y-112500000D01*
X251600000Y-86400000D02*
X251600000Y-82400000D01*
X249548614Y-80348614D02*
X249548614Y-78576869D01*
X250900000Y-90300000D02*
X250100000Y-89500000D01*
X251600000Y-82400000D02*
X249548614Y-80348614D01*
X250400000Y-87600000D02*
X251600000Y-86400000D01*
X251629521Y-98017570D02*
X251629521Y-96982430D01*
X249548614Y-78576869D02*
X250032233Y-78093250D01*
X250900000Y-96252909D02*
X250900000Y-90300000D01*
X259112299Y-82512299D02*
X258834666Y-82512299D01*
X254133452Y-77811085D02*
X254133452Y-77527565D01*
X258834666Y-82512299D02*
X254133452Y-77811085D01*
X251424511Y-75999897D02*
X251424511Y-77832343D01*
X177400000Y-88400000D02*
X177800000Y-88000000D01*
X175840000Y-92420000D02*
X175840000Y-89960000D01*
X178600000Y-88000000D02*
X180775500Y-85824500D01*
X186100000Y-60300000D02*
X255300000Y-60300000D01*
X251424511Y-77832343D02*
X250597918Y-78658936D01*
X175840000Y-89960000D02*
X177400000Y-88400000D01*
X250800000Y-75575489D02*
X251000103Y-75575489D01*
X180775500Y-85824500D02*
X180775500Y-84800000D01*
X177800000Y-88000000D02*
X178600000Y-88000000D01*
X250800000Y-74500000D02*
X250800000Y-75575489D01*
X255300000Y-60300000D02*
X257500000Y-62500000D01*
X180200000Y-62100000D02*
X182000000Y-60300000D01*
X182000000Y-60300000D02*
X186100000Y-60300000D01*
X251000103Y-75575489D02*
X251424511Y-75999897D01*
X248600000Y-99800000D02*
X248100000Y-99300000D01*
X253000000Y-120600000D02*
X252192959Y-121407041D01*
X184800000Y-116700000D02*
X185200000Y-116700000D01*
X255800000Y-78062742D02*
X254699138Y-76961880D01*
X253400000Y-102000000D02*
X253400000Y-114100000D01*
X253400000Y-114100000D02*
X253000000Y-114500000D01*
X239400000Y-120300000D02*
X240507041Y-121407041D01*
X185200000Y-116700000D02*
X185649520Y-117149520D01*
X250000000Y-99800000D02*
X248600000Y-99800000D01*
X236249520Y-117149520D02*
X239400000Y-120300000D01*
X251800000Y-100400000D02*
X253400000Y-102000000D01*
X185649520Y-117149520D02*
X236249520Y-117149520D01*
X183300000Y-115200000D02*
X184800000Y-116700000D01*
X255800000Y-78400000D02*
X255800000Y-78062742D01*
X240507041Y-121407041D02*
X248792959Y-121407041D01*
X252192959Y-121407041D02*
X248792959Y-121407041D01*
X253000000Y-114500000D02*
X253000000Y-120600000D01*
X255296194Y-76396194D02*
X255264823Y-76396194D01*
X258800000Y-79900000D02*
X255296194Y-76396194D01*
X254200000Y-67137258D02*
X254699138Y-66638120D01*
X254200000Y-68200000D02*
X254200000Y-67137258D01*
X255264823Y-66935177D02*
X255264823Y-67203806D01*
X257487701Y-64712299D02*
X255264823Y-66935177D01*
X178054765Y-86245235D02*
X176977469Y-86245235D01*
X176977469Y-86245235D02*
X175159449Y-84427215D01*
D38*
X167318020Y-83200000D02*
X166900000Y-83200000D01*
X168565678Y-81952342D02*
X167318020Y-83200000D01*
X163200000Y-81500000D02*
X160600000Y-81500000D01*
X249007929Y-65613816D02*
X249466548Y-66072435D01*
X249007929Y-64207929D02*
X249007929Y-65613816D01*
X160600000Y-81500000D02*
X160600000Y-78300000D01*
X166900000Y-83200000D02*
X166250489Y-82550489D01*
X164489259Y-75100000D02*
X166489259Y-73100000D01*
X166489259Y-73100000D02*
X166800000Y-73100000D01*
X166250489Y-82550489D02*
X164250489Y-82550489D01*
X163300000Y-81600000D02*
X163200000Y-81500000D01*
X160600000Y-78300000D02*
X163800000Y-75100000D01*
X163800000Y-75100000D02*
X164489259Y-75100000D01*
X164250489Y-82550489D02*
X163300000Y-81600000D01*
X248700000Y-63900000D02*
X249007929Y-64207929D01*
X244862742Y-62600000D02*
X248900862Y-66638120D01*
X167300000Y-83700000D02*
X166300000Y-83700000D01*
X168919231Y-82305895D02*
X168894105Y-82305895D01*
X168894105Y-82305895D02*
X167900000Y-83300000D01*
X167900000Y-83300000D02*
X167500000Y-83700000D01*
X166300000Y-83700000D02*
X165900000Y-83300000D01*
X167500000Y-83700000D02*
X167300000Y-83700000D01*
X165200000Y-75600000D02*
X165300000Y-75600000D01*
X165300000Y-75600000D02*
X168100000Y-72800000D01*
X216300000Y-62600000D02*
X244862742Y-62600000D01*
D37*
X167568020Y-78250000D02*
X168565678Y-79247658D01*
X165500000Y-78250000D02*
X167568020Y-78250000D01*
X168400000Y-80500000D02*
X168400000Y-79789088D01*
X168400000Y-79789088D02*
X168212124Y-79601212D01*
X163300000Y-80200000D02*
X164700000Y-81600000D01*
X167300000Y-81600000D02*
X168400000Y-80500000D01*
X163300000Y-79950000D02*
X163300000Y-80200000D01*
X164700000Y-81600000D02*
X167300000Y-81600000D01*
%TA.AperFunction,NonConductor*%
G36*
X181693741Y-59528502D02*
G01*
X181740234Y-59582158D01*
X181750338Y-59652432D01*
X181720844Y-59717012D01*
X181692186Y-59740174D01*
X181692384Y-59740447D01*
X181692382Y-59740448D01*
X181692383Y-59740448D01*
X181685969Y-59745108D01*
X181656625Y-59766428D01*
X181646701Y-59772947D01*
X181615460Y-59791422D01*
X181615455Y-59791426D01*
X181608637Y-59795458D01*
X181594313Y-59809782D01*
X181579281Y-59822621D01*
X181562893Y-59834528D01*
X181534712Y-59868593D01*
X181526722Y-59877373D01*
X180249500Y-61154595D01*
X180187188Y-61188621D01*
X180160405Y-61191500D01*
X180104513Y-61191500D01*
X180098061Y-61192872D01*
X180098056Y-61192872D01*
X180026115Y-61208164D01*
X179917712Y-61231206D01*
X179911682Y-61233891D01*
X179911681Y-61233891D01*
X179749278Y-61306197D01*
X179749276Y-61306198D01*
X179743248Y-61308882D01*
X179737907Y-61312762D01*
X179737906Y-61312763D01*
X179658561Y-61370411D01*
X179591693Y-61394269D01*
X179522542Y-61378189D01*
X179473062Y-61327275D01*
X179458500Y-61268475D01*
X179458500Y-60774600D01*
X179456311Y-60753502D01*
X179448238Y-60675692D01*
X179448237Y-60675688D01*
X179447526Y-60668834D01*
X179438622Y-60642144D01*
X179393868Y-60508002D01*
X179391550Y-60501054D01*
X179298478Y-60350652D01*
X179173303Y-60225695D01*
X179073714Y-60164307D01*
X179028968Y-60136725D01*
X179028966Y-60136724D01*
X179022738Y-60132885D01*
X178935776Y-60104041D01*
X178861389Y-60079368D01*
X178861387Y-60079368D01*
X178854861Y-60077203D01*
X178848025Y-60076503D01*
X178848022Y-60076502D01*
X178804969Y-60072091D01*
X178750400Y-60066500D01*
X178714595Y-60066500D01*
X178646474Y-60046498D01*
X178625499Y-60029595D01*
X178473278Y-59877373D01*
X178319500Y-59723595D01*
X178285475Y-59661283D01*
X178290540Y-59590467D01*
X178333087Y-59533632D01*
X178399607Y-59508821D01*
X178408596Y-59508500D01*
X181625620Y-59508500D01*
X181693741Y-59528502D01*
G37*
%TD.AperFunction*%
%TA.AperFunction,NonConductor*%
G36*
X177591365Y-62235976D02*
G01*
X177597922Y-62243530D01*
X177601522Y-62249348D01*
X177726697Y-62374305D01*
X177732927Y-62378145D01*
X177732928Y-62378146D01*
X177870090Y-62462694D01*
X177877262Y-62467115D01*
X177884209Y-62469419D01*
X177890844Y-62472513D01*
X177889801Y-62474749D01*
X177938538Y-62508523D01*
X177965766Y-62574091D01*
X177966500Y-62587672D01*
X177966500Y-63215500D01*
X177946498Y-63283621D01*
X177892842Y-63330114D01*
X177840500Y-63341500D01*
X177801866Y-63341500D01*
X177739684Y-63348255D01*
X177603295Y-63399385D01*
X177596110Y-63404770D01*
X177596108Y-63404771D01*
X177525565Y-63457640D01*
X177459058Y-63482488D01*
X177389676Y-63467435D01*
X177374435Y-63457640D01*
X177303892Y-63404771D01*
X177303890Y-63404770D01*
X177296705Y-63399385D01*
X177160316Y-63348255D01*
X177098134Y-63341500D01*
X177059500Y-63341500D01*
X176991379Y-63321498D01*
X176944886Y-63267842D01*
X176933500Y-63215500D01*
X176933500Y-62620879D01*
X176953502Y-62552758D01*
X177007158Y-62506265D01*
X177019623Y-62501356D01*
X177116993Y-62468870D01*
X177116995Y-62468869D01*
X177123946Y-62466550D01*
X177274348Y-62373478D01*
X177399305Y-62248303D01*
X177401906Y-62244084D01*
X177459030Y-62203583D01*
X177529953Y-62200351D01*
X177591365Y-62235976D01*
G37*
%TD.AperFunction*%
%TA.AperFunction,NonConductor*%
G36*
X166748467Y-67498131D02*
G01*
X166748471Y-67498131D01*
X166751866Y-67498500D01*
X167140500Y-67498500D01*
X167208621Y-67518502D01*
X167255114Y-67572158D01*
X167266500Y-67624500D01*
X167266500Y-67821233D01*
X167265973Y-67832416D01*
X167264298Y-67839909D01*
X167264547Y-67847835D01*
X167264547Y-67847836D01*
X167266438Y-67907986D01*
X167266500Y-67911945D01*
X167266500Y-67939856D01*
X167266997Y-67943790D01*
X167266997Y-67943791D01*
X167267005Y-67943856D01*
X167267938Y-67955693D01*
X167269327Y-67999889D01*
X167274978Y-68019339D01*
X167278987Y-68038700D01*
X167281526Y-68058797D01*
X167284445Y-68066168D01*
X167284445Y-68066170D01*
X167297804Y-68099912D01*
X167301649Y-68111142D01*
X167313982Y-68153593D01*
X167318015Y-68160412D01*
X167318017Y-68160417D01*
X167324293Y-68171028D01*
X167332988Y-68188776D01*
X167340448Y-68207617D01*
X167345111Y-68214035D01*
X167345113Y-68214039D01*
X167354937Y-68227561D01*
X167379000Y-68301620D01*
X167379000Y-68617366D01*
X167358998Y-68685487D01*
X167319304Y-68724509D01*
X167275652Y-68751522D01*
X167270479Y-68756704D01*
X167189216Y-68838109D01*
X167126934Y-68872188D01*
X167056114Y-68867185D01*
X167011025Y-68838264D01*
X166928483Y-68755866D01*
X166923303Y-68750695D01*
X166880882Y-68724546D01*
X166778968Y-68661725D01*
X166778966Y-68661724D01*
X166772738Y-68657885D01*
X166669833Y-68623753D01*
X166611473Y-68583322D01*
X166584236Y-68517758D01*
X166583500Y-68504160D01*
X166583500Y-67620639D01*
X166603502Y-67552518D01*
X166657158Y-67506025D01*
X166723107Y-67495376D01*
X166748467Y-67498131D01*
G37*
%TD.AperFunction*%
%TA.AperFunction,NonConductor*%
G36*
X167143886Y-70732815D02*
G01*
X167188975Y-70761736D01*
X167256878Y-70829521D01*
X167276697Y-70849305D01*
X167282927Y-70853145D01*
X167282928Y-70853146D01*
X167420090Y-70937694D01*
X167427262Y-70942115D01*
X167460520Y-70953146D01*
X167588611Y-70995632D01*
X167588613Y-70995632D01*
X167595139Y-70997797D01*
X167601975Y-70998497D01*
X167601978Y-70998498D01*
X167645031Y-71002909D01*
X167699600Y-71008500D01*
X168272906Y-71008500D01*
X168341027Y-71028502D01*
X168362001Y-71045405D01*
X169101346Y-71784750D01*
X169135372Y-71847062D01*
X169138251Y-71873845D01*
X169138251Y-72165127D01*
X169118249Y-72233248D01*
X169101346Y-72254222D01*
X169047928Y-72307640D01*
X168985616Y-72341666D01*
X168914801Y-72336601D01*
X168857965Y-72294054D01*
X168849719Y-72281552D01*
X168839040Y-72263056D01*
X168829500Y-72252460D01*
X168715675Y-72126045D01*
X168715674Y-72126044D01*
X168711253Y-72121134D01*
X168556752Y-72008882D01*
X168550724Y-72006198D01*
X168550722Y-72006197D01*
X168388319Y-71933891D01*
X168388318Y-71933891D01*
X168382288Y-71931206D01*
X168266362Y-71906565D01*
X168201944Y-71892872D01*
X168201939Y-71892872D01*
X168195487Y-71891500D01*
X168004513Y-71891500D01*
X167998061Y-71892872D01*
X167998056Y-71892872D01*
X167933638Y-71906565D01*
X167817712Y-71931206D01*
X167811682Y-71933891D01*
X167811681Y-71933891D01*
X167649278Y-72006197D01*
X167649276Y-72006198D01*
X167643248Y-72008882D01*
X167488747Y-72121134D01*
X167397742Y-72222206D01*
X167362941Y-72260856D01*
X167302495Y-72298096D01*
X167231512Y-72296744D01*
X167218057Y-72291653D01*
X167088323Y-72233892D01*
X167088315Y-72233889D01*
X167082288Y-72231206D01*
X166988887Y-72211353D01*
X166901944Y-72192872D01*
X166901939Y-72192872D01*
X166895487Y-72191500D01*
X166704513Y-72191500D01*
X166698061Y-72192872D01*
X166698056Y-72192872D01*
X166611113Y-72211353D01*
X166517712Y-72231206D01*
X166511682Y-72233891D01*
X166511681Y-72233891D01*
X166349278Y-72306197D01*
X166349276Y-72306198D01*
X166343248Y-72308882D01*
X166188747Y-72421134D01*
X166184326Y-72426044D01*
X166184325Y-72426045D01*
X166068395Y-72554799D01*
X166060960Y-72563056D01*
X165965473Y-72728444D01*
X165963432Y-72734727D01*
X165958074Y-72751216D01*
X165927336Y-72801374D01*
X165823595Y-72905115D01*
X165761283Y-72939141D01*
X165690468Y-72934076D01*
X165633632Y-72891529D01*
X165608821Y-72825009D01*
X165608500Y-72816020D01*
X165608500Y-71118254D01*
X165628502Y-71050133D01*
X165682158Y-71003640D01*
X165752432Y-70993536D01*
X165760912Y-70995053D01*
X165763610Y-70995631D01*
X165770139Y-70997797D01*
X165874600Y-71008500D01*
X166500400Y-71008500D01*
X166503646Y-71008163D01*
X166503650Y-71008163D01*
X166599308Y-70998238D01*
X166599312Y-70998237D01*
X166606166Y-70997526D01*
X166612702Y-70995345D01*
X166612704Y-70995345D01*
X166744806Y-70951272D01*
X166773946Y-70941550D01*
X166924348Y-70848478D01*
X167010784Y-70761891D01*
X167073066Y-70727812D01*
X167143886Y-70732815D01*
G37*
%TD.AperFunction*%
%TA.AperFunction,NonConductor*%
G36*
X172683621Y-64853502D02*
G01*
X172730114Y-64907158D01*
X172741500Y-64959500D01*
X172741500Y-65898134D01*
X172748255Y-65960316D01*
X172799385Y-66096705D01*
X172886739Y-66213261D01*
X173003295Y-66300615D01*
X173139684Y-66351745D01*
X173201866Y-66358500D01*
X174798134Y-66358500D01*
X174860316Y-66351745D01*
X174996705Y-66300615D01*
X175003892Y-66295229D01*
X175074435Y-66242360D01*
X175140942Y-66217512D01*
X175210324Y-66232565D01*
X175225565Y-66242360D01*
X175296108Y-66295229D01*
X175303295Y-66300615D01*
X175439684Y-66351745D01*
X175501866Y-66358500D01*
X175540500Y-66358500D01*
X175608621Y-66378502D01*
X175655114Y-66432158D01*
X175666500Y-66484500D01*
X175666500Y-69515500D01*
X175646498Y-69583621D01*
X175592842Y-69630114D01*
X175540500Y-69641500D01*
X174351866Y-69641500D01*
X174289684Y-69648255D01*
X174153295Y-69699385D01*
X174036739Y-69786739D01*
X173949385Y-69903295D01*
X173898255Y-70039684D01*
X173891500Y-70101866D01*
X173891500Y-72198134D01*
X173898255Y-72260316D01*
X173949385Y-72396705D01*
X174036739Y-72513261D01*
X174153295Y-72600615D01*
X174289684Y-72651745D01*
X174351866Y-72658500D01*
X175540500Y-72658500D01*
X175608621Y-72678502D01*
X175655114Y-72732158D01*
X175666500Y-72784500D01*
X175666500Y-73196318D01*
X175646498Y-73264439D01*
X175629595Y-73285413D01*
X175035717Y-73879290D01*
X174449769Y-74465238D01*
X174434737Y-74478077D01*
X174418349Y-74489984D01*
X174401524Y-74510322D01*
X174390168Y-74524049D01*
X174382178Y-74532829D01*
X174261762Y-74653245D01*
X174233750Y-74671966D01*
X174234727Y-74673658D01*
X174227578Y-74677786D01*
X174219946Y-74680947D01*
X174128659Y-74750993D01*
X173189095Y-75690557D01*
X173126783Y-75724583D01*
X173055968Y-75719518D01*
X173010905Y-75690557D01*
X172071341Y-74750993D01*
X171980054Y-74680947D01*
X171972423Y-74677786D01*
X171965271Y-74673657D01*
X171966248Y-74671965D01*
X171938236Y-74653243D01*
X171057790Y-73772797D01*
X171023764Y-73710485D01*
X171024239Y-73654823D01*
X171041329Y-73582245D01*
X171041329Y-73582241D01*
X171043006Y-73575121D01*
X171042995Y-73561703D01*
X171042892Y-73443919D01*
X171042852Y-73398251D01*
X171002013Y-73226159D01*
X170966779Y-73155951D01*
X170925765Y-73074228D01*
X170922679Y-73068079D01*
X170884460Y-73021134D01*
X170858413Y-72989140D01*
X170858407Y-72989134D01*
X170856382Y-72986646D01*
X170442156Y-72572420D01*
X170408130Y-72510108D01*
X170405251Y-72483325D01*
X170405251Y-71638019D01*
X170405778Y-71626836D01*
X170407453Y-71619343D01*
X170405313Y-71551252D01*
X170405251Y-71547295D01*
X170405251Y-71519395D01*
X170404747Y-71515404D01*
X170403814Y-71503562D01*
X170402674Y-71467287D01*
X170402425Y-71459362D01*
X170396772Y-71439903D01*
X170392763Y-71420544D01*
X170392597Y-71419234D01*
X170390225Y-71400454D01*
X170387309Y-71393088D01*
X170387307Y-71393082D01*
X170373951Y-71359349D01*
X170370106Y-71348119D01*
X170359981Y-71313268D01*
X170359981Y-71313267D01*
X170357770Y-71305658D01*
X170347456Y-71288217D01*
X170338759Y-71270464D01*
X170334223Y-71259009D01*
X170331303Y-71251634D01*
X170305314Y-71215863D01*
X170298798Y-71205943D01*
X170280329Y-71174714D01*
X170276293Y-71167889D01*
X170261972Y-71153568D01*
X170249131Y-71138534D01*
X170241882Y-71128557D01*
X170237223Y-71122144D01*
X170203146Y-71093953D01*
X170194367Y-71085963D01*
X169070405Y-69962000D01*
X169036379Y-69899688D01*
X169033500Y-69872905D01*
X169033500Y-69299600D01*
X169033163Y-69296350D01*
X169023238Y-69200692D01*
X169023237Y-69200688D01*
X169022526Y-69193834D01*
X168966550Y-69026054D01*
X168873478Y-68875652D01*
X168748303Y-68750695D01*
X168742069Y-68746852D01*
X168705883Y-68724546D01*
X168658390Y-68671774D01*
X168646000Y-68617287D01*
X168646000Y-68091267D01*
X168646527Y-68080084D01*
X168648202Y-68072591D01*
X168647769Y-68058797D01*
X168646062Y-68004514D01*
X168646000Y-68000555D01*
X168646000Y-67972644D01*
X168645495Y-67968644D01*
X168644562Y-67956801D01*
X168644528Y-67955699D01*
X168643173Y-67912611D01*
X168637521Y-67893157D01*
X168633513Y-67873800D01*
X168631968Y-67861570D01*
X168631968Y-67861569D01*
X168630974Y-67853703D01*
X168628055Y-67846330D01*
X168614696Y-67812588D01*
X168610851Y-67801358D01*
X168600729Y-67766517D01*
X168600729Y-67766516D01*
X168598518Y-67758907D01*
X168594485Y-67752088D01*
X168594483Y-67752083D01*
X168588207Y-67741472D01*
X168579512Y-67723724D01*
X168572052Y-67704883D01*
X168567389Y-67698465D01*
X168567387Y-67698461D01*
X168557563Y-67684939D01*
X168533500Y-67610880D01*
X168533500Y-67433413D01*
X168553502Y-67365292D01*
X168563101Y-67353381D01*
X168563261Y-67353261D01*
X168576327Y-67335827D01*
X168633187Y-67293313D01*
X168708913Y-67289463D01*
X168866425Y-67330492D01*
X168866428Y-67330492D01*
X168872607Y-67332102D01*
X168956597Y-67336504D01*
X169060683Y-67341959D01*
X169060687Y-67341959D01*
X169067064Y-67342293D01*
X169222413Y-67318799D01*
X169253285Y-67314130D01*
X169253286Y-67314130D01*
X169259599Y-67313175D01*
X169265585Y-67310972D01*
X169265591Y-67310971D01*
X169436360Y-67248140D01*
X169436365Y-67248138D01*
X169442346Y-67245937D01*
X169607840Y-67143326D01*
X169682362Y-67072855D01*
X169744685Y-67013919D01*
X169749322Y-67009534D01*
X169861011Y-66850025D01*
X169938345Y-66671316D01*
X169939651Y-66665066D01*
X169977176Y-66485443D01*
X169977177Y-66485438D01*
X169978165Y-66480707D01*
X169978500Y-66474315D01*
X169978500Y-65231337D01*
X169964638Y-65094869D01*
X169964410Y-65092622D01*
X169964410Y-65092621D01*
X169963765Y-65086273D01*
X169935845Y-64997179D01*
X169934561Y-64926194D01*
X169971858Y-64865783D01*
X170035895Y-64835127D01*
X170056079Y-64833500D01*
X172615500Y-64833500D01*
X172683621Y-64853502D01*
G37*
%TD.AperFunction*%
%TA.AperFunction,NonConductor*%
G36*
X167137094Y-74727621D02*
G01*
X167193930Y-74770168D01*
X167205673Y-74789157D01*
X167219326Y-74816361D01*
X167274235Y-74925773D01*
X167274238Y-74925777D01*
X167277321Y-74931921D01*
X167281663Y-74937254D01*
X167281664Y-74937256D01*
X167341587Y-75010860D01*
X167341593Y-75010866D01*
X167343618Y-75013354D01*
X168086646Y-75756382D01*
X168089176Y-75758436D01*
X168089180Y-75758440D01*
X168163840Y-75819064D01*
X168163844Y-75819066D01*
X168169193Y-75823410D01*
X168175354Y-75826489D01*
X168175358Y-75826491D01*
X168222185Y-75849889D01*
X168287160Y-75882355D01*
X168339155Y-75930694D01*
X168356762Y-75999473D01*
X168334390Y-76066852D01*
X168319934Y-76084161D01*
X167744925Y-76659170D01*
X167682613Y-76693196D01*
X167611798Y-76688131D01*
X167595127Y-76680488D01*
X167582693Y-76673652D01*
X167566173Y-76662801D01*
X167563834Y-76660987D01*
X167550167Y-76650386D01*
X167542898Y-76647241D01*
X167542894Y-76647238D01*
X167509589Y-76632826D01*
X167498939Y-76627609D01*
X167460186Y-76606305D01*
X167440563Y-76601267D01*
X167421860Y-76594863D01*
X167410546Y-76589967D01*
X167410545Y-76589967D01*
X167403271Y-76586819D01*
X167395448Y-76585580D01*
X167395438Y-76585577D01*
X167359602Y-76579901D01*
X167347982Y-76577495D01*
X167312837Y-76568472D01*
X167312836Y-76568472D01*
X167305156Y-76566500D01*
X167284902Y-76566500D01*
X167265191Y-76564949D01*
X167253012Y-76563020D01*
X167245183Y-76561780D01*
X167215912Y-76564547D01*
X167201165Y-76565941D01*
X167189307Y-76566500D01*
X165803147Y-76566500D01*
X165735026Y-76546498D01*
X165688533Y-76492842D01*
X165678429Y-76422568D01*
X165707923Y-76357988D01*
X165729086Y-76338564D01*
X165805909Y-76282749D01*
X165805911Y-76282747D01*
X165811253Y-76278866D01*
X165939040Y-76136944D01*
X166034527Y-75971556D01*
X166072799Y-75853767D01*
X166091502Y-75796207D01*
X166091502Y-75796205D01*
X166093542Y-75789928D01*
X166103315Y-75696944D01*
X166130328Y-75631287D01*
X166139530Y-75621019D01*
X167003967Y-74756582D01*
X167066279Y-74722556D01*
X167137094Y-74727621D01*
G37*
%TD.AperFunction*%
%TA.AperFunction,NonConductor*%
G36*
X164256577Y-75728502D02*
G01*
X164303070Y-75782158D01*
X164308289Y-75795562D01*
X164365473Y-75971556D01*
X164460960Y-76136944D01*
X164588747Y-76278866D01*
X164594089Y-76282747D01*
X164594091Y-76282749D01*
X164670914Y-76338564D01*
X164714268Y-76394786D01*
X164720343Y-76465523D01*
X164687211Y-76528314D01*
X164625391Y-76563226D01*
X164596853Y-76566500D01*
X164428767Y-76566500D01*
X164417584Y-76565973D01*
X164410091Y-76564298D01*
X164402165Y-76564547D01*
X164402164Y-76564547D01*
X164342014Y-76566438D01*
X164338055Y-76566500D01*
X164310144Y-76566500D01*
X164306210Y-76566997D01*
X164306209Y-76566997D01*
X164306144Y-76567005D01*
X164294307Y-76567938D01*
X164262490Y-76568938D01*
X164258029Y-76569078D01*
X164250110Y-76569327D01*
X164235722Y-76573507D01*
X164230658Y-76574978D01*
X164211306Y-76578986D01*
X164204235Y-76579880D01*
X164191203Y-76581526D01*
X164183834Y-76584443D01*
X164183832Y-76584444D01*
X164150097Y-76597800D01*
X164138869Y-76601645D01*
X164096407Y-76613982D01*
X164089585Y-76618016D01*
X164089579Y-76618019D01*
X164078968Y-76624294D01*
X164061218Y-76632990D01*
X164049756Y-76637528D01*
X164049751Y-76637531D01*
X164042383Y-76640448D01*
X164028194Y-76650757D01*
X164006625Y-76666427D01*
X163996707Y-76672943D01*
X163983950Y-76680488D01*
X163958637Y-76695458D01*
X163944313Y-76709782D01*
X163929281Y-76722621D01*
X163912893Y-76734528D01*
X163884712Y-76768593D01*
X163876722Y-76777373D01*
X163549500Y-77104595D01*
X163487188Y-77138621D01*
X163460405Y-77141500D01*
X162923239Y-77141500D01*
X162855118Y-77121498D01*
X162808625Y-77067842D01*
X162798521Y-76997568D01*
X162828015Y-76932988D01*
X162834144Y-76926405D01*
X164015144Y-75745405D01*
X164077456Y-75711379D01*
X164104239Y-75708500D01*
X164188456Y-75708500D01*
X164256577Y-75728502D01*
G37*
%TD.AperFunction*%
%TA.AperFunction,NonConductor*%
G36*
X173778652Y-77853502D02*
G01*
X173799627Y-77870405D01*
X173883403Y-77954182D01*
X173917428Y-78016495D01*
X173912362Y-78087310D01*
X173887945Y-78127584D01*
X173811224Y-78212792D01*
X173715737Y-78378180D01*
X173656722Y-78559808D01*
X173656032Y-78566369D01*
X173656032Y-78566371D01*
X173651102Y-78613283D01*
X173624089Y-78678940D01*
X173614887Y-78689209D01*
X172749499Y-79554596D01*
X172687187Y-79588621D01*
X172660404Y-79591500D01*
X172604513Y-79591500D01*
X172598061Y-79592872D01*
X172598056Y-79592872D01*
X172511112Y-79611353D01*
X172417712Y-79631206D01*
X172411682Y-79633891D01*
X172411681Y-79633891D01*
X172249278Y-79706197D01*
X172249276Y-79706198D01*
X172243248Y-79708882D01*
X172237907Y-79712762D01*
X172237906Y-79712763D01*
X172194471Y-79744321D01*
X172088747Y-79821134D01*
X172084326Y-79826044D01*
X172084325Y-79826045D01*
X171980637Y-79941203D01*
X171960960Y-79963056D01*
X171914047Y-80044311D01*
X171870482Y-80119769D01*
X171865473Y-80128444D01*
X171806458Y-80310072D01*
X171805768Y-80316633D01*
X171805768Y-80316635D01*
X171793015Y-80437978D01*
X171786496Y-80500000D01*
X171789902Y-80532401D01*
X171792227Y-80554525D01*
X171779455Y-80624364D01*
X171730953Y-80676210D01*
X171662120Y-80693605D01*
X171594810Y-80671024D01*
X171577822Y-80656791D01*
X171461283Y-80540252D01*
X171446167Y-80521982D01*
X171441535Y-80515166D01*
X171399408Y-80478026D01*
X171393638Y-80472607D01*
X171382333Y-80461302D01*
X171382329Y-80461299D01*
X170847562Y-79926532D01*
X170813536Y-79864220D01*
X170818601Y-79793405D01*
X170847562Y-79748342D01*
X171792247Y-78803657D01*
X171800537Y-78796113D01*
X171807018Y-78792000D01*
X171853659Y-78742332D01*
X171856413Y-78739491D01*
X171876134Y-78719770D01*
X171878612Y-78716575D01*
X171886318Y-78707553D01*
X171911158Y-78681101D01*
X171916586Y-78675321D01*
X171922732Y-78664142D01*
X171926346Y-78657568D01*
X171937199Y-78641045D01*
X171944753Y-78631306D01*
X171949613Y-78625041D01*
X171956358Y-78609455D01*
X172001770Y-78554883D01*
X172071993Y-78533500D01*
X172421233Y-78533500D01*
X172432416Y-78534027D01*
X172439909Y-78535702D01*
X172447835Y-78535453D01*
X172447836Y-78535453D01*
X172507986Y-78533562D01*
X172511945Y-78533500D01*
X172539856Y-78533500D01*
X172543791Y-78533003D01*
X172543856Y-78532995D01*
X172555693Y-78532062D01*
X172587951Y-78531048D01*
X172591970Y-78530922D01*
X172599889Y-78530673D01*
X172619343Y-78525021D01*
X172638700Y-78521013D01*
X172650930Y-78519468D01*
X172650931Y-78519468D01*
X172658797Y-78518474D01*
X172666168Y-78515555D01*
X172666170Y-78515555D01*
X172699912Y-78502196D01*
X172711142Y-78498351D01*
X172745983Y-78488229D01*
X172745984Y-78488229D01*
X172753593Y-78486018D01*
X172760412Y-78481985D01*
X172760417Y-78481983D01*
X172771028Y-78475707D01*
X172788776Y-78467012D01*
X172807617Y-78459552D01*
X172843387Y-78433564D01*
X172853307Y-78427048D01*
X172884535Y-78408580D01*
X172884538Y-78408578D01*
X172891362Y-78404542D01*
X172905683Y-78390221D01*
X172920717Y-78377380D01*
X172930694Y-78370131D01*
X172937107Y-78365472D01*
X172965298Y-78331395D01*
X172973288Y-78322616D01*
X173425499Y-77870405D01*
X173487811Y-77836379D01*
X173514594Y-77833500D01*
X173710531Y-77833500D01*
X173778652Y-77853502D01*
G37*
%TD.AperFunction*%
%TA.AperFunction,NonConductor*%
G36*
X162009532Y-77855183D02*
G01*
X162066368Y-77897730D01*
X162091179Y-77964250D01*
X162091500Y-77973239D01*
X162091500Y-78898134D01*
X162098255Y-78960316D01*
X162101027Y-78967712D01*
X162101029Y-78967718D01*
X162134039Y-79055771D01*
X162139222Y-79126578D01*
X162134039Y-79144229D01*
X162101029Y-79232282D01*
X162101027Y-79232288D01*
X162098255Y-79239684D01*
X162091500Y-79301866D01*
X162091500Y-80598134D01*
X162098255Y-80660316D01*
X162110735Y-80693605D01*
X162121106Y-80721270D01*
X162126289Y-80792077D01*
X162092369Y-80854446D01*
X162030113Y-80888575D01*
X162003124Y-80891500D01*
X161334500Y-80891500D01*
X161266379Y-80871498D01*
X161219886Y-80817842D01*
X161208500Y-80765500D01*
X161208500Y-78604239D01*
X161228502Y-78536118D01*
X161245405Y-78515144D01*
X161876405Y-77884144D01*
X161938717Y-77850118D01*
X162009532Y-77855183D01*
G37*
%TD.AperFunction*%
%TA.AperFunction,NonConductor*%
G36*
X167067364Y-78903502D02*
G01*
X167113857Y-78957158D01*
X167123961Y-79027432D01*
X167123286Y-79030724D01*
X167122151Y-79033463D01*
X167121126Y-79041252D01*
X167121125Y-79041255D01*
X167109893Y-79126578D01*
X167102098Y-79185787D01*
X167122152Y-79338111D01*
X167180947Y-79480054D01*
X167250993Y-79571341D01*
X167729595Y-80049943D01*
X167763621Y-80112255D01*
X167766500Y-80139038D01*
X167766500Y-80185405D01*
X167746498Y-80253526D01*
X167729595Y-80274501D01*
X167074499Y-80929596D01*
X167012187Y-80963621D01*
X166985404Y-80966500D01*
X166768760Y-80966500D01*
X166700639Y-80946498D01*
X166654146Y-80892842D01*
X166644042Y-80822568D01*
X166650778Y-80796270D01*
X166690644Y-80689928D01*
X166701745Y-80660316D01*
X166708500Y-80598134D01*
X166708500Y-79301866D01*
X166701745Y-79239684D01*
X166698973Y-79232288D01*
X166698971Y-79232282D01*
X166665961Y-79144229D01*
X166660778Y-79073422D01*
X166665961Y-79055770D01*
X166699888Y-78965270D01*
X166742530Y-78908506D01*
X166809091Y-78883806D01*
X166817870Y-78883500D01*
X166999243Y-78883500D01*
X167067364Y-78903502D01*
G37*
%TD.AperFunction*%
%TA.AperFunction,NonConductor*%
G36*
X175297121Y-79388091D02*
G01*
X175348413Y-79419192D01*
X175429482Y-79500261D01*
X175437022Y-79508547D01*
X175441134Y-79515026D01*
X175446911Y-79520451D01*
X175490785Y-79561651D01*
X175493627Y-79564406D01*
X175513364Y-79584143D01*
X175516561Y-79586623D01*
X175525581Y-79594326D01*
X175557813Y-79624594D01*
X175564759Y-79628413D01*
X175564762Y-79628415D01*
X175575568Y-79634356D01*
X175592087Y-79645207D01*
X175608093Y-79657622D01*
X175615362Y-79660767D01*
X175615366Y-79660770D01*
X175648671Y-79675182D01*
X175659321Y-79680399D01*
X175698074Y-79701703D01*
X175705749Y-79703674D01*
X175705750Y-79703674D01*
X175717696Y-79706741D01*
X175736400Y-79713145D01*
X175741762Y-79715465D01*
X175754989Y-79721189D01*
X175762812Y-79722428D01*
X175762822Y-79722431D01*
X175798658Y-79728107D01*
X175810278Y-79730513D01*
X175845423Y-79739536D01*
X175853104Y-79741508D01*
X175873358Y-79741508D01*
X175893068Y-79743059D01*
X175913077Y-79746228D01*
X175920969Y-79745482D01*
X175957095Y-79742067D01*
X175968953Y-79741508D01*
X176280991Y-79741508D01*
X176292174Y-79742035D01*
X176299667Y-79743710D01*
X176311671Y-79743333D01*
X176314781Y-79744140D01*
X176315486Y-79744207D01*
X176315475Y-79744321D01*
X176380386Y-79761181D01*
X176404729Y-79780175D01*
X176479790Y-79855236D01*
X176531054Y-79894572D01*
X176571076Y-79925282D01*
X176570127Y-79926518D01*
X176601909Y-79958300D01*
X176603145Y-79957351D01*
X176673191Y-80048637D01*
X176807291Y-80182737D01*
X176841317Y-80245049D01*
X176836252Y-80315864D01*
X176793705Y-80372700D01*
X176727185Y-80397511D01*
X176718196Y-80397832D01*
X176247435Y-80397832D01*
X176236252Y-80397305D01*
X176228759Y-80395630D01*
X176220833Y-80395879D01*
X176220832Y-80395879D01*
X176160682Y-80397770D01*
X176156723Y-80397832D01*
X176128812Y-80397832D01*
X176124878Y-80398329D01*
X176124877Y-80398329D01*
X176124812Y-80398337D01*
X176112975Y-80399270D01*
X176080717Y-80400284D01*
X176076698Y-80400410D01*
X176068779Y-80400659D01*
X176049325Y-80406311D01*
X176029968Y-80410319D01*
X176017738Y-80411864D01*
X176017737Y-80411864D01*
X176009871Y-80412858D01*
X176002500Y-80415777D01*
X176002498Y-80415777D01*
X175968756Y-80429136D01*
X175957526Y-80432981D01*
X175922685Y-80443103D01*
X175922684Y-80443103D01*
X175915075Y-80445314D01*
X175908256Y-80449347D01*
X175908251Y-80449349D01*
X175897640Y-80455625D01*
X175879892Y-80464320D01*
X175861051Y-80471780D01*
X175854635Y-80476442D01*
X175854634Y-80476442D01*
X175825281Y-80497768D01*
X175815361Y-80504284D01*
X175784133Y-80522752D01*
X175784130Y-80522754D01*
X175777306Y-80526790D01*
X175762985Y-80541111D01*
X175747952Y-80553951D01*
X175731561Y-80565860D01*
X175726510Y-80571965D01*
X175726505Y-80571970D01*
X175703369Y-80599936D01*
X175695381Y-80608714D01*
X175055878Y-81248217D01*
X175040845Y-81261057D01*
X175030869Y-81268305D01*
X175030864Y-81268310D01*
X175024454Y-81272967D01*
X175019402Y-81279074D01*
X174997007Y-81306144D01*
X174938173Y-81345882D01*
X174867195Y-81347503D01*
X174810828Y-81314923D01*
X173998720Y-80502815D01*
X173983604Y-80484545D01*
X173978972Y-80477729D01*
X173968916Y-80468863D01*
X173936848Y-80440592D01*
X173931078Y-80435173D01*
X173919770Y-80423865D01*
X173916645Y-80421441D01*
X173916637Y-80421434D01*
X173907121Y-80414053D01*
X173901023Y-80409008D01*
X173887871Y-80397413D01*
X173850000Y-80337360D01*
X173850608Y-80266366D01*
X173882101Y-80213803D01*
X174115246Y-79980659D01*
X174400765Y-79695140D01*
X174463077Y-79661115D01*
X174489860Y-79658236D01*
X174645751Y-79658236D01*
X174652203Y-79656864D01*
X174652208Y-79656864D01*
X174739151Y-79638383D01*
X174832552Y-79618530D01*
X174886911Y-79594328D01*
X175000986Y-79543539D01*
X175000988Y-79543538D01*
X175007016Y-79540854D01*
X175161517Y-79428602D01*
X175165939Y-79423690D01*
X175170841Y-79419277D01*
X175171720Y-79420253D01*
X175226137Y-79386734D01*
X175297121Y-79388091D01*
G37*
%TD.AperFunction*%
%TA.AperFunction,NonConductor*%
G36*
X182613211Y-60953502D02*
G01*
X182659704Y-61007158D01*
X182670889Y-61052379D01*
X182763262Y-62684303D01*
X182899629Y-65093435D01*
X182899710Y-65094869D01*
X182899872Y-65105127D01*
X182483414Y-81763447D01*
X182461715Y-81831047D01*
X182406914Y-81876184D01*
X182357453Y-81886298D01*
X179172149Y-81886298D01*
X179104028Y-81866296D01*
X179055740Y-81808515D01*
X179038649Y-81767253D01*
X179031060Y-81696664D01*
X179065963Y-81629941D01*
X179076134Y-81619770D01*
X179078612Y-81616575D01*
X179086318Y-81607553D01*
X179111158Y-81581101D01*
X179116586Y-81575321D01*
X179126346Y-81557568D01*
X179137199Y-81541045D01*
X179144753Y-81531306D01*
X179149613Y-81525041D01*
X179167176Y-81484457D01*
X179172383Y-81473827D01*
X179193695Y-81435060D01*
X179195666Y-81427383D01*
X179195668Y-81427378D01*
X179198732Y-81415442D01*
X179205138Y-81396730D01*
X179205689Y-81395458D01*
X179213181Y-81378145D01*
X179216498Y-81357207D01*
X179220097Y-81334481D01*
X179222504Y-81322860D01*
X179231528Y-81287711D01*
X179231528Y-81287710D01*
X179233500Y-81280030D01*
X179233500Y-81259769D01*
X179235051Y-81240058D01*
X179236979Y-81227885D01*
X179238219Y-81220057D01*
X179234059Y-81176046D01*
X179233500Y-81164189D01*
X179233500Y-80178768D01*
X179234027Y-80167585D01*
X179235702Y-80160092D01*
X179234528Y-80122721D01*
X179233562Y-80092002D01*
X179233500Y-80088044D01*
X179233500Y-80060144D01*
X179232996Y-80056153D01*
X179232063Y-80044311D01*
X179231458Y-80025040D01*
X179230674Y-80000111D01*
X179228462Y-79992497D01*
X179228461Y-79992492D01*
X179225023Y-79980659D01*
X179221012Y-79961295D01*
X179220615Y-79958148D01*
X179218474Y-79941203D01*
X179215557Y-79933836D01*
X179215556Y-79933831D01*
X179202198Y-79900092D01*
X179198354Y-79888865D01*
X179188230Y-79854022D01*
X179186018Y-79846407D01*
X179175707Y-79828972D01*
X179167012Y-79811224D01*
X179159552Y-79792383D01*
X179133564Y-79756613D01*
X179127048Y-79746693D01*
X179108580Y-79715465D01*
X179108578Y-79715462D01*
X179104542Y-79708638D01*
X179090221Y-79694317D01*
X179077380Y-79679283D01*
X179074401Y-79675182D01*
X179065472Y-79662893D01*
X179059362Y-79657838D01*
X179043817Y-79644978D01*
X179004079Y-79586144D01*
X179002458Y-79515166D01*
X179014631Y-79485818D01*
X179019053Y-79480054D01*
X179022214Y-79472422D01*
X179026343Y-79465271D01*
X179027142Y-79465732D01*
X179045686Y-79437011D01*
X179049937Y-79432485D01*
X179071918Y-79409077D01*
X179075737Y-79402131D01*
X179075739Y-79402128D01*
X179081680Y-79391322D01*
X179092531Y-79374803D01*
X179100090Y-79365057D01*
X179104946Y-79358797D01*
X179108091Y-79351528D01*
X179108094Y-79351524D01*
X179122506Y-79318219D01*
X179127723Y-79307569D01*
X179149027Y-79268816D01*
X179154065Y-79249193D01*
X179160469Y-79230490D01*
X179165365Y-79219176D01*
X179165365Y-79219175D01*
X179168513Y-79211901D01*
X179169752Y-79204078D01*
X179169755Y-79204068D01*
X179175431Y-79168232D01*
X179177837Y-79156612D01*
X179186860Y-79121467D01*
X179186860Y-79121466D01*
X179188832Y-79113786D01*
X179188832Y-79093532D01*
X179190383Y-79073821D01*
X179192312Y-79061642D01*
X179193552Y-79053813D01*
X179189391Y-79009794D01*
X179188832Y-78997937D01*
X179188832Y-78634095D01*
X179189359Y-78622911D01*
X179191033Y-78615423D01*
X179190682Y-78604239D01*
X179188894Y-78547365D01*
X179188832Y-78543407D01*
X179188832Y-78515476D01*
X179188326Y-78511470D01*
X179187393Y-78499624D01*
X179186254Y-78463369D01*
X179186005Y-78455442D01*
X179180354Y-78435990D01*
X179176346Y-78416638D01*
X179174799Y-78404395D01*
X179173806Y-78396535D01*
X179170888Y-78389164D01*
X179157532Y-78355429D01*
X179153687Y-78344202D01*
X179147194Y-78321855D01*
X179141350Y-78301739D01*
X179137316Y-78294917D01*
X179137313Y-78294911D01*
X179131038Y-78284300D01*
X179122342Y-78266550D01*
X179117804Y-78255088D01*
X179117801Y-78255083D01*
X179114884Y-78247715D01*
X179091506Y-78215537D01*
X179088905Y-78211957D01*
X179082389Y-78202039D01*
X179063907Y-78170789D01*
X179059874Y-78163969D01*
X179045550Y-78149645D01*
X179032708Y-78134610D01*
X179020804Y-78118225D01*
X178986738Y-78090043D01*
X178977959Y-78082054D01*
X178123193Y-77227288D01*
X178115653Y-77219002D01*
X178111541Y-77212523D01*
X178061889Y-77165897D01*
X178059048Y-77163143D01*
X178039311Y-77143406D01*
X178036114Y-77140926D01*
X178027092Y-77133221D01*
X178000641Y-77108382D01*
X177994862Y-77102955D01*
X177987916Y-77099136D01*
X177987913Y-77099134D01*
X177977107Y-77093193D01*
X177960588Y-77082342D01*
X177960124Y-77081982D01*
X177944582Y-77069927D01*
X177937313Y-77066782D01*
X177937309Y-77066779D01*
X177904004Y-77052367D01*
X177893354Y-77047150D01*
X177854601Y-77025846D01*
X177854600Y-77025846D01*
X177855124Y-77024892D01*
X177804951Y-76985743D01*
X177792768Y-76960691D01*
X177791378Y-76961293D01*
X177788231Y-76954020D01*
X177786019Y-76946407D01*
X177775705Y-76928966D01*
X177767008Y-76911213D01*
X177762472Y-76899758D01*
X177759552Y-76892383D01*
X177733563Y-76856612D01*
X177727047Y-76846692D01*
X177708578Y-76815463D01*
X177704542Y-76808638D01*
X177690221Y-76794317D01*
X177677380Y-76779283D01*
X177675992Y-76777373D01*
X177665472Y-76762893D01*
X177631395Y-76734702D01*
X177622616Y-76726712D01*
X175890455Y-74994551D01*
X175856429Y-74932239D01*
X175861494Y-74861424D01*
X175890455Y-74816361D01*
X176692247Y-74014569D01*
X176700537Y-74007025D01*
X176707018Y-74002912D01*
X176724361Y-73984444D01*
X176753658Y-73953245D01*
X176756413Y-73950403D01*
X176776135Y-73930681D01*
X176778619Y-73927479D01*
X176786317Y-73918467D01*
X176811161Y-73892010D01*
X176816586Y-73886233D01*
X176826347Y-73868478D01*
X176837198Y-73851959D01*
X176849614Y-73835953D01*
X176867174Y-73795375D01*
X176872391Y-73784725D01*
X176893695Y-73745972D01*
X176898733Y-73726349D01*
X176905137Y-73707646D01*
X176910033Y-73696332D01*
X176910033Y-73696331D01*
X176913181Y-73689057D01*
X176914420Y-73681234D01*
X176914423Y-73681224D01*
X176920099Y-73645388D01*
X176922505Y-73633768D01*
X176931528Y-73598623D01*
X176931528Y-73598622D01*
X176933500Y-73590942D01*
X176933500Y-73570688D01*
X176935051Y-73550977D01*
X176936732Y-73540367D01*
X176938220Y-73530969D01*
X176934059Y-73486950D01*
X176933500Y-73475093D01*
X176933500Y-72784500D01*
X176953502Y-72716379D01*
X177007158Y-72669886D01*
X177059500Y-72658500D01*
X178248134Y-72658500D01*
X178310316Y-72651745D01*
X178446705Y-72600615D01*
X178563261Y-72513261D01*
X178650615Y-72396705D01*
X178701745Y-72260316D01*
X178708500Y-72198134D01*
X178708500Y-70101866D01*
X178701745Y-70039684D01*
X178650615Y-69903295D01*
X178563261Y-69786739D01*
X178446705Y-69699385D01*
X178310316Y-69648255D01*
X178248134Y-69641500D01*
X177059500Y-69641500D01*
X176991379Y-69621498D01*
X176944886Y-69567842D01*
X176933500Y-69515500D01*
X176933500Y-66484500D01*
X176953502Y-66416379D01*
X177007158Y-66369886D01*
X177059500Y-66358500D01*
X177098134Y-66358500D01*
X177160316Y-66351745D01*
X177296705Y-66300615D01*
X177303892Y-66295229D01*
X177374435Y-66242360D01*
X177440942Y-66217512D01*
X177510324Y-66232565D01*
X177525565Y-66242360D01*
X177596108Y-66295229D01*
X177603295Y-66300615D01*
X177739684Y-66351745D01*
X177801866Y-66358500D01*
X179398134Y-66358500D01*
X179460316Y-66351745D01*
X179596705Y-66300615D01*
X179713261Y-66213261D01*
X179800615Y-66096705D01*
X179851745Y-65960316D01*
X179858500Y-65898134D01*
X179858500Y-65859500D01*
X179878502Y-65791379D01*
X179932158Y-65744886D01*
X179984500Y-65733500D01*
X179991800Y-65733500D01*
X180059921Y-65753502D01*
X180079147Y-65769843D01*
X180079420Y-65769540D01*
X180084332Y-65773963D01*
X180088747Y-65778866D01*
X180243248Y-65891118D01*
X180249276Y-65893802D01*
X180249278Y-65893803D01*
X180381025Y-65952460D01*
X180417712Y-65968794D01*
X180511112Y-65988647D01*
X180598056Y-66007128D01*
X180598061Y-66007128D01*
X180604513Y-66008500D01*
X180795487Y-66008500D01*
X180801939Y-66007128D01*
X180801944Y-66007128D01*
X180888888Y-65988647D01*
X180982288Y-65968794D01*
X181018975Y-65952460D01*
X181150722Y-65893803D01*
X181150724Y-65893802D01*
X181156752Y-65891118D01*
X181311253Y-65778866D01*
X181439040Y-65636944D01*
X181534527Y-65471556D01*
X181593542Y-65289928D01*
X181603885Y-65191525D01*
X181612814Y-65106565D01*
X181613504Y-65100000D01*
X181605291Y-65021855D01*
X181594232Y-64916635D01*
X181594232Y-64916633D01*
X181593542Y-64910072D01*
X181534527Y-64728444D01*
X181530410Y-64721312D01*
X181472630Y-64621235D01*
X181439040Y-64563056D01*
X181420079Y-64541997D01*
X181315675Y-64426045D01*
X181315674Y-64426044D01*
X181311253Y-64421134D01*
X181182925Y-64327898D01*
X181162094Y-64312763D01*
X181162093Y-64312762D01*
X181156752Y-64308882D01*
X181150724Y-64306198D01*
X181150722Y-64306197D01*
X180988319Y-64233891D01*
X180988318Y-64233891D01*
X180982288Y-64231206D01*
X180888887Y-64211353D01*
X180801944Y-64192872D01*
X180801939Y-64192872D01*
X180795487Y-64191500D01*
X180604513Y-64191500D01*
X180598061Y-64192872D01*
X180598056Y-64192872D01*
X180511113Y-64211353D01*
X180417712Y-64231206D01*
X180411682Y-64233891D01*
X180411681Y-64233891D01*
X180249278Y-64306197D01*
X180249276Y-64306198D01*
X180243248Y-64308882D01*
X180237907Y-64312762D01*
X180237906Y-64312763D01*
X180151733Y-64375372D01*
X180088747Y-64421134D01*
X180084332Y-64426037D01*
X180079420Y-64430460D01*
X180078295Y-64429211D01*
X180024986Y-64462051D01*
X179991800Y-64466500D01*
X179984500Y-64466500D01*
X179916379Y-64446498D01*
X179869886Y-64392842D01*
X179858500Y-64340500D01*
X179858500Y-63801866D01*
X179851745Y-63739684D01*
X179800615Y-63603295D01*
X179713261Y-63486739D01*
X179596705Y-63399385D01*
X179460316Y-63348255D01*
X179398134Y-63341500D01*
X179359500Y-63341500D01*
X179291379Y-63321498D01*
X179244886Y-63267842D01*
X179233500Y-63215500D01*
X179233500Y-62710485D01*
X179253502Y-62642364D01*
X179307158Y-62595871D01*
X179377432Y-62585767D01*
X179442012Y-62615261D01*
X179459343Y-62634144D01*
X179460960Y-62636944D01*
X179588747Y-62778866D01*
X179649941Y-62823326D01*
X179723880Y-62877046D01*
X179743248Y-62891118D01*
X179749276Y-62893802D01*
X179749278Y-62893803D01*
X179906192Y-62963665D01*
X179917712Y-62968794D01*
X180011113Y-62988647D01*
X180098056Y-63007128D01*
X180098061Y-63007128D01*
X180104513Y-63008500D01*
X180295487Y-63008500D01*
X180301939Y-63007128D01*
X180301944Y-63007128D01*
X180388887Y-62988647D01*
X180482288Y-62968794D01*
X180493808Y-62963665D01*
X180650722Y-62893803D01*
X180650724Y-62893802D01*
X180656752Y-62891118D01*
X180676121Y-62877046D01*
X180750059Y-62823326D01*
X180811253Y-62778866D01*
X180830313Y-62757698D01*
X180934621Y-62641852D01*
X180934622Y-62641851D01*
X180939040Y-62636944D01*
X181000770Y-62530025D01*
X181031223Y-62477279D01*
X181031224Y-62477278D01*
X181034527Y-62471556D01*
X181093542Y-62289928D01*
X181097264Y-62254521D01*
X181106958Y-62162281D01*
X181110907Y-62124706D01*
X181137920Y-62059050D01*
X181147122Y-62048782D01*
X182225499Y-60970405D01*
X182287811Y-60936379D01*
X182314594Y-60933500D01*
X182545090Y-60933500D01*
X182613211Y-60953502D01*
G37*
%TD.AperFunction*%
%TA.AperFunction,NonConductor*%
G36*
X160382718Y-82068635D02*
G01*
X160433520Y-82089678D01*
X160433523Y-82089679D01*
X160441150Y-82092838D01*
X160600000Y-82113751D01*
X160608188Y-82112673D01*
X160631697Y-82109578D01*
X160648143Y-82108500D01*
X162438970Y-82108500D01*
X162507091Y-82128502D01*
X162553584Y-82182158D01*
X162563688Y-82252432D01*
X162534194Y-82317012D01*
X162474468Y-82355396D01*
X162460957Y-82358567D01*
X162154864Y-82412815D01*
X162151239Y-82413920D01*
X162151234Y-82413921D01*
X161943683Y-82477178D01*
X161836707Y-82509782D01*
X161833243Y-82511313D01*
X161833236Y-82511316D01*
X161646051Y-82594070D01*
X161532503Y-82644269D01*
X161529249Y-82646205D01*
X161529243Y-82646208D01*
X161323205Y-82768788D01*
X161246659Y-82814328D01*
X161243658Y-82816643D01*
X161243654Y-82816646D01*
X161223803Y-82831961D01*
X160983316Y-83017496D01*
X160746288Y-83250829D01*
X160539009Y-83510949D01*
X160537018Y-83514179D01*
X160441760Y-83668716D01*
X160388988Y-83716209D01*
X160318916Y-83727633D01*
X160253792Y-83699359D01*
X160214293Y-83640365D01*
X160208500Y-83602600D01*
X160208500Y-82185044D01*
X160228502Y-82116923D01*
X160282158Y-82070430D01*
X160352432Y-82060326D01*
X160382718Y-82068635D01*
G37*
%TD.AperFunction*%
%TA.AperFunction,NonConductor*%
G36*
X180025651Y-83173300D02*
G01*
X180072144Y-83226956D01*
X180082248Y-83297230D01*
X180052754Y-83361810D01*
X180021672Y-83387750D01*
X180008638Y-83395458D01*
X179994317Y-83409779D01*
X179979284Y-83422619D01*
X179962893Y-83434528D01*
X179957842Y-83440634D01*
X179934702Y-83468605D01*
X179926712Y-83477384D01*
X179669230Y-83734866D01*
X179606918Y-83768892D01*
X179536103Y-83763827D01*
X179523816Y-83758484D01*
X179479130Y-83736156D01*
X179479131Y-83736156D01*
X179472588Y-83732887D01*
X179401758Y-83716209D01*
X179307550Y-83694026D01*
X179307546Y-83694026D01*
X179300426Y-83692349D01*
X179293110Y-83692355D01*
X179293107Y-83692355D01*
X179211800Y-83692426D01*
X179123556Y-83692503D01*
X178975900Y-83727543D01*
X178905004Y-83723811D01*
X178857714Y-83694043D01*
X178532064Y-83368393D01*
X178498038Y-83306081D01*
X178503103Y-83235266D01*
X178545650Y-83178430D01*
X178612170Y-83153619D01*
X178621159Y-83153298D01*
X179957530Y-83153298D01*
X180025651Y-83173300D01*
G37*
%TD.AperFunction*%
%TA.AperFunction,NonConductor*%
G36*
X181865262Y-84700920D02*
G01*
X182011677Y-84766108D01*
X182011685Y-84766111D01*
X182017712Y-84768794D01*
X182111112Y-84788647D01*
X182198056Y-84807128D01*
X182198061Y-84807128D01*
X182204513Y-84808500D01*
X182278098Y-84808500D01*
X182346219Y-84828502D01*
X182392712Y-84882158D01*
X182404059Y-84937648D01*
X182400841Y-85066379D01*
X182400685Y-85072603D01*
X182387997Y-85124637D01*
X180549724Y-88897936D01*
X180531726Y-88934879D01*
X180483909Y-88987359D01*
X180427761Y-89005351D01*
X180273762Y-89016758D01*
X177809780Y-89199276D01*
X177740370Y-89184361D01*
X177690040Y-89134286D01*
X177674773Y-89064950D01*
X177699414Y-88998367D01*
X177711379Y-88984525D01*
X178025499Y-88670405D01*
X178087811Y-88636379D01*
X178114594Y-88633500D01*
X178521233Y-88633500D01*
X178532416Y-88634027D01*
X178539909Y-88635702D01*
X178547835Y-88635453D01*
X178547836Y-88635453D01*
X178607986Y-88633562D01*
X178611945Y-88633500D01*
X178639856Y-88633500D01*
X178643791Y-88633003D01*
X178643856Y-88632995D01*
X178655693Y-88632062D01*
X178687951Y-88631048D01*
X178691970Y-88630922D01*
X178699889Y-88630673D01*
X178719343Y-88625021D01*
X178738700Y-88621013D01*
X178750930Y-88619468D01*
X178750931Y-88619468D01*
X178758797Y-88618474D01*
X178766168Y-88615555D01*
X178766170Y-88615555D01*
X178799912Y-88602196D01*
X178811142Y-88598351D01*
X178845983Y-88588229D01*
X178845984Y-88588229D01*
X178853593Y-88586018D01*
X178860412Y-88581985D01*
X178860417Y-88581983D01*
X178871028Y-88575707D01*
X178888776Y-88567012D01*
X178907617Y-88559552D01*
X178943387Y-88533564D01*
X178953307Y-88527048D01*
X178984535Y-88508580D01*
X178984538Y-88508578D01*
X178991362Y-88504542D01*
X179005683Y-88490221D01*
X179020717Y-88477380D01*
X179030694Y-88470131D01*
X179037107Y-88465472D01*
X179065298Y-88431395D01*
X179073288Y-88422616D01*
X181167747Y-86328157D01*
X181176037Y-86320613D01*
X181182518Y-86316500D01*
X181229159Y-86266832D01*
X181231913Y-86263991D01*
X181251635Y-86244269D01*
X181254112Y-86241076D01*
X181261817Y-86232055D01*
X181286659Y-86205600D01*
X181292086Y-86199821D01*
X181295907Y-86192871D01*
X181301846Y-86182068D01*
X181312702Y-86165541D01*
X181320257Y-86155802D01*
X181320258Y-86155800D01*
X181325114Y-86149540D01*
X181342674Y-86108960D01*
X181347891Y-86098312D01*
X181365375Y-86066509D01*
X181365376Y-86066507D01*
X181369195Y-86059560D01*
X181374233Y-86039937D01*
X181380637Y-86021234D01*
X181385533Y-86009920D01*
X181385533Y-86009919D01*
X181388681Y-86002645D01*
X181389920Y-85994822D01*
X181389923Y-85994812D01*
X181395599Y-85958976D01*
X181398005Y-85947356D01*
X181407028Y-85912211D01*
X181407028Y-85912210D01*
X181409000Y-85904530D01*
X181409000Y-85884276D01*
X181410551Y-85864565D01*
X181412480Y-85852386D01*
X181413720Y-85844557D01*
X181409559Y-85800538D01*
X181409000Y-85788681D01*
X181409000Y-85502524D01*
X181429002Y-85434403D01*
X181441358Y-85418221D01*
X181514540Y-85336944D01*
X181596429Y-85195108D01*
X181606723Y-85177279D01*
X181606724Y-85177278D01*
X181610027Y-85171556D01*
X181669042Y-84989928D01*
X181670017Y-84980657D01*
X181688704Y-84802856D01*
X181715717Y-84737200D01*
X181773939Y-84696570D01*
X181844884Y-84693867D01*
X181865262Y-84700920D01*
G37*
%TD.AperFunction*%
%TA.AperFunction,NonConductor*%
G36*
X156823621Y-75253502D02*
G01*
X156870114Y-75307158D01*
X156881500Y-75359500D01*
X156881500Y-75448134D01*
X156888255Y-75510316D01*
X156939385Y-75646705D01*
X157026739Y-75763261D01*
X157143295Y-75850615D01*
X157151703Y-75853767D01*
X157279684Y-75901745D01*
X157278954Y-75903691D01*
X157331205Y-75933545D01*
X157364021Y-75996503D01*
X157357591Y-76067207D01*
X157329502Y-76110000D01*
X157183802Y-76255700D01*
X157180645Y-76260208D01*
X157180643Y-76260211D01*
X157167581Y-76278866D01*
X157052477Y-76443251D01*
X157050154Y-76448233D01*
X157050151Y-76448238D01*
X156980410Y-76597800D01*
X156955716Y-76650757D01*
X156954294Y-76656065D01*
X156954293Y-76656067D01*
X156900557Y-76856612D01*
X156896457Y-76871913D01*
X156876502Y-77100000D01*
X156896457Y-77328087D01*
X156955716Y-77549243D01*
X156958039Y-77554224D01*
X156958039Y-77554225D01*
X157050151Y-77751762D01*
X157050154Y-77751767D01*
X157052477Y-77756749D01*
X157183802Y-77944300D01*
X157250407Y-78010905D01*
X157284433Y-78073217D01*
X157279368Y-78144032D01*
X157250407Y-78189095D01*
X157183802Y-78255700D01*
X157180645Y-78260208D01*
X157180643Y-78260211D01*
X157156868Y-78294166D01*
X157052477Y-78443251D01*
X157050154Y-78448233D01*
X157050151Y-78448238D01*
X156960245Y-78641045D01*
X156955716Y-78650757D01*
X156954294Y-78656065D01*
X156954293Y-78656067D01*
X156931561Y-78740905D01*
X156896457Y-78871913D01*
X156876502Y-79100000D01*
X156896457Y-79328087D01*
X156897881Y-79333400D01*
X156897881Y-79333402D01*
X156954188Y-79543539D01*
X156955716Y-79549243D01*
X156958039Y-79554224D01*
X156958039Y-79554225D01*
X157050151Y-79751762D01*
X157050154Y-79751767D01*
X157052477Y-79756749D01*
X157121439Y-79855236D01*
X157176472Y-79933831D01*
X157183802Y-79944300D01*
X157345700Y-80106198D01*
X157350208Y-80109355D01*
X157350211Y-80109357D01*
X157354350Y-80112255D01*
X157533251Y-80237523D01*
X157538233Y-80239846D01*
X157540027Y-80240882D01*
X157589019Y-80292266D01*
X157602454Y-80361979D01*
X157576066Y-80427890D01*
X157540027Y-80459118D01*
X157538233Y-80460154D01*
X157533251Y-80462477D01*
X157479663Y-80500000D01*
X157350211Y-80590643D01*
X157350208Y-80590645D01*
X157345700Y-80593802D01*
X157183802Y-80755700D01*
X157180645Y-80760208D01*
X157180643Y-80760211D01*
X157136980Y-80822568D01*
X157052477Y-80943251D01*
X157050154Y-80948233D01*
X157050151Y-80948238D01*
X156994812Y-81066915D01*
X156955716Y-81150757D01*
X156954294Y-81156065D01*
X156954293Y-81156067D01*
X156910018Y-81321302D01*
X156896457Y-81371913D01*
X156876502Y-81600000D01*
X156896457Y-81828087D01*
X156897881Y-81833400D01*
X156897881Y-81833402D01*
X156909345Y-81876184D01*
X156955716Y-82049243D01*
X156958039Y-82054224D01*
X156958039Y-82054225D01*
X157050151Y-82251762D01*
X157050154Y-82251767D01*
X157052477Y-82256749D01*
X157055634Y-82261257D01*
X157152620Y-82399767D01*
X157183802Y-82444300D01*
X157345700Y-82606198D01*
X157350208Y-82609355D01*
X157350211Y-82609357D01*
X157428389Y-82664098D01*
X157533251Y-82737523D01*
X157538233Y-82739846D01*
X157538238Y-82739849D01*
X157702932Y-82816646D01*
X157740757Y-82834284D01*
X157746065Y-82835706D01*
X157746067Y-82835707D01*
X157956598Y-82892119D01*
X157956600Y-82892119D01*
X157961913Y-82893543D01*
X158190000Y-82913498D01*
X158418087Y-82893543D01*
X158423400Y-82892119D01*
X158423402Y-82892119D01*
X158633933Y-82835707D01*
X158633935Y-82835706D01*
X158639243Y-82834284D01*
X158812250Y-82753610D01*
X158882442Y-82742949D01*
X158947255Y-82771929D01*
X158986111Y-82831349D01*
X158991500Y-82867805D01*
X158991500Y-86351864D01*
X158990422Y-86368307D01*
X158986250Y-86400000D01*
X158991500Y-86439880D01*
X158991500Y-86439885D01*
X158998439Y-86492590D01*
X159007162Y-86558851D01*
X159068476Y-86706876D01*
X159073503Y-86713427D01*
X159073504Y-86713429D01*
X159141520Y-86802069D01*
X159141526Y-86802075D01*
X159166013Y-86833987D01*
X159172568Y-86839017D01*
X159191379Y-86853452D01*
X159203770Y-86864319D01*
X160835685Y-88496234D01*
X160846552Y-88508625D01*
X160866013Y-88533987D01*
X160872563Y-88539013D01*
X160897925Y-88558474D01*
X160897928Y-88558477D01*
X160981046Y-88622256D01*
X160993124Y-88631524D01*
X161141149Y-88692838D01*
X161149336Y-88693916D01*
X161149337Y-88693916D01*
X161160542Y-88695391D01*
X161191738Y-88699498D01*
X161260115Y-88708500D01*
X161260118Y-88708500D01*
X161260126Y-88708501D01*
X161291811Y-88712672D01*
X161300000Y-88713750D01*
X161331693Y-88709578D01*
X161348136Y-88708500D01*
X163651864Y-88708500D01*
X163668307Y-88709578D01*
X163700000Y-88713750D01*
X163708189Y-88712672D01*
X163739874Y-88708501D01*
X163739884Y-88708500D01*
X163739885Y-88708500D01*
X163739901Y-88708498D01*
X163839457Y-88695391D01*
X163850664Y-88693916D01*
X163850666Y-88693915D01*
X163858851Y-88692838D01*
X164006876Y-88631524D01*
X164018955Y-88622256D01*
X164102072Y-88558477D01*
X164102075Y-88558474D01*
X164127434Y-88539015D01*
X164133987Y-88533987D01*
X164139312Y-88527048D01*
X164153452Y-88508621D01*
X164164319Y-88496230D01*
X165896234Y-86764315D01*
X165908625Y-86753448D01*
X165927437Y-86739013D01*
X165933987Y-86733987D01*
X165958474Y-86702075D01*
X165958477Y-86702072D01*
X166031523Y-86606876D01*
X166031524Y-86606875D01*
X166043017Y-86579130D01*
X166089678Y-86466479D01*
X166092838Y-86458850D01*
X166108500Y-86339885D01*
X166108500Y-86339878D01*
X166113750Y-86300000D01*
X166109578Y-86268307D01*
X166108500Y-86251864D01*
X166108500Y-85134500D01*
X166128502Y-85066379D01*
X166182158Y-85019886D01*
X166234500Y-85008500D01*
X168026761Y-85008500D01*
X168094882Y-85028502D01*
X168141375Y-85082158D01*
X168151479Y-85152432D01*
X168121985Y-85217012D01*
X168115856Y-85223595D01*
X164503766Y-88835685D01*
X164491375Y-88846552D01*
X164466013Y-88866013D01*
X164441526Y-88897925D01*
X164441523Y-88897928D01*
X164368476Y-88993124D01*
X164368476Y-88993125D01*
X164307162Y-89141150D01*
X164291500Y-89260115D01*
X164291500Y-89260120D01*
X164286250Y-89300000D01*
X164287328Y-89308188D01*
X164290422Y-89331690D01*
X164291500Y-89348136D01*
X164291500Y-89685761D01*
X164271498Y-89753882D01*
X164254595Y-89774856D01*
X159874856Y-94154595D01*
X159812544Y-94188621D01*
X159785761Y-94191500D01*
X157192342Y-94191500D01*
X157124221Y-94171498D01*
X157077728Y-94117842D01*
X157067624Y-94047568D01*
X157081611Y-94005378D01*
X157109073Y-93954799D01*
X157210468Y-93768054D01*
X157307269Y-93511877D01*
X157340353Y-93367422D01*
X157367449Y-93249117D01*
X157367450Y-93249113D01*
X157368407Y-93244933D01*
X157372736Y-93196435D01*
X157392531Y-92974627D01*
X157392531Y-92974625D01*
X157392751Y-92972161D01*
X157393193Y-92930000D01*
X157384380Y-92800725D01*
X157374859Y-92661055D01*
X157374858Y-92661049D01*
X157374567Y-92656778D01*
X157319032Y-92388612D01*
X157227617Y-92130465D01*
X157102013Y-91887112D01*
X157092040Y-91872921D01*
X156947008Y-91666562D01*
X156944545Y-91663057D01*
X156758125Y-91462445D01*
X156754810Y-91459731D01*
X156754806Y-91459728D01*
X156549523Y-91291706D01*
X156546205Y-91288990D01*
X156312704Y-91145901D01*
X156308768Y-91144173D01*
X156065873Y-91037549D01*
X156065869Y-91037548D01*
X156061945Y-91035825D01*
X155798566Y-90960800D01*
X155794324Y-90960196D01*
X155794318Y-90960195D01*
X155593834Y-90931662D01*
X155527443Y-90922213D01*
X155383589Y-90921460D01*
X155257877Y-90920802D01*
X155257871Y-90920802D01*
X155253591Y-90920780D01*
X155249347Y-90921339D01*
X155249343Y-90921339D01*
X155130302Y-90937011D01*
X154982078Y-90956525D01*
X154977938Y-90957658D01*
X154977936Y-90957658D01*
X154905008Y-90977609D01*
X154717928Y-91028788D01*
X154713980Y-91030472D01*
X154469982Y-91134546D01*
X154469978Y-91134548D01*
X154466030Y-91136232D01*
X154446125Y-91148145D01*
X154234725Y-91274664D01*
X154234721Y-91274667D01*
X154231043Y-91276868D01*
X154017318Y-91448094D01*
X153828808Y-91646742D01*
X153669002Y-91869136D01*
X153540857Y-92111161D01*
X153539385Y-92115184D01*
X153539383Y-92115188D01*
X153448214Y-92364317D01*
X153446743Y-92368337D01*
X153388404Y-92635907D01*
X153366917Y-92908918D01*
X153382682Y-93182320D01*
X153383507Y-93186525D01*
X153383508Y-93186533D01*
X153413917Y-93341526D01*
X153435405Y-93451053D01*
X153436792Y-93455103D01*
X153436793Y-93455108D01*
X153522723Y-93706088D01*
X153524112Y-93710144D01*
X153647160Y-93954799D01*
X153649586Y-93958328D01*
X153649589Y-93958334D01*
X153747472Y-94100753D01*
X153802274Y-94180490D01*
X153805161Y-94183663D01*
X153805162Y-94183664D01*
X153812292Y-94191500D01*
X153986582Y-94383043D01*
X154196675Y-94558707D01*
X154200316Y-94560991D01*
X154425024Y-94701951D01*
X154425028Y-94701953D01*
X154428664Y-94704234D01*
X154553460Y-94760582D01*
X154674345Y-94815164D01*
X154674349Y-94815166D01*
X154678257Y-94816930D01*
X154682377Y-94818150D01*
X154682376Y-94818150D01*
X154936723Y-94893491D01*
X154936727Y-94893492D01*
X154940836Y-94894709D01*
X154945070Y-94895357D01*
X154945075Y-94895358D01*
X155207298Y-94935483D01*
X155207300Y-94935483D01*
X155211540Y-94936132D01*
X155299495Y-94937514D01*
X155390621Y-94938946D01*
X155458419Y-94960015D01*
X155504063Y-95014395D01*
X155513061Y-95084819D01*
X155508548Y-95103561D01*
X155508500Y-95103789D01*
X155506458Y-95110072D01*
X155486496Y-95300000D01*
X155487186Y-95306564D01*
X155499879Y-95427329D01*
X155487107Y-95497168D01*
X155438605Y-95549014D01*
X155374569Y-95566500D01*
X152359500Y-95566500D01*
X152291379Y-95546498D01*
X152244886Y-95492842D01*
X152233500Y-95440500D01*
X152233500Y-84648918D01*
X153466917Y-84648918D01*
X153482682Y-84922320D01*
X153483507Y-84926525D01*
X153483508Y-84926533D01*
X153503514Y-85028502D01*
X153535405Y-85191053D01*
X153536792Y-85195103D01*
X153536793Y-85195108D01*
X153622723Y-85446088D01*
X153624112Y-85450144D01*
X153747160Y-85694799D01*
X153749586Y-85698328D01*
X153749589Y-85698334D01*
X153864323Y-85865271D01*
X153902274Y-85920490D01*
X153905161Y-85923663D01*
X153905162Y-85923664D01*
X153985739Y-86012217D01*
X154086582Y-86123043D01*
X154089877Y-86125798D01*
X154089878Y-86125799D01*
X154170096Y-86192871D01*
X154296675Y-86298707D01*
X154300316Y-86300991D01*
X154525024Y-86441951D01*
X154525028Y-86441953D01*
X154528664Y-86444234D01*
X154596544Y-86474883D01*
X154774345Y-86555164D01*
X154774349Y-86555166D01*
X154778257Y-86556930D01*
X154841393Y-86575632D01*
X155036723Y-86633491D01*
X155036727Y-86633492D01*
X155040836Y-86634709D01*
X155045070Y-86635357D01*
X155045075Y-86635358D01*
X155307298Y-86675483D01*
X155307300Y-86675483D01*
X155311540Y-86676132D01*
X155450912Y-86678322D01*
X155581071Y-86680367D01*
X155581077Y-86680367D01*
X155585362Y-86680434D01*
X155857235Y-86647534D01*
X156122127Y-86578041D01*
X156126087Y-86576401D01*
X156126092Y-86576399D01*
X156264536Y-86519053D01*
X156375136Y-86473241D01*
X156611582Y-86335073D01*
X156827089Y-86166094D01*
X156840519Y-86152236D01*
X157014686Y-85972509D01*
X157017669Y-85969431D01*
X157020202Y-85965983D01*
X157020206Y-85965978D01*
X157177257Y-85752178D01*
X157179795Y-85748723D01*
X157207154Y-85698334D01*
X157308418Y-85511830D01*
X157308419Y-85511828D01*
X157310468Y-85508054D01*
X157407269Y-85251877D01*
X157448328Y-85072603D01*
X157467449Y-84989117D01*
X157467450Y-84989113D01*
X157468407Y-84984933D01*
X157477580Y-84882158D01*
X157492531Y-84714627D01*
X157492531Y-84714625D01*
X157492751Y-84712161D01*
X157493193Y-84670000D01*
X157474567Y-84396778D01*
X157419032Y-84128612D01*
X157327617Y-83870465D01*
X157235761Y-83692497D01*
X157203978Y-83630919D01*
X157203978Y-83630918D01*
X157202013Y-83627112D01*
X157192040Y-83612921D01*
X157066663Y-83434528D01*
X157044545Y-83403057D01*
X156974466Y-83327643D01*
X156861046Y-83205588D01*
X156861043Y-83205585D01*
X156858125Y-83202445D01*
X156854810Y-83199731D01*
X156854806Y-83199728D01*
X156649523Y-83031706D01*
X156646205Y-83028990D01*
X156412704Y-82885901D01*
X156408768Y-82884173D01*
X156165873Y-82777549D01*
X156165869Y-82777548D01*
X156161945Y-82775825D01*
X155898566Y-82700800D01*
X155894324Y-82700196D01*
X155894318Y-82700195D01*
X155693834Y-82671662D01*
X155627443Y-82662213D01*
X155483589Y-82661460D01*
X155357877Y-82660802D01*
X155357871Y-82660802D01*
X155353591Y-82660780D01*
X155349347Y-82661339D01*
X155349343Y-82661339D01*
X155230302Y-82677011D01*
X155082078Y-82696525D01*
X155077938Y-82697658D01*
X155077936Y-82697658D01*
X155005008Y-82717609D01*
X154817928Y-82768788D01*
X154813980Y-82770472D01*
X154569982Y-82874546D01*
X154569978Y-82874548D01*
X154566030Y-82876232D01*
X154536305Y-82894022D01*
X154334725Y-83014664D01*
X154334721Y-83014667D01*
X154331043Y-83016868D01*
X154117318Y-83188094D01*
X154032242Y-83277745D01*
X153946221Y-83368393D01*
X153928808Y-83386742D01*
X153769002Y-83609136D01*
X153640857Y-83851161D01*
X153639385Y-83855184D01*
X153639383Y-83855188D01*
X153548214Y-84104317D01*
X153546743Y-84108337D01*
X153488404Y-84375907D01*
X153466917Y-84648918D01*
X152233500Y-84648918D01*
X152233500Y-78814594D01*
X152253502Y-78746473D01*
X152270405Y-78725499D01*
X155725500Y-75270405D01*
X155787812Y-75236379D01*
X155814595Y-75233500D01*
X156755500Y-75233500D01*
X156823621Y-75253502D01*
G37*
%TD.AperFunction*%
%TA.AperFunction,NonConductor*%
G36*
X159109532Y-101435132D02*
G01*
X159166368Y-101477679D01*
X159191179Y-101544199D01*
X159191500Y-101553188D01*
X159191500Y-101946812D01*
X159171498Y-102014933D01*
X159117842Y-102061426D01*
X159047568Y-102071530D01*
X158982988Y-102042036D01*
X158976405Y-102035907D01*
X158934300Y-101993802D01*
X158929792Y-101990645D01*
X158929789Y-101990643D01*
X158776246Y-101883131D01*
X158746749Y-101862477D01*
X158741767Y-101860154D01*
X158739973Y-101859118D01*
X158690981Y-101807734D01*
X158677546Y-101738021D01*
X158703934Y-101672110D01*
X158739973Y-101640882D01*
X158741767Y-101639846D01*
X158746749Y-101637523D01*
X158880029Y-101544199D01*
X158929789Y-101509357D01*
X158929792Y-101509355D01*
X158934300Y-101506198D01*
X158976405Y-101464093D01*
X159038717Y-101430067D01*
X159109532Y-101435132D01*
G37*
%TD.AperFunction*%
%TA.AperFunction,NonConductor*%
G36*
X156740251Y-96853502D02*
G01*
X156786744Y-96907158D01*
X156790112Y-96915270D01*
X156839385Y-97046705D01*
X156926739Y-97163261D01*
X157043295Y-97250615D01*
X157051703Y-97253767D01*
X157179684Y-97301745D01*
X157178954Y-97303691D01*
X157231205Y-97333545D01*
X157264021Y-97396503D01*
X157257591Y-97467207D01*
X157229502Y-97510000D01*
X157083802Y-97655700D01*
X156952477Y-97843251D01*
X156950154Y-97848233D01*
X156950151Y-97848238D01*
X156858039Y-98045775D01*
X156855716Y-98050757D01*
X156796457Y-98271913D01*
X156776502Y-98500000D01*
X156796457Y-98728087D01*
X156797881Y-98733400D01*
X156797881Y-98733402D01*
X156826595Y-98840561D01*
X156855716Y-98949243D01*
X156858039Y-98954224D01*
X156858039Y-98954225D01*
X156950151Y-99151762D01*
X156950154Y-99151767D01*
X156952477Y-99156749D01*
X157083802Y-99344300D01*
X157150407Y-99410905D01*
X157184433Y-99473217D01*
X157179368Y-99544032D01*
X157150407Y-99589095D01*
X157083802Y-99655700D01*
X156952477Y-99843251D01*
X156950154Y-99848233D01*
X156950151Y-99848238D01*
X156921873Y-99908882D01*
X156855716Y-100050757D01*
X156854294Y-100056065D01*
X156854293Y-100056067D01*
X156825625Y-100163056D01*
X156796457Y-100271913D01*
X156776502Y-100500000D01*
X156796457Y-100728087D01*
X156797881Y-100733400D01*
X156797881Y-100733402D01*
X156825346Y-100835900D01*
X156855716Y-100949243D01*
X156858039Y-100954224D01*
X156858039Y-100954225D01*
X156950151Y-101151762D01*
X156950154Y-101151767D01*
X156952477Y-101156749D01*
X156955634Y-101161257D01*
X157076240Y-101333500D01*
X157083802Y-101344300D01*
X157245700Y-101506198D01*
X157250208Y-101509355D01*
X157250211Y-101509357D01*
X157299971Y-101544199D01*
X157433251Y-101637523D01*
X157438233Y-101639846D01*
X157440027Y-101640882D01*
X157489019Y-101692266D01*
X157502454Y-101761979D01*
X157476066Y-101827890D01*
X157440027Y-101859118D01*
X157438233Y-101860154D01*
X157433251Y-101862477D01*
X157403754Y-101883131D01*
X157250211Y-101990643D01*
X157250208Y-101990645D01*
X157245700Y-101993802D01*
X157083802Y-102155700D01*
X156952477Y-102343251D01*
X156950154Y-102348233D01*
X156950151Y-102348238D01*
X156858039Y-102545775D01*
X156855716Y-102550757D01*
X156796457Y-102771913D01*
X156776502Y-103000000D01*
X156796457Y-103228087D01*
X156797881Y-103233400D01*
X156797881Y-103233402D01*
X156819853Y-103315400D01*
X156855716Y-103449243D01*
X156858039Y-103454224D01*
X156858039Y-103454225D01*
X156950151Y-103651762D01*
X156950154Y-103651767D01*
X156952477Y-103656749D01*
X156988500Y-103708195D01*
X157063329Y-103815061D01*
X157083802Y-103844300D01*
X157245700Y-104006198D01*
X157250208Y-104009355D01*
X157250211Y-104009357D01*
X157328389Y-104064098D01*
X157433251Y-104137523D01*
X157438233Y-104139846D01*
X157438238Y-104139849D01*
X157635775Y-104231961D01*
X157640757Y-104234284D01*
X157646065Y-104235706D01*
X157646067Y-104235707D01*
X157856598Y-104292119D01*
X157856600Y-104292119D01*
X157861913Y-104293543D01*
X158090000Y-104313498D01*
X158318087Y-104293543D01*
X158323400Y-104292119D01*
X158323402Y-104292119D01*
X158533933Y-104235707D01*
X158533935Y-104235706D01*
X158539243Y-104234284D01*
X158544225Y-104231961D01*
X158741762Y-104139849D01*
X158741767Y-104139846D01*
X158746749Y-104137523D01*
X158851611Y-104064098D01*
X158929789Y-104009357D01*
X158929792Y-104009355D01*
X158934300Y-104006198D01*
X158976405Y-103964093D01*
X159038717Y-103930067D01*
X159109532Y-103935132D01*
X159166368Y-103977679D01*
X159191179Y-104044199D01*
X159191500Y-104053188D01*
X159191500Y-116188128D01*
X159171498Y-116256249D01*
X159117842Y-116302742D01*
X159047568Y-116312846D01*
X159021272Y-116306111D01*
X159007714Y-116301028D01*
X159007711Y-116301027D01*
X159000316Y-116298255D01*
X158938134Y-116291500D01*
X157241866Y-116291500D01*
X157179684Y-116298255D01*
X157043295Y-116349385D01*
X156926739Y-116436739D01*
X156839385Y-116553295D01*
X156788255Y-116689684D01*
X156781500Y-116751866D01*
X156781500Y-116840500D01*
X156761498Y-116908621D01*
X156707842Y-116955114D01*
X156655500Y-116966500D01*
X156184345Y-116966500D01*
X156116224Y-116946498D01*
X156095250Y-116929595D01*
X155845911Y-116680256D01*
X155811885Y-116617944D01*
X155816950Y-116547129D01*
X155859497Y-116490293D01*
X155903032Y-116469285D01*
X155930144Y-116462172D01*
X156022127Y-116438041D01*
X156026087Y-116436401D01*
X156026092Y-116436399D01*
X156223158Y-116354771D01*
X156275136Y-116333241D01*
X156433643Y-116240617D01*
X156507879Y-116197237D01*
X156507880Y-116197236D01*
X156511582Y-116195073D01*
X156727089Y-116026094D01*
X156917669Y-115829431D01*
X156920202Y-115825983D01*
X156920206Y-115825978D01*
X157077257Y-115612178D01*
X157079795Y-115608723D01*
X157102136Y-115567577D01*
X157208418Y-115371830D01*
X157208419Y-115371828D01*
X157210468Y-115368054D01*
X157307269Y-115111877D01*
X157368407Y-114844933D01*
X157372582Y-114798160D01*
X157392531Y-114574627D01*
X157392531Y-114574625D01*
X157392751Y-114572161D01*
X157393193Y-114530000D01*
X157384936Y-114408882D01*
X157374859Y-114261055D01*
X157374858Y-114261049D01*
X157374567Y-114256778D01*
X157319032Y-113988612D01*
X157227617Y-113730465D01*
X157155461Y-113590666D01*
X157103978Y-113490919D01*
X157103978Y-113490918D01*
X157102013Y-113487112D01*
X157097844Y-113481179D01*
X156955107Y-113278085D01*
X156944545Y-113263057D01*
X156848257Y-113159439D01*
X156761046Y-113065588D01*
X156761043Y-113065585D01*
X156758125Y-113062445D01*
X156754810Y-113059731D01*
X156754806Y-113059728D01*
X156624069Y-112952721D01*
X156546205Y-112888990D01*
X156312704Y-112745901D01*
X156308768Y-112744173D01*
X156065873Y-112637549D01*
X156065869Y-112637548D01*
X156061945Y-112635825D01*
X155798566Y-112560800D01*
X155794324Y-112560196D01*
X155794318Y-112560195D01*
X155593834Y-112531662D01*
X155527443Y-112522213D01*
X155383589Y-112521460D01*
X155257877Y-112520802D01*
X155257871Y-112520802D01*
X155253591Y-112520780D01*
X155249347Y-112521339D01*
X155249343Y-112521339D01*
X155130302Y-112537011D01*
X154982078Y-112556525D01*
X154977938Y-112557658D01*
X154977936Y-112557658D01*
X154905008Y-112577609D01*
X154717928Y-112628788D01*
X154713980Y-112630472D01*
X154469982Y-112734546D01*
X154469978Y-112734548D01*
X154466030Y-112736232D01*
X154446125Y-112748145D01*
X154234725Y-112874664D01*
X154234721Y-112874667D01*
X154231043Y-112876868D01*
X154017318Y-113048094D01*
X153828808Y-113246742D01*
X153669002Y-113469136D01*
X153540857Y-113711161D01*
X153539385Y-113715184D01*
X153539383Y-113715188D01*
X153472515Y-113897912D01*
X153446743Y-113968337D01*
X153445831Y-113972520D01*
X153439888Y-113999777D01*
X153405833Y-114062073D01*
X153343505Y-114096068D01*
X153272691Y-114090970D01*
X153227687Y-114062032D01*
X152270403Y-113104747D01*
X152236379Y-113042437D01*
X152233500Y-113015654D01*
X152233500Y-106048918D01*
X153366917Y-106048918D01*
X153382682Y-106322320D01*
X153383507Y-106326525D01*
X153383508Y-106326533D01*
X153409624Y-106459644D01*
X153435405Y-106591053D01*
X153436792Y-106595103D01*
X153436793Y-106595108D01*
X153514069Y-106820811D01*
X153524112Y-106850144D01*
X153647160Y-107094799D01*
X153649586Y-107098328D01*
X153649589Y-107098334D01*
X153799843Y-107316953D01*
X153802274Y-107320490D01*
X153986582Y-107523043D01*
X154196675Y-107698707D01*
X154200316Y-107700991D01*
X154425024Y-107841951D01*
X154425028Y-107841953D01*
X154428664Y-107844234D01*
X154496544Y-107874883D01*
X154674345Y-107955164D01*
X154674349Y-107955166D01*
X154678257Y-107956930D01*
X154682377Y-107958150D01*
X154682376Y-107958150D01*
X154936723Y-108033491D01*
X154936727Y-108033492D01*
X154940836Y-108034709D01*
X154945070Y-108035357D01*
X154945075Y-108035358D01*
X155207298Y-108075483D01*
X155207300Y-108075483D01*
X155211540Y-108076132D01*
X155350912Y-108078322D01*
X155481071Y-108080367D01*
X155481077Y-108080367D01*
X155485362Y-108080434D01*
X155757235Y-108047534D01*
X156022127Y-107978041D01*
X156026087Y-107976401D01*
X156026092Y-107976399D01*
X156148632Y-107925641D01*
X156275136Y-107873241D01*
X156511582Y-107735073D01*
X156727089Y-107566094D01*
X156768809Y-107523043D01*
X156914686Y-107372509D01*
X156917669Y-107369431D01*
X156920202Y-107365983D01*
X156920206Y-107365978D01*
X157077257Y-107152178D01*
X157079795Y-107148723D01*
X157107154Y-107098334D01*
X157208418Y-106911830D01*
X157208419Y-106911828D01*
X157210468Y-106908054D01*
X157293284Y-106688888D01*
X157305751Y-106655895D01*
X157305752Y-106655891D01*
X157307269Y-106651877D01*
X157355828Y-106439856D01*
X157367449Y-106389117D01*
X157367450Y-106389113D01*
X157368407Y-106384933D01*
X157392751Y-106112161D01*
X157393193Y-106070000D01*
X157374567Y-105796778D01*
X157319032Y-105528612D01*
X157227617Y-105270465D01*
X157102013Y-105027112D01*
X157092040Y-105012921D01*
X156947008Y-104806562D01*
X156944545Y-104803057D01*
X156819867Y-104668887D01*
X156761046Y-104605588D01*
X156761043Y-104605585D01*
X156758125Y-104602445D01*
X156754810Y-104599731D01*
X156754806Y-104599728D01*
X156549523Y-104431706D01*
X156546205Y-104428990D01*
X156312704Y-104285901D01*
X156308768Y-104284173D01*
X156065873Y-104177549D01*
X156065869Y-104177548D01*
X156061945Y-104175825D01*
X155798566Y-104100800D01*
X155794324Y-104100196D01*
X155794318Y-104100195D01*
X155593834Y-104071662D01*
X155527443Y-104062213D01*
X155383589Y-104061460D01*
X155257877Y-104060802D01*
X155257871Y-104060802D01*
X155253591Y-104060780D01*
X155249347Y-104061339D01*
X155249343Y-104061339D01*
X155130302Y-104077011D01*
X154982078Y-104096525D01*
X154977938Y-104097658D01*
X154977936Y-104097658D01*
X154905008Y-104117609D01*
X154717928Y-104168788D01*
X154713980Y-104170472D01*
X154469982Y-104274546D01*
X154469978Y-104274548D01*
X154466030Y-104276232D01*
X154436305Y-104294022D01*
X154234725Y-104414664D01*
X154234721Y-104414667D01*
X154231043Y-104416868D01*
X154017318Y-104588094D01*
X153828808Y-104786742D01*
X153669002Y-105009136D01*
X153540857Y-105251161D01*
X153539385Y-105255184D01*
X153539383Y-105255188D01*
X153532314Y-105274506D01*
X153446743Y-105508337D01*
X153388404Y-105775907D01*
X153366917Y-106048918D01*
X152233500Y-106048918D01*
X152233500Y-96959500D01*
X152253502Y-96891379D01*
X152307158Y-96844886D01*
X152359500Y-96833500D01*
X156672130Y-96833500D01*
X156740251Y-96853502D01*
G37*
%TD.AperFunction*%
%TA.AperFunction,NonConductor*%
G36*
X162461681Y-125438389D02*
G01*
X162518517Y-125480936D01*
X162543328Y-125547456D01*
X162542057Y-125576412D01*
X162338816Y-126842759D01*
X161809957Y-130137966D01*
X161807973Y-130150325D01*
X161777429Y-130214415D01*
X161760008Y-130230520D01*
X160312016Y-131335567D01*
X158014572Y-133088879D01*
X157982862Y-133106508D01*
X156939446Y-133502742D01*
X153222301Y-134914316D01*
X153151518Y-134919800D01*
X153089005Y-134886145D01*
X153054611Y-134824035D01*
X153059256Y-134753191D01*
X153088476Y-134707428D01*
X162328554Y-125467350D01*
X162390866Y-125433324D01*
X162461681Y-125438389D01*
G37*
%TD.AperFunction*%
%TA.AperFunction,NonConductor*%
G36*
X169559527Y-59528502D02*
G01*
X169606020Y-59582158D01*
X169616124Y-59652432D01*
X169586630Y-59717012D01*
X169580501Y-59723595D01*
X169041643Y-60262453D01*
X168979331Y-60296479D01*
X168971389Y-60297941D01*
X168786715Y-60325870D01*
X168786714Y-60325870D01*
X168780401Y-60326825D01*
X168774415Y-60329028D01*
X168774409Y-60329029D01*
X168603640Y-60391860D01*
X168603635Y-60391862D01*
X168597654Y-60394063D01*
X168432160Y-60496674D01*
X168427527Y-60501055D01*
X168427526Y-60501056D01*
X168295315Y-60626081D01*
X168290678Y-60630466D01*
X168287016Y-60635696D01*
X168287015Y-60635697D01*
X168251892Y-60685858D01*
X168178989Y-60789975D01*
X168176452Y-60795838D01*
X168104535Y-60962029D01*
X168101655Y-60968684D01*
X168100350Y-60974931D01*
X168100349Y-60974934D01*
X168070922Y-61115797D01*
X168061835Y-61159293D01*
X168061500Y-61165685D01*
X168061500Y-62108663D01*
X168061823Y-62111842D01*
X168075313Y-62244646D01*
X168076235Y-62253727D01*
X168078144Y-62259818D01*
X168132556Y-62433451D01*
X168132558Y-62433456D01*
X168134465Y-62439541D01*
X168228870Y-62609850D01*
X168233019Y-62614691D01*
X168233022Y-62614695D01*
X168351440Y-62752855D01*
X168355591Y-62757698D01*
X168360633Y-62761609D01*
X168360634Y-62761610D01*
X168387886Y-62782749D01*
X168509453Y-62877046D01*
X168515176Y-62879862D01*
X168515179Y-62879864D01*
X168678444Y-62960200D01*
X168684171Y-62963018D01*
X168690349Y-62964627D01*
X168690351Y-62964628D01*
X168866425Y-63010492D01*
X168866428Y-63010492D01*
X168872607Y-63012102D01*
X168956597Y-63016504D01*
X169060683Y-63021959D01*
X169060687Y-63021959D01*
X169067064Y-63022293D01*
X169222413Y-62998799D01*
X169253285Y-62994130D01*
X169253286Y-62994130D01*
X169259599Y-62993175D01*
X169265585Y-62990972D01*
X169265591Y-62990971D01*
X169436360Y-62928140D01*
X169436365Y-62928138D01*
X169442346Y-62925937D01*
X169607840Y-62823326D01*
X169654856Y-62778866D01*
X169744685Y-62693919D01*
X169749322Y-62689534D01*
X169782707Y-62641856D01*
X169857346Y-62535259D01*
X169861011Y-62530025D01*
X169887475Y-62468870D01*
X169935810Y-62357175D01*
X169935811Y-62357171D01*
X169938345Y-62351316D01*
X169957460Y-62259818D01*
X169977176Y-62165443D01*
X169977177Y-62165438D01*
X169978165Y-62160707D01*
X169978500Y-62154315D01*
X169978500Y-61211337D01*
X169975884Y-61185589D01*
X169988898Y-61115797D01*
X170012144Y-61083760D01*
X170325499Y-60770405D01*
X170387811Y-60736379D01*
X170414594Y-60733500D01*
X175415500Y-60733500D01*
X175483621Y-60753502D01*
X175530114Y-60807158D01*
X175541500Y-60859500D01*
X175541500Y-61825400D01*
X175552474Y-61931166D01*
X175608450Y-62098946D01*
X175647645Y-62162283D01*
X175666500Y-62228585D01*
X175666500Y-63215500D01*
X175646498Y-63283621D01*
X175592842Y-63330114D01*
X175540500Y-63341500D01*
X175501866Y-63341500D01*
X175439684Y-63348255D01*
X175303295Y-63399385D01*
X175296110Y-63404770D01*
X175296108Y-63404771D01*
X175225565Y-63457640D01*
X175159058Y-63482488D01*
X175089676Y-63467435D01*
X175074435Y-63457640D01*
X175003892Y-63404771D01*
X175003890Y-63404770D01*
X174996705Y-63399385D01*
X174860316Y-63348255D01*
X174798134Y-63341500D01*
X173201866Y-63341500D01*
X173139684Y-63348255D01*
X173003295Y-63399385D01*
X172886739Y-63486739D01*
X172864759Y-63516067D01*
X172807900Y-63558580D01*
X172763934Y-63566500D01*
X167578768Y-63566500D01*
X167567585Y-63565973D01*
X167560092Y-63564298D01*
X167552166Y-63564547D01*
X167552165Y-63564547D01*
X167492002Y-63566438D01*
X167488044Y-63566500D01*
X163992686Y-63566500D01*
X163981503Y-63565973D01*
X163974010Y-63564298D01*
X163966084Y-63564547D01*
X163966083Y-63564547D01*
X163905920Y-63566438D01*
X163901962Y-63566500D01*
X163874062Y-63566500D01*
X163870072Y-63567004D01*
X163858238Y-63567936D01*
X163814029Y-63569326D01*
X163806415Y-63571538D01*
X163806410Y-63571539D01*
X163794577Y-63574977D01*
X163775214Y-63578988D01*
X163755121Y-63581526D01*
X163747754Y-63584443D01*
X163747749Y-63584444D01*
X163714010Y-63597802D01*
X163702783Y-63601646D01*
X163660325Y-63613982D01*
X163653499Y-63618019D01*
X163642890Y-63624293D01*
X163625142Y-63632988D01*
X163606301Y-63640448D01*
X163599885Y-63645110D01*
X163599884Y-63645110D01*
X163570531Y-63666436D01*
X163560611Y-63672952D01*
X163529383Y-63691420D01*
X163529380Y-63691422D01*
X163522556Y-63695458D01*
X163508235Y-63709779D01*
X163493202Y-63722619D01*
X163476811Y-63734528D01*
X163471760Y-63740634D01*
X163448620Y-63768605D01*
X163440640Y-63777374D01*
X162500170Y-64717843D01*
X162437860Y-64751867D01*
X162367044Y-64746802D01*
X162331442Y-64726389D01*
X162329157Y-64724526D01*
X162324229Y-64719493D01*
X162313183Y-64712374D01*
X162177688Y-64625054D01*
X162171762Y-64621235D01*
X162165142Y-64618826D01*
X162165139Y-64618824D01*
X162007934Y-64561606D01*
X162007933Y-64561606D01*
X162001315Y-64559197D01*
X161861231Y-64541500D01*
X161764390Y-64541500D01*
X161629745Y-64556603D01*
X161623092Y-64558920D01*
X161623091Y-64558920D01*
X161465106Y-64613936D01*
X161465103Y-64613938D01*
X161458448Y-64616255D01*
X161452469Y-64619991D01*
X161410716Y-64646081D01*
X161304624Y-64712374D01*
X161303777Y-64711018D01*
X161245774Y-64734489D01*
X161176011Y-64721312D01*
X161137663Y-64691103D01*
X161048560Y-64587145D01*
X161044409Y-64582302D01*
X161019598Y-64563056D01*
X160895594Y-64466869D01*
X160890547Y-64462954D01*
X160884824Y-64460138D01*
X160884821Y-64460136D01*
X160721556Y-64379800D01*
X160715829Y-64376982D01*
X160709651Y-64375373D01*
X160709649Y-64375372D01*
X160533575Y-64329508D01*
X160533572Y-64329508D01*
X160527393Y-64327898D01*
X160443403Y-64323496D01*
X160339317Y-64318041D01*
X160339313Y-64318041D01*
X160332936Y-64317707D01*
X160182223Y-64340500D01*
X160146715Y-64345870D01*
X160146714Y-64345870D01*
X160140401Y-64346825D01*
X160134415Y-64349028D01*
X160134409Y-64349029D01*
X159963640Y-64411860D01*
X159963635Y-64411862D01*
X159957654Y-64414063D01*
X159792160Y-64516674D01*
X159787527Y-64521055D01*
X159787526Y-64521056D01*
X159690921Y-64612410D01*
X159650678Y-64650466D01*
X159538989Y-64809975D01*
X159536452Y-64815838D01*
X159470400Y-64968476D01*
X159461655Y-64988684D01*
X159460350Y-64994931D01*
X159460349Y-64994934D01*
X159430063Y-65139909D01*
X159421835Y-65179293D01*
X159421500Y-65185685D01*
X159421500Y-66428663D01*
X159436235Y-66573727D01*
X159438144Y-66579818D01*
X159492556Y-66753451D01*
X159492558Y-66753456D01*
X159494465Y-66759541D01*
X159588870Y-66929850D01*
X159593019Y-66934691D01*
X159593022Y-66934695D01*
X159652684Y-67004303D01*
X159715591Y-67077698D01*
X159869453Y-67197046D01*
X159875176Y-67199862D01*
X159875179Y-67199864D01*
X159994297Y-67258477D01*
X160044171Y-67283018D01*
X160050349Y-67284627D01*
X160050351Y-67284628D01*
X160226425Y-67330492D01*
X160226428Y-67330492D01*
X160232607Y-67332102D01*
X160316597Y-67336504D01*
X160420683Y-67341959D01*
X160420687Y-67341959D01*
X160427064Y-67342293D01*
X160619599Y-67313175D01*
X160625595Y-67310969D01*
X160678196Y-67291616D01*
X160749034Y-67286866D01*
X160811194Y-67321168D01*
X160822525Y-67334295D01*
X160836739Y-67353260D01*
X160835135Y-67354463D01*
X160863621Y-67406630D01*
X160866500Y-67433413D01*
X160866500Y-68565500D01*
X160846498Y-68633621D01*
X160792842Y-68680114D01*
X160740500Y-68691500D01*
X160674600Y-68691500D01*
X160671354Y-68691837D01*
X160671350Y-68691837D01*
X160575692Y-68701762D01*
X160575688Y-68701763D01*
X160568834Y-68702474D01*
X160562298Y-68704655D01*
X160562296Y-68704655D01*
X160502784Y-68724510D01*
X160401054Y-68758450D01*
X160250652Y-68851522D01*
X160125695Y-68976697D01*
X160032885Y-69127262D01*
X160015337Y-69180168D01*
X159974906Y-69238527D01*
X159909342Y-69265764D01*
X159895744Y-69266500D01*
X157188767Y-69266500D01*
X157177584Y-69265973D01*
X157170091Y-69264298D01*
X157162165Y-69264547D01*
X157162164Y-69264547D01*
X157102014Y-69266438D01*
X157098055Y-69266500D01*
X157070144Y-69266500D01*
X157066210Y-69266997D01*
X157066209Y-69266997D01*
X157066144Y-69267005D01*
X157054307Y-69267938D01*
X157022490Y-69268938D01*
X157018029Y-69269078D01*
X157010110Y-69269327D01*
X156992454Y-69274456D01*
X156990658Y-69274978D01*
X156971306Y-69278986D01*
X156964235Y-69279880D01*
X156951203Y-69281526D01*
X156943834Y-69284443D01*
X156943832Y-69284444D01*
X156910097Y-69297800D01*
X156898869Y-69301645D01*
X156856407Y-69313982D01*
X156849584Y-69318017D01*
X156849582Y-69318018D01*
X156838972Y-69324293D01*
X156821224Y-69332988D01*
X156802383Y-69340448D01*
X156795967Y-69345110D01*
X156795966Y-69345110D01*
X156766613Y-69366436D01*
X156756693Y-69372952D01*
X156725465Y-69391420D01*
X156725462Y-69391422D01*
X156718638Y-69395458D01*
X156704317Y-69409779D01*
X156689284Y-69422619D01*
X156672893Y-69434528D01*
X156667842Y-69440634D01*
X156644702Y-69468605D01*
X156636712Y-69477384D01*
X156442664Y-69671432D01*
X156380352Y-69705458D01*
X156302924Y-69697710D01*
X156165878Y-69637551D01*
X156165872Y-69637549D01*
X156161945Y-69635825D01*
X155898566Y-69560800D01*
X155894324Y-69560196D01*
X155894318Y-69560195D01*
X155693834Y-69531662D01*
X155627443Y-69522213D01*
X155483589Y-69521460D01*
X155357877Y-69520802D01*
X155357871Y-69520802D01*
X155353591Y-69520780D01*
X155349347Y-69521339D01*
X155349343Y-69521339D01*
X155230302Y-69537011D01*
X155082078Y-69556525D01*
X155077938Y-69557658D01*
X155077936Y-69557658D01*
X155040710Y-69567842D01*
X154817928Y-69628788D01*
X154813980Y-69630472D01*
X154569982Y-69734546D01*
X154569978Y-69734548D01*
X154566030Y-69736232D01*
X154447414Y-69807222D01*
X154334725Y-69874664D01*
X154334721Y-69874667D01*
X154331043Y-69876868D01*
X154117318Y-70048094D01*
X153928808Y-70246742D01*
X153769002Y-70469136D01*
X153640857Y-70711161D01*
X153639385Y-70715184D01*
X153639383Y-70715188D01*
X153590303Y-70849305D01*
X153546743Y-70968337D01*
X153488404Y-71235907D01*
X153479123Y-71353830D01*
X153467339Y-71503562D01*
X153466917Y-71508918D01*
X153482682Y-71782320D01*
X153483507Y-71786525D01*
X153483508Y-71786533D01*
X153495787Y-71849117D01*
X153535405Y-72051053D01*
X153536792Y-72055103D01*
X153536793Y-72055108D01*
X153614319Y-72281542D01*
X153624112Y-72310144D01*
X153651217Y-72364036D01*
X153722658Y-72506081D01*
X153747160Y-72554799D01*
X153749586Y-72558328D01*
X153749589Y-72558334D01*
X153895178Y-72770166D01*
X153902274Y-72780490D01*
X153905161Y-72783663D01*
X153905162Y-72783664D01*
X154083692Y-72979867D01*
X154086582Y-72983043D01*
X154089877Y-72985798D01*
X154089878Y-72985799D01*
X154191628Y-73070875D01*
X154296675Y-73158707D01*
X154300316Y-73160991D01*
X154525024Y-73301951D01*
X154525028Y-73301953D01*
X154528664Y-73304234D01*
X154596203Y-73334729D01*
X154774345Y-73415164D01*
X154774349Y-73415166D01*
X154778257Y-73416930D01*
X154782377Y-73418150D01*
X154782376Y-73418150D01*
X155036723Y-73493491D01*
X155036727Y-73493492D01*
X155040836Y-73494709D01*
X155045070Y-73495357D01*
X155045075Y-73495358D01*
X155307298Y-73535483D01*
X155307300Y-73535483D01*
X155311540Y-73536132D01*
X155450912Y-73538322D01*
X155581071Y-73540367D01*
X155581077Y-73540367D01*
X155585362Y-73540434D01*
X155857235Y-73507534D01*
X156122127Y-73438041D01*
X156126087Y-73436401D01*
X156126092Y-73436399D01*
X156323158Y-73354771D01*
X156375136Y-73333241D01*
X156611582Y-73195073D01*
X156827089Y-73026094D01*
X156867526Y-72984367D01*
X156957492Y-72891529D01*
X157017669Y-72829431D01*
X157020202Y-72825983D01*
X157020206Y-72825978D01*
X157177257Y-72612178D01*
X157179795Y-72608723D01*
X157207255Y-72558148D01*
X157308418Y-72371830D01*
X157308419Y-72371828D01*
X157310468Y-72368054D01*
X157374675Y-72198134D01*
X157405751Y-72115895D01*
X157405752Y-72115891D01*
X157407269Y-72111877D01*
X157448962Y-71929834D01*
X157467449Y-71849117D01*
X157467450Y-71849113D01*
X157468407Y-71844933D01*
X157470485Y-71821655D01*
X157492531Y-71574627D01*
X157492531Y-71574625D01*
X157492751Y-71572161D01*
X157493193Y-71530000D01*
X157493024Y-71527519D01*
X157474859Y-71261055D01*
X157474858Y-71261049D01*
X157474567Y-71256778D01*
X157464040Y-71205943D01*
X157427293Y-71028502D01*
X157419032Y-70988612D01*
X157327617Y-70730465D01*
X157325651Y-70726656D01*
X157325648Y-70726649D01*
X157320817Y-70717289D01*
X157307348Y-70647582D01*
X157333704Y-70581658D01*
X157391517Y-70540449D01*
X157432783Y-70533500D01*
X159895803Y-70533500D01*
X159963924Y-70553502D01*
X160010417Y-70607158D01*
X160015326Y-70619623D01*
X160033450Y-70673946D01*
X160037301Y-70680170D01*
X160037302Y-70680171D01*
X160063993Y-70723303D01*
X160126522Y-70824348D01*
X160131704Y-70829521D01*
X160150694Y-70848478D01*
X160251697Y-70949305D01*
X160257927Y-70953145D01*
X160257928Y-70953146D01*
X160395090Y-71037694D01*
X160402262Y-71042115D01*
X160426436Y-71050133D01*
X160563611Y-71095632D01*
X160563613Y-71095632D01*
X160570139Y-71097797D01*
X160576975Y-71098497D01*
X160576978Y-71098498D01*
X160620031Y-71102909D01*
X160674600Y-71108500D01*
X161300400Y-71108500D01*
X161303646Y-71108163D01*
X161303650Y-71108163D01*
X161399308Y-71098238D01*
X161399312Y-71098237D01*
X161406166Y-71097526D01*
X161412702Y-71095345D01*
X161412704Y-71095345D01*
X161562391Y-71045405D01*
X161573946Y-71041550D01*
X161724348Y-70948478D01*
X161810784Y-70861891D01*
X161873066Y-70827812D01*
X161943886Y-70832815D01*
X161988976Y-70861736D01*
X162076697Y-70949305D01*
X162082927Y-70953145D01*
X162082928Y-70953146D01*
X162220090Y-71037694D01*
X162227262Y-71042115D01*
X162251436Y-71050133D01*
X162388611Y-71095632D01*
X162388613Y-71095632D01*
X162395139Y-71097797D01*
X162401975Y-71098497D01*
X162401978Y-71098498D01*
X162445031Y-71102909D01*
X162499600Y-71108500D01*
X163125400Y-71108500D01*
X163128644Y-71108163D01*
X163128652Y-71108163D01*
X163202497Y-71100501D01*
X163272318Y-71113366D01*
X163324100Y-71161937D01*
X163341500Y-71225828D01*
X163341500Y-71363001D01*
X163324619Y-71426000D01*
X163309756Y-71451744D01*
X163276412Y-71509498D01*
X163265473Y-71528444D01*
X163206458Y-71710072D01*
X163205768Y-71716633D01*
X163205768Y-71716635D01*
X163198609Y-71784750D01*
X163186496Y-71900000D01*
X163206458Y-72089928D01*
X163265473Y-72271556D01*
X163360960Y-72436944D01*
X163365378Y-72441851D01*
X163365379Y-72441852D01*
X163467077Y-72554799D01*
X163488747Y-72578866D01*
X163534597Y-72612178D01*
X163625884Y-72678502D01*
X163643248Y-72691118D01*
X163649276Y-72693802D01*
X163649278Y-72693803D01*
X163778231Y-72751216D01*
X163817712Y-72768794D01*
X163891603Y-72784500D01*
X163998056Y-72807128D01*
X163998061Y-72807128D01*
X164004513Y-72808500D01*
X164195487Y-72808500D01*
X164195487Y-72810877D01*
X164254666Y-72821708D01*
X164306506Y-72870217D01*
X164323891Y-72939052D01*
X164301301Y-73006359D01*
X164288469Y-73020884D01*
X164288747Y-73021134D01*
X164160960Y-73163056D01*
X164065473Y-73328444D01*
X164006458Y-73510072D01*
X164005768Y-73516633D01*
X164005768Y-73516635D01*
X164003787Y-73535483D01*
X163986496Y-73700000D01*
X163987186Y-73706565D01*
X164002467Y-73851952D01*
X164006458Y-73889928D01*
X164065473Y-74071556D01*
X164068776Y-74077278D01*
X164068777Y-74077279D01*
X164079273Y-74095458D01*
X164160960Y-74236944D01*
X164200801Y-74281192D01*
X164231517Y-74345198D01*
X164222752Y-74415651D01*
X164177289Y-74470182D01*
X164107163Y-74491500D01*
X163848136Y-74491500D01*
X163831690Y-74490422D01*
X163808188Y-74487328D01*
X163800000Y-74486250D01*
X163791812Y-74487328D01*
X163760129Y-74491499D01*
X163760120Y-74491500D01*
X163760115Y-74491500D01*
X163641150Y-74507162D01*
X163493125Y-74568476D01*
X163493123Y-74568477D01*
X163493124Y-74568477D01*
X163397928Y-74641523D01*
X163397925Y-74641526D01*
X163366013Y-74666013D01*
X163360983Y-74672568D01*
X163346548Y-74691379D01*
X163335681Y-74703770D01*
X160420675Y-77618776D01*
X160358363Y-77652802D01*
X160287548Y-77647737D01*
X160230712Y-77605190D01*
X160206658Y-77546127D01*
X160192838Y-77441150D01*
X160192838Y-77441149D01*
X160131524Y-77293124D01*
X160058478Y-77197929D01*
X160058474Y-77197925D01*
X160058471Y-77197921D01*
X160039016Y-77172566D01*
X160039013Y-77172563D01*
X160033987Y-77166013D01*
X160027432Y-77160983D01*
X160008621Y-77146548D01*
X159996230Y-77135681D01*
X159564315Y-76703766D01*
X159553448Y-76691375D01*
X159539013Y-76672563D01*
X159533987Y-76666013D01*
X159502075Y-76641526D01*
X159502072Y-76641523D01*
X159410867Y-76571538D01*
X159406876Y-76568476D01*
X159407756Y-76567330D01*
X159362198Y-76517614D01*
X159357949Y-76508500D01*
X159327523Y-76443251D01*
X159212419Y-76278866D01*
X159199357Y-76260211D01*
X159199355Y-76260208D01*
X159196198Y-76255700D01*
X159050498Y-76110000D01*
X159016472Y-76047688D01*
X159021537Y-75976873D01*
X159064084Y-75920037D01*
X159100737Y-75902868D01*
X159100316Y-75901745D01*
X159228297Y-75853767D01*
X159236705Y-75850615D01*
X159353261Y-75763261D01*
X159440615Y-75646705D01*
X159491745Y-75510316D01*
X159498500Y-75448134D01*
X159498500Y-73751866D01*
X159491745Y-73689684D01*
X159440615Y-73553295D01*
X159353261Y-73436739D01*
X159236705Y-73349385D01*
X159100316Y-73298255D01*
X159038134Y-73291500D01*
X157341866Y-73291500D01*
X157279684Y-73298255D01*
X157143295Y-73349385D01*
X157026739Y-73436739D01*
X156939385Y-73553295D01*
X156888255Y-73689684D01*
X156881500Y-73751866D01*
X156881500Y-73840500D01*
X156861498Y-73908621D01*
X156807842Y-73955114D01*
X156755500Y-73966500D01*
X155578767Y-73966500D01*
X155567584Y-73965973D01*
X155560091Y-73964298D01*
X155552165Y-73964547D01*
X155552164Y-73964547D01*
X155492001Y-73966438D01*
X155488043Y-73966500D01*
X155460144Y-73966500D01*
X155456154Y-73967004D01*
X155444320Y-73967936D01*
X155400111Y-73969326D01*
X155392497Y-73971538D01*
X155392492Y-73971539D01*
X155380659Y-73974977D01*
X155361296Y-73978988D01*
X155341203Y-73981526D01*
X155333836Y-73984443D01*
X155333831Y-73984444D01*
X155300092Y-73997802D01*
X155288865Y-74001646D01*
X155246407Y-74013982D01*
X155239581Y-74018019D01*
X155228972Y-74024293D01*
X155211224Y-74032988D01*
X155192383Y-74040448D01*
X155185967Y-74045110D01*
X155185966Y-74045110D01*
X155156613Y-74066436D01*
X155146693Y-74072952D01*
X155115465Y-74091420D01*
X155115462Y-74091422D01*
X155108638Y-74095458D01*
X155094317Y-74109779D01*
X155079284Y-74122619D01*
X155062893Y-74134528D01*
X155057842Y-74140634D01*
X155034702Y-74168605D01*
X155026712Y-74177384D01*
X151207747Y-77996348D01*
X151199461Y-78003888D01*
X151192982Y-78008000D01*
X151187557Y-78013777D01*
X151146357Y-78057651D01*
X151143602Y-78060493D01*
X151123865Y-78080230D01*
X151121385Y-78083427D01*
X151113682Y-78092447D01*
X151083414Y-78124679D01*
X151079595Y-78131625D01*
X151079593Y-78131628D01*
X151073652Y-78142434D01*
X151062801Y-78158953D01*
X151050386Y-78174959D01*
X151047241Y-78182228D01*
X151047238Y-78182232D01*
X151032826Y-78215537D01*
X151027609Y-78226187D01*
X151006305Y-78264940D01*
X151004334Y-78272615D01*
X151004334Y-78272616D01*
X151001267Y-78284562D01*
X150994863Y-78303266D01*
X150986819Y-78321855D01*
X150985580Y-78329678D01*
X150985577Y-78329688D01*
X150979901Y-78365524D01*
X150977495Y-78377144D01*
X150970499Y-78404395D01*
X150966500Y-78419970D01*
X150966500Y-78440224D01*
X150964949Y-78459934D01*
X150961780Y-78479943D01*
X150965108Y-78515144D01*
X150965941Y-78523961D01*
X150966500Y-78535819D01*
X150966500Y-96128207D01*
X150964268Y-96151816D01*
X150962725Y-96159906D01*
X150963223Y-96167817D01*
X150966251Y-96215951D01*
X150966500Y-96223862D01*
X150966500Y-113251482D01*
X150965973Y-113262665D01*
X150964298Y-113270158D01*
X150964547Y-113278084D01*
X150964547Y-113278085D01*
X150966438Y-113338235D01*
X150966500Y-113342194D01*
X150966500Y-113370105D01*
X150966997Y-113374039D01*
X150966997Y-113374040D01*
X150967005Y-113374105D01*
X150967938Y-113385942D01*
X150969327Y-113430138D01*
X150974978Y-113449588D01*
X150978987Y-113468949D01*
X150981526Y-113489046D01*
X150984445Y-113496417D01*
X150984445Y-113496419D01*
X150997804Y-113530161D01*
X151001649Y-113541391D01*
X151013982Y-113583842D01*
X151018015Y-113590661D01*
X151018017Y-113590666D01*
X151024293Y-113601277D01*
X151032988Y-113619025D01*
X151040448Y-113637866D01*
X151045110Y-113644282D01*
X151045110Y-113644283D01*
X151066436Y-113673636D01*
X151072952Y-113683556D01*
X151089278Y-113711161D01*
X151095458Y-113721611D01*
X151109779Y-113735932D01*
X151122619Y-113750965D01*
X151134528Y-113767356D01*
X151140634Y-113772407D01*
X151168605Y-113795547D01*
X151177384Y-113803537D01*
X155366099Y-117992253D01*
X155373639Y-118000539D01*
X155377751Y-118007018D01*
X155383528Y-118012443D01*
X155427402Y-118053643D01*
X155430244Y-118056398D01*
X155449981Y-118076135D01*
X155453178Y-118078615D01*
X155462198Y-118086318D01*
X155494430Y-118116586D01*
X155501376Y-118120405D01*
X155501379Y-118120407D01*
X155512185Y-118126348D01*
X155528704Y-118137199D01*
X155544710Y-118149614D01*
X155551979Y-118152759D01*
X155551983Y-118152762D01*
X155585288Y-118167174D01*
X155595938Y-118172391D01*
X155634691Y-118193695D01*
X155642366Y-118195666D01*
X155642367Y-118195666D01*
X155654313Y-118198733D01*
X155673018Y-118205137D01*
X155691606Y-118213181D01*
X155699429Y-118214420D01*
X155699439Y-118214423D01*
X155735275Y-118220099D01*
X155746895Y-118222505D01*
X155782040Y-118231528D01*
X155789721Y-118233500D01*
X155809975Y-118233500D01*
X155829685Y-118235051D01*
X155849694Y-118238220D01*
X155857586Y-118237474D01*
X155893712Y-118234059D01*
X155905570Y-118233500D01*
X156655500Y-118233500D01*
X156723621Y-118253502D01*
X156770114Y-118307158D01*
X156781500Y-118359500D01*
X156781500Y-118448134D01*
X156788255Y-118510316D01*
X156839385Y-118646705D01*
X156926739Y-118763261D01*
X157043295Y-118850615D01*
X157051703Y-118853767D01*
X157179684Y-118901745D01*
X157178954Y-118903691D01*
X157231205Y-118933545D01*
X157264021Y-118996503D01*
X157257591Y-119067207D01*
X157229502Y-119110000D01*
X157083802Y-119255700D01*
X156952477Y-119443251D01*
X156950154Y-119448233D01*
X156950151Y-119448238D01*
X156944886Y-119459530D01*
X156855716Y-119650757D01*
X156796457Y-119871913D01*
X156776502Y-120100000D01*
X156796457Y-120328087D01*
X156797881Y-120333400D01*
X156797881Y-120333402D01*
X156842764Y-120500904D01*
X156855716Y-120549243D01*
X156858039Y-120554224D01*
X156858039Y-120554225D01*
X156950151Y-120751762D01*
X156950154Y-120751767D01*
X156952477Y-120756749D01*
X156955634Y-120761257D01*
X157063885Y-120915855D01*
X157083802Y-120944300D01*
X157150407Y-121010905D01*
X157184433Y-121073217D01*
X157179368Y-121144032D01*
X157150407Y-121189095D01*
X157083802Y-121255700D01*
X156952477Y-121443251D01*
X156950154Y-121448233D01*
X156950151Y-121448238D01*
X156890367Y-121576447D01*
X156855716Y-121650757D01*
X156854294Y-121656065D01*
X156854293Y-121656067D01*
X156839950Y-121709597D01*
X156796457Y-121871913D01*
X156776502Y-122100000D01*
X156796457Y-122328087D01*
X156855716Y-122549243D01*
X156858039Y-122554224D01*
X156858039Y-122554225D01*
X156950151Y-122751762D01*
X156950154Y-122751767D01*
X156952477Y-122756749D01*
X157083802Y-122944300D01*
X157245700Y-123106198D01*
X157250208Y-123109355D01*
X157250211Y-123109357D01*
X157335096Y-123168794D01*
X157433251Y-123237523D01*
X157438233Y-123239846D01*
X157440027Y-123240882D01*
X157489019Y-123292266D01*
X157502454Y-123361979D01*
X157476066Y-123427890D01*
X157440027Y-123459118D01*
X157438233Y-123460154D01*
X157433251Y-123462477D01*
X157428747Y-123465631D01*
X157250211Y-123590643D01*
X157250208Y-123590645D01*
X157245700Y-123593802D01*
X157083802Y-123755700D01*
X157080645Y-123760208D01*
X157080643Y-123760211D01*
X157071728Y-123772943D01*
X156952477Y-123943251D01*
X156950154Y-123948233D01*
X156950151Y-123948238D01*
X156858039Y-124145775D01*
X156855716Y-124150757D01*
X156796457Y-124371913D01*
X156776502Y-124600000D01*
X156796457Y-124828087D01*
X156797881Y-124833400D01*
X156797881Y-124833402D01*
X156825293Y-124935702D01*
X156855716Y-125049243D01*
X156858039Y-125054224D01*
X156858039Y-125054225D01*
X156950151Y-125251762D01*
X156950154Y-125251767D01*
X156952477Y-125256749D01*
X156955634Y-125261257D01*
X157076117Y-125433324D01*
X157083802Y-125444300D01*
X157245700Y-125606198D01*
X157250208Y-125609355D01*
X157250211Y-125609357D01*
X157328389Y-125664098D01*
X157433251Y-125737523D01*
X157438233Y-125739846D01*
X157438238Y-125739849D01*
X157566996Y-125799889D01*
X157640757Y-125834284D01*
X157646065Y-125835706D01*
X157646067Y-125835707D01*
X157856598Y-125892119D01*
X157856600Y-125892119D01*
X157861913Y-125893543D01*
X158090000Y-125913498D01*
X158318087Y-125893543D01*
X158323400Y-125892119D01*
X158323402Y-125892119D01*
X158533933Y-125835707D01*
X158533935Y-125835706D01*
X158539243Y-125834284D01*
X158613004Y-125799889D01*
X158741762Y-125739849D01*
X158741767Y-125739846D01*
X158746749Y-125737523D01*
X158851611Y-125664098D01*
X158929789Y-125609357D01*
X158929792Y-125609355D01*
X158934300Y-125606198D01*
X159096198Y-125444300D01*
X159103884Y-125433324D01*
X159224366Y-125261257D01*
X159227523Y-125256749D01*
X159229846Y-125251767D01*
X159229849Y-125251762D01*
X159321961Y-125054225D01*
X159321961Y-125054224D01*
X159324284Y-125049243D01*
X159354708Y-124935702D01*
X159382119Y-124833402D01*
X159382119Y-124833400D01*
X159383543Y-124828087D01*
X159403498Y-124600000D01*
X159383543Y-124371913D01*
X159324284Y-124150757D01*
X159321961Y-124145775D01*
X159229849Y-123948238D01*
X159229846Y-123948233D01*
X159227523Y-123943251D01*
X159108272Y-123772943D01*
X159099357Y-123760211D01*
X159099355Y-123760208D01*
X159096198Y-123755700D01*
X158934300Y-123593802D01*
X158929792Y-123590645D01*
X158929789Y-123590643D01*
X158751253Y-123465631D01*
X158746749Y-123462477D01*
X158741767Y-123460154D01*
X158739973Y-123459118D01*
X158690981Y-123407734D01*
X158677546Y-123338021D01*
X158703934Y-123272110D01*
X158739973Y-123240882D01*
X158741767Y-123239846D01*
X158746749Y-123237523D01*
X158844904Y-123168794D01*
X158929789Y-123109357D01*
X158929792Y-123109355D01*
X158934300Y-123106198D01*
X159096198Y-122944300D01*
X159227523Y-122756749D01*
X159229846Y-122751767D01*
X159229849Y-122751762D01*
X159321961Y-122554225D01*
X159321961Y-122554224D01*
X159324284Y-122549243D01*
X159383543Y-122328087D01*
X159403498Y-122100000D01*
X159383543Y-121871913D01*
X159359069Y-121780574D01*
X159360759Y-121709597D01*
X159391681Y-121658868D01*
X160595753Y-120454796D01*
X160608144Y-120443929D01*
X160626956Y-120429494D01*
X160633506Y-120424468D01*
X160657993Y-120392556D01*
X160657996Y-120392553D01*
X160731042Y-120297357D01*
X160731043Y-120297356D01*
X160772870Y-120196378D01*
X160789197Y-120156960D01*
X160792357Y-120149331D01*
X160808019Y-120030366D01*
X160808019Y-120030359D01*
X160813269Y-119990481D01*
X160809097Y-119958788D01*
X160808019Y-119942345D01*
X160808019Y-97404720D01*
X160828021Y-97336599D01*
X160844924Y-97315625D01*
X171115144Y-87045405D01*
X171177456Y-87011379D01*
X171204239Y-87008500D01*
X171351864Y-87008500D01*
X171368307Y-87009578D01*
X171400000Y-87013750D01*
X171408189Y-87012672D01*
X171439874Y-87008501D01*
X171439884Y-87008500D01*
X171439885Y-87008500D01*
X171539457Y-86995391D01*
X171550664Y-86993916D01*
X171550666Y-86993915D01*
X171558851Y-86992838D01*
X171706876Y-86931524D01*
X171802072Y-86858477D01*
X171802075Y-86858474D01*
X171833987Y-86833987D01*
X171853458Y-86808613D01*
X171864316Y-86796233D01*
X172497446Y-86163103D01*
X172509837Y-86152236D01*
X172528649Y-86137801D01*
X172535199Y-86132775D01*
X172559686Y-86100863D01*
X172559690Y-86100859D01*
X172632736Y-86005664D01*
X172669481Y-85916953D01*
X172690889Y-85865271D01*
X172690890Y-85865266D01*
X172694050Y-85857638D01*
X172695128Y-85849448D01*
X172695259Y-85848960D01*
X172727871Y-85792477D01*
X173010905Y-85509443D01*
X173073217Y-85475417D01*
X173144032Y-85480482D01*
X173189095Y-85509443D01*
X174128659Y-86449007D01*
X174219946Y-86519053D01*
X174227573Y-86522212D01*
X174234729Y-86526344D01*
X174233751Y-86528038D01*
X174261766Y-86546758D01*
X175607260Y-87892253D01*
X175614800Y-87900539D01*
X175618912Y-87907018D01*
X175624689Y-87912443D01*
X175668563Y-87953643D01*
X175671405Y-87956398D01*
X175691142Y-87976135D01*
X175694339Y-87978615D01*
X175703359Y-87986318D01*
X175735591Y-88016586D01*
X175742537Y-88020405D01*
X175742540Y-88020407D01*
X175753346Y-88026348D01*
X175769865Y-88037199D01*
X175785871Y-88049614D01*
X175793140Y-88052759D01*
X175793144Y-88052762D01*
X175826449Y-88067174D01*
X175837099Y-88072391D01*
X175875852Y-88093695D01*
X175883527Y-88095666D01*
X175883528Y-88095666D01*
X175895474Y-88098733D01*
X175914179Y-88105137D01*
X175932767Y-88113181D01*
X175940590Y-88114420D01*
X175940600Y-88114423D01*
X175976436Y-88120099D01*
X175988056Y-88122505D01*
X176023201Y-88131528D01*
X176030882Y-88133500D01*
X176051136Y-88133500D01*
X176070846Y-88135051D01*
X176090855Y-88138220D01*
X176098747Y-88137474D01*
X176134873Y-88134059D01*
X176146731Y-88133500D01*
X176466405Y-88133500D01*
X176534526Y-88153502D01*
X176581019Y-88207158D01*
X176591123Y-88277432D01*
X176561629Y-88342012D01*
X176555500Y-88348595D01*
X175569526Y-89334569D01*
X175507214Y-89368595D01*
X175489739Y-89371130D01*
X175121770Y-89398387D01*
X175078955Y-89394194D01*
X173644080Y-88998367D01*
X172200000Y-88600000D01*
X167900000Y-92200000D01*
X167896359Y-92204384D01*
X167896358Y-92204385D01*
X167028699Y-93249117D01*
X163000000Y-98100000D01*
X163000053Y-98112757D01*
X163099957Y-122089689D01*
X163098366Y-122110181D01*
X162865604Y-123560467D01*
X162835060Y-123624557D01*
X162774715Y-123661960D01*
X162741196Y-123666500D01*
X162678767Y-123666500D01*
X162667584Y-123665973D01*
X162660091Y-123664298D01*
X162652165Y-123664547D01*
X162652164Y-123664547D01*
X162592014Y-123666438D01*
X162588055Y-123666500D01*
X162560144Y-123666500D01*
X162556210Y-123666997D01*
X162556209Y-123666997D01*
X162556144Y-123667005D01*
X162544307Y-123667938D01*
X162512490Y-123668938D01*
X162508029Y-123669078D01*
X162500110Y-123669327D01*
X162482454Y-123674456D01*
X162480658Y-123674978D01*
X162461306Y-123678986D01*
X162454235Y-123679880D01*
X162441203Y-123681526D01*
X162433834Y-123684443D01*
X162433832Y-123684444D01*
X162400097Y-123697800D01*
X162388869Y-123701645D01*
X162346407Y-123713982D01*
X162339585Y-123718016D01*
X162339579Y-123718019D01*
X162328968Y-123724294D01*
X162311218Y-123732990D01*
X162299756Y-123737528D01*
X162299751Y-123737531D01*
X162292383Y-123740448D01*
X162285968Y-123745109D01*
X162256625Y-123766427D01*
X162246707Y-123772943D01*
X162228019Y-123783995D01*
X162208637Y-123795458D01*
X162194313Y-123809782D01*
X162179281Y-123822621D01*
X162162893Y-123834528D01*
X162134712Y-123868593D01*
X162126722Y-123877373D01*
X157450847Y-128553248D01*
X157388535Y-128587274D01*
X157317720Y-128582209D01*
X157260884Y-128539662D01*
X157236073Y-128473142D01*
X157243886Y-128419615D01*
X157305751Y-128255895D01*
X157305752Y-128255891D01*
X157307269Y-128251877D01*
X157368407Y-127984933D01*
X157369229Y-127975729D01*
X157392531Y-127714627D01*
X157392531Y-127714625D01*
X157392751Y-127712161D01*
X157393193Y-127670000D01*
X157393024Y-127667519D01*
X157374859Y-127401055D01*
X157374858Y-127401049D01*
X157374567Y-127396778D01*
X157319032Y-127128612D01*
X157227617Y-126870465D01*
X157102013Y-126627112D01*
X157092040Y-126612921D01*
X156947008Y-126406562D01*
X156944545Y-126403057D01*
X156758125Y-126202445D01*
X156754810Y-126199731D01*
X156754806Y-126199728D01*
X156549523Y-126031706D01*
X156546205Y-126028990D01*
X156312704Y-125885901D01*
X156308768Y-125884173D01*
X156065873Y-125777549D01*
X156065869Y-125777548D01*
X156061945Y-125775825D01*
X155798566Y-125700800D01*
X155794324Y-125700196D01*
X155794318Y-125700195D01*
X155593834Y-125671662D01*
X155527443Y-125662213D01*
X155383589Y-125661460D01*
X155257877Y-125660802D01*
X155257871Y-125660802D01*
X155253591Y-125660780D01*
X155249347Y-125661339D01*
X155249343Y-125661339D01*
X155130302Y-125677011D01*
X154982078Y-125696525D01*
X154977938Y-125697658D01*
X154977936Y-125697658D01*
X154932975Y-125709958D01*
X154717928Y-125768788D01*
X154713980Y-125770472D01*
X154469982Y-125874546D01*
X154469978Y-125874548D01*
X154466030Y-125876232D01*
X154436305Y-125894022D01*
X154234725Y-126014664D01*
X154234721Y-126014667D01*
X154231043Y-126016868D01*
X154017318Y-126188094D01*
X153828808Y-126386742D01*
X153669002Y-126609136D01*
X153540857Y-126851161D01*
X153539385Y-126855184D01*
X153539383Y-126855188D01*
X153448214Y-127104317D01*
X153446743Y-127108337D01*
X153388404Y-127375907D01*
X153366917Y-127648918D01*
X153382682Y-127922320D01*
X153383507Y-127926525D01*
X153383508Y-127926533D01*
X153393160Y-127975729D01*
X153435405Y-128191053D01*
X153436792Y-128195103D01*
X153436793Y-128195108D01*
X153522723Y-128446088D01*
X153524112Y-128450144D01*
X153647160Y-128694799D01*
X153649586Y-128698328D01*
X153649589Y-128698334D01*
X153684221Y-128748723D01*
X153802274Y-128920490D01*
X153805161Y-128923663D01*
X153805162Y-128923664D01*
X153817064Y-128936744D01*
X153986582Y-129123043D01*
X154196675Y-129298707D01*
X154200316Y-129300991D01*
X154425024Y-129441951D01*
X154425028Y-129441953D01*
X154428664Y-129444234D01*
X154525079Y-129487767D01*
X154674345Y-129555164D01*
X154674349Y-129555166D01*
X154678257Y-129556930D01*
X154682377Y-129558150D01*
X154682376Y-129558150D01*
X154936723Y-129633491D01*
X154936727Y-129633492D01*
X154940836Y-129634709D01*
X154945070Y-129635357D01*
X154945075Y-129635358D01*
X155207298Y-129675483D01*
X155207300Y-129675483D01*
X155211540Y-129676132D01*
X155350912Y-129678322D01*
X155481071Y-129680367D01*
X155481077Y-129680367D01*
X155485362Y-129680434D01*
X155757235Y-129647534D01*
X156022127Y-129578041D01*
X156026087Y-129576401D01*
X156026092Y-129576399D01*
X156126448Y-129534830D01*
X156197038Y-129527241D01*
X156260525Y-129559020D01*
X156296752Y-129620079D01*
X156294218Y-129691030D01*
X156263761Y-129740334D01*
X153186940Y-132817155D01*
X153124628Y-132851181D01*
X153053813Y-132846116D01*
X152996977Y-132803569D01*
X152972166Y-132737049D01*
X152978321Y-132688184D01*
X153068180Y-132418844D01*
X153069377Y-132415257D01*
X153135972Y-132089386D01*
X153162936Y-131757875D01*
X153163542Y-131700000D01*
X153162026Y-131674853D01*
X153143755Y-131371772D01*
X153143754Y-131371765D01*
X153143527Y-131367997D01*
X153083770Y-131040803D01*
X153037671Y-130892337D01*
X152986261Y-130726771D01*
X152985139Y-130723157D01*
X152849061Y-130419662D01*
X152725492Y-130214415D01*
X152679466Y-130137966D01*
X152679462Y-130137960D01*
X152677507Y-130134713D01*
X152675180Y-130131729D01*
X152675175Y-130131722D01*
X152475294Y-129875425D01*
X152475288Y-129875418D01*
X152472963Y-129872437D01*
X152238392Y-129636634D01*
X151977191Y-129430720D01*
X151693144Y-129257677D01*
X151491719Y-129166094D01*
X151393817Y-129121580D01*
X151393809Y-129121577D01*
X151390365Y-129120011D01*
X151073240Y-129019718D01*
X150805827Y-128969431D01*
X150750087Y-128958949D01*
X150750085Y-128958949D01*
X150746364Y-128958249D01*
X150414470Y-128936496D01*
X150410690Y-128936704D01*
X150410689Y-128936704D01*
X150312918Y-128942085D01*
X150082366Y-128954773D01*
X150078639Y-128955434D01*
X150078635Y-128955434D01*
X149819510Y-129001358D01*
X149754864Y-129012815D01*
X149751239Y-129013920D01*
X149751234Y-129013921D01*
X149543683Y-129077178D01*
X149436707Y-129109782D01*
X149433243Y-129111313D01*
X149433236Y-129111316D01*
X149246051Y-129194070D01*
X149132503Y-129244269D01*
X149129249Y-129246205D01*
X149129243Y-129246208D01*
X148921410Y-129369856D01*
X148846659Y-129414328D01*
X148843658Y-129416643D01*
X148843654Y-129416646D01*
X148807895Y-129444234D01*
X148583316Y-129617496D01*
X148580617Y-129620152D01*
X148580618Y-129620152D01*
X148355695Y-129841569D01*
X148346288Y-129850829D01*
X148139009Y-130110949D01*
X147964481Y-130394086D01*
X147825232Y-130696140D01*
X147824073Y-130699740D01*
X147824070Y-130699747D01*
X147802133Y-130767869D01*
X147723280Y-131012735D01*
X147722561Y-131016451D01*
X147722559Y-131016459D01*
X147660819Y-131335567D01*
X147660100Y-131339285D01*
X147659833Y-131343061D01*
X147659832Y-131343066D01*
X147658067Y-131367997D01*
X147636610Y-131671061D01*
X147653147Y-132003255D01*
X147653788Y-132006986D01*
X147653789Y-132006994D01*
X147703368Y-132295521D01*
X147709474Y-132331057D01*
X147710562Y-132334696D01*
X147710563Y-132334699D01*
X147799238Y-132631206D01*
X147804774Y-132649718D01*
X147806287Y-132653189D01*
X147806289Y-132653195D01*
X147840099Y-132730767D01*
X147937666Y-132954622D01*
X148106226Y-133241352D01*
X148108527Y-133244367D01*
X148305712Y-133502742D01*
X148305717Y-133502748D01*
X148308012Y-133505755D01*
X148540102Y-133744002D01*
X148799132Y-133952640D01*
X149081352Y-134128648D01*
X149382672Y-134269476D01*
X149698729Y-134373085D01*
X150024944Y-134437973D01*
X150028716Y-134438260D01*
X150028724Y-134438261D01*
X150352815Y-134462914D01*
X150352820Y-134462914D01*
X150356592Y-134463201D01*
X150688869Y-134448403D01*
X150693401Y-134447649D01*
X151013220Y-134394417D01*
X151013225Y-134394416D01*
X151016961Y-134393794D01*
X151336116Y-134300164D01*
X151339583Y-134298674D01*
X151339587Y-134298673D01*
X151378403Y-134281996D01*
X151448888Y-134273484D01*
X151512785Y-134304429D01*
X151549809Y-134365008D01*
X151548204Y-134435986D01*
X151517236Y-134486859D01*
X150003833Y-136000262D01*
X149941521Y-136034288D01*
X149877684Y-136031595D01*
X143716605Y-134135879D01*
X143657380Y-134096728D01*
X143628723Y-134031772D01*
X143632101Y-133982298D01*
X144319067Y-131463422D01*
X144320526Y-131458473D01*
X144499273Y-130895045D01*
X144499274Y-130895040D01*
X144499698Y-130893705D01*
X144500061Y-130892358D01*
X144500067Y-130892337D01*
X144714003Y-130098119D01*
X144714368Y-130096764D01*
X144893707Y-129291137D01*
X144899274Y-129259646D01*
X144959848Y-128916953D01*
X145037369Y-128478389D01*
X145138221Y-127712161D01*
X145144895Y-127661454D01*
X145144896Y-127661444D01*
X145145073Y-127660100D01*
X145145192Y-127658735D01*
X145214566Y-126861356D01*
X145215397Y-126854489D01*
X145216356Y-126850421D01*
X145217321Y-126837905D01*
X145214398Y-126800260D01*
X145213590Y-126789853D01*
X145213212Y-126779884D01*
X145281674Y-86679918D01*
X145310743Y-69653566D01*
X145312490Y-69632876D01*
X145315102Y-69617356D01*
X145315102Y-69617352D01*
X145315910Y-69612552D01*
X145316063Y-69600000D01*
X145313289Y-69580628D01*
X145312074Y-69558968D01*
X145315393Y-69449123D01*
X145315961Y-69440391D01*
X145372952Y-68870479D01*
X145486236Y-67737641D01*
X145488413Y-67723757D01*
X145591705Y-67242575D01*
X145603278Y-67188663D01*
X145605100Y-67181273D01*
X145699077Y-66844162D01*
X145766749Y-66601411D01*
X145769003Y-66594176D01*
X145965382Y-66025092D01*
X145968076Y-66017989D01*
X145972007Y-66008500D01*
X146198441Y-65461841D01*
X146201565Y-65454900D01*
X146465089Y-64913675D01*
X146468626Y-64906936D01*
X146663393Y-64561606D01*
X146764353Y-64382600D01*
X146768286Y-64376094D01*
X146787828Y-64345870D01*
X147095123Y-63870586D01*
X147099443Y-63864326D01*
X147191157Y-63739684D01*
X147456222Y-63379451D01*
X147460913Y-63373464D01*
X147504222Y-63321498D01*
X147592560Y-63215500D01*
X147846301Y-62911035D01*
X147851348Y-62905338D01*
X148129503Y-62609850D01*
X148263967Y-62467007D01*
X148269328Y-62461646D01*
X148516913Y-62228585D01*
X148644309Y-62108663D01*
X159421500Y-62108663D01*
X159421823Y-62111842D01*
X159435313Y-62244646D01*
X159436235Y-62253727D01*
X159438144Y-62259818D01*
X159492556Y-62433451D01*
X159492558Y-62433456D01*
X159494465Y-62439541D01*
X159588870Y-62609850D01*
X159593019Y-62614691D01*
X159593022Y-62614695D01*
X159711440Y-62752855D01*
X159715591Y-62757698D01*
X159720633Y-62761609D01*
X159720634Y-62761610D01*
X159747886Y-62782749D01*
X159869453Y-62877046D01*
X159875176Y-62879862D01*
X159875179Y-62879864D01*
X160038444Y-62960200D01*
X160044171Y-62963018D01*
X160050349Y-62964627D01*
X160050351Y-62964628D01*
X160226425Y-63010492D01*
X160226428Y-63010492D01*
X160232607Y-63012102D01*
X160316597Y-63016504D01*
X160420683Y-63021959D01*
X160420687Y-63021959D01*
X160427064Y-63022293D01*
X160582413Y-62998799D01*
X160613285Y-62994130D01*
X160613286Y-62994130D01*
X160619599Y-62993175D01*
X160625585Y-62990972D01*
X160625591Y-62990971D01*
X160796360Y-62928140D01*
X160796365Y-62928138D01*
X160802346Y-62925937D01*
X160967840Y-62823326D01*
X161014856Y-62778866D01*
X161104685Y-62693919D01*
X161109322Y-62689534D01*
X161142707Y-62641856D01*
X161217346Y-62535259D01*
X161221011Y-62530025D01*
X161247475Y-62468870D01*
X161295810Y-62357175D01*
X161295811Y-62357171D01*
X161298345Y-62351316D01*
X161317460Y-62259818D01*
X161337176Y-62165443D01*
X161337177Y-62165438D01*
X161338165Y-62160707D01*
X161338500Y-62154315D01*
X161338500Y-61211337D01*
X161323765Y-61066273D01*
X161305240Y-61007158D01*
X161267444Y-60886549D01*
X161267442Y-60886544D01*
X161265535Y-60880459D01*
X161195161Y-60753502D01*
X161174223Y-60715729D01*
X161174221Y-60715726D01*
X161171130Y-60710150D01*
X161166981Y-60705309D01*
X161166978Y-60705305D01*
X161048560Y-60567145D01*
X161044409Y-60562302D01*
X160890547Y-60442954D01*
X160884824Y-60440138D01*
X160884821Y-60440136D01*
X160721556Y-60359800D01*
X160715829Y-60356982D01*
X160709651Y-60355373D01*
X160709649Y-60355372D01*
X160533575Y-60309508D01*
X160533572Y-60309508D01*
X160527393Y-60307898D01*
X160443403Y-60303496D01*
X160339317Y-60298041D01*
X160339313Y-60298041D01*
X160332936Y-60297707D01*
X160218115Y-60315072D01*
X160146715Y-60325870D01*
X160146714Y-60325870D01*
X160140401Y-60326825D01*
X160134415Y-60329028D01*
X160134409Y-60329029D01*
X159963640Y-60391860D01*
X159963635Y-60391862D01*
X159957654Y-60394063D01*
X159792160Y-60496674D01*
X159787527Y-60501055D01*
X159787526Y-60501056D01*
X159655315Y-60626081D01*
X159650678Y-60630466D01*
X159647016Y-60635696D01*
X159647015Y-60635697D01*
X159611892Y-60685858D01*
X159538989Y-60789975D01*
X159536452Y-60795838D01*
X159464535Y-60962029D01*
X159461655Y-60968684D01*
X159460350Y-60974931D01*
X159460349Y-60974934D01*
X159430922Y-61115797D01*
X159421835Y-61159293D01*
X159421500Y-61165685D01*
X159421500Y-62108663D01*
X148644309Y-62108663D01*
X148707662Y-62049027D01*
X148713359Y-62043980D01*
X149175796Y-61658587D01*
X149181788Y-61653893D01*
X149666640Y-61297134D01*
X149672904Y-61292810D01*
X150178427Y-60965966D01*
X150184940Y-60962029D01*
X150709271Y-60666308D01*
X150716010Y-60662771D01*
X150791364Y-60626081D01*
X151257251Y-60399241D01*
X151264149Y-60396137D01*
X151820334Y-60165759D01*
X151827430Y-60163068D01*
X151921575Y-60130581D01*
X151993557Y-60105742D01*
X151998863Y-60104041D01*
X153097906Y-59778399D01*
X153107256Y-59776014D01*
X153579569Y-59674627D01*
X153587056Y-59673255D01*
X154182180Y-59582681D01*
X154189735Y-59581764D01*
X154783717Y-59527789D01*
X154786739Y-59527551D01*
X154795904Y-59526940D01*
X154800480Y-59526718D01*
X155071844Y-59518519D01*
X155357681Y-59509883D01*
X155380865Y-59511326D01*
X155384888Y-59511952D01*
X155387185Y-59512310D01*
X155387187Y-59512310D01*
X155396056Y-59513691D01*
X155404958Y-59512527D01*
X155404960Y-59512527D01*
X155420009Y-59510559D01*
X155427618Y-59509564D01*
X155443953Y-59508500D01*
X169491406Y-59508500D01*
X169559527Y-59528502D01*
G37*
%TD.AperFunction*%
%TA.AperFunction,Conductor*%
G36*
X252878173Y-78527797D02*
G01*
X252923240Y-78556759D01*
X253578115Y-79211634D01*
X253580777Y-79213774D01*
X253620705Y-79245878D01*
X253620708Y-79245880D01*
X253626861Y-79250827D01*
X253759457Y-79311114D01*
X253857460Y-79325149D01*
X253869951Y-79326938D01*
X253934548Y-79356395D01*
X253941183Y-79362570D01*
X258595371Y-84016758D01*
X258602915Y-84025048D01*
X258607028Y-84031529D01*
X258612805Y-84036954D01*
X258656695Y-84078169D01*
X258659537Y-84080924D01*
X258679258Y-84100645D01*
X258682453Y-84103123D01*
X258691475Y-84110829D01*
X258723707Y-84141097D01*
X258730656Y-84144917D01*
X258741460Y-84150857D01*
X258757984Y-84161710D01*
X258773987Y-84174124D01*
X258814571Y-84191687D01*
X258825201Y-84196894D01*
X258863968Y-84218206D01*
X258871645Y-84220177D01*
X258871650Y-84220179D01*
X258883586Y-84223243D01*
X258902294Y-84229648D01*
X258920883Y-84237692D01*
X258928711Y-84238932D01*
X258928718Y-84238934D01*
X258964552Y-84244610D01*
X258976172Y-84247016D01*
X259007987Y-84255184D01*
X259018998Y-84258011D01*
X259039252Y-84258011D01*
X259058962Y-84259562D01*
X259078971Y-84262731D01*
X259086863Y-84261985D01*
X259105608Y-84260213D01*
X259122990Y-84258570D01*
X259134847Y-84258011D01*
X261721336Y-84258011D01*
X261732519Y-84258538D01*
X261740012Y-84260213D01*
X261747938Y-84259964D01*
X261747939Y-84259964D01*
X261808089Y-84258073D01*
X261812048Y-84258011D01*
X261839959Y-84258011D01*
X261843894Y-84257514D01*
X261843959Y-84257506D01*
X261855796Y-84256573D01*
X261888054Y-84255559D01*
X261892073Y-84255433D01*
X261899992Y-84255184D01*
X261919446Y-84249532D01*
X261938803Y-84245524D01*
X261951033Y-84243979D01*
X261951034Y-84243979D01*
X261958900Y-84242985D01*
X261966271Y-84240066D01*
X261966273Y-84240066D01*
X262000015Y-84226707D01*
X262011245Y-84222862D01*
X262046086Y-84212740D01*
X262046087Y-84212740D01*
X262053696Y-84210529D01*
X262060515Y-84206496D01*
X262060520Y-84206494D01*
X262071131Y-84200218D01*
X262088879Y-84191523D01*
X262098817Y-84187588D01*
X262169514Y-84181109D01*
X262232494Y-84213881D01*
X262267758Y-84275501D01*
X262271198Y-84304894D01*
X262271022Y-84449294D01*
X262250937Y-84517390D01*
X262244254Y-84526786D01*
X260724813Y-86468295D01*
X260722754Y-86470926D01*
X260665153Y-86512197D01*
X256720769Y-87892731D01*
X256678000Y-87899800D01*
X253333104Y-87869391D01*
X253265167Y-87848770D01*
X253219164Y-87794694D01*
X253208939Y-87756566D01*
X253194232Y-87616635D01*
X253194232Y-87616633D01*
X253193542Y-87610072D01*
X253134527Y-87428444D01*
X253039040Y-87263056D01*
X252965863Y-87181785D01*
X252935147Y-87117779D01*
X252933500Y-87097476D01*
X252933500Y-80278767D01*
X252934027Y-80267584D01*
X252935702Y-80260091D01*
X252934438Y-80219864D01*
X252933562Y-80192014D01*
X252933500Y-80188055D01*
X252933500Y-80160144D01*
X252932995Y-80156144D01*
X252932062Y-80144301D01*
X252930922Y-80108029D01*
X252930673Y-80100110D01*
X252925022Y-80080658D01*
X252921014Y-80061306D01*
X252919467Y-80049063D01*
X252918474Y-80041203D01*
X252909767Y-80019210D01*
X252902200Y-80000097D01*
X252898356Y-79988871D01*
X252892211Y-79967722D01*
X252892412Y-79896726D01*
X252930964Y-79837109D01*
X252995628Y-79807798D01*
X253065358Y-79817865D01*
X253185744Y-79872601D01*
X253202799Y-79877588D01*
X253329069Y-79895671D01*
X253346847Y-79895671D01*
X253473115Y-79877588D01*
X253490173Y-79872600D01*
X253607279Y-79819356D01*
X253620625Y-79811137D01*
X253660503Y-79779074D01*
X253665580Y-79774519D01*
X253699205Y-79740894D01*
X253706819Y-79726950D01*
X253706688Y-79725117D01*
X253702437Y-79718502D01*
X252731968Y-78748032D01*
X252697942Y-78685720D01*
X252703007Y-78614904D01*
X252731964Y-78569845D01*
X252745046Y-78556762D01*
X252807357Y-78522735D01*
X252878173Y-78527797D01*
G37*
%TD.AperFunction*%
%TA.AperFunction,Conductor*%
G36*
X239353527Y-74253502D02*
G01*
X239374501Y-74270405D01*
X240369680Y-75265584D01*
X240403706Y-75327896D01*
X240398641Y-75398711D01*
X240360136Y-75452391D01*
X240336214Y-75471866D01*
X239681574Y-76126506D01*
X239679520Y-76129036D01*
X239679516Y-76129040D01*
X239618892Y-76203700D01*
X239618890Y-76203704D01*
X239614546Y-76209053D01*
X239611468Y-76215214D01*
X239611465Y-76215218D01*
X239595220Y-76247730D01*
X239535489Y-76367273D01*
X239494951Y-76539435D01*
X239494957Y-76546751D01*
X239494957Y-76546754D01*
X239494993Y-76587701D01*
X239495105Y-76716305D01*
X239496795Y-76723426D01*
X239520905Y-76825022D01*
X239535944Y-76888397D01*
X239539224Y-76894933D01*
X239539226Y-76894938D01*
X239612191Y-77040329D01*
X239612194Y-77040333D01*
X239615277Y-77046477D01*
X239619619Y-77051810D01*
X239619620Y-77051812D01*
X239679543Y-77125416D01*
X239679549Y-77125422D01*
X239681574Y-77127910D01*
X240672090Y-78118426D01*
X240674620Y-78120480D01*
X240674624Y-78120484D01*
X240749284Y-78181108D01*
X240749288Y-78181110D01*
X240754637Y-78185454D01*
X240760798Y-78188532D01*
X240760802Y-78188535D01*
X240906314Y-78261242D01*
X240906316Y-78261243D01*
X240912857Y-78264511D01*
X241085019Y-78305049D01*
X241092335Y-78305043D01*
X241092338Y-78305043D01*
X241104005Y-78305033D01*
X241112457Y-78305025D01*
X241180594Y-78324968D01*
X241201661Y-78341930D01*
X241319506Y-78459775D01*
X241353532Y-78522087D01*
X241348467Y-78592902D01*
X241319506Y-78637965D01*
X241239154Y-78718317D01*
X241228791Y-78731206D01*
X241204910Y-78760907D01*
X241204908Y-78760910D01*
X241199961Y-78767063D01*
X241196693Y-78774251D01*
X241146717Y-78884167D01*
X241100313Y-78937900D01*
X241084167Y-78946717D01*
X241003564Y-78983365D01*
X240967063Y-78999961D01*
X240960910Y-79004908D01*
X240960907Y-79004910D01*
X240935053Y-79025698D01*
X240918317Y-79039154D01*
X240496979Y-79460492D01*
X240434667Y-79494518D01*
X240363852Y-79489453D01*
X240307016Y-79446906D01*
X240282205Y-79380386D01*
X240285238Y-79342518D01*
X240302872Y-79267630D01*
X240304543Y-79253188D01*
X240304401Y-79091072D01*
X240302705Y-79076633D01*
X240265273Y-78918896D01*
X240260301Y-78905235D01*
X240187388Y-78759947D01*
X240179959Y-78748464D01*
X240120079Y-78674914D01*
X240115769Y-78670140D01*
X239815227Y-78369599D01*
X239801289Y-78361988D01*
X239799453Y-78362120D01*
X239792841Y-78366369D01*
X238159895Y-79999315D01*
X238152281Y-80013259D01*
X238152412Y-80015092D01*
X238156663Y-80021706D01*
X238460399Y-80325442D01*
X238465244Y-80329810D01*
X238539852Y-80390393D01*
X238551375Y-80397823D01*
X238696778Y-80470476D01*
X238710439Y-80475421D01*
X238868246Y-80512580D01*
X238882688Y-80514251D01*
X239044804Y-80514109D01*
X239059243Y-80512413D01*
X239216979Y-80474981D01*
X239230640Y-80470009D01*
X239375926Y-80397097D01*
X239382068Y-80393123D01*
X239450128Y-80372917D01*
X239518309Y-80392714D01*
X239564963Y-80446230D01*
X239575234Y-80516778D01*
X239563390Y-80599480D01*
X239584039Y-80743666D01*
X239644326Y-80876262D01*
X239649273Y-80882415D01*
X239649275Y-80882418D01*
X239670063Y-80908272D01*
X239683519Y-80925008D01*
X241130449Y-82371938D01*
X241133111Y-82374078D01*
X241173039Y-82406182D01*
X241173042Y-82406184D01*
X241179195Y-82411131D01*
X241311791Y-82471418D01*
X241364888Y-82479022D01*
X241407947Y-82485189D01*
X241472544Y-82514646D01*
X241510961Y-82574351D01*
X241514811Y-82592053D01*
X241528582Y-82688209D01*
X241532296Y-82696377D01*
X241532296Y-82696378D01*
X241537810Y-82708505D01*
X241588869Y-82820805D01*
X241593816Y-82826958D01*
X241593818Y-82826961D01*
X241609994Y-82847079D01*
X241628062Y-82869551D01*
X243074992Y-84316481D01*
X243077654Y-84318621D01*
X243117582Y-84350725D01*
X243117585Y-84350727D01*
X243123738Y-84355674D01*
X243179678Y-84381108D01*
X243189237Y-84385454D01*
X243256334Y-84415961D01*
X243315028Y-84424367D01*
X243318843Y-84424913D01*
X243383440Y-84454370D01*
X243421856Y-84514075D01*
X243421896Y-84585071D01*
X243406876Y-84617919D01*
X243402180Y-84625203D01*
X243329524Y-84770610D01*
X243324579Y-84784271D01*
X243287420Y-84942078D01*
X243285749Y-84956520D01*
X243285891Y-85118636D01*
X243287587Y-85133075D01*
X243325019Y-85290812D01*
X243329991Y-85304473D01*
X243402904Y-85449761D01*
X243410333Y-85461244D01*
X243470213Y-85534794D01*
X243474523Y-85539568D01*
X243775065Y-85840109D01*
X243789003Y-85847720D01*
X243790839Y-85847588D01*
X243797451Y-85843339D01*
X245430397Y-84210393D01*
X245438011Y-84196449D01*
X245437880Y-84194616D01*
X245433629Y-84188002D01*
X245129893Y-83884266D01*
X245125048Y-83879898D01*
X245050440Y-83819315D01*
X245038917Y-83811885D01*
X244893514Y-83739232D01*
X244879853Y-83734287D01*
X244722046Y-83697128D01*
X244707604Y-83695457D01*
X244651322Y-83695506D01*
X244583184Y-83675563D01*
X244536645Y-83621947D01*
X244526480Y-83551682D01*
X244555917Y-83487076D01*
X244562118Y-83480411D01*
X244960846Y-83081683D01*
X244974302Y-83064947D01*
X244995090Y-83039093D01*
X244995092Y-83039090D01*
X245000039Y-83032937D01*
X245030528Y-82965879D01*
X245053283Y-82915833D01*
X245099687Y-82862100D01*
X245115833Y-82853283D01*
X245225749Y-82803307D01*
X245232937Y-82800039D01*
X245239090Y-82795092D01*
X245239093Y-82795090D01*
X245279012Y-82762994D01*
X245279017Y-82762990D01*
X245281683Y-82760846D01*
X245284109Y-82758420D01*
X245284898Y-82757712D01*
X245348959Y-82727105D01*
X245419397Y-82735990D01*
X245473850Y-82781546D01*
X245495048Y-82851382D01*
X245495062Y-82866889D01*
X245495105Y-82916305D01*
X245535944Y-83088397D01*
X245539224Y-83094933D01*
X245539226Y-83094938D01*
X245612191Y-83240329D01*
X245612194Y-83240333D01*
X245615277Y-83246477D01*
X245619619Y-83251810D01*
X245619620Y-83251812D01*
X245679543Y-83325416D01*
X245679549Y-83325422D01*
X245681574Y-83327910D01*
X246672090Y-84318426D01*
X246674620Y-84320480D01*
X246674624Y-84320484D01*
X246749284Y-84381108D01*
X246749288Y-84381110D01*
X246754637Y-84385454D01*
X246760798Y-84388532D01*
X246760802Y-84388535D01*
X246857018Y-84436610D01*
X246907619Y-84461894D01*
X246959614Y-84510234D01*
X246977222Y-84579012D01*
X246954850Y-84646392D01*
X246940394Y-84663701D01*
X246463437Y-85140658D01*
X246401125Y-85174684D01*
X246330310Y-85169619D01*
X246273474Y-85127072D01*
X246261728Y-85108079D01*
X246187388Y-84959947D01*
X246179959Y-84948464D01*
X246120079Y-84874914D01*
X246115769Y-84870140D01*
X245815227Y-84569599D01*
X245801289Y-84561988D01*
X245799453Y-84562120D01*
X245792841Y-84566369D01*
X244159895Y-86199315D01*
X244152281Y-86213259D01*
X244152412Y-86215092D01*
X244156663Y-86221706D01*
X244460399Y-86525442D01*
X244465244Y-86529810D01*
X244539852Y-86590393D01*
X244551375Y-86597823D01*
X244698283Y-86671228D01*
X244750280Y-86719569D01*
X244767887Y-86788348D01*
X244745514Y-86855728D01*
X244731059Y-86873036D01*
X244174500Y-87429595D01*
X244112188Y-87463621D01*
X244085405Y-87466500D01*
X243890019Y-87466500D01*
X243867326Y-87464440D01*
X238642056Y-86507700D01*
X238578651Y-86475756D01*
X238571316Y-86468295D01*
X236722967Y-84425384D01*
X236693035Y-84366483D01*
X236682570Y-84316116D01*
X235527329Y-78756520D01*
X237285749Y-78756520D01*
X237285891Y-78918636D01*
X237287587Y-78933075D01*
X237325019Y-79090812D01*
X237329991Y-79104473D01*
X237402904Y-79249761D01*
X237410333Y-79261244D01*
X237470213Y-79334794D01*
X237474523Y-79339568D01*
X237775065Y-79640109D01*
X237789003Y-79647720D01*
X237790839Y-79647588D01*
X237797451Y-79643339D01*
X238423124Y-79017666D01*
X238430738Y-79003722D01*
X238430607Y-79001889D01*
X238426356Y-78995274D01*
X237632743Y-78201662D01*
X237618805Y-78194051D01*
X237616969Y-78194183D01*
X237610357Y-78198432D01*
X237474561Y-78334228D01*
X237470192Y-78339073D01*
X237409607Y-78413684D01*
X237402177Y-78425207D01*
X237329524Y-78570610D01*
X237324579Y-78584271D01*
X237287420Y-78742078D01*
X237285749Y-78756520D01*
X235527329Y-78756520D01*
X235334966Y-77830774D01*
X237984343Y-77830774D01*
X237984474Y-77832609D01*
X237988722Y-77839219D01*
X238782335Y-78632833D01*
X238796278Y-78640446D01*
X238798112Y-78640315D01*
X238804726Y-78636064D01*
X239430397Y-78010393D01*
X239438011Y-77996449D01*
X239437880Y-77994616D01*
X239433629Y-77988002D01*
X239129893Y-77684266D01*
X239125048Y-77679898D01*
X239050440Y-77619315D01*
X239038917Y-77611885D01*
X238893514Y-77539232D01*
X238879853Y-77534287D01*
X238722046Y-77497128D01*
X238707604Y-77495457D01*
X238545488Y-77495599D01*
X238531049Y-77497295D01*
X238373313Y-77534727D01*
X238359652Y-77539699D01*
X238214366Y-77612611D01*
X238202881Y-77620042D01*
X238129326Y-77679924D01*
X238124555Y-77684232D01*
X237991957Y-77816830D01*
X237984343Y-77830774D01*
X235334966Y-77830774D01*
X235291178Y-77620042D01*
X235103289Y-76715828D01*
X235100813Y-76683857D01*
X235197999Y-74754022D01*
X235218186Y-74353163D01*
X235241589Y-74286134D01*
X235297516Y-74242399D01*
X235344027Y-74233500D01*
X239285406Y-74233500D01*
X239353527Y-74253502D01*
G37*
%TD.AperFunction*%
%TA.AperFunction,Conductor*%
G36*
X251844032Y-65578904D02*
G01*
X251889095Y-65607865D01*
X252340678Y-66059448D01*
X252343340Y-66061588D01*
X252389424Y-66098641D01*
X252388081Y-66100312D01*
X252408607Y-66120751D01*
X252410616Y-66119136D01*
X252447629Y-66165171D01*
X252452184Y-66170248D01*
X252485809Y-66203873D01*
X252499753Y-66211487D01*
X252501586Y-66211356D01*
X252519594Y-66199783D01*
X252520268Y-66200831D01*
X252569819Y-66173773D01*
X252614464Y-66172167D01*
X252666206Y-66179577D01*
X252766749Y-66165178D01*
X252837017Y-66175320D01*
X252890647Y-66221843D01*
X252910611Y-66289975D01*
X252909338Y-66307767D01*
X252894939Y-66408311D01*
X252902350Y-66460057D01*
X252892206Y-66530322D01*
X252875048Y-66555019D01*
X252863031Y-66577027D01*
X252863162Y-66578860D01*
X252867413Y-66585475D01*
X252904265Y-66622327D01*
X252909348Y-66626888D01*
X252955381Y-66663901D01*
X252953693Y-66666001D01*
X252974174Y-66686460D01*
X252975875Y-66685093D01*
X253015068Y-66733839D01*
X253472048Y-67190819D01*
X253504353Y-67216793D01*
X253519452Y-67228933D01*
X253560008Y-67287206D01*
X253566500Y-67327129D01*
X253566500Y-67497476D01*
X253546498Y-67565597D01*
X253534142Y-67581779D01*
X253460960Y-67663056D01*
X253410357Y-67750702D01*
X253371557Y-67817907D01*
X253365473Y-67828444D01*
X253306458Y-68010072D01*
X253305768Y-68016633D01*
X253305768Y-68016635D01*
X253303354Y-68039606D01*
X253286496Y-68200000D01*
X253287186Y-68206565D01*
X253299940Y-68327909D01*
X253306458Y-68389928D01*
X253365473Y-68571556D01*
X253460960Y-68736944D01*
X253465378Y-68741851D01*
X253465379Y-68741852D01*
X253556162Y-68842677D01*
X253588747Y-68878866D01*
X253657717Y-68928976D01*
X253729014Y-68980776D01*
X253743248Y-68991118D01*
X253749276Y-68993802D01*
X253749278Y-68993803D01*
X253855916Y-69041281D01*
X253917712Y-69068794D01*
X254011113Y-69088647D01*
X254098056Y-69107128D01*
X254098061Y-69107128D01*
X254104513Y-69108500D01*
X254295487Y-69108500D01*
X254301939Y-69107128D01*
X254301944Y-69107128D01*
X254388887Y-69088647D01*
X254482288Y-69068794D01*
X254544084Y-69041281D01*
X254650722Y-68993803D01*
X254650724Y-68993802D01*
X254656752Y-68991118D01*
X254670987Y-68980776D01*
X254742283Y-68928976D01*
X254811253Y-68878866D01*
X254887689Y-68793975D01*
X254948135Y-68756735D01*
X255019118Y-68758087D01*
X255070420Y-68789190D01*
X255169105Y-68887875D01*
X255204875Y-68916635D01*
X255217851Y-68927068D01*
X255216317Y-68928976D01*
X255236711Y-68949367D01*
X255238617Y-68947835D01*
X255277810Y-68996581D01*
X255734790Y-69453561D01*
X255753334Y-69468471D01*
X255783536Y-69492754D01*
X255782004Y-69494660D01*
X255802395Y-69515054D01*
X255804303Y-69513520D01*
X255843496Y-69562266D01*
X256300476Y-70019246D01*
X256303138Y-70021386D01*
X256349222Y-70058439D01*
X256347688Y-70060347D01*
X256368082Y-70080738D01*
X256369988Y-70079206D01*
X256409181Y-70127952D01*
X256866161Y-70584932D01*
X256912038Y-70621818D01*
X256914907Y-70624125D01*
X256913546Y-70625817D01*
X256934033Y-70646280D01*
X256936099Y-70644619D01*
X256973112Y-70690654D01*
X256977667Y-70695731D01*
X257011292Y-70729356D01*
X257025236Y-70736970D01*
X257027069Y-70736839D01*
X257045077Y-70725266D01*
X257045751Y-70726314D01*
X257095301Y-70699257D01*
X257139941Y-70697650D01*
X257191689Y-70705061D01*
X257292233Y-70690662D01*
X257362501Y-70700804D01*
X257416131Y-70747327D01*
X257436095Y-70815459D01*
X257434822Y-70833248D01*
X257420423Y-70933794D01*
X257421696Y-70942683D01*
X257427833Y-70985536D01*
X257417690Y-71055804D01*
X257400530Y-71080504D01*
X257388514Y-71102510D01*
X257388645Y-71104343D01*
X257392896Y-71110958D01*
X257429748Y-71147810D01*
X257434831Y-71152371D01*
X257480864Y-71189384D01*
X257479149Y-71191517D01*
X257499645Y-71211954D01*
X257501359Y-71210576D01*
X257540552Y-71259322D01*
X257992489Y-71711259D01*
X258026515Y-71773571D01*
X258021450Y-71844386D01*
X257992488Y-71889450D01*
X257961812Y-71920125D01*
X257954199Y-71934068D01*
X257954330Y-71935903D01*
X257958578Y-71942513D01*
X258646125Y-72630061D01*
X258660068Y-72637674D01*
X258661902Y-72637543D01*
X258668516Y-72633292D01*
X259020183Y-72281625D01*
X259027797Y-72267681D01*
X259027666Y-72265848D01*
X259023415Y-72259234D01*
X258653631Y-71889450D01*
X258619606Y-71827137D01*
X258624670Y-71756322D01*
X258653631Y-71711259D01*
X258895398Y-71469492D01*
X258957710Y-71435466D01*
X259028525Y-71440531D01*
X259073588Y-71469492D01*
X260420021Y-72815926D01*
X261754106Y-74150011D01*
X261788132Y-74212323D01*
X261791011Y-74239106D01*
X261791011Y-76348954D01*
X261771009Y-76417075D01*
X261717353Y-76463568D01*
X261647079Y-76473672D01*
X261582499Y-76444178D01*
X261575916Y-76438049D01*
X260521386Y-75383518D01*
X259375375Y-74237507D01*
X259341349Y-74175195D01*
X259346414Y-74104379D01*
X259353883Y-74088025D01*
X259363673Y-74070096D01*
X259363542Y-74068263D01*
X259351969Y-74050255D01*
X259353017Y-74049581D01*
X259325959Y-74000030D01*
X259324353Y-73955385D01*
X259330490Y-73912532D01*
X259331763Y-73903643D01*
X259330490Y-73894754D01*
X259312387Y-73768343D01*
X259312386Y-73768340D01*
X259311114Y-73759457D01*
X259250827Y-73626861D01*
X259245880Y-73620708D01*
X259245878Y-73620705D01*
X259213774Y-73580777D01*
X259211634Y-73578115D01*
X258636733Y-73003214D01*
X259023344Y-73003214D01*
X259023475Y-73005047D01*
X259027726Y-73011662D01*
X259715273Y-73699208D01*
X259729211Y-73706819D01*
X259731047Y-73706687D01*
X259737659Y-73702438D01*
X259774513Y-73665584D01*
X259779074Y-73660501D01*
X259811135Y-73620627D01*
X259819358Y-73607274D01*
X259872600Y-73490173D01*
X259877588Y-73473115D01*
X259895671Y-73346847D01*
X259895671Y-73329069D01*
X259877588Y-73202799D01*
X259872601Y-73185744D01*
X259819355Y-73068635D01*
X259811138Y-73055291D01*
X259779069Y-73015406D01*
X259774530Y-73010347D01*
X259405013Y-72640831D01*
X259391075Y-72633220D01*
X259389239Y-72633352D01*
X259382627Y-72637601D01*
X259030958Y-72989270D01*
X259023344Y-73003214D01*
X258636733Y-73003214D01*
X258082902Y-72449383D01*
X258064676Y-72434729D01*
X258040312Y-72415139D01*
X258040309Y-72415137D01*
X258034156Y-72410190D01*
X257901560Y-72349903D01*
X257892677Y-72348631D01*
X257892674Y-72348630D01*
X257766263Y-72330527D01*
X257757374Y-72329254D01*
X257705632Y-72336664D01*
X257635364Y-72326521D01*
X257610667Y-72309363D01*
X257588659Y-72297346D01*
X257586826Y-72297477D01*
X257580211Y-72301728D01*
X257543359Y-72338580D01*
X257538798Y-72343663D01*
X257501785Y-72389696D01*
X257499776Y-72388081D01*
X257479250Y-72408521D01*
X257480592Y-72410190D01*
X257431846Y-72449383D01*
X256974866Y-72906363D01*
X256935673Y-72955109D01*
X256933771Y-72953580D01*
X256913378Y-72973973D01*
X256914907Y-72975875D01*
X256866161Y-73015068D01*
X256777662Y-73103567D01*
X256715350Y-73137593D01*
X256644535Y-73132528D01*
X256599472Y-73103567D01*
X256347122Y-72851217D01*
X256313096Y-72788905D01*
X256310907Y-72775292D01*
X256294232Y-72616635D01*
X256294232Y-72616633D01*
X256293542Y-72610072D01*
X256234527Y-72428444D01*
X256223025Y-72408521D01*
X256197314Y-72363990D01*
X256139040Y-72263056D01*
X256011253Y-72121134D01*
X255908990Y-72046835D01*
X255862094Y-72012763D01*
X255862093Y-72012762D01*
X255856752Y-72008882D01*
X255850724Y-72006198D01*
X255850722Y-72006197D01*
X255688319Y-71933891D01*
X255688318Y-71933891D01*
X255682288Y-71931206D01*
X255588887Y-71911353D01*
X255501944Y-71892872D01*
X255501939Y-71892872D01*
X255495487Y-71891500D01*
X255304513Y-71891500D01*
X255298061Y-71892872D01*
X255298056Y-71892872D01*
X255211113Y-71911353D01*
X255117712Y-71931206D01*
X255111682Y-71933891D01*
X255111681Y-71933891D01*
X254949278Y-72006197D01*
X254949276Y-72006198D01*
X254943248Y-72008882D01*
X254937907Y-72012762D01*
X254937906Y-72012763D01*
X254891010Y-72046835D01*
X254788747Y-72121134D01*
X254784326Y-72126044D01*
X254784325Y-72126045D01*
X254708533Y-72210221D01*
X254648087Y-72247461D01*
X254577104Y-72246109D01*
X254525804Y-72215008D01*
X253638190Y-71327393D01*
X253604166Y-71265083D01*
X253609231Y-71194267D01*
X253633648Y-71153994D01*
X253739040Y-71036944D01*
X253834527Y-70871556D01*
X253893542Y-70689928D01*
X253904353Y-70587072D01*
X253912814Y-70506565D01*
X253913504Y-70500000D01*
X253893542Y-70310072D01*
X253834527Y-70128444D01*
X253739040Y-69963056D01*
X253611253Y-69821134D01*
X253456752Y-69708882D01*
X253450724Y-69706198D01*
X253450722Y-69706197D01*
X253288319Y-69633891D01*
X253288318Y-69633891D01*
X253282288Y-69631206D01*
X253188888Y-69611353D01*
X253101944Y-69592872D01*
X253101939Y-69592872D01*
X253095487Y-69591500D01*
X253039595Y-69591500D01*
X252971474Y-69571498D01*
X252950500Y-69554595D01*
X252879141Y-69483236D01*
X252871601Y-69474950D01*
X252867489Y-69468471D01*
X252817837Y-69421845D01*
X252814996Y-69419091D01*
X252795259Y-69399354D01*
X252792062Y-69396874D01*
X252783040Y-69389169D01*
X252756589Y-69364330D01*
X252750810Y-69358903D01*
X252743864Y-69355084D01*
X252743861Y-69355082D01*
X252733055Y-69349141D01*
X252716536Y-69338290D01*
X252716072Y-69337930D01*
X252700530Y-69325875D01*
X252693261Y-69322730D01*
X252693257Y-69322727D01*
X252659952Y-69308315D01*
X252649302Y-69303098D01*
X252610549Y-69281794D01*
X252590926Y-69276756D01*
X252572223Y-69270352D01*
X252560909Y-69265456D01*
X252560908Y-69265456D01*
X252553634Y-69262308D01*
X252545811Y-69261069D01*
X252545801Y-69261066D01*
X252509965Y-69255390D01*
X252498345Y-69252984D01*
X252463200Y-69243961D01*
X252463199Y-69243961D01*
X252455519Y-69241989D01*
X252435265Y-69241989D01*
X252415554Y-69240438D01*
X252403375Y-69238509D01*
X252395546Y-69237269D01*
X252387654Y-69238015D01*
X252351528Y-69241430D01*
X252339670Y-69241989D01*
X249638518Y-69241989D01*
X249570397Y-69221987D01*
X249523904Y-69168331D01*
X249514895Y-69113170D01*
X249512814Y-69113170D01*
X249512814Y-69106565D01*
X249513504Y-69100000D01*
X249507869Y-69046384D01*
X249494232Y-68916635D01*
X249494232Y-68916633D01*
X249493542Y-68910072D01*
X249434527Y-68728444D01*
X249339040Y-68563056D01*
X249333776Y-68557209D01*
X249215675Y-68426045D01*
X249215674Y-68426044D01*
X249211253Y-68421134D01*
X249092095Y-68334560D01*
X249089223Y-68332473D01*
X249060334Y-68295009D01*
X249057171Y-68297042D01*
X249028210Y-68251979D01*
X249029258Y-68251305D01*
X249002200Y-68201754D01*
X249000594Y-68157109D01*
X249006731Y-68114256D01*
X249008004Y-68105367D01*
X248993605Y-68004823D01*
X249003747Y-67934555D01*
X249050270Y-67880925D01*
X249118402Y-67860961D01*
X249136194Y-67862234D01*
X249236738Y-67876633D01*
X249245627Y-67875360D01*
X249288480Y-67869223D01*
X249358748Y-67879366D01*
X249383448Y-67896526D01*
X249405454Y-67908542D01*
X249407287Y-67908411D01*
X249413902Y-67904160D01*
X249450754Y-67867308D01*
X249455315Y-67862225D01*
X249492328Y-67816192D01*
X249494461Y-67817907D01*
X249514898Y-67797411D01*
X249513520Y-67795697D01*
X249531845Y-67780963D01*
X249562266Y-67756504D01*
X250019246Y-67299524D01*
X250058439Y-67250778D01*
X250060347Y-67252312D01*
X250080738Y-67231918D01*
X250079206Y-67230012D01*
X250095647Y-67216793D01*
X250127952Y-67190819D01*
X250584932Y-66733839D01*
X250624125Y-66685093D01*
X250626027Y-66686622D01*
X250646420Y-66666229D01*
X250644891Y-66664327D01*
X250680661Y-66635567D01*
X250693637Y-66625134D01*
X251150617Y-66168154D01*
X251189810Y-66119408D01*
X251191716Y-66120940D01*
X251212110Y-66100549D01*
X251210576Y-66098641D01*
X251256660Y-66061588D01*
X251259322Y-66059448D01*
X251710905Y-65607865D01*
X251773217Y-65573839D01*
X251844032Y-65578904D01*
G37*
%TD.AperFunction*%
%TA.AperFunction,Conductor*%
G36*
X250253527Y-73153502D02*
G01*
X250274501Y-73170405D01*
X250538635Y-73434539D01*
X250572661Y-73496851D01*
X250567596Y-73567666D01*
X250525049Y-73624502D01*
X250500788Y-73638741D01*
X250349281Y-73706195D01*
X250349274Y-73706199D01*
X250343248Y-73708882D01*
X250236366Y-73786537D01*
X250224061Y-73795477D01*
X250157194Y-73819335D01*
X250088042Y-73803255D01*
X250075939Y-73795477D01*
X250063635Y-73786537D01*
X249956752Y-73708882D01*
X249950724Y-73706198D01*
X249950722Y-73706197D01*
X249788319Y-73633891D01*
X249788318Y-73633891D01*
X249782288Y-73631206D01*
X249688888Y-73611353D01*
X249601944Y-73592872D01*
X249601939Y-73592872D01*
X249595487Y-73591500D01*
X249404513Y-73591500D01*
X249398061Y-73592872D01*
X249398056Y-73592872D01*
X249311112Y-73611353D01*
X249217712Y-73631206D01*
X249211682Y-73633891D01*
X249211681Y-73633891D01*
X249049278Y-73706197D01*
X249049276Y-73706198D01*
X249043248Y-73708882D01*
X248888747Y-73821134D01*
X248884326Y-73826044D01*
X248884325Y-73826045D01*
X248803409Y-73915912D01*
X248760960Y-73963056D01*
X248702686Y-74063990D01*
X248668844Y-74122606D01*
X248665473Y-74128444D01*
X248606458Y-74310072D01*
X248605768Y-74316633D01*
X248605768Y-74316635D01*
X248594382Y-74424966D01*
X248586496Y-74500000D01*
X248587186Y-74506564D01*
X248593572Y-74567323D01*
X248580800Y-74637162D01*
X248532298Y-74689009D01*
X248463465Y-74706403D01*
X248396155Y-74683822D01*
X248389322Y-74678699D01*
X248382149Y-74672932D01*
X248382148Y-74672931D01*
X248382146Y-74672930D01*
X248383680Y-74671022D01*
X248363289Y-74650633D01*
X248361383Y-74652165D01*
X248324330Y-74606081D01*
X248322190Y-74603419D01*
X247865210Y-74146439D01*
X247816464Y-74107246D01*
X247817841Y-74105534D01*
X247797396Y-74085043D01*
X247795271Y-74086752D01*
X247758258Y-74040717D01*
X247753703Y-74035640D01*
X247720078Y-74002015D01*
X247706134Y-73994401D01*
X247704301Y-73994532D01*
X247686293Y-74006105D01*
X247685619Y-74005057D01*
X247636069Y-74032114D01*
X247591424Y-74033720D01*
X247548571Y-74027583D01*
X247539682Y-74026310D01*
X247439138Y-74040709D01*
X247368870Y-74030567D01*
X247315240Y-73984044D01*
X247295276Y-73915912D01*
X247296549Y-73898119D01*
X247307107Y-73824397D01*
X247336564Y-73759800D01*
X247342739Y-73753165D01*
X247925499Y-73170405D01*
X247987811Y-73136379D01*
X248014594Y-73133500D01*
X250185406Y-73133500D01*
X250253527Y-73153502D01*
G37*
%TD.AperFunction*%
M02*
