M48
; DRILL file {KiCad (6.0.5)} date Wed Jun  1 17:00:18 2022
; FORMAT={-:-/ absolute / metric / decimal}
; #@! TF.CreationDate,2022-06-01T17:00:18+01:00
; #@! TF.GenerationSoftware,Kicad,Pcbnew,(6.0.5)
; #@! TF.FileFunction,NonPlated,1,2,NPTH
FMAT,2
METRIC
; #@! TA.AperFunction,NonPlated,NPTH,ComponentDrill
T1C0.600
; #@! TA.AperFunction,NonPlated,NPTH,ComponentDrill
T2C1.200
; #@! TA.AperFunction,NonPlated,NPTH,ComponentDrill
T3C1.750
; #@! TA.AperFunction,NonPlated,NPTH,ComponentDrill
T4C3.048
; #@! TA.AperFunction,NonPlated,NPTH,ComponentDrill
T5C3.988
%
G90
G05
T1
X161.81Y-65.35
X167.59Y-65.35
T2
X249.097Y-141.175
T3
X154.636Y-145.911
X163.434Y-140.831
X168.22Y-97.5
X168.315Y-114.5
X178.38Y-97.5
X178.475Y-114.5
X186.22Y-70.7
X186.22Y-88.3
X186.22Y-108.1
X186.22Y-125.1
X186.22Y-142.1
X196.38Y-70.7
X196.38Y-88.3
X196.38Y-108.1
X196.38Y-125.1
X196.38Y-142.1
X204.22Y-70.7
X204.22Y-88.3
X204.22Y-108.1
X204.22Y-125.1
X204.22Y-142.1
X214.38Y-70.7
X214.38Y-88.3
X214.38Y-108.1
X214.38Y-125.1
X214.38Y-142.1
X222.005Y-142.1
X222.22Y-70.7
X222.22Y-88.3
X222.22Y-108.1
X222.22Y-125.1
X232.165Y-142.1
X232.38Y-70.7
X232.38Y-88.3
X232.38Y-108.1
X232.38Y-125.1
X240.155Y-114.5
X240.22Y-97.5
X250.315Y-114.5
X250.38Y-97.5
T4
X145.201Y-143.309
X165.823Y-131.402
T5
X152.821Y-156.507
X159.035Y-143.371
X173.3Y-97.5
X173.395Y-114.5
X173.443Y-144.601
X191.3Y-70.7
X191.3Y-88.3
X191.3Y-108.1
X191.3Y-125.1
X191.3Y-142.1
X209.3Y-70.7
X209.3Y-88.3
X209.3Y-108.1
X209.3Y-125.1
X209.3Y-142.1
X227.085Y-142.1
X227.3Y-70.7
X227.3Y-88.3
X227.3Y-108.1
X227.3Y-125.1
X245.235Y-114.5
X245.3Y-97.5
T0
M30
