%TF.GenerationSoftware,KiCad,Pcbnew,(6.0.5)*%
%TF.CreationDate,2022-06-01T14:18:31+01:00*%
%TF.ProjectId,Project Fauxbow,50726f6a-6563-4742-9046-617578626f77,rev?*%
%TF.SameCoordinates,Original*%
%TF.FileFunction,Soldermask,Bot*%
%TF.FilePolarity,Negative*%
%FSLAX46Y46*%
G04 Gerber Fmt 4.6, Leading zero omitted, Abs format (unit mm)*
G04 Created by KiCad (PCBNEW (6.0.5)) date 2022-06-01 14:18:31*
%MOMM*%
%LPD*%
G01*
G04 APERTURE LIST*
G04 Aperture macros list*
%AMRoundRect*
0 Rectangle with rounded corners*
0 $1 Rounding radius*
0 $2 $3 $4 $5 $6 $7 $8 $9 X,Y pos of 4 corners*
0 Add a 4 corners polygon primitive as box body*
4,1,4,$2,$3,$4,$5,$6,$7,$8,$9,$2,$3,0*
0 Add four circle primitives for the rounded corners*
1,1,$1+$1,$2,$3*
1,1,$1+$1,$4,$5*
1,1,$1+$1,$6,$7*
1,1,$1+$1,$8,$9*
0 Add four rect primitives between the rounded corners*
20,1,$1+$1,$2,$3,$4,$5,0*
20,1,$1+$1,$4,$5,$6,$7,0*
20,1,$1+$1,$6,$7,$8,$9,0*
20,1,$1+$1,$8,$9,$2,$3,0*%
%AMFreePoly0*
4,1,18,-0.410000,0.593000,-0.403758,0.624380,-0.385983,0.650983,-0.359380,0.668758,-0.328000,0.675000,0.328000,0.675000,0.359380,0.668758,0.385983,0.650983,0.403758,0.624380,0.410000,0.593000,0.410000,-0.593000,0.403758,-0.624380,0.385983,-0.650983,0.359380,-0.668758,0.328000,-0.675000,0.000000,-0.675000,-0.410000,-0.265000,-0.410000,0.593000,-0.410000,0.593000,$1*%
G04 Aperture macros list end*
%ADD10C,4.500000*%
%ADD11C,0.600000*%
%ADD12O,0.900000X1.700000*%
%ADD13O,0.900000X2.000000*%
%ADD14C,3.048000*%
%ADD15C,3.987800*%
%ADD16R,1.600000X1.600000*%
%ADD17C,1.600000*%
%ADD18C,3.000000*%
%ADD19C,2.100000*%
%ADD20C,1.200000*%
%ADD21C,1.750000*%
%ADD22RoundRect,0.082000X-0.593000X0.328000X-0.593000X-0.328000X0.593000X-0.328000X0.593000X0.328000X0*%
%ADD23FreePoly0,270.000000*%
%ADD24C,3.300000*%
%ADD25RoundRect,0.250000X1.025000X1.000000X-1.025000X1.000000X-1.025000X-1.000000X1.025000X-1.000000X0*%
%ADD26RoundRect,0.250000X0.387676X1.378525X-1.387676X0.353525X-0.387676X-1.378525X1.387676X-0.353525X0*%
%ADD27RoundRect,0.082000X-0.677553X-0.012444X-0.349553X-0.580556X0.677553X0.012444X0.349553X0.580556X0*%
%ADD28FreePoly0,300.000000*%
G04 APERTURE END LIST*
D10*
%TO.C,H1*%
X162800000Y-85100000D03*
%TD*%
%TO.C,H3*%
X177804668Y-128004668D03*
%TD*%
%TO.C,H2*%
X240300000Y-67000000D03*
%TD*%
%TO.C,H5*%
X258700000Y-104300000D03*
%TD*%
D11*
%TO.C,J1*%
X167590000Y-65350000D03*
X161810000Y-65350000D03*
D12*
X160380000Y-61660000D03*
D13*
X160380000Y-65830000D03*
X169020000Y-65830000D03*
D12*
X169020000Y-61660000D03*
%TD*%
D14*
%TO.C,REF\u002A\u002A*%
X145201053Y-143308606D03*
D15*
X152821053Y-156506833D03*
D14*
X165823283Y-131402356D03*
D15*
X173443283Y-144600583D03*
%TD*%
D10*
%TO.C,H4*%
X242804668Y-130204668D03*
%TD*%
D16*
%TO.C,J3*%
X158090000Y-96000000D03*
D17*
X158090000Y-98500000D03*
X158090000Y-100500000D03*
X158090000Y-103000000D03*
D18*
X155380000Y-106070000D03*
X155380000Y-92930000D03*
%TD*%
D19*
%TO.C,SW1*%
X245397500Y-137675000D03*
D20*
X249097500Y-141175000D03*
D19*
X245397500Y-144685000D03*
D21*
X247887500Y-138675000D03*
X247887500Y-143675000D03*
%TD*%
D16*
%TO.C,J4*%
X158190000Y-74600000D03*
D17*
X158190000Y-77100000D03*
X158190000Y-79100000D03*
X158190000Y-81600000D03*
D18*
X155480000Y-84670000D03*
X155480000Y-71530000D03*
%TD*%
D16*
%TO.C,J2*%
X158090000Y-117600000D03*
D17*
X158090000Y-120100000D03*
X158090000Y-122100000D03*
X158090000Y-124600000D03*
D18*
X155380000Y-114530000D03*
X155380000Y-127670000D03*
%TD*%
D10*
%TO.C,H6*%
X150400000Y-131700000D03*
%TD*%
D22*
%TO.C,D21*%
X194125000Y-76730000D03*
X194125000Y-75230000D03*
X188675000Y-76730000D03*
D23*
X188675000Y-75230000D03*
%TD*%
D22*
%TO.C,D36*%
X176025000Y-103330000D03*
X176025000Y-101830000D03*
X170575000Y-103330000D03*
D23*
X170575000Y-101830000D03*
%TD*%
D15*
%TO.C,K3*%
X191300000Y-108100000D03*
D21*
X186220000Y-108100000D03*
X196380000Y-108100000D03*
D24*
X187490000Y-105560000D03*
D25*
X183940000Y-105560000D03*
X197390000Y-103020000D03*
D24*
X193840000Y-103020000D03*
%TD*%
D15*
%TO.C,K2*%
X191300000Y-88300000D03*
D21*
X196380000Y-88300000D03*
X186220000Y-88300000D03*
D24*
X187490000Y-85760000D03*
D25*
X183940000Y-85760000D03*
D24*
X193840000Y-83220000D03*
D25*
X197390000Y-83220000D03*
%TD*%
D21*
%TO.C,K15*%
X232165000Y-142100000D03*
X222005000Y-142100000D03*
D15*
X227085000Y-142100000D03*
D24*
X223275000Y-139560000D03*
D25*
X219725000Y-139560000D03*
D24*
X229625000Y-137020000D03*
D25*
X233175000Y-137020000D03*
%TD*%
D21*
%TO.C,K18*%
X240220000Y-97500000D03*
X250380000Y-97500000D03*
D15*
X245300000Y-97500000D03*
D24*
X241490000Y-94960000D03*
D25*
X237940000Y-94960000D03*
X251390000Y-92420000D03*
D24*
X247840000Y-92420000D03*
%TD*%
D22*
%TO.C,D26*%
X212025000Y-76530000D03*
X212025000Y-75030000D03*
X206575000Y-76530000D03*
D23*
X206575000Y-75030000D03*
%TD*%
D15*
%TO.C,K20*%
X159035048Y-143371440D03*
D21*
X163434457Y-140831440D03*
X154635639Y-145911440D03*
D26*
X151391101Y-144851735D03*
D24*
X154465491Y-143076735D03*
X158694753Y-137702031D03*
D26*
X161769143Y-135927031D03*
%TD*%
D21*
%TO.C,K5*%
X196380000Y-142100000D03*
D15*
X191300000Y-142100000D03*
D21*
X186220000Y-142100000D03*
D24*
X187490000Y-139560000D03*
D25*
X183940000Y-139560000D03*
X197390000Y-137020000D03*
D24*
X193840000Y-137020000D03*
%TD*%
D22*
%TO.C,D31*%
X230025000Y-76530000D03*
X230025000Y-75030000D03*
X224575000Y-76530000D03*
D23*
X224575000Y-75030000D03*
%TD*%
D15*
%TO.C,K8*%
X209300000Y-108100000D03*
D21*
X214380000Y-108100000D03*
X204220000Y-108100000D03*
D25*
X201940000Y-105560000D03*
D24*
X205490000Y-105560000D03*
D25*
X215390000Y-103020000D03*
D24*
X211840000Y-103020000D03*
%TD*%
D21*
%TO.C,K9*%
X204220000Y-125100000D03*
D15*
X209300000Y-125100000D03*
D21*
X214380000Y-125100000D03*
D24*
X205490000Y-122560000D03*
D25*
X201940000Y-122560000D03*
X215390000Y-120020000D03*
D24*
X211840000Y-120020000D03*
%TD*%
D22*
%TO.C,D32*%
X230025000Y-94130000D03*
X230025000Y-92630000D03*
X224575000Y-94130000D03*
D23*
X224575000Y-92630000D03*
%TD*%
D21*
%TO.C,K16*%
X178380000Y-97500000D03*
X168220000Y-97500000D03*
D15*
X173300000Y-97500000D03*
D25*
X165940000Y-94960000D03*
D24*
X169490000Y-94960000D03*
X175840000Y-92420000D03*
D25*
X179390000Y-92420000D03*
%TD*%
D21*
%TO.C,K17*%
X168315000Y-114500000D03*
X178475000Y-114500000D03*
D15*
X173395000Y-114500000D03*
D24*
X169585000Y-111960000D03*
D25*
X166035000Y-111960000D03*
D24*
X175935000Y-109420000D03*
D25*
X179485000Y-109420000D03*
%TD*%
D22*
%TO.C,D30*%
X212025000Y-147930000D03*
X212025000Y-146430000D03*
X206575000Y-147930000D03*
D23*
X206575000Y-146430000D03*
%TD*%
D21*
%TO.C,K12*%
X232380000Y-88300000D03*
D15*
X227300000Y-88300000D03*
D21*
X222220000Y-88300000D03*
D25*
X219940000Y-85760000D03*
D24*
X223490000Y-85760000D03*
D25*
X233390000Y-83220000D03*
D24*
X229840000Y-83220000D03*
%TD*%
D21*
%TO.C,K1*%
X186220000Y-70700000D03*
X196380000Y-70700000D03*
D15*
X191300000Y-70700000D03*
D25*
X183940000Y-68160000D03*
D24*
X187490000Y-68160000D03*
D25*
X197390000Y-65620000D03*
D24*
X193840000Y-65620000D03*
%TD*%
D22*
%TO.C,D33*%
X230025000Y-113930000D03*
X230025000Y-112430000D03*
X224575000Y-113930000D03*
D23*
X224575000Y-112430000D03*
%TD*%
D22*
%TO.C,D37*%
X176060000Y-120250000D03*
X176060000Y-118750000D03*
X170610000Y-120250000D03*
D23*
X170610000Y-118750000D03*
%TD*%
D21*
%TO.C,K4*%
X196380000Y-125100000D03*
X186220000Y-125100000D03*
D15*
X191300000Y-125100000D03*
D25*
X183940000Y-122560000D03*
D24*
X187490000Y-122560000D03*
X193840000Y-120020000D03*
D25*
X197390000Y-120020000D03*
%TD*%
D22*
%TO.C,D25*%
X194025000Y-147930000D03*
X194025000Y-146430000D03*
X188575000Y-147930000D03*
D23*
X188575000Y-146430000D03*
%TD*%
D22*
%TO.C,D22*%
X194025000Y-94130000D03*
X194025000Y-92630000D03*
X188575000Y-94130000D03*
D23*
X188575000Y-92630000D03*
%TD*%
D22*
%TO.C,D38*%
X248025000Y-103330000D03*
X248025000Y-101830000D03*
X242575000Y-103330000D03*
D23*
X242575000Y-101830000D03*
%TD*%
D21*
%TO.C,K10*%
X214380000Y-142100000D03*
X204220000Y-142100000D03*
D15*
X209300000Y-142100000D03*
D24*
X205490000Y-139560000D03*
D25*
X201940000Y-139560000D03*
X215390000Y-137020000D03*
D24*
X211840000Y-137020000D03*
%TD*%
D22*
%TO.C,D34*%
X230025000Y-130930000D03*
X230025000Y-129430000D03*
X224575000Y-130930000D03*
D23*
X224575000Y-129430000D03*
%TD*%
D21*
%TO.C,K6*%
X204220000Y-70700000D03*
X214380000Y-70700000D03*
D15*
X209300000Y-70700000D03*
D25*
X201940000Y-68160000D03*
D24*
X205490000Y-68160000D03*
D25*
X215390000Y-65620000D03*
D24*
X211840000Y-65620000D03*
%TD*%
D15*
%TO.C,K7*%
X209300000Y-88300000D03*
D21*
X204220000Y-88300000D03*
X214380000Y-88300000D03*
D25*
X201940000Y-85760000D03*
D24*
X205490000Y-85760000D03*
D25*
X215390000Y-83220000D03*
D24*
X211840000Y-83220000D03*
%TD*%
D21*
%TO.C,K14*%
X222220000Y-125100000D03*
D15*
X227300000Y-125100000D03*
D21*
X232380000Y-125100000D03*
D24*
X223490000Y-122560000D03*
D25*
X219940000Y-122560000D03*
D24*
X229840000Y-120020000D03*
D25*
X233390000Y-120020000D03*
%TD*%
D21*
%TO.C,K11*%
X232380000Y-70700000D03*
D15*
X227300000Y-70700000D03*
D21*
X222220000Y-70700000D03*
D24*
X223490000Y-68160000D03*
D25*
X219940000Y-68160000D03*
D24*
X229840000Y-65620000D03*
D25*
X233390000Y-65620000D03*
%TD*%
D22*
%TO.C,D28*%
X212025000Y-113930000D03*
X212025000Y-112430000D03*
X206575000Y-113930000D03*
D23*
X206575000Y-112430000D03*
%TD*%
D22*
%TO.C,D24*%
X194025000Y-130930000D03*
X194025000Y-129430000D03*
X188575000Y-130930000D03*
D23*
X188575000Y-129430000D03*
%TD*%
D27*
%TO.C,D40*%
X164309967Y-147057868D03*
X163559967Y-145758830D03*
X159590129Y-149782868D03*
D28*
X158840129Y-148483830D03*
%TD*%
D22*
%TO.C,D27*%
X212025000Y-94130000D03*
X212025000Y-92630000D03*
X206575000Y-94130000D03*
D23*
X206575000Y-92630000D03*
%TD*%
D22*
%TO.C,D39*%
X247925000Y-120390000D03*
X247925000Y-118890000D03*
X242475000Y-120390000D03*
D23*
X242475000Y-118890000D03*
%TD*%
D21*
%TO.C,K19*%
X250315000Y-114500000D03*
X240155000Y-114500000D03*
D15*
X245235000Y-114500000D03*
D24*
X241425000Y-111960000D03*
D25*
X237875000Y-111960000D03*
D24*
X247775000Y-109420000D03*
D25*
X251325000Y-109420000D03*
%TD*%
D22*
%TO.C,D23*%
X194025000Y-113930000D03*
X194025000Y-112430000D03*
X188575000Y-113930000D03*
D23*
X188575000Y-112430000D03*
%TD*%
D21*
%TO.C,K13*%
X222220000Y-108100000D03*
X232380000Y-108100000D03*
D15*
X227300000Y-108100000D03*
D24*
X223490000Y-105560000D03*
D25*
X219940000Y-105560000D03*
X233390000Y-103020000D03*
D24*
X229840000Y-103020000D03*
%TD*%
D22*
%TO.C,D29*%
X212025000Y-130930000D03*
X212025000Y-129430000D03*
X206575000Y-130930000D03*
D23*
X206575000Y-129430000D03*
%TD*%
D22*
%TO.C,D35*%
X230010000Y-147930000D03*
X230010000Y-146430000D03*
X224560000Y-147930000D03*
D23*
X224560000Y-146430000D03*
%TD*%
M02*
