%TF.GenerationSoftware,KiCad,Pcbnew,(6.0.5)*%
%TF.CreationDate,2022-06-01T14:18:31+01:00*%
%TF.ProjectId,Project Fauxbow,50726f6a-6563-4742-9046-617578626f77,rev?*%
%TF.SameCoordinates,Original*%
%TF.FileFunction,Soldermask,Top*%
%TF.FilePolarity,Negative*%
%FSLAX46Y46*%
G04 Gerber Fmt 4.6, Leading zero omitted, Abs format (unit mm)*
G04 Created by KiCad (PCBNEW (6.0.5)) date 2022-06-01 14:18:31*
%MOMM*%
%LPD*%
G01*
G04 APERTURE LIST*
G04 Aperture macros list*
%AMRoundRect*
0 Rectangle with rounded corners*
0 $1 Rounding radius*
0 $2 $3 $4 $5 $6 $7 $8 $9 X,Y pos of 4 corners*
0 Add a 4 corners polygon primitive as box body*
4,1,4,$2,$3,$4,$5,$6,$7,$8,$9,$2,$3,0*
0 Add four circle primitives for the rounded corners*
1,1,$1+$1,$2,$3*
1,1,$1+$1,$4,$5*
1,1,$1+$1,$6,$7*
1,1,$1+$1,$8,$9*
0 Add four rect primitives between the rounded corners*
20,1,$1+$1,$2,$3,$4,$5,0*
20,1,$1+$1,$4,$5,$6,$7,0*
20,1,$1+$1,$6,$7,$8,$9,0*
20,1,$1+$1,$8,$9,$2,$3,0*%
%AMRotRect*
0 Rectangle, with rotation*
0 The origin of the aperture is its center*
0 $1 length*
0 $2 width*
0 $3 Rotation angle, in degrees counterclockwise*
0 Add horizontal line*
21,1,$1,$2,0,0,$3*%
G04 Aperture macros list end*
%ADD10RoundRect,0.250000X0.132583X-0.503814X0.503814X-0.132583X-0.132583X0.503814X-0.503814X0.132583X0*%
%ADD11RoundRect,0.250000X0.167938X-0.751301X0.751301X-0.167938X-0.167938X0.751301X-0.751301X0.167938X0*%
%ADD12RoundRect,0.075000X-0.521491X0.415425X0.415425X-0.521491X0.521491X-0.415425X-0.415425X0.521491X0*%
%ADD13RoundRect,0.075000X-0.521491X-0.415425X-0.415425X-0.521491X0.521491X0.415425X0.415425X0.521491X0*%
%ADD14C,4.500000*%
%ADD15RoundRect,0.250000X0.262500X0.450000X-0.262500X0.450000X-0.262500X-0.450000X0.262500X-0.450000X0*%
%ADD16RoundRect,0.250000X-0.250000X-0.475000X0.250000X-0.475000X0.250000X0.475000X-0.250000X0.475000X0*%
%ADD17RotRect,1.950000X1.650000X135.000000*%
%ADD18RoundRect,0.250000X-0.400000X-0.625000X0.400000X-0.625000X0.400000X0.625000X-0.400000X0.625000X0*%
%ADD19C,0.600000*%
%ADD20R,0.600000X1.160000*%
%ADD21R,0.300000X1.160000*%
%ADD22O,0.900000X1.700000*%
%ADD23O,0.900000X2.000000*%
%ADD24C,3.048000*%
%ADD25C,3.987800*%
%ADD26RotRect,1.500000X0.550000X315.000000*%
%ADD27RotRect,1.500000X0.550000X45.000000*%
%ADD28RoundRect,0.250000X0.159099X-0.512652X0.512652X-0.159099X-0.159099X0.512652X-0.512652X0.159099X0*%
%ADD29R,1.400000X1.200000*%
%ADD30R,1.600000X1.600000*%
%ADD31C,1.600000*%
%ADD32C,3.000000*%
%ADD33RoundRect,0.250000X-0.262500X-0.450000X0.262500X-0.450000X0.262500X0.450000X-0.262500X0.450000X0*%
%ADD34R,1.500000X2.000000*%
%ADD35R,3.800000X2.000000*%
%ADD36C,2.100000*%
%ADD37C,1.200000*%
%ADD38C,1.750000*%
%ADD39C,3.300000*%
G04 APERTURE END LIST*
D10*
%TO.C,R5*%
X178054765Y-86245235D03*
X179345235Y-84954765D03*
%TD*%
D11*
%TO.C,C1*%
X238795146Y-79004854D03*
X241004854Y-76795146D03*
%TD*%
D12*
%TO.C,U3*%
X172101212Y-75712124D03*
X171747658Y-76065678D03*
X171394105Y-76419231D03*
X171040551Y-76772785D03*
X170686998Y-77126338D03*
X170333445Y-77479891D03*
X169979891Y-77833445D03*
X169626338Y-78186998D03*
X169272785Y-78540551D03*
X168919231Y-78894105D03*
X168565678Y-79247658D03*
X168212124Y-79601212D03*
D13*
X168212124Y-81598788D03*
X168565678Y-81952342D03*
X168919231Y-82305895D03*
X169272785Y-82659449D03*
X169626338Y-83013002D03*
X169979891Y-83366555D03*
X170333445Y-83720109D03*
X170686998Y-84073662D03*
X171040551Y-84427215D03*
X171394105Y-84780769D03*
X171747658Y-85134322D03*
X172101212Y-85487876D03*
D12*
X174098788Y-85487876D03*
X174452342Y-85134322D03*
X174805895Y-84780769D03*
X175159449Y-84427215D03*
X175513002Y-84073662D03*
X175866555Y-83720109D03*
X176220109Y-83366555D03*
X176573662Y-83013002D03*
X176927215Y-82659449D03*
X177280769Y-82305895D03*
X177634322Y-81952342D03*
X177987876Y-81598788D03*
D13*
X177987876Y-79601212D03*
X177634322Y-79247658D03*
X177280769Y-78894105D03*
X176927215Y-78540551D03*
X176573662Y-78186998D03*
X176220109Y-77833445D03*
X175866555Y-77479891D03*
X175513002Y-77126338D03*
X175159449Y-76772785D03*
X174805895Y-76419231D03*
X174452342Y-76065678D03*
X174098788Y-75712124D03*
%TD*%
D14*
%TO.C,H1*%
X162800000Y-85100000D03*
%TD*%
D15*
%TO.C,R3*%
X162812500Y-69900000D03*
X160987500Y-69900000D03*
%TD*%
D16*
%TO.C,C3*%
X176550000Y-61300000D03*
X178450000Y-61300000D03*
%TD*%
D14*
%TO.C,H3*%
X177804668Y-128004668D03*
%TD*%
%TO.C,H2*%
X240300000Y-67000000D03*
%TD*%
D17*
%TO.C,Y1*%
X244850089Y-81094454D03*
X242905546Y-79149911D03*
X241349911Y-80705546D03*
X243294454Y-82650089D03*
%TD*%
D18*
%TO.C,R1*%
X244750000Y-148300000D03*
X247850000Y-148300000D03*
%TD*%
D14*
%TO.C,H5*%
X258700000Y-104300000D03*
%TD*%
D19*
%TO.C,J1*%
X167590000Y-65350000D03*
X161810000Y-65350000D03*
D20*
X167900000Y-66410000D03*
X167100000Y-66410000D03*
D21*
X165950000Y-66410000D03*
X164950000Y-66410000D03*
X164450000Y-66410000D03*
X163450000Y-66410000D03*
D20*
X162300000Y-66410000D03*
X161500000Y-66410000D03*
X161500000Y-66410000D03*
X162300000Y-66410000D03*
D21*
X162950000Y-66410000D03*
X163950000Y-66410000D03*
X165450000Y-66410000D03*
X166450000Y-66410000D03*
D20*
X167100000Y-66410000D03*
X167900000Y-66410000D03*
D22*
X160380000Y-61660000D03*
D23*
X160380000Y-65830000D03*
X169020000Y-65830000D03*
D22*
X169020000Y-61660000D03*
%TD*%
D24*
%TO.C,REF\u002A\u002A*%
X145201053Y-143308606D03*
D25*
X152821053Y-156506833D03*
D24*
X165823283Y-131402356D03*
D25*
X173443283Y-144600583D03*
%TD*%
D26*
%TO.C,U1*%
X250597918Y-64941064D03*
X250032233Y-65506750D03*
X249466548Y-66072435D03*
X248900862Y-66638120D03*
X248335177Y-67203806D03*
X247769491Y-67769491D03*
X247203806Y-68335177D03*
X246638120Y-68900862D03*
X246072435Y-69466548D03*
X245506750Y-70032233D03*
X244941064Y-70597918D03*
D27*
X244941064Y-73002082D03*
X245506750Y-73567767D03*
X246072435Y-74133452D03*
X246638120Y-74699138D03*
X247203806Y-75264823D03*
X247769491Y-75830509D03*
X248335177Y-76396194D03*
X248900862Y-76961880D03*
X249466548Y-77527565D03*
X250032233Y-78093250D03*
X250597918Y-78658936D03*
D26*
X253002082Y-78658936D03*
X253567767Y-78093250D03*
X254133452Y-77527565D03*
X254699138Y-76961880D03*
X255264823Y-76396194D03*
X255830509Y-75830509D03*
X256396194Y-75264823D03*
X256961880Y-74699138D03*
X257527565Y-74133452D03*
X258093250Y-73567767D03*
X258658936Y-73002082D03*
D27*
X258658936Y-70597918D03*
X258093250Y-70032233D03*
X257527565Y-69466548D03*
X256961880Y-68900862D03*
X256396194Y-68335177D03*
X255830509Y-67769491D03*
X255264823Y-67203806D03*
X254699138Y-66638120D03*
X254133452Y-66072435D03*
X253567767Y-65506750D03*
X253002082Y-64941064D03*
%TD*%
D14*
%TO.C,H4*%
X242804668Y-130204668D03*
%TD*%
D28*
%TO.C,C4*%
X168428249Y-74671751D03*
X169771751Y-73328249D03*
%TD*%
D29*
%TO.C,Y2*%
X165500000Y-78250000D03*
X163300000Y-78250000D03*
X163300000Y-79950000D03*
X165500000Y-79950000D03*
%TD*%
D30*
%TO.C,J3*%
X158090000Y-96000000D03*
D31*
X158090000Y-98500000D03*
X158090000Y-100500000D03*
X158090000Y-103000000D03*
D32*
X155380000Y-106070000D03*
X155380000Y-92930000D03*
%TD*%
D33*
%TO.C,R4*%
X166187500Y-69800000D03*
X168012500Y-69800000D03*
%TD*%
D11*
%TO.C,C2*%
X244795146Y-85204854D03*
X247004854Y-82995146D03*
%TD*%
D34*
%TO.C,U2*%
X178600000Y-64850000D03*
D35*
X176300000Y-71150000D03*
D34*
X176300000Y-64850000D03*
X174000000Y-64850000D03*
%TD*%
D36*
%TO.C,SW1*%
X245397500Y-137675000D03*
D37*
X249097500Y-141175000D03*
D36*
X245397500Y-144685000D03*
D38*
X247887500Y-138675000D03*
X247887500Y-143675000D03*
%TD*%
D30*
%TO.C,J4*%
X158190000Y-74600000D03*
D31*
X158190000Y-77100000D03*
X158190000Y-79100000D03*
X158190000Y-81600000D03*
D32*
X155480000Y-84670000D03*
X155480000Y-71530000D03*
%TD*%
D30*
%TO.C,J2*%
X158090000Y-117600000D03*
D31*
X158090000Y-120100000D03*
X158090000Y-122100000D03*
X158090000Y-124600000D03*
D32*
X155380000Y-114530000D03*
X155380000Y-127670000D03*
%TD*%
D14*
%TO.C,H6*%
X150400000Y-131700000D03*
%TD*%
D25*
%TO.C,K3*%
X191300000Y-108100000D03*
D38*
X186220000Y-108100000D03*
X196380000Y-108100000D03*
D39*
X187490000Y-105560000D03*
X193840000Y-103020000D03*
%TD*%
D25*
%TO.C,K2*%
X191300000Y-88300000D03*
D38*
X196380000Y-88300000D03*
X186220000Y-88300000D03*
D39*
X187490000Y-85760000D03*
X193840000Y-83220000D03*
%TD*%
D38*
%TO.C,K15*%
X232165000Y-142100000D03*
X222005000Y-142100000D03*
D25*
X227085000Y-142100000D03*
D39*
X223275000Y-139560000D03*
X229625000Y-137020000D03*
%TD*%
D38*
%TO.C,K18*%
X240220000Y-97500000D03*
X250380000Y-97500000D03*
D25*
X245300000Y-97500000D03*
D39*
X241490000Y-94960000D03*
X247840000Y-92420000D03*
%TD*%
D25*
%TO.C,K20*%
X159035048Y-143371440D03*
D38*
X163434457Y-140831440D03*
X154635639Y-145911440D03*
D39*
X154465491Y-143076735D03*
X158694753Y-137702031D03*
%TD*%
D38*
%TO.C,K5*%
X196380000Y-142100000D03*
D25*
X191300000Y-142100000D03*
D38*
X186220000Y-142100000D03*
D39*
X187490000Y-139560000D03*
X193840000Y-137020000D03*
%TD*%
D25*
%TO.C,K8*%
X209300000Y-108100000D03*
D38*
X214380000Y-108100000D03*
X204220000Y-108100000D03*
D39*
X205490000Y-105560000D03*
X211840000Y-103020000D03*
%TD*%
D38*
%TO.C,K9*%
X204220000Y-125100000D03*
D25*
X209300000Y-125100000D03*
D38*
X214380000Y-125100000D03*
D39*
X205490000Y-122560000D03*
X211840000Y-120020000D03*
%TD*%
D38*
%TO.C,K16*%
X178380000Y-97500000D03*
X168220000Y-97500000D03*
D25*
X173300000Y-97500000D03*
D39*
X169490000Y-94960000D03*
X175840000Y-92420000D03*
%TD*%
D38*
%TO.C,K17*%
X168315000Y-114500000D03*
X178475000Y-114500000D03*
D25*
X173395000Y-114500000D03*
D39*
X169585000Y-111960000D03*
X175935000Y-109420000D03*
%TD*%
D38*
%TO.C,K12*%
X232380000Y-88300000D03*
D25*
X227300000Y-88300000D03*
D38*
X222220000Y-88300000D03*
D39*
X223490000Y-85760000D03*
X229840000Y-83220000D03*
%TD*%
D38*
%TO.C,K1*%
X186220000Y-70700000D03*
X196380000Y-70700000D03*
D25*
X191300000Y-70700000D03*
D39*
X187490000Y-68160000D03*
X193840000Y-65620000D03*
%TD*%
D38*
%TO.C,K4*%
X196380000Y-125100000D03*
X186220000Y-125100000D03*
D25*
X191300000Y-125100000D03*
D39*
X187490000Y-122560000D03*
X193840000Y-120020000D03*
%TD*%
D38*
%TO.C,K10*%
X214380000Y-142100000D03*
X204220000Y-142100000D03*
D25*
X209300000Y-142100000D03*
D39*
X205490000Y-139560000D03*
X211840000Y-137020000D03*
%TD*%
D38*
%TO.C,K6*%
X204220000Y-70700000D03*
X214380000Y-70700000D03*
D25*
X209300000Y-70700000D03*
D39*
X205490000Y-68160000D03*
X211840000Y-65620000D03*
%TD*%
D25*
%TO.C,K7*%
X209300000Y-88300000D03*
D38*
X204220000Y-88300000D03*
X214380000Y-88300000D03*
D39*
X205490000Y-85760000D03*
X211840000Y-83220000D03*
%TD*%
D38*
%TO.C,K14*%
X222220000Y-125100000D03*
D25*
X227300000Y-125100000D03*
D38*
X232380000Y-125100000D03*
D39*
X223490000Y-122560000D03*
X229840000Y-120020000D03*
%TD*%
D38*
%TO.C,K11*%
X232380000Y-70700000D03*
D25*
X227300000Y-70700000D03*
D38*
X222220000Y-70700000D03*
D39*
X223490000Y-68160000D03*
X229840000Y-65620000D03*
%TD*%
D38*
%TO.C,K19*%
X250315000Y-114500000D03*
X240155000Y-114500000D03*
D25*
X245235000Y-114500000D03*
D39*
X241425000Y-111960000D03*
X247775000Y-109420000D03*
%TD*%
D38*
%TO.C,K13*%
X222220000Y-108100000D03*
X232380000Y-108100000D03*
D25*
X227300000Y-108100000D03*
D39*
X223490000Y-105560000D03*
X229840000Y-103020000D03*
%TD*%
M02*
