M48
; DRILL file {KiCad (6.0.5)} date Wed Jun  1 14:18:44 2022
; FORMAT={-:-/ absolute / metric / decimal}
; #@! TF.CreationDate,2022-06-01T14:18:44+01:00
; #@! TF.GenerationSoftware,Kicad,Pcbnew,(6.0.5)
; #@! TF.FileFunction,Plated,1,2,PTH
FMAT,2
METRIC
; #@! TA.AperFunction,Plated,PTH,ViaDrill
T1C0.400
; #@! TA.AperFunction,Plated,PTH,ComponentDrill
T2C0.600
; #@! TA.AperFunction,Plated,PTH,ComponentDrill
T3C0.920
; #@! TA.AperFunction,Plated,PTH,ComponentDrill
T4C0.990
; #@! TA.AperFunction,Plated,PTH,ComponentDrill
T5C1.300
; #@! TA.AperFunction,Plated,PTH,ComponentDrill
T6C2.300
; #@! TA.AperFunction,Plated,PTH,ComponentDrill
T7C2.700
; #@! TA.AperFunction,Plated,PTH,ComponentDrill
T8C3.000
%
G90
G05
T1
X156.4Y-95.3
X157.3Y-149.9
X162.3Y-68.2
X164.1Y-71.9
X164.9Y-73.7
X165.2Y-75.6
X165.9Y-83.3
X166.8Y-73.1
X167.4Y-116.4
X168.1Y-72.8
X168.967Y-84.661
X169.3Y-80.5
X169.4Y-75.9
X170.7Y-116.4
X171.2Y-82.4
X172.7Y-80.5
X172.929Y-83.409
X174.0Y-82.5
X174.55Y-78.75
X175.6Y-122.3
X176.454Y-86.746
X176.9Y-85.1
X177.0Y-100.7
X177.522Y-84.278
X178.4Y-118.325
X180.2Y-62.1
X180.7Y-65.1
X180.775Y-84.8
X181.2Y-141.9
X182.3Y-83.9
X182.9Y-133.5
X183.3Y-115.2
X185.8Y-93.8
X186.4Y-75.6
X186.4Y-146.8
X186.5Y-130.1
X187.1Y-112.6
X191.5Y-132.7
X191.7Y-95.9
X197.4Y-115.1
X197.6Y-97.9
X198.0Y-78.1
X201.8Y-95.9
X203.0Y-132.7
X203.8Y-93.1
X203.8Y-113.0
X204.4Y-75.1
X204.8Y-146.6
X204.9Y-94.8
X204.9Y-129.8
X205.3Y-131.6
X216.3Y-62.6
X220.4Y-95.9
X222.2Y-133.175
X222.3Y-112.9
X222.5Y-92.9
X223.0Y-75.3
X223.1Y-130.1
X223.1Y-146.6
X223.4Y-95.1
X224.5Y-132.2
X230.8Y-110.9
X231.5Y-75.4
X235.6Y-112.3
X236.1Y-96.7
X237.4Y-106.2
X237.6Y-97.5
X238.3Y-89.7
X239.9Y-101.7
X240.1Y-89.6
X240.362Y-106.362
X240.438Y-71.938
X240.5Y-119.0
X241.0Y-105.1
X242.2Y-75.0
X243.0Y-90.2
X243.8Y-70.9
X244.1Y-72.0
X244.6Y-69.1
X245.13Y-68.252
X245.3Y-77.1
X245.7Y-84.1
X245.7Y-89.424
X246.1Y-78.8
X246.4Y-72.7
X247.4Y-70.9
X247.9Y-122.4
X248.0Y-117.7
X248.1Y-99.3
X248.6Y-69.1
X248.6Y-71.7
X248.7Y-63.9
X249.5Y-74.5
X249.9Y-103.7
X250.0Y-99.8
X250.1Y-89.5
X250.3Y-68.6
X250.3Y-73.5
X250.4Y-87.6
X250.7Y-76.3
X250.8Y-74.5
X251.7Y-79.6
X251.8Y-100.4
X252.0Y-70.6
X252.2Y-90.2
X252.3Y-87.8
X252.3Y-95.4
X252.4Y-114.0
X253.0Y-70.5
X253.0Y-79.8
X253.6Y-73.5
X254.2Y-63.9
X254.2Y-68.2
X255.4Y-72.8
X255.8Y-78.4
X257.488Y-64.712
X257.5Y-62.5
X257.588Y-80.088
X257.6Y-61.5
X257.612Y-76.588
X258.8Y-79.9
X259.112Y-82.512
X259.396Y-76.179
X259.4Y-78.3
X260.7Y-80.4
X261.5Y-82.9
X261.7Y-79.9
T3
X158.09Y-96.0
X158.09Y-98.5
X158.09Y-100.5
X158.09Y-103.0
X158.09Y-117.6
X158.09Y-120.1
X158.09Y-122.1
X158.09Y-124.6
X158.19Y-74.6
X158.19Y-77.1
X158.19Y-79.1
X158.19Y-81.6
T4
X247.887Y-138.675
X247.887Y-143.675
T5
X245.397Y-137.675
X245.397Y-144.685
T6
X155.38Y-92.93
X155.38Y-106.07
X155.38Y-114.53
X155.38Y-127.67
X155.48Y-71.53
X155.48Y-84.67
T7
X150.4Y-131.7
X162.8Y-85.1
X177.805Y-128.005
X240.3Y-67.0
X242.805Y-130.205
X258.7Y-104.3
T8
X154.465Y-143.077
X158.695Y-137.702
X169.49Y-94.96
X169.585Y-111.96
X175.84Y-92.42
X175.935Y-109.42
X187.49Y-68.16
X187.49Y-85.76
X187.49Y-105.56
X187.49Y-122.56
X187.49Y-139.56
X193.84Y-65.62
X193.84Y-83.22
X193.84Y-103.02
X193.84Y-120.02
X193.84Y-137.02
X205.49Y-68.16
X205.49Y-85.76
X205.49Y-105.56
X205.49Y-122.56
X205.49Y-139.56
X211.84Y-65.62
X211.84Y-83.22
X211.84Y-103.02
X211.84Y-120.02
X211.84Y-137.02
X223.275Y-139.56
X223.49Y-68.16
X223.49Y-85.76
X223.49Y-105.56
X223.49Y-122.56
X229.625Y-137.02
X229.84Y-65.62
X229.84Y-83.22
X229.84Y-103.02
X229.84Y-120.02
X241.425Y-111.96
X241.49Y-94.96
X247.775Y-109.42
X247.84Y-92.42
T2
X160.38Y-61.26G85X160.38Y-62.06
G05
X160.38Y-65.28G85X160.38Y-66.38
G05
X169.02Y-61.26G85X169.02Y-62.06
G05
X169.02Y-65.28G85X169.02Y-66.38
G05
T0
M30
