%TF.GenerationSoftware,KiCad,Pcbnew,(6.0.5)*%
%TF.CreationDate,2022-06-01T14:10:51+01:00*%
%TF.ProjectId,Project Fauxbow,50726f6a-6563-4742-9046-617578626f77,rev?*%
%TF.SameCoordinates,Original*%
%TF.FileFunction,Copper,L2,Bot*%
%TF.FilePolarity,Positive*%
%FSLAX46Y46*%
G04 Gerber Fmt 4.6, Leading zero omitted, Abs format (unit mm)*
G04 Created by KiCad (PCBNEW (6.0.5)) date 2022-06-01 14:10:51*
%MOMM*%
%LPD*%
G01*
G04 APERTURE LIST*
G04 Aperture macros list*
%AMRoundRect*
0 Rectangle with rounded corners*
0 $1 Rounding radius*
0 $2 $3 $4 $5 $6 $7 $8 $9 X,Y pos of 4 corners*
0 Add a 4 corners polygon primitive as box body*
4,1,4,$2,$3,$4,$5,$6,$7,$8,$9,$2,$3,0*
0 Add four circle primitives for the rounded corners*
1,1,$1+$1,$2,$3*
1,1,$1+$1,$4,$5*
1,1,$1+$1,$6,$7*
1,1,$1+$1,$8,$9*
0 Add four rect primitives between the rounded corners*
20,1,$1+$1,$2,$3,$4,$5,0*
20,1,$1+$1,$4,$5,$6,$7,0*
20,1,$1+$1,$6,$7,$8,$9,0*
20,1,$1+$1,$8,$9,$2,$3,0*%
%AMRotRect*
0 Rectangle, with rotation*
0 The origin of the aperture is its center*
0 $1 length*
0 $2 width*
0 $3 Rotation angle, in degrees counterclockwise*
0 Add horizontal line*
21,1,$1,$2,0,0,$3*%
%AMFreePoly0*
4,1,18,-0.410000,0.593000,-0.403758,0.624380,-0.385983,0.650983,-0.359380,0.668758,-0.328000,0.675000,0.328000,0.675000,0.359380,0.668758,0.385983,0.650983,0.403758,0.624380,0.410000,0.593000,0.410000,-0.593000,0.403758,-0.624380,0.385983,-0.650983,0.359380,-0.668758,0.328000,-0.675000,0.000000,-0.675000,-0.410000,-0.265000,-0.410000,0.593000,-0.410000,0.593000,$1*%
G04 Aperture macros list end*
%TA.AperFunction,ComponentPad*%
%ADD10C,4.500000*%
%TD*%
%TA.AperFunction,ComponentPad*%
%ADD11O,0.900000X1.700000*%
%TD*%
%TA.AperFunction,ComponentPad*%
%ADD12O,0.900000X2.000000*%
%TD*%
%TA.AperFunction,ComponentPad*%
%ADD13C,3.000000*%
%TD*%
%TA.AperFunction,ComponentPad*%
%ADD14C,1.600000*%
%TD*%
%TA.AperFunction,ComponentPad*%
%ADD15R,1.600000X1.600000*%
%TD*%
%TA.AperFunction,ComponentPad*%
%ADD16C,2.100000*%
%TD*%
%TA.AperFunction,ComponentPad*%
%ADD17C,1.750000*%
%TD*%
%TA.AperFunction,SMDPad,CuDef*%
%ADD18FreePoly0,270.000000*%
%TD*%
%TA.AperFunction,SMDPad,CuDef*%
%ADD19RoundRect,0.082000X-0.593000X0.328000X-0.593000X-0.328000X0.593000X-0.328000X0.593000X0.328000X0*%
%TD*%
%TA.AperFunction,SMDPad,CuDef*%
%ADD20R,1.650000X2.500000*%
%TD*%
%TA.AperFunction,ComponentPad*%
%ADD21C,3.300000*%
%TD*%
%TA.AperFunction,SMDPad,CuDef*%
%ADD22RoundRect,0.250000X1.025000X1.000000X-1.025000X1.000000X-1.025000X-1.000000X1.025000X-1.000000X0*%
%TD*%
%TA.AperFunction,SMDPad,CuDef*%
%ADD23RotRect,1.650000X2.500000X30.000000*%
%TD*%
%TA.AperFunction,SMDPad,CuDef*%
%ADD24RoundRect,0.250000X0.387676X1.378525X-1.387676X0.353525X-0.387676X-1.378525X1.387676X-0.353525X0*%
%TD*%
%TA.AperFunction,SMDPad,CuDef*%
%ADD25RotRect,1.650000X2.500000X210.000000*%
%TD*%
%TA.AperFunction,SMDPad,CuDef*%
%ADD26RoundRect,0.082000X-0.677553X-0.012444X-0.349553X-0.580556X0.677553X0.012444X0.349553X0.580556X0*%
%TD*%
%TA.AperFunction,SMDPad,CuDef*%
%ADD27FreePoly0,300.000000*%
%TD*%
%TA.AperFunction,ViaPad*%
%ADD28C,0.800000*%
%TD*%
%TA.AperFunction,Conductor*%
%ADD29C,0.250000*%
%TD*%
%TA.AperFunction,Conductor*%
%ADD30C,0.200000*%
%TD*%
G04 APERTURE END LIST*
D10*
%TO.P,H1,1,1*%
%TO.N,unconnected-(H1-Pad1)*%
X162800000Y-85100000D03*
%TD*%
%TO.P,H3,1,1*%
%TO.N,unconnected-(H3-Pad1)*%
X177804668Y-128004668D03*
%TD*%
%TO.P,H2,1,1*%
%TO.N,unconnected-(H2-Pad1)*%
X240300000Y-67000000D03*
%TD*%
%TO.P,H5,1,1*%
%TO.N,unconnected-(H5-Pad1)*%
X258700000Y-104300000D03*
%TD*%
D11*
%TO.P,J1,S1,SHIELD*%
%TO.N,GND*%
X160380000Y-61660000D03*
D12*
X160380000Y-65830000D03*
X169020000Y-65830000D03*
D11*
X169020000Y-61660000D03*
%TD*%
D10*
%TO.P,H4,1,1*%
%TO.N,unconnected-(H4-Pad1)*%
X242804668Y-130204668D03*
%TD*%
D13*
%TO.P,J3,5,Shield*%
%TO.N,GND*%
X155380000Y-92930000D03*
X155380000Y-106070000D03*
D14*
%TO.P,J3,4,GND*%
X158090000Y-103000000D03*
%TO.P,J3,3,D+*%
%TO.N,/2D+*%
X158090000Y-100500000D03*
%TO.P,J3,2,D-*%
%TO.N,/2D-*%
X158090000Y-98500000D03*
D15*
%TO.P,J3,1,VBUS*%
%TO.N,VBUS*%
X158090000Y-96000000D03*
%TD*%
D16*
%TO.P,SW1,*%
%TO.N,*%
X245397500Y-137675000D03*
X245397500Y-144685000D03*
D17*
%TO.P,SW1,1,1*%
%TO.N,GND*%
X247887500Y-138675000D03*
%TO.P,SW1,2,2*%
%TO.N,reset*%
X247887500Y-143675000D03*
%TD*%
D13*
%TO.P,J4,5,Shield*%
%TO.N,GND*%
X155480000Y-71530000D03*
X155480000Y-84670000D03*
D14*
%TO.P,J4,4,GND*%
X158190000Y-81600000D03*
%TO.P,J4,3,D+*%
%TO.N,/3D+*%
X158190000Y-79100000D03*
%TO.P,J4,2,D-*%
%TO.N,/3D-*%
X158190000Y-77100000D03*
D15*
%TO.P,J4,1,VBUS*%
%TO.N,VBUS*%
X158190000Y-74600000D03*
%TD*%
%TO.P,J2,1,VBUS*%
%TO.N,VBUS*%
X158090000Y-117600000D03*
D14*
%TO.P,J2,2,D-*%
%TO.N,/1D-*%
X158090000Y-120100000D03*
%TO.P,J2,3,D+*%
%TO.N,/1D+*%
X158090000Y-122100000D03*
%TO.P,J2,4,GND*%
%TO.N,GND*%
X158090000Y-124600000D03*
D13*
%TO.P,J2,5,Shield*%
X155380000Y-114530000D03*
X155380000Y-127670000D03*
%TD*%
D10*
%TO.P,H6,1,1*%
%TO.N,unconnected-(H6-Pad1)*%
X150400000Y-131700000D03*
%TD*%
D18*
%TO.P,D21,4,VDD*%
%TO.N,VBUS*%
X188675000Y-75230000D03*
D19*
%TO.P,D21,3,DIN*%
%TO.N,LED*%
X188675000Y-76730000D03*
%TO.P,D21,2,VSS*%
%TO.N,GND*%
X194125000Y-75230000D03*
%TO.P,D21,1,DOUT*%
%TO.N,Net-(D21-Pad1)*%
X194125000Y-76730000D03*
%TD*%
%TO.P,D36,1,DOUT*%
%TO.N,Net-(D36-Pad1)*%
X176025000Y-103330000D03*
%TO.P,D36,2,VSS*%
%TO.N,GND*%
X176025000Y-101830000D03*
%TO.P,D36,3,DIN*%
%TO.N,Net-(D31-Pad1)*%
X170575000Y-103330000D03*
D18*
%TO.P,D36,4,VDD*%
%TO.N,VBUS*%
X170575000Y-101830000D03*
%TD*%
D20*
%TO.P,K3,1,1*%
%TO.N,GND*%
X185665000Y-105560000D03*
D21*
X187490000Y-105560000D03*
D22*
X183940000Y-105560000D03*
D20*
%TO.P,K3,2,2*%
%TO.N,key_3*%
X195640000Y-103020000D03*
D22*
X197390000Y-103020000D03*
D21*
X193840000Y-103020000D03*
%TD*%
%TO.P,K2,1,1*%
%TO.N,GND*%
X187490000Y-85760000D03*
D20*
X185665000Y-85760000D03*
D22*
X183940000Y-85760000D03*
D21*
%TO.P,K2,2,2*%
%TO.N,key_2*%
X193840000Y-83220000D03*
D22*
X197390000Y-83220000D03*
D20*
X195640000Y-83220000D03*
%TD*%
D21*
%TO.P,K15,1,1*%
%TO.N,GND*%
X223275000Y-139560000D03*
D22*
X219725000Y-139560000D03*
D20*
X221450000Y-139560000D03*
%TO.P,K15,2,2*%
%TO.N,key_15*%
X231425000Y-137020000D03*
D21*
X229625000Y-137020000D03*
D22*
X233175000Y-137020000D03*
%TD*%
D21*
%TO.P,K18,1,1*%
%TO.N,GND*%
X241490000Y-94960000D03*
D20*
X239665000Y-94960000D03*
D22*
X237940000Y-94960000D03*
%TO.P,K18,2,2*%
%TO.N,key_18*%
X251390000Y-92420000D03*
D21*
X247840000Y-92420000D03*
D20*
X249640000Y-92420000D03*
%TD*%
D19*
%TO.P,D26,1,DOUT*%
%TO.N,Net-(D26-Pad1)*%
X212025000Y-76530000D03*
%TO.P,D26,2,VSS*%
%TO.N,GND*%
X212025000Y-75030000D03*
%TO.P,D26,3,DIN*%
%TO.N,Net-(D21-Pad1)*%
X206575000Y-76530000D03*
D18*
%TO.P,D26,4,VDD*%
%TO.N,VBUS*%
X206575000Y-75030000D03*
%TD*%
D23*
%TO.P,K20,1,1*%
%TO.N,GND*%
X152884995Y-143989235D03*
D24*
X151391101Y-144851735D03*
D21*
X154465491Y-143076735D03*
%TO.P,K20,2,2*%
%TO.N,key_20*%
X158694753Y-137702031D03*
D24*
X161769143Y-135927031D03*
D25*
X160253598Y-136802031D03*
%TD*%
D21*
%TO.P,K5,1,1*%
%TO.N,GND*%
X187490000Y-139560000D03*
D22*
X183940000Y-139560000D03*
D20*
X185665000Y-139560000D03*
%TO.P,K5,2,2*%
%TO.N,key_5*%
X195640000Y-137020000D03*
D22*
X197390000Y-137020000D03*
D21*
X193840000Y-137020000D03*
%TD*%
D19*
%TO.P,D31,1,DOUT*%
%TO.N,Net-(D31-Pad1)*%
X230025000Y-76530000D03*
%TO.P,D31,2,VSS*%
%TO.N,GND*%
X230025000Y-75030000D03*
%TO.P,D31,3,DIN*%
%TO.N,Net-(D26-Pad1)*%
X224575000Y-76530000D03*
D18*
%TO.P,D31,4,VDD*%
%TO.N,VBUS*%
X224575000Y-75030000D03*
%TD*%
D22*
%TO.P,K8,1,1*%
%TO.N,GND*%
X201940000Y-105560000D03*
D21*
X205490000Y-105560000D03*
D20*
X203665000Y-105560000D03*
%TO.P,K8,2,2*%
%TO.N,key_8*%
X213640000Y-103020000D03*
D22*
X215390000Y-103020000D03*
D21*
X211840000Y-103020000D03*
%TD*%
D20*
%TO.P,K9,1,1*%
%TO.N,GND*%
X203665000Y-122560000D03*
D21*
X205490000Y-122560000D03*
D22*
X201940000Y-122560000D03*
D20*
%TO.P,K9,2,2*%
%TO.N,key_9*%
X213640000Y-120020000D03*
D22*
X215390000Y-120020000D03*
D21*
X211840000Y-120020000D03*
%TD*%
D19*
%TO.P,D32,1,DOUT*%
%TO.N,Net-(D27-Pad3)*%
X230025000Y-94130000D03*
%TO.P,D32,2,VSS*%
%TO.N,GND*%
X230025000Y-92630000D03*
%TO.P,D32,3,DIN*%
%TO.N,Net-(D32-Pad3)*%
X224575000Y-94130000D03*
D18*
%TO.P,D32,4,VDD*%
%TO.N,VBUS*%
X224575000Y-92630000D03*
%TD*%
D22*
%TO.P,K16,1,1*%
%TO.N,GND*%
X165940000Y-94960000D03*
D21*
X169490000Y-94960000D03*
D20*
X167665000Y-94960000D03*
D21*
%TO.P,K16,2,2*%
%TO.N,key_16*%
X175840000Y-92420000D03*
D22*
X179390000Y-92420000D03*
D20*
X177640000Y-92420000D03*
%TD*%
%TO.P,K17,1,1*%
%TO.N,GND*%
X167760000Y-111960000D03*
D21*
X169585000Y-111960000D03*
D22*
X166035000Y-111960000D03*
D20*
%TO.P,K17,2,2*%
%TO.N,key_17*%
X177735000Y-109420000D03*
D21*
X175935000Y-109420000D03*
D22*
X179485000Y-109420000D03*
%TD*%
D19*
%TO.P,D30,1,DOUT*%
%TO.N,Net-(D30-Pad1)*%
X212025000Y-147930000D03*
%TO.P,D30,2,VSS*%
%TO.N,GND*%
X212025000Y-146430000D03*
%TO.P,D30,3,DIN*%
%TO.N,Net-(D25-Pad1)*%
X206575000Y-147930000D03*
D18*
%TO.P,D30,4,VDD*%
%TO.N,VBUS*%
X206575000Y-146430000D03*
%TD*%
D22*
%TO.P,K12,1,1*%
%TO.N,GND*%
X219940000Y-85760000D03*
D21*
X223490000Y-85760000D03*
D20*
X221665000Y-85760000D03*
D22*
%TO.P,K12,2,2*%
%TO.N,key_12*%
X233390000Y-83220000D03*
D20*
X231640000Y-83220000D03*
D21*
X229840000Y-83220000D03*
%TD*%
D20*
%TO.P,K1,2,2*%
%TO.N,key_1*%
X195640000Y-65620000D03*
D21*
X193840000Y-65620000D03*
D22*
X197390000Y-65620000D03*
D21*
%TO.P,K1,1,1*%
%TO.N,GND*%
X187490000Y-68160000D03*
D22*
X183940000Y-68160000D03*
D20*
X185665000Y-68160000D03*
%TD*%
D19*
%TO.P,D33,1,DOUT*%
%TO.N,Net-(D33-Pad1)*%
X230025000Y-113930000D03*
%TO.P,D33,2,VSS*%
%TO.N,GND*%
X230025000Y-112430000D03*
%TO.P,D33,3,DIN*%
%TO.N,Net-(D28-Pad1)*%
X224575000Y-113930000D03*
D18*
%TO.P,D33,4,VDD*%
%TO.N,VBUS*%
X224575000Y-112430000D03*
%TD*%
D19*
%TO.P,D37,1,DOUT*%
%TO.N,Net-(D32-Pad3)*%
X176060000Y-120250000D03*
%TO.P,D37,2,VSS*%
%TO.N,GND*%
X176060000Y-118750000D03*
%TO.P,D37,3,DIN*%
%TO.N,Net-(D36-Pad1)*%
X170610000Y-120250000D03*
D18*
%TO.P,D37,4,VDD*%
%TO.N,VBUS*%
X170610000Y-118750000D03*
%TD*%
D22*
%TO.P,K4,1,1*%
%TO.N,GND*%
X183940000Y-122560000D03*
D20*
X185665000Y-122560000D03*
D21*
X187490000Y-122560000D03*
%TO.P,K4,2,2*%
%TO.N,key_4*%
X193840000Y-120020000D03*
D20*
X195640000Y-120020000D03*
D22*
X197390000Y-120020000D03*
%TD*%
D19*
%TO.P,D25,1,DOUT*%
%TO.N,Net-(D25-Pad1)*%
X194025000Y-147930000D03*
%TO.P,D25,2,VSS*%
%TO.N,GND*%
X194025000Y-146430000D03*
%TO.P,D25,3,DIN*%
%TO.N,Net-(D24-Pad1)*%
X188575000Y-147930000D03*
D18*
%TO.P,D25,4,VDD*%
%TO.N,VBUS*%
X188575000Y-146430000D03*
%TD*%
D19*
%TO.P,D22,1,DOUT*%
%TO.N,Net-(D22-Pad1)*%
X194025000Y-94130000D03*
%TO.P,D22,2,VSS*%
%TO.N,GND*%
X194025000Y-92630000D03*
%TO.P,D22,3,DIN*%
%TO.N,Net-(D22-Pad3)*%
X188575000Y-94130000D03*
D18*
%TO.P,D22,4,VDD*%
%TO.N,VBUS*%
X188575000Y-92630000D03*
%TD*%
D19*
%TO.P,D38,1,DOUT*%
%TO.N,Net-(D38-Pad1)*%
X248025000Y-103330000D03*
%TO.P,D38,2,VSS*%
%TO.N,GND*%
X248025000Y-101830000D03*
%TO.P,D38,3,DIN*%
%TO.N,Net-(D33-Pad1)*%
X242575000Y-103330000D03*
D18*
%TO.P,D38,4,VDD*%
%TO.N,VBUS*%
X242575000Y-101830000D03*
%TD*%
D21*
%TO.P,K10,1,1*%
%TO.N,GND*%
X205490000Y-139560000D03*
D22*
X201940000Y-139560000D03*
D20*
X203665000Y-139560000D03*
%TO.P,K10,2,2*%
%TO.N,key_10*%
X213640000Y-137020000D03*
D22*
X215390000Y-137020000D03*
D21*
X211840000Y-137020000D03*
%TD*%
D19*
%TO.P,D34,1,DOUT*%
%TO.N,Net-(D29-Pad3)*%
X230025000Y-130930000D03*
%TO.P,D34,2,VSS*%
%TO.N,GND*%
X230025000Y-129430000D03*
%TO.P,D34,3,DIN*%
%TO.N,Net-(D34-Pad3)*%
X224575000Y-130930000D03*
D18*
%TO.P,D34,4,VDD*%
%TO.N,VBUS*%
X224575000Y-129430000D03*
%TD*%
D22*
%TO.P,K6,1,1*%
%TO.N,GND*%
X201940000Y-68160000D03*
D20*
X203665000Y-68160000D03*
D21*
X205490000Y-68160000D03*
D20*
%TO.P,K6,2,2*%
%TO.N,key_6*%
X213640000Y-65620000D03*
D22*
X215390000Y-65620000D03*
D21*
X211840000Y-65620000D03*
%TD*%
D20*
%TO.P,K7,1,1*%
%TO.N,GND*%
X203665000Y-85760000D03*
D22*
X201940000Y-85760000D03*
D21*
X205490000Y-85760000D03*
D20*
%TO.P,K7,2,2*%
%TO.N,key_7*%
X213640000Y-83220000D03*
D22*
X215390000Y-83220000D03*
D21*
X211840000Y-83220000D03*
%TD*%
%TO.P,K14,1,1*%
%TO.N,GND*%
X223490000Y-122560000D03*
D20*
X221665000Y-122560000D03*
D22*
X219940000Y-122560000D03*
D21*
%TO.P,K14,2,2*%
%TO.N,key_14*%
X229840000Y-120020000D03*
D20*
X231640000Y-120020000D03*
D22*
X233390000Y-120020000D03*
%TD*%
D20*
%TO.P,K11,1,1*%
%TO.N,GND*%
X221665000Y-68160000D03*
D21*
X223490000Y-68160000D03*
D22*
X219940000Y-68160000D03*
D21*
%TO.P,K11,2,2*%
%TO.N,key_11*%
X229840000Y-65620000D03*
D22*
X233390000Y-65620000D03*
D20*
X231640000Y-65620000D03*
%TD*%
D19*
%TO.P,D28,1,DOUT*%
%TO.N,Net-(D28-Pad1)*%
X212025000Y-113930000D03*
%TO.P,D28,2,VSS*%
%TO.N,GND*%
X212025000Y-112430000D03*
%TO.P,D28,3,DIN*%
%TO.N,Net-(D23-Pad1)*%
X206575000Y-113930000D03*
D18*
%TO.P,D28,4,VDD*%
%TO.N,VBUS*%
X206575000Y-112430000D03*
%TD*%
D19*
%TO.P,D24,1,DOUT*%
%TO.N,Net-(D24-Pad1)*%
X194025000Y-130930000D03*
%TO.P,D24,2,VSS*%
%TO.N,GND*%
X194025000Y-129430000D03*
%TO.P,D24,3,DIN*%
%TO.N,Net-(D24-Pad3)*%
X188575000Y-130930000D03*
D18*
%TO.P,D24,4,VDD*%
%TO.N,VBUS*%
X188575000Y-129430000D03*
%TD*%
D26*
%TO.P,D40,1,DOUT*%
%TO.N,unconnected-(D40-Pad1)*%
X164309967Y-147057868D03*
%TO.P,D40,2,VSS*%
%TO.N,GND*%
X163559967Y-145758830D03*
%TO.P,D40,3,DIN*%
%TO.N,Net-(D35-Pad1)*%
X159590129Y-149782868D03*
D27*
%TO.P,D40,4,VDD*%
%TO.N,VBUS*%
X158840129Y-148483830D03*
%TD*%
D19*
%TO.P,D27,1,DOUT*%
%TO.N,Net-(D22-Pad3)*%
X212025000Y-94130000D03*
%TO.P,D27,2,VSS*%
%TO.N,GND*%
X212025000Y-92630000D03*
%TO.P,D27,3,DIN*%
%TO.N,Net-(D27-Pad3)*%
X206575000Y-94130000D03*
D18*
%TO.P,D27,4,VDD*%
%TO.N,VBUS*%
X206575000Y-92630000D03*
%TD*%
D19*
%TO.P,D39,1,DOUT*%
%TO.N,Net-(D34-Pad3)*%
X247925000Y-120390000D03*
%TO.P,D39,2,VSS*%
%TO.N,GND*%
X247925000Y-118890000D03*
%TO.P,D39,3,DIN*%
%TO.N,Net-(D38-Pad1)*%
X242475000Y-120390000D03*
D18*
%TO.P,D39,4,VDD*%
%TO.N,VBUS*%
X242475000Y-118890000D03*
%TD*%
D21*
%TO.P,K19,1,1*%
%TO.N,GND*%
X241425000Y-111960000D03*
D20*
X239600000Y-111960000D03*
D22*
X237875000Y-111960000D03*
D21*
%TO.P,K19,2,2*%
%TO.N,key_19*%
X247775000Y-109420000D03*
D20*
X249575000Y-109420000D03*
D22*
X251325000Y-109420000D03*
%TD*%
D19*
%TO.P,D23,1,DOUT*%
%TO.N,Net-(D23-Pad1)*%
X194025000Y-113930000D03*
%TO.P,D23,2,VSS*%
%TO.N,GND*%
X194025000Y-112430000D03*
%TO.P,D23,3,DIN*%
%TO.N,Net-(D22-Pad1)*%
X188575000Y-113930000D03*
D18*
%TO.P,D23,4,VDD*%
%TO.N,VBUS*%
X188575000Y-112430000D03*
%TD*%
D20*
%TO.P,K13,1,1*%
%TO.N,GND*%
X221665000Y-105560000D03*
D21*
X223490000Y-105560000D03*
D22*
X219940000Y-105560000D03*
%TO.P,K13,2,2*%
%TO.N,key_13*%
X233390000Y-103020000D03*
D20*
X231640000Y-103020000D03*
D21*
X229840000Y-103020000D03*
%TD*%
D19*
%TO.P,D29,1,DOUT*%
%TO.N,Net-(D24-Pad3)*%
X212025000Y-130930000D03*
%TO.P,D29,2,VSS*%
%TO.N,GND*%
X212025000Y-129430000D03*
%TO.P,D29,3,DIN*%
%TO.N,Net-(D29-Pad3)*%
X206575000Y-130930000D03*
D18*
%TO.P,D29,4,VDD*%
%TO.N,VBUS*%
X206575000Y-129430000D03*
%TD*%
D19*
%TO.P,D35,1,DOUT*%
%TO.N,Net-(D35-Pad1)*%
X230010000Y-147930000D03*
%TO.P,D35,2,VSS*%
%TO.N,GND*%
X230010000Y-146430000D03*
%TO.P,D35,3,DIN*%
%TO.N,Net-(D30-Pad1)*%
X224560000Y-147930000D03*
D18*
%TO.P,D35,4,VDD*%
%TO.N,VBUS*%
X224560000Y-146430000D03*
%TD*%
D28*
%TO.N,/2D-*%
X156400000Y-95300000D03*
%TO.N,GND*%
X182300000Y-83900000D03*
X235600000Y-112300000D03*
X178400000Y-118324500D03*
X250300000Y-68600000D03*
X253000000Y-79800000D03*
X180700000Y-65100000D03*
X245700000Y-84100000D03*
X177000000Y-100700000D03*
X230800000Y-110900000D03*
X231500000Y-75400000D03*
X248000000Y-117700000D03*
X250300000Y-73500000D03*
%TO.N,Net-(C2-Pad2)*%
X246100000Y-78800000D03*
X245300000Y-77100000D03*
%TO.N,+3V3*%
X169300000Y-80500000D03*
X171200000Y-82400000D03*
X172928678Y-83409002D03*
%TO.N,/1.8*%
X174550264Y-78749736D03*
X176453817Y-86746183D03*
X172700000Y-80500000D03*
X169400000Y-75900000D03*
X174000000Y-82500000D03*
%TO.N,/MD+*%
X177521584Y-84278416D03*
X164100000Y-71900000D03*
%TO.N,/MD-*%
X176900000Y-85100000D03*
X164900000Y-73700000D03*
%TO.N,/3D+*%
X168967372Y-84661212D03*
%TO.N,key_1*%
X253000000Y-70500000D03*
%TO.N,key_2*%
X245129735Y-68252424D03*
%TO.N,key_3*%
X244600000Y-69100000D03*
X238300000Y-89700000D03*
X236100000Y-96700000D03*
%TO.N,key_4*%
X243000000Y-90200000D03*
X243800000Y-70900000D03*
X241000000Y-105100000D03*
%TO.N,key_5*%
X260700000Y-80400000D03*
%TO.N,key_6*%
X252000000Y-70600000D03*
%TO.N,LED*%
X198000000Y-78100000D03*
%TO.N,VBUS*%
X223100000Y-130100000D03*
X187100000Y-112600000D03*
X186400000Y-75600000D03*
X203800000Y-113000000D03*
X247400000Y-70900000D03*
X248600000Y-69100000D03*
X239900000Y-101700000D03*
X186500000Y-130100000D03*
X204400000Y-75100000D03*
X257600000Y-61500000D03*
X185800000Y-93800000D03*
X222500000Y-92900000D03*
X186400000Y-146800000D03*
X167400000Y-116400000D03*
X203800000Y-93100000D03*
X254200000Y-63900000D03*
X240500000Y-119000000D03*
X223000000Y-75300000D03*
X222300000Y-112900000D03*
X204900000Y-129800000D03*
X170700000Y-116400000D03*
X204800000Y-146600000D03*
X223100000Y-146600000D03*
X157300000Y-149900000D03*
X162300000Y-68200000D03*
%TO.N,Net-(D22-Pad1)*%
X197600000Y-97900000D03*
X197400000Y-115100000D03*
%TO.N,Net-(D22-Pad3)*%
X191700000Y-95900000D03*
X201800000Y-95900000D03*
%TO.N,Net-(D24-Pad1)*%
X182900000Y-133500000D03*
X181200000Y-141900000D03*
%TO.N,Net-(D24-Pad3)*%
X191500000Y-132700000D03*
X203000000Y-132700000D03*
%TO.N,Net-(D27-Pad3)*%
X220400000Y-95900000D03*
X204900000Y-94800000D03*
%TO.N,Net-(D29-Pad3)*%
X205300000Y-131600000D03*
X222200000Y-133175500D03*
%TO.N,Net-(D32-Pad3)*%
X223400000Y-95100000D03*
X175600000Y-122300000D03*
%TO.N,Net-(D34-Pad3)*%
X247900000Y-122400000D03*
X224500000Y-132200000D03*
%TO.N,key_7*%
X248600000Y-71700000D03*
X253600000Y-73500000D03*
X255400000Y-72800000D03*
X240437701Y-71937701D03*
X244100000Y-72000000D03*
%TO.N,key_8*%
X242200000Y-75000000D03*
X240100000Y-89600000D03*
X237600000Y-97500000D03*
%TO.N,key_9*%
X245700000Y-89424500D03*
X259396383Y-76179018D03*
X240362299Y-106362299D03*
%TO.N,key_10*%
X261700000Y-79900000D03*
%TO.N,reset*%
X257587701Y-80087701D03*
X257612299Y-76587701D03*
X259400000Y-78300000D03*
X261500000Y-82900000D03*
X246400000Y-72700000D03*
%TO.N,key_11*%
X249500000Y-74500000D03*
%TO.N,key_13*%
X249900000Y-103700000D03*
X252300000Y-87800000D03*
X252300000Y-95400000D03*
X250700000Y-76300000D03*
X251700000Y-79600000D03*
X252200000Y-90200000D03*
X237400000Y-106200000D03*
%TO.N,key_14*%
X250100000Y-89500000D03*
X250400000Y-87600000D03*
X252400000Y-114000000D03*
%TO.N,key_15*%
X259112299Y-82512299D03*
%TO.N,key_16*%
X257500000Y-62500000D03*
X250800000Y-74500000D03*
X180775500Y-84800000D03*
X180200000Y-62100000D03*
%TO.N,key_17*%
X255800000Y-78400000D03*
X250000000Y-99800000D03*
X183300000Y-115200000D03*
X251800000Y-100400000D03*
X248100000Y-99300000D03*
%TO.N,key_18*%
X258800000Y-79900000D03*
%TO.N,key_19*%
X254200000Y-68200000D03*
%TO.N,key_20*%
X257487701Y-64712299D03*
%TO.N,4D-*%
X166800000Y-73100000D03*
X248700000Y-63900000D03*
%TO.N,4D+*%
X168100000Y-72800000D03*
X165200000Y-75600000D03*
X165900000Y-83300000D03*
X216300000Y-62600000D03*
%TD*%
D29*
%TO.N,GND*%
X214882091Y-146430000D02*
X219725000Y-141587091D01*
X212025000Y-146430000D02*
X214882091Y-146430000D01*
D30*
%TO.N,/2D-*%
X156400000Y-96810000D02*
X158090000Y-98500000D01*
X156400000Y-95300000D02*
X156400000Y-96810000D01*
D29*
%TO.N,GND*%
X156390000Y-103000000D02*
X159625000Y-103000000D01*
X155080000Y-104310000D02*
X156390000Y-103000000D01*
X159625000Y-103000000D02*
X167665000Y-94960000D01*
X155080000Y-104670000D02*
X155080000Y-104310000D01*
X155080000Y-125910000D02*
X155080000Y-126270000D01*
X156390000Y-124600000D02*
X155080000Y-125910000D01*
X158090000Y-124600000D02*
X156390000Y-124600000D01*
%TO.N,VBUS*%
X167200000Y-116200000D02*
X167400000Y-116400000D01*
X159490000Y-116200000D02*
X167200000Y-116200000D01*
X158090000Y-117600000D02*
X159490000Y-116200000D01*
%TO.N,GND*%
X211400000Y-128000000D02*
X205352909Y-128000000D01*
X155080000Y-91530000D02*
X155080000Y-85070000D01*
X230025000Y-75030000D02*
X228695000Y-73700000D01*
X183940000Y-122560000D02*
X181160000Y-122560000D01*
X163559967Y-145758830D02*
X163305443Y-145504306D01*
X207600000Y-110900000D02*
X205490000Y-108790000D01*
X237875000Y-111960000D02*
X235940000Y-111960000D01*
X177000000Y-100700000D02*
X177000000Y-100855000D01*
X230010000Y-146430000D02*
X240132500Y-146430000D01*
X212025000Y-146430000D02*
X212025000Y-145825000D01*
X186952909Y-110600000D02*
X192195000Y-110600000D01*
X211930000Y-112430000D02*
X210400000Y-110900000D01*
X182300000Y-84120000D02*
X182300000Y-83900000D01*
X223490000Y-87839454D02*
X223490000Y-85760000D01*
X212025000Y-129430000D02*
X214450000Y-129430000D01*
X204000000Y-73700000D02*
X201940000Y-71640000D01*
X230395000Y-75400000D02*
X230025000Y-75030000D01*
X160380000Y-61660000D02*
X160380000Y-65830000D01*
X194025000Y-145425000D02*
X193300000Y-144700000D01*
X183760000Y-68160000D02*
X180700000Y-65100000D01*
X201940000Y-139560000D02*
X195725000Y-145775000D01*
X210495000Y-91100000D02*
X208300000Y-91100000D01*
X240132500Y-146430000D02*
X247887500Y-138675000D01*
X211700000Y-129105000D02*
X211700000Y-128300000D01*
X192695000Y-128100000D02*
X186700000Y-128100000D01*
X183940000Y-68160000D02*
X183760000Y-68160000D01*
X195070000Y-112430000D02*
X201940000Y-105560000D01*
X194125000Y-75230000D02*
X198350000Y-75230000D01*
X151391101Y-145291101D02*
X151391101Y-144851735D01*
X222200000Y-73700000D02*
X219940000Y-71440000D01*
X248025000Y-101830000D02*
X246395000Y-100200000D01*
X183940000Y-125340000D02*
X183940000Y-122560000D01*
X213070000Y-92630000D02*
X212025000Y-92630000D01*
X195070000Y-129430000D02*
X194025000Y-129430000D01*
X212025000Y-92630000D02*
X210495000Y-91100000D01*
X183940000Y-105560000D02*
X183940000Y-107587091D01*
X226950546Y-91300000D02*
X223490000Y-87839454D01*
X228280000Y-144700000D02*
X222837909Y-144700000D01*
X195725000Y-145775000D02*
X194025000Y-145775000D01*
X183940000Y-85760000D02*
X183940000Y-88640000D01*
X155080000Y-85070000D02*
X155480000Y-84670000D01*
X228695000Y-91300000D02*
X226950546Y-91300000D01*
X201940000Y-122560000D02*
X195070000Y-129430000D01*
X168918797Y-140400000D02*
X163559967Y-145758830D01*
X151391101Y-144851735D02*
X155080000Y-141162836D01*
X194125000Y-75230000D02*
X194125000Y-74425000D01*
X219940000Y-71440000D02*
X219940000Y-68160000D01*
X219725000Y-141587091D02*
X219725000Y-139560000D01*
X250300000Y-73500000D02*
X250300000Y-68600000D01*
X237940000Y-94960000D02*
X232355000Y-94960000D01*
X183940000Y-85760000D02*
X182300000Y-84120000D01*
X198350000Y-75230000D02*
X201940000Y-71640000D01*
X243800000Y-100200000D02*
X241490000Y-97890000D01*
X186800000Y-144700000D02*
X183940000Y-141840000D01*
X183940000Y-88640000D02*
X186700000Y-91400000D01*
X230025000Y-129430000D02*
X228595000Y-128000000D01*
X183940000Y-141840000D02*
X183940000Y-139560000D01*
X166035000Y-111960000D02*
X164865000Y-113130000D01*
X241490000Y-97890000D02*
X241490000Y-94960000D01*
X155080000Y-91530000D02*
X155080000Y-104670000D01*
X194025000Y-112430000D02*
X195070000Y-112430000D01*
X208300000Y-91100000D02*
X205490000Y-88290000D01*
X201940000Y-71640000D02*
X201940000Y-68160000D01*
X230800000Y-108250546D02*
X228109454Y-105560000D01*
X183940000Y-70187091D02*
X183940000Y-68160000D01*
X155080000Y-104670000D02*
X155080000Y-113130000D01*
X155480000Y-71530000D02*
X155480000Y-84670000D01*
X230800000Y-111655000D02*
X230025000Y-112430000D01*
X163305443Y-145504306D02*
X160195694Y-145504306D01*
X245700000Y-84100000D02*
X248700000Y-84100000D01*
X194025000Y-146430000D02*
X194025000Y-145775000D01*
X201940000Y-141587091D02*
X201940000Y-139560000D01*
X212025000Y-75030000D02*
X216350000Y-75030000D01*
X210695000Y-73700000D02*
X204000000Y-73700000D01*
X186700000Y-91400000D02*
X192795000Y-91400000D01*
X180210000Y-101830000D02*
X176025000Y-101830000D01*
X195070000Y-92630000D02*
X201940000Y-85760000D01*
X205552909Y-145200000D02*
X201940000Y-141587091D01*
X231500000Y-75400000D02*
X230395000Y-75400000D01*
X212025000Y-112430000D02*
X211930000Y-112430000D01*
X201940000Y-124587091D02*
X201940000Y-122560000D01*
X155080000Y-141162836D02*
X155080000Y-126270000D01*
X212025000Y-75030000D02*
X210695000Y-73700000D01*
X230800000Y-110900000D02*
X230800000Y-108250546D01*
X214450000Y-129430000D02*
X219940000Y-123940000D01*
X153800000Y-147700000D02*
X151391101Y-145291101D01*
X205490000Y-88290000D02*
X205490000Y-85760000D01*
X247925000Y-117775000D02*
X248000000Y-117700000D01*
X228109454Y-105560000D02*
X223490000Y-105560000D01*
X194025000Y-129430000D02*
X192695000Y-128100000D01*
X219940000Y-85760000D02*
X213070000Y-92630000D01*
X169020000Y-61660000D02*
X160380000Y-61660000D01*
X230800000Y-110900000D02*
X230800000Y-111655000D01*
X219940000Y-123940000D02*
X219940000Y-122560000D01*
X222837909Y-144700000D02*
X219725000Y-141587091D01*
X187452909Y-73700000D02*
X183940000Y-70187091D01*
X247925000Y-118890000D02*
X247925000Y-117775000D01*
X183940000Y-139560000D02*
X183100000Y-140400000D01*
X230025000Y-92630000D02*
X228695000Y-91300000D01*
X212025000Y-145825000D02*
X211400000Y-145200000D01*
X177350000Y-118750000D02*
X176060000Y-118750000D01*
X248700000Y-84100000D02*
X253000000Y-79800000D01*
X228595000Y-128000000D02*
X223352909Y-128000000D01*
X193300000Y-144700000D02*
X186800000Y-144700000D01*
X186700000Y-128100000D02*
X183940000Y-125340000D01*
X164865000Y-113130000D02*
X155080000Y-113130000D01*
X205352909Y-128000000D02*
X201940000Y-124587091D01*
X219940000Y-124587091D02*
X219940000Y-123940000D01*
X194125000Y-74425000D02*
X193400000Y-73700000D01*
X155080000Y-126270000D02*
X155080000Y-113130000D01*
X183940000Y-105560000D02*
X180210000Y-101830000D01*
X246395000Y-100200000D02*
X243800000Y-100200000D01*
X192195000Y-110600000D02*
X194025000Y-112430000D01*
X193400000Y-73700000D02*
X187452909Y-73700000D01*
X177000000Y-100855000D02*
X176025000Y-101830000D01*
X194025000Y-145775000D02*
X194025000Y-145425000D01*
X169020000Y-65830000D02*
X169020000Y-61660000D01*
X211700000Y-128300000D02*
X211400000Y-128000000D01*
X192795000Y-91400000D02*
X194025000Y-92630000D01*
X210400000Y-110900000D02*
X207600000Y-110900000D01*
X183100000Y-140400000D02*
X168918797Y-140400000D01*
X158000000Y-147700000D02*
X153800000Y-147700000D01*
X183940000Y-107587091D02*
X186952909Y-110600000D01*
X213070000Y-112430000D02*
X219940000Y-105560000D01*
X181160000Y-122560000D02*
X177350000Y-118750000D01*
X212025000Y-112430000D02*
X213070000Y-112430000D01*
X232355000Y-94960000D02*
X230025000Y-92630000D01*
X177974500Y-118750000D02*
X178400000Y-118324500D01*
X155480000Y-84310000D02*
X155480000Y-84670000D01*
X216350000Y-75030000D02*
X219940000Y-71440000D01*
X194025000Y-92630000D02*
X195070000Y-92630000D01*
X212025000Y-129430000D02*
X211700000Y-129105000D01*
X228695000Y-73700000D02*
X222200000Y-73700000D01*
X160195694Y-145504306D02*
X158000000Y-147700000D01*
X235940000Y-111960000D02*
X235600000Y-112300000D01*
X205490000Y-108790000D02*
X205490000Y-105560000D01*
X158190000Y-81600000D02*
X155480000Y-84310000D01*
X176060000Y-118750000D02*
X177974500Y-118750000D01*
X211400000Y-145200000D02*
X205552909Y-145200000D01*
X223352909Y-128000000D02*
X219940000Y-124587091D01*
X230010000Y-146430000D02*
X228280000Y-144700000D01*
%TO.N,Net-(C2-Pad2)*%
X246100000Y-77900000D02*
X245300000Y-77100000D01*
X246100000Y-78800000D02*
X246100000Y-77900000D01*
%TO.N,+3V3*%
X172209002Y-83409002D02*
X171200000Y-82400000D01*
X172928678Y-83409002D02*
X172209002Y-83409002D01*
X171200000Y-82400000D02*
X169300000Y-80500000D01*
%TO.N,/1.8*%
X174000000Y-81800000D02*
X172700000Y-80500000D01*
X171800000Y-75900000D02*
X169400000Y-75900000D01*
X179400000Y-83500000D02*
X171800000Y-75900000D01*
X176953817Y-86746183D02*
X179700000Y-84000000D01*
X179700000Y-84000000D02*
X179700000Y-83800000D01*
X174000000Y-82500000D02*
X174000000Y-81800000D01*
X179700000Y-83800000D02*
X179400000Y-83500000D01*
X176453817Y-86746183D02*
X176953817Y-86746183D01*
D30*
%TO.N,/MD+*%
X168799511Y-76599511D02*
X164100000Y-71900000D01*
X177521584Y-84278416D02*
X177521584Y-83921584D01*
X177521584Y-83921584D02*
X170199511Y-76599511D01*
X170199511Y-76599511D02*
X168799511Y-76599511D01*
%TO.N,/MD-*%
X164900000Y-73700000D02*
X164900000Y-74300000D01*
X164900000Y-74300000D02*
X173040326Y-82440326D01*
X173040326Y-82440326D02*
X173040326Y-82531391D01*
X173040326Y-82531391D02*
X175608935Y-85100000D01*
X175608935Y-85100000D02*
X176900000Y-85100000D01*
%TO.N,/3D+*%
X159600000Y-86400000D02*
X161300000Y-88100000D01*
X168838788Y-84661212D02*
X168967372Y-84661212D01*
X165500000Y-86400000D02*
X166900000Y-85000000D01*
X161300000Y-88100000D02*
X163600000Y-88100000D01*
X159600000Y-80500000D02*
X159600000Y-86400000D01*
X168500000Y-85000000D02*
X168838788Y-84661212D01*
X159590000Y-80500000D02*
X159600000Y-80500000D01*
X158190000Y-79100000D02*
X159590000Y-80500000D01*
X166900000Y-85000000D02*
X168500000Y-85000000D01*
X163600000Y-88100000D02*
X163800000Y-88100000D01*
X163800000Y-88100000D02*
X165500000Y-86400000D01*
D29*
%TO.N,key_1*%
X245500000Y-61800000D02*
X253000000Y-69300000D01*
X253000000Y-69300000D02*
X253000000Y-70500000D01*
X202700000Y-61700000D02*
X245400000Y-61700000D01*
X245400000Y-61700000D02*
X245500000Y-61800000D01*
X197390000Y-65620000D02*
X201310000Y-61700000D01*
X201310000Y-61700000D02*
X202700000Y-61700000D01*
%TO.N,key_2*%
X229735718Y-80000000D02*
X230149520Y-79586197D01*
X235900000Y-73835717D02*
X235900000Y-67400000D01*
X245129735Y-66629735D02*
X245129735Y-68252424D01*
X237100000Y-63500000D02*
X237300000Y-63300000D01*
X235900000Y-67400000D02*
X235900000Y-64700000D01*
X241800000Y-63300000D02*
X245129735Y-66629735D01*
X199800000Y-80810000D02*
X199800000Y-80000000D01*
X199800000Y-80000000D02*
X229735718Y-80000000D01*
X230149520Y-79586197D02*
X235900000Y-73835717D01*
X197390000Y-83220000D02*
X199800000Y-80810000D01*
X237300000Y-63300000D02*
X241800000Y-63300000D01*
X235900000Y-64700000D02*
X237100000Y-63500000D01*
%TO.N,key_3*%
X238300000Y-75100000D02*
X243600000Y-69800000D01*
X244300000Y-69100000D02*
X244600000Y-69100000D01*
X243600000Y-69800000D02*
X244300000Y-69100000D01*
X238300000Y-89700000D02*
X238300000Y-75100000D01*
X207980000Y-103020000D02*
X214300000Y-96700000D01*
X214300000Y-96700000D02*
X236100000Y-96700000D01*
X195640000Y-103020000D02*
X207980000Y-103020000D01*
%TO.N,key_4*%
X197390000Y-120020000D02*
X199100000Y-118310000D01*
X204800000Y-115800000D02*
X229900000Y-115800000D01*
X199100000Y-116900000D02*
X200200000Y-115800000D01*
X199100000Y-118310000D02*
X199100000Y-116900000D01*
X243000000Y-90200000D02*
X243000000Y-71700000D01*
X240600000Y-105100000D02*
X241000000Y-105100000D01*
X234300000Y-111400000D02*
X240600000Y-105100000D01*
X243000000Y-71700000D02*
X243800000Y-70900000D01*
X229900000Y-115800000D02*
X234300000Y-111400000D01*
X200200000Y-115800000D02*
X204800000Y-115800000D01*
%TO.N,key_5*%
X238900000Y-126000000D02*
X249435718Y-126000000D01*
X253800000Y-121500000D02*
X253800000Y-86800000D01*
X197390000Y-137020000D02*
X197390000Y-136910000D01*
X260200000Y-80400000D02*
X260700000Y-80400000D01*
X250017859Y-125417859D02*
X253800000Y-121635718D01*
X249435718Y-126000000D02*
X250017859Y-125417859D01*
X230550469Y-134349531D02*
X238900000Y-126000000D01*
X197390000Y-136910000D02*
X199950469Y-134349531D01*
X253800000Y-121635718D02*
X253800000Y-121500000D01*
X206500000Y-134349531D02*
X230550469Y-134349531D01*
X199950469Y-134349531D02*
X206500000Y-134349531D01*
X254600000Y-86000000D02*
X260200000Y-80400000D01*
X253800000Y-86800000D02*
X254600000Y-86000000D01*
%TO.N,key_6*%
X245200000Y-62300000D02*
X252000000Y-69100000D01*
X215390000Y-65620000D02*
X216480000Y-65620000D01*
X219800000Y-62300000D02*
X245200000Y-62300000D01*
X252000000Y-69100000D02*
X252000000Y-70600000D01*
X218000000Y-64100000D02*
X219800000Y-62300000D01*
X216480000Y-65620000D02*
X218000000Y-64100000D01*
%TO.N,Net-(D21-Pad1)*%
X194325000Y-76530000D02*
X194125000Y-76730000D01*
X206575000Y-76530000D02*
X194325000Y-76530000D01*
%TO.N,LED*%
X188675000Y-77275000D02*
X188800000Y-77400000D01*
X188800000Y-77400000D02*
X189500000Y-78100000D01*
X188675000Y-76730000D02*
X188675000Y-77275000D01*
X189500000Y-78100000D02*
X198000000Y-78100000D01*
%TO.N,VBUS*%
X162300000Y-72700000D02*
X162300000Y-68400000D01*
X206575000Y-129430000D02*
X205270000Y-129430000D01*
X161600000Y-73400000D02*
X162300000Y-72700000D01*
X239900000Y-101700000D02*
X240030000Y-101830000D01*
X185800000Y-95100000D02*
X185800000Y-93800000D01*
X224305000Y-75300000D02*
X224575000Y-75030000D01*
X171100000Y-100100000D02*
X175400000Y-100100000D01*
X204370000Y-112430000D02*
X203800000Y-113000000D01*
X188575000Y-129430000D02*
X187170000Y-129430000D01*
X223100000Y-146600000D02*
X224390000Y-146600000D01*
X170700000Y-118020000D02*
X170610000Y-118110000D01*
X223000000Y-75300000D02*
X224305000Y-75300000D01*
X188675000Y-75230000D02*
X186770000Y-75230000D01*
X206575000Y-75030000D02*
X204470000Y-75030000D01*
X204270000Y-92630000D02*
X203800000Y-93100000D01*
X224575000Y-112430000D02*
X222770000Y-112430000D01*
X175744852Y-99755148D02*
X181144852Y-99755148D01*
X158840129Y-148483830D02*
X158716170Y-148483830D01*
X181144852Y-99755148D02*
X185800000Y-95100000D01*
X188575000Y-92630000D02*
X186970000Y-92630000D01*
X188205000Y-146800000D02*
X188575000Y-146430000D01*
X187170000Y-129430000D02*
X186500000Y-130100000D01*
X188575000Y-112430000D02*
X187270000Y-112430000D01*
X170700000Y-116400000D02*
X170700000Y-118020000D01*
X170700000Y-117600000D02*
X182100000Y-117600000D01*
X186970000Y-92630000D02*
X185800000Y-93800000D01*
X257600000Y-61500000D02*
X256600000Y-61500000D01*
X175400000Y-100100000D02*
X175744852Y-99755148D01*
X222770000Y-92630000D02*
X222500000Y-92900000D01*
X204470000Y-75030000D02*
X204400000Y-75100000D01*
X247400000Y-70900000D02*
X247400000Y-70300000D01*
X186770000Y-75230000D02*
X186400000Y-75600000D01*
X170575000Y-101830000D02*
X170575000Y-100625000D01*
X186400000Y-146800000D02*
X188205000Y-146800000D01*
X222770000Y-112430000D02*
X222300000Y-112900000D01*
X182100000Y-117600000D02*
X187100000Y-112600000D01*
X247400000Y-70300000D02*
X248600000Y-69100000D01*
X158190000Y-74600000D02*
X160400000Y-74600000D01*
X170575000Y-100625000D02*
X171100000Y-100100000D01*
X223100000Y-130100000D02*
X223905000Y-130100000D01*
X242365000Y-119000000D02*
X242475000Y-118890000D01*
X205270000Y-129430000D02*
X204900000Y-129800000D01*
X224575000Y-92630000D02*
X222770000Y-92630000D01*
X170610000Y-118750000D02*
X170610000Y-118110000D01*
X206575000Y-112430000D02*
X204370000Y-112430000D01*
X162300000Y-68400000D02*
X162300000Y-68200000D01*
X224390000Y-146600000D02*
X224560000Y-146430000D01*
X256600000Y-61500000D02*
X254200000Y-63900000D01*
X158716170Y-148483830D02*
X157300000Y-149900000D01*
X160400000Y-74600000D02*
X161600000Y-73400000D01*
X204970000Y-146430000D02*
X204800000Y-146600000D01*
X170610000Y-118110000D02*
X170610000Y-117690000D01*
X240500000Y-119000000D02*
X242365000Y-119000000D01*
X170610000Y-117690000D02*
X170700000Y-117600000D01*
X240030000Y-101830000D02*
X242575000Y-101830000D01*
X224560000Y-146430000D02*
X224430000Y-146430000D01*
X187270000Y-112430000D02*
X187100000Y-112600000D01*
X223905000Y-130100000D02*
X224575000Y-129430000D01*
X206575000Y-146430000D02*
X204970000Y-146430000D01*
X206575000Y-92630000D02*
X204270000Y-92630000D01*
%TO.N,Net-(D22-Pad1)*%
X189000000Y-116100000D02*
X189300000Y-116400000D01*
X196100000Y-116400000D02*
X197400000Y-115100000D01*
X197600000Y-97900000D02*
X194025000Y-94325000D01*
X194025000Y-94325000D02*
X194025000Y-94130000D01*
X189000000Y-114355000D02*
X189000000Y-116100000D01*
X189300000Y-116400000D02*
X195100000Y-116400000D01*
X188575000Y-113930000D02*
X189000000Y-114355000D01*
X195100000Y-116400000D02*
X196100000Y-116400000D01*
%TO.N,Net-(D22-Pad3)*%
X201800000Y-95900000D02*
X211400000Y-95900000D01*
X212100000Y-95200000D02*
X212100000Y-94205000D01*
X212100000Y-94205000D02*
X212025000Y-94130000D01*
X188575000Y-94130000D02*
X190345000Y-95900000D01*
X190345000Y-95900000D02*
X191700000Y-95900000D01*
X211400000Y-95900000D02*
X212100000Y-95200000D01*
%TO.N,Net-(D23-Pad1)*%
X206575000Y-113930000D02*
X194025000Y-113930000D01*
%TO.N,Net-(D24-Pad1)*%
X185430000Y-147930000D02*
X184300000Y-146800000D01*
X184300000Y-146800000D02*
X181200000Y-143700000D01*
X194025000Y-130930000D02*
X194025000Y-132025000D01*
X182900000Y-133500000D02*
X192500000Y-133500000D01*
X188575000Y-147930000D02*
X185430000Y-147930000D01*
X194025000Y-131975000D02*
X194025000Y-130930000D01*
X192500000Y-133500000D02*
X194025000Y-131975000D01*
X181200000Y-143700000D02*
X181200000Y-141900000D01*
%TO.N,Net-(D24-Pad3)*%
X188575000Y-130930000D02*
X188300000Y-131205000D01*
X210255000Y-132700000D02*
X212025000Y-130930000D01*
X203000000Y-132700000D02*
X210255000Y-132700000D01*
X188600000Y-132700000D02*
X191500000Y-132700000D01*
X188300000Y-132400000D02*
X188600000Y-132700000D01*
X188300000Y-131205000D02*
X188300000Y-132400000D01*
%TO.N,Net-(D25-Pad1)*%
X206575000Y-147930000D02*
X194025000Y-147930000D01*
%TO.N,Net-(D26-Pad1)*%
X224575000Y-76530000D02*
X212025000Y-76530000D01*
%TO.N,Net-(D27-Pad3)*%
X220400000Y-95900000D02*
X229400000Y-95900000D01*
X205570000Y-94130000D02*
X204900000Y-94800000D01*
X229400000Y-95900000D02*
X230025000Y-95275000D01*
X230025000Y-95275000D02*
X230025000Y-94130000D01*
X206575000Y-94130000D02*
X205570000Y-94130000D01*
%TO.N,Net-(D28-Pad1)*%
X224575000Y-113930000D02*
X212025000Y-113930000D01*
%TO.N,Net-(D29-Pad3)*%
X228800000Y-133200000D02*
X230025000Y-131975000D01*
X230025000Y-131975000D02*
X230025000Y-130930000D01*
X222224500Y-133200000D02*
X228800000Y-133200000D01*
X222200000Y-133175500D02*
X222224500Y-133200000D01*
X206575000Y-130930000D02*
X205970000Y-130930000D01*
X205970000Y-130930000D02*
X205300000Y-131600000D01*
%TO.N,Net-(D30-Pad1)*%
X224560000Y-147930000D02*
X212025000Y-147930000D01*
%TO.N,Net-(D31-Pad1)*%
X169730000Y-103330000D02*
X169000000Y-102600000D01*
X170900000Y-96342381D02*
X172700000Y-94542381D01*
X229700000Y-79400000D02*
X230025000Y-79075000D01*
X170575000Y-103330000D02*
X169730000Y-103330000D01*
X169000000Y-102600000D02*
X169469521Y-102130479D01*
X170900000Y-96700000D02*
X170900000Y-96342381D01*
X185400000Y-79400000D02*
X229700000Y-79400000D01*
X172700000Y-92500000D02*
X175800000Y-89400000D01*
X181500000Y-83300000D02*
X185400000Y-79400000D01*
X181500000Y-87900000D02*
X181500000Y-83300000D01*
X180000000Y-89400000D02*
X181500000Y-87900000D01*
X175800000Y-89400000D02*
X180000000Y-89400000D01*
X169469521Y-98130479D02*
X170900000Y-96700000D01*
X169469521Y-102130479D02*
X169469521Y-98130479D01*
X230025000Y-79075000D02*
X230025000Y-76530000D01*
X172700000Y-94542381D02*
X172700000Y-92500000D01*
%TO.N,Net-(D32-Pad3)*%
X224370000Y-94130000D02*
X223400000Y-95100000D01*
X175600000Y-120710000D02*
X176060000Y-120250000D01*
X175600000Y-122300000D02*
X175600000Y-120710000D01*
%TO.N,Net-(D33-Pad1)*%
X241670000Y-103330000D02*
X231070000Y-113930000D01*
X231070000Y-113930000D02*
X230025000Y-113930000D01*
X242575000Y-103330000D02*
X241670000Y-103330000D01*
%TO.N,Net-(D34-Pad3)*%
X247900000Y-122400000D02*
X247900000Y-120415000D01*
X247900000Y-120415000D02*
X247925000Y-120390000D01*
X224575000Y-130930000D02*
X224575000Y-132125000D01*
X224575000Y-132125000D02*
X224500000Y-132200000D01*
%TO.N,Net-(D35-Pad1)*%
X226335812Y-151604188D02*
X230010000Y-147930000D01*
X160904188Y-151604188D02*
X226335812Y-151604188D01*
X159590129Y-149782868D02*
X160600000Y-150792739D01*
X160600000Y-151300000D02*
X160904188Y-151604188D01*
X160600000Y-150792739D02*
X160600000Y-151300000D01*
%TO.N,Net-(D36-Pad1)*%
X172200000Y-109600000D02*
X176025000Y-105775000D01*
X172200000Y-112137381D02*
X172200000Y-109600000D01*
X167900000Y-119100000D02*
X167900000Y-118500000D01*
X176025000Y-105775000D02*
X176025000Y-103330000D01*
X169050000Y-120250000D02*
X167900000Y-119100000D01*
X169600000Y-116800000D02*
X169600000Y-114737381D01*
X169600000Y-114737381D02*
X172200000Y-112137381D01*
X167900000Y-118500000D02*
X169600000Y-116800000D01*
X170610000Y-120250000D02*
X169050000Y-120250000D01*
%TO.N,Net-(D38-Pad1)*%
X242475000Y-120390000D02*
X239590000Y-120390000D01*
X239590000Y-120390000D02*
X239200000Y-120000000D01*
X244700000Y-108000000D02*
X248025000Y-104675000D01*
X242700000Y-114500000D02*
X242700000Y-113685546D01*
X239200000Y-120000000D02*
X239200000Y-118000000D01*
X242700000Y-113685546D02*
X244685546Y-111700000D01*
X248025000Y-104675000D02*
X248025000Y-103330000D01*
X239200000Y-118000000D02*
X242700000Y-114500000D01*
X244700000Y-111700000D02*
X244700000Y-108000000D01*
X244685546Y-111700000D02*
X244700000Y-111700000D01*
%TO.N,key_7*%
X217500000Y-80600000D02*
X217650480Y-80449520D01*
X217650480Y-80449520D02*
X229600000Y-80449520D01*
X230050480Y-80449520D02*
X233900000Y-76600000D01*
X244400000Y-71700000D02*
X248600000Y-71700000D01*
X233900000Y-76600000D02*
X238562299Y-71937701D01*
X244100000Y-72000000D02*
X244400000Y-71700000D01*
X253600000Y-73500000D02*
X254700000Y-73500000D01*
X254700000Y-73500000D02*
X255400000Y-72800000D01*
X229600000Y-80449520D02*
X230050480Y-80449520D01*
X215390000Y-82710000D02*
X217500000Y-80600000D01*
X238562299Y-71937701D02*
X240437701Y-71937701D01*
X215390000Y-83220000D02*
X215390000Y-82710000D01*
%TO.N,key_8*%
X215390000Y-103020000D02*
X220910000Y-97500000D01*
X240100000Y-89600000D02*
X240100000Y-77100000D01*
X220910000Y-97500000D02*
X237600000Y-97500000D01*
X240100000Y-77100000D02*
X242200000Y-75000000D01*
%TO.N,key_9*%
X230417859Y-115917859D02*
X239973419Y-106362299D01*
X218700000Y-116300000D02*
X230035718Y-116300000D01*
X230035718Y-116300000D02*
X230417859Y-115917859D01*
X246150901Y-89424500D02*
X259396383Y-76179018D01*
X215390000Y-119610000D02*
X218700000Y-116300000D01*
X239973419Y-106362299D02*
X240362299Y-106362299D01*
X245700000Y-89424500D02*
X246150901Y-89424500D01*
X215390000Y-120020000D02*
X215390000Y-119610000D01*
%TO.N,key_10*%
X254800000Y-87600000D02*
X258800000Y-83600000D01*
X254800000Y-122000000D02*
X254800000Y-87600000D01*
X216800000Y-135000000D02*
X225100000Y-135000000D01*
X234500000Y-139600000D02*
X235800000Y-138300000D01*
X259500000Y-83600000D02*
X261700000Y-81400000D01*
X235800000Y-130600000D02*
X239500960Y-126899040D01*
X216800000Y-135610000D02*
X216800000Y-135000000D01*
X249900960Y-126899040D02*
X254700000Y-122100000D01*
X235800000Y-138300000D02*
X235800000Y-130600000D01*
X261700000Y-81400000D02*
X261700000Y-79900000D01*
X258800000Y-83600000D02*
X259500000Y-83600000D01*
X227650489Y-137850489D02*
X229000000Y-139200000D01*
X225100000Y-135000000D02*
X227650489Y-137550489D01*
X239500960Y-126899040D02*
X249900960Y-126899040D01*
X254700000Y-122100000D02*
X254800000Y-122000000D01*
X229400000Y-139600000D02*
X234500000Y-139600000D01*
X215390000Y-137020000D02*
X216800000Y-135610000D01*
X229000000Y-139200000D02*
X229400000Y-139600000D01*
X227650489Y-137550489D02*
X227650489Y-137850489D01*
%TO.N,reset*%
X258524511Y-79175489D02*
X258499913Y-79175489D01*
X249000000Y-75300000D02*
X247300000Y-73600000D01*
X247300000Y-73600000D02*
X246400000Y-72700000D01*
X261700000Y-83100000D02*
X261500000Y-82900000D01*
X261700000Y-103600000D02*
X261700000Y-83100000D01*
X259400000Y-78300000D02*
X258524511Y-79175489D01*
X255625000Y-143675000D02*
X259400000Y-139900000D01*
X258499913Y-79175489D02*
X257587701Y-80087701D01*
X257612299Y-76587701D02*
X256324598Y-75300000D01*
X261700000Y-137600000D02*
X261700000Y-103600000D01*
X256324598Y-75300000D02*
X250300000Y-75300000D01*
X259400000Y-139900000D02*
X261700000Y-137600000D01*
X250300000Y-75300000D02*
X249000000Y-75300000D01*
X247887500Y-143675000D02*
X255625000Y-143675000D01*
%TO.N,key_11*%
X233390000Y-65620000D02*
X236210000Y-62800000D01*
X236210000Y-62800000D02*
X244800000Y-62800000D01*
X249500000Y-67500000D02*
X249500000Y-72300000D01*
X244800000Y-62800000D02*
X249500000Y-67500000D01*
X249500000Y-72300000D02*
X249500000Y-74500000D01*
%TO.N,key_13*%
X233390000Y-103020000D02*
X234220000Y-103020000D01*
X251700000Y-77300000D02*
X250700000Y-76300000D01*
X252524511Y-95624511D02*
X252300000Y-95400000D01*
X252200000Y-87900000D02*
X252300000Y-87800000D01*
X252200000Y-90200000D02*
X252200000Y-87900000D01*
X252000000Y-102400000D02*
X252524511Y-101875489D01*
X251200000Y-102400000D02*
X252000000Y-102400000D01*
X234220000Y-103020000D02*
X237400000Y-106200000D01*
X251700000Y-79600000D02*
X251700000Y-77300000D01*
X249900000Y-103700000D02*
X251200000Y-102400000D01*
X252524511Y-101875489D02*
X252524511Y-95624511D01*
%TO.N,key_14*%
X233390000Y-120020000D02*
X235920000Y-120020000D01*
X236700000Y-120800000D02*
X239400000Y-123500000D01*
X248900000Y-123500000D02*
X252400000Y-120000000D01*
X250100000Y-87900000D02*
X250400000Y-87600000D01*
X247500000Y-123500000D02*
X248900000Y-123500000D01*
X239400000Y-123500000D02*
X247500000Y-123500000D01*
X250100000Y-89500000D02*
X250100000Y-87900000D01*
X235920000Y-120020000D02*
X236700000Y-120800000D01*
X252400000Y-120000000D02*
X252400000Y-114000000D01*
%TO.N,key_15*%
X254249520Y-121821915D02*
X254249520Y-116100000D01*
X233700000Y-131900000D02*
X239150480Y-126449520D01*
X239150480Y-126449520D02*
X249621916Y-126449520D01*
X251235718Y-124835718D02*
X254249520Y-121821915D01*
X233175000Y-137020000D02*
X233700000Y-136495000D01*
X249621916Y-126449520D02*
X251235718Y-124835718D01*
X254249520Y-87375078D02*
X259112299Y-82512299D01*
X233700000Y-136495000D02*
X233700000Y-131900000D01*
X254249520Y-116100000D02*
X254249520Y-87375078D01*
%TO.N,key_16*%
X253800000Y-70800000D02*
X253800000Y-71500000D01*
X180775500Y-84800000D02*
X180775500Y-66200114D01*
X180775500Y-66200114D02*
X180399897Y-65824511D01*
X253200000Y-66800000D02*
X253200000Y-67800000D01*
X253800000Y-69200000D02*
X253800000Y-70800000D01*
X253400000Y-68800000D02*
X253800000Y-69200000D01*
X257500000Y-62500000D02*
X253200000Y-66800000D01*
X179900000Y-62400000D02*
X180200000Y-62100000D01*
X180399897Y-65824511D02*
X179900000Y-65324614D01*
X253200000Y-67800000D02*
X253200000Y-68600000D01*
X179900000Y-64800000D02*
X179900000Y-62400000D01*
X253800000Y-71500000D02*
X250800000Y-74500000D01*
X179900000Y-65324614D02*
X179900000Y-64800000D01*
X253200000Y-68600000D02*
X253400000Y-68800000D01*
%TO.N,key_17*%
X244800000Y-89400000D02*
X244800000Y-89299886D01*
X255699886Y-78400000D02*
X255800000Y-78400000D01*
X250600000Y-100400000D02*
X250000000Y-99800000D01*
X248100000Y-99300000D02*
X248100000Y-96700000D01*
X251800000Y-100400000D02*
X250600000Y-100400000D01*
X179485000Y-109420000D02*
X179485000Y-111385000D01*
X248100000Y-96700000D02*
X245000000Y-93600000D01*
X179485000Y-111385000D02*
X183300000Y-115200000D01*
X245000000Y-93600000D02*
X244800000Y-93400000D01*
X244800000Y-93400000D02*
X244800000Y-89400000D01*
X244800000Y-89299886D02*
X255699886Y-78400000D01*
%TO.N,key_18*%
X251390000Y-87310000D02*
X258800000Y-79900000D01*
X251390000Y-92420000D02*
X251390000Y-87310000D01*
%TO.N,key_19*%
X254300000Y-68300000D02*
X254200000Y-68200000D01*
X249057870Y-107152870D02*
X249057870Y-96430251D01*
X260700000Y-73400000D02*
X259000000Y-71700000D01*
X249057870Y-96430251D02*
X245865489Y-93237870D01*
X254300000Y-68400000D02*
X254300000Y-68300000D01*
X245865489Y-90734511D02*
X253700000Y-82900000D01*
X260700000Y-75900000D02*
X260700000Y-73400000D01*
X257200000Y-71700000D02*
X254300000Y-68800000D01*
X254300000Y-68800000D02*
X254300000Y-68400000D01*
X259000000Y-71700000D02*
X257200000Y-71700000D01*
X251325000Y-109420000D02*
X249057870Y-107152870D01*
X245865489Y-93237870D02*
X245865489Y-90734511D01*
X253700000Y-82900000D02*
X260700000Y-75900000D01*
%TO.N,key_20*%
X258100000Y-81700000D02*
X261200000Y-78600000D01*
X249300000Y-125500000D02*
X252500000Y-122300000D01*
X253200000Y-86600000D02*
X258100000Y-81700000D01*
X230199989Y-133900011D02*
X232500000Y-131600000D01*
X161769143Y-135927031D02*
X182072969Y-135927031D01*
X205800011Y-133900011D02*
X230199989Y-133900011D01*
X182072969Y-135927031D02*
X184000000Y-134000000D01*
X261200000Y-70800000D02*
X261200000Y-65400000D01*
X238600000Y-125500000D02*
X238900000Y-125500000D01*
X205275489Y-133424511D02*
X205300000Y-133400000D01*
X253200000Y-121600000D02*
X253200000Y-87400000D01*
X258600000Y-63600000D02*
X257487701Y-64712299D01*
X238900000Y-125500000D02*
X249300000Y-125500000D01*
X259400000Y-63600000D02*
X258600000Y-63600000D01*
X194500000Y-134000000D02*
X195075489Y-133424511D01*
X253200000Y-87400000D02*
X253200000Y-86600000D01*
X184000000Y-134000000D02*
X194500000Y-134000000D01*
X195075489Y-133424511D02*
X205275489Y-133424511D01*
X261200000Y-78600000D02*
X261200000Y-70800000D01*
X252500000Y-122300000D02*
X253200000Y-121600000D01*
X232500000Y-131600000D02*
X238600000Y-125500000D01*
X205300000Y-133400000D02*
X205800011Y-133900011D01*
X261200000Y-65400000D02*
X259400000Y-63600000D01*
D30*
%TO.N,4D-*%
X171100000Y-67600000D02*
X171100000Y-63100000D01*
X171100000Y-68800000D02*
X171100000Y-67600000D01*
X171100000Y-63100000D02*
X173600000Y-60600000D01*
X166800000Y-73100000D02*
X171100000Y-68800000D01*
X173600000Y-60600000D02*
X245400000Y-60600000D01*
X245400000Y-60600000D02*
X248700000Y-63900000D01*
%TO.N,4D+*%
X192800000Y-68300000D02*
X198100000Y-68300000D01*
X190500000Y-65500000D02*
X190500000Y-66000000D01*
X168100000Y-72800000D02*
X171900000Y-69000000D01*
X174000000Y-61200000D02*
X187300000Y-61200000D01*
X165200000Y-82600000D02*
X164600000Y-82600000D01*
X163100000Y-81400000D02*
X160800000Y-81400000D01*
X164300000Y-82600000D02*
X163100000Y-81400000D01*
X171900000Y-63400000D02*
X171900000Y-63300000D01*
X190500000Y-64400000D02*
X190500000Y-65500000D01*
X165900000Y-83300000D02*
X165200000Y-82600000D01*
X164500000Y-75100000D02*
X164700000Y-75100000D01*
X171900000Y-63300000D02*
X174000000Y-61200000D01*
X198100000Y-68300000D02*
X200400000Y-66000000D01*
X160600000Y-81100000D02*
X160600000Y-78300000D01*
X160800000Y-81400000D02*
X160600000Y-81200000D01*
X203800000Y-62600000D02*
X216300000Y-62600000D01*
X164600000Y-82600000D02*
X164300000Y-82600000D01*
X171900000Y-69000000D02*
X171900000Y-63400000D01*
X164700000Y-75100000D02*
X165200000Y-75600000D01*
X160600000Y-78300000D02*
X163800000Y-75100000D01*
X190500000Y-66000000D02*
X192800000Y-68300000D01*
X200400000Y-66000000D02*
X203800000Y-62600000D01*
X189700000Y-63600000D02*
X190500000Y-64400000D01*
X187300000Y-61200000D02*
X189700000Y-63600000D01*
X163800000Y-75100000D02*
X164500000Y-75100000D01*
X160600000Y-81200000D02*
X160600000Y-81100000D01*
%TD*%
%TA.AperFunction,NonConductor*%
G36*
X182662740Y-61828502D02*
G01*
X182709233Y-61882158D01*
X182720418Y-61927377D01*
X182899583Y-65092622D01*
X182899710Y-65094869D01*
X182899872Y-65105127D01*
X182888235Y-65570597D01*
X182875534Y-66078628D01*
X182853835Y-66146228D01*
X182799034Y-66191365D01*
X182728530Y-66199709D01*
X182660478Y-66164574D01*
X182251212Y-65755307D01*
X181647122Y-65151217D01*
X181613096Y-65088905D01*
X181610907Y-65075292D01*
X181594232Y-64916635D01*
X181594232Y-64916633D01*
X181593542Y-64910072D01*
X181534527Y-64728444D01*
X181530410Y-64721312D01*
X181472630Y-64621235D01*
X181439040Y-64563056D01*
X181420079Y-64541997D01*
X181315675Y-64426045D01*
X181315674Y-64426044D01*
X181311253Y-64421134D01*
X181156752Y-64308882D01*
X181150724Y-64306198D01*
X181150722Y-64306197D01*
X180988319Y-64233891D01*
X180988318Y-64233891D01*
X180982288Y-64231206D01*
X180888887Y-64211353D01*
X180801944Y-64192872D01*
X180801939Y-64192872D01*
X180795487Y-64191500D01*
X180659500Y-64191500D01*
X180591379Y-64171498D01*
X180544886Y-64117842D01*
X180533500Y-64065500D01*
X180533500Y-63027819D01*
X180553502Y-62959698D01*
X180608251Y-62912712D01*
X180650722Y-62893803D01*
X180650724Y-62893802D01*
X180656752Y-62891118D01*
X180811253Y-62778866D01*
X180830313Y-62757698D01*
X180934621Y-62641852D01*
X180934622Y-62641851D01*
X180939040Y-62636944D01*
X181034527Y-62471556D01*
X181093542Y-62289928D01*
X181113504Y-62100000D01*
X181107616Y-62043980D01*
X181097494Y-61947670D01*
X181110266Y-61877832D01*
X181158768Y-61825985D01*
X181222804Y-61808500D01*
X182594619Y-61808500D01*
X182662740Y-61828502D01*
G37*
%TD.AperFunction*%
%TA.AperFunction,NonConductor*%
G36*
X171553527Y-76553502D02*
G01*
X171574501Y-76570405D01*
X173605397Y-78601302D01*
X173639423Y-78663614D01*
X173641612Y-78703566D01*
X173636760Y-78749736D01*
X173637450Y-78756301D01*
X173649656Y-78872438D01*
X173636884Y-78942276D01*
X173588382Y-78994123D01*
X173519549Y-79011517D01*
X173452239Y-78988935D01*
X173435255Y-78974706D01*
X171209144Y-76748595D01*
X171175118Y-76686283D01*
X171180183Y-76615467D01*
X171222730Y-76558632D01*
X171289250Y-76533821D01*
X171298239Y-76533500D01*
X171485406Y-76533500D01*
X171553527Y-76553502D01*
G37*
%TD.AperFunction*%
%TA.AperFunction,NonConductor*%
G36*
X169963393Y-77228013D02*
G01*
X169984367Y-77244916D01*
X172257714Y-79518263D01*
X172291740Y-79580575D01*
X172286675Y-79651390D01*
X172242680Y-79709294D01*
X172184229Y-79751762D01*
X172088747Y-79821134D01*
X171960960Y-79963056D01*
X171865473Y-80128444D01*
X171861208Y-80141572D01*
X171821138Y-80200175D01*
X171755743Y-80227814D01*
X171685785Y-80215710D01*
X171652280Y-80191731D01*
X168883655Y-77423106D01*
X168849629Y-77360794D01*
X168854694Y-77289979D01*
X168897241Y-77233143D01*
X168963761Y-77208332D01*
X168972750Y-77208011D01*
X169895272Y-77208011D01*
X169963393Y-77228013D01*
G37*
%TD.AperFunction*%
%TA.AperFunction,NonConductor*%
G36*
X181617512Y-66913870D02*
G01*
X181624095Y-66919999D01*
X182119595Y-67415499D01*
X182153621Y-67477811D01*
X182156500Y-67504594D01*
X182156500Y-69210400D01*
X182167474Y-69316166D01*
X182169655Y-69322702D01*
X182169655Y-69322704D01*
X182204597Y-69427437D01*
X182223450Y-69483946D01*
X182316522Y-69634348D01*
X182441697Y-69759305D01*
X182592262Y-69852115D01*
X182691016Y-69884870D01*
X182749376Y-69925300D01*
X182776613Y-69990865D01*
X182777310Y-70007607D01*
X182613534Y-76558632D01*
X182493461Y-81361555D01*
X182471762Y-81429155D01*
X182456603Y-81447492D01*
X181624093Y-82280002D01*
X181561783Y-82314026D01*
X181490967Y-82308961D01*
X181434132Y-82266414D01*
X181409321Y-82199894D01*
X181409000Y-82190905D01*
X181409000Y-67009094D01*
X181429002Y-66940973D01*
X181482658Y-66894480D01*
X181552932Y-66884376D01*
X181617512Y-66913870D01*
G37*
%TD.AperFunction*%
%TA.AperFunction,NonConductor*%
G36*
X179245317Y-61828502D02*
G01*
X179291810Y-61882158D01*
X179302506Y-61947670D01*
X179292384Y-62043980D01*
X179286496Y-62100000D01*
X179293375Y-62165443D01*
X179293678Y-62168328D01*
X179289440Y-62215797D01*
X179286819Y-62221855D01*
X179285580Y-62229679D01*
X179285578Y-62229685D01*
X179279901Y-62265524D01*
X179277495Y-62277144D01*
X179266500Y-62319970D01*
X179266500Y-62340224D01*
X179264949Y-62359934D01*
X179261780Y-62379943D01*
X179262526Y-62387835D01*
X179265941Y-62423961D01*
X179266500Y-62435819D01*
X179266500Y-65245847D01*
X179265973Y-65257030D01*
X179264298Y-65264523D01*
X179264547Y-65272449D01*
X179264547Y-65272450D01*
X179266438Y-65332600D01*
X179266500Y-65336559D01*
X179266500Y-65364470D01*
X179266997Y-65368404D01*
X179266997Y-65368405D01*
X179267005Y-65368470D01*
X179267938Y-65380307D01*
X179269327Y-65424503D01*
X179274978Y-65443953D01*
X179278987Y-65463314D01*
X179281526Y-65483411D01*
X179284445Y-65490782D01*
X179284445Y-65490784D01*
X179297804Y-65524526D01*
X179301649Y-65535756D01*
X179311771Y-65570597D01*
X179313982Y-65578207D01*
X179318015Y-65585026D01*
X179318017Y-65585031D01*
X179324293Y-65595642D01*
X179332988Y-65613390D01*
X179340448Y-65632231D01*
X179345110Y-65638647D01*
X179345110Y-65638648D01*
X179366436Y-65668001D01*
X179372952Y-65677921D01*
X179387444Y-65702425D01*
X179395458Y-65715976D01*
X179409779Y-65730297D01*
X179422619Y-65745330D01*
X179434528Y-65761721D01*
X179466413Y-65788098D01*
X179468593Y-65789902D01*
X179477374Y-65797892D01*
X179980127Y-66300646D01*
X179980130Y-66300648D01*
X179980135Y-66300653D01*
X180105096Y-66425615D01*
X180139121Y-66487927D01*
X180142000Y-66514710D01*
X180142000Y-83041904D01*
X180121998Y-83110025D01*
X180068342Y-83156518D01*
X179998068Y-83166622D01*
X179933488Y-83137128D01*
X179926905Y-83130999D01*
X179819785Y-83023879D01*
X179819756Y-83023852D01*
X175485703Y-78689799D01*
X175451677Y-78627487D01*
X175449488Y-78613873D01*
X175444496Y-78566372D01*
X175444496Y-78566371D01*
X175443806Y-78559808D01*
X175384791Y-78378180D01*
X175362679Y-78339880D01*
X175292605Y-78218510D01*
X175289304Y-78212792D01*
X175224797Y-78141149D01*
X175165939Y-78075781D01*
X175165938Y-78075780D01*
X175161517Y-78070870D01*
X175007016Y-77958618D01*
X175000988Y-77955934D01*
X175000986Y-77955933D01*
X174838583Y-77883627D01*
X174838582Y-77883627D01*
X174832552Y-77880942D01*
X174732140Y-77859599D01*
X174671322Y-77846671D01*
X174608424Y-77812519D01*
X172303652Y-75507747D01*
X172296112Y-75499461D01*
X172292000Y-75492982D01*
X172242348Y-75446356D01*
X172239507Y-75443602D01*
X172219770Y-75423865D01*
X172216573Y-75421385D01*
X172207551Y-75413680D01*
X172181100Y-75388841D01*
X172175321Y-75383414D01*
X172168375Y-75379595D01*
X172168372Y-75379593D01*
X172157566Y-75373652D01*
X172141047Y-75362801D01*
X172135048Y-75358148D01*
X172125041Y-75350386D01*
X172117772Y-75347241D01*
X172117768Y-75347238D01*
X172084463Y-75332826D01*
X172073813Y-75327609D01*
X172035060Y-75306305D01*
X172015437Y-75301267D01*
X171996734Y-75294863D01*
X171985420Y-75289967D01*
X171985419Y-75289967D01*
X171978145Y-75286819D01*
X171970322Y-75285580D01*
X171970312Y-75285577D01*
X171934476Y-75279901D01*
X171922856Y-75277495D01*
X171887711Y-75268472D01*
X171887710Y-75268472D01*
X171880030Y-75266500D01*
X171859776Y-75266500D01*
X171840065Y-75264949D01*
X171827886Y-75263020D01*
X171820057Y-75261780D01*
X171812165Y-75262526D01*
X171776039Y-75265941D01*
X171764181Y-75266500D01*
X170108200Y-75266500D01*
X170040079Y-75246498D01*
X170020853Y-75230157D01*
X170020580Y-75230460D01*
X170015668Y-75226037D01*
X170011253Y-75221134D01*
X169962920Y-75186018D01*
X169862094Y-75112763D01*
X169862093Y-75112762D01*
X169856752Y-75108882D01*
X169850724Y-75106198D01*
X169850722Y-75106197D01*
X169688319Y-75033891D01*
X169688318Y-75033891D01*
X169682288Y-75031206D01*
X169588888Y-75011353D01*
X169501944Y-74992872D01*
X169501939Y-74992872D01*
X169495487Y-74991500D01*
X169304513Y-74991500D01*
X169298061Y-74992872D01*
X169298056Y-74992872D01*
X169211112Y-75011353D01*
X169117712Y-75031206D01*
X169111682Y-75033891D01*
X169111681Y-75033891D01*
X168949278Y-75106197D01*
X168949276Y-75106198D01*
X168943248Y-75108882D01*
X168788747Y-75221134D01*
X168784326Y-75226044D01*
X168784325Y-75226045D01*
X168675203Y-75347238D01*
X168660960Y-75363056D01*
X168656186Y-75371325D01*
X168654947Y-75372507D01*
X168653776Y-75374118D01*
X168653481Y-75373904D01*
X168604805Y-75420319D01*
X168535092Y-75433757D01*
X168469180Y-75407372D01*
X168457971Y-75397422D01*
X167175289Y-74114740D01*
X167141263Y-74052428D01*
X167146328Y-73981613D01*
X167188875Y-73924777D01*
X167213134Y-73910539D01*
X167250717Y-73893806D01*
X167250725Y-73893801D01*
X167256752Y-73891118D01*
X167411253Y-73778866D01*
X167537059Y-73639144D01*
X167597505Y-73601904D01*
X167668488Y-73603256D01*
X167681943Y-73608347D01*
X167811677Y-73666108D01*
X167811685Y-73666111D01*
X167817712Y-73668794D01*
X167911112Y-73688647D01*
X167998056Y-73707128D01*
X167998061Y-73707128D01*
X168004513Y-73708500D01*
X168195487Y-73708500D01*
X168201939Y-73707128D01*
X168201944Y-73707128D01*
X168288888Y-73688647D01*
X168382288Y-73668794D01*
X168388321Y-73666108D01*
X168550722Y-73593803D01*
X168550724Y-73593802D01*
X168556752Y-73591118D01*
X168711253Y-73478866D01*
X168715675Y-73473955D01*
X168834621Y-73341852D01*
X168834622Y-73341851D01*
X168839040Y-73336944D01*
X168897314Y-73236010D01*
X168931223Y-73177279D01*
X168931224Y-73177278D01*
X168934527Y-73171556D01*
X168993542Y-72989928D01*
X168994600Y-72979867D01*
X169012814Y-72806565D01*
X169013504Y-72800000D01*
X169013316Y-72798214D01*
X169032816Y-72731804D01*
X169049719Y-72710830D01*
X172296234Y-69464315D01*
X172308625Y-69453448D01*
X172327437Y-69439013D01*
X172333987Y-69433987D01*
X172358474Y-69402075D01*
X172358478Y-69402071D01*
X172431524Y-69306876D01*
X172492838Y-69158851D01*
X172513751Y-69000000D01*
X172509578Y-68968301D01*
X172508500Y-68951856D01*
X172508500Y-63604239D01*
X172528502Y-63536118D01*
X172545405Y-63515144D01*
X174215144Y-61845405D01*
X174277456Y-61811379D01*
X174304239Y-61808500D01*
X179177196Y-61808500D01*
X179245317Y-61828502D01*
G37*
%TD.AperFunction*%
%TA.AperFunction,NonConductor*%
G36*
X160411203Y-81868664D02*
G01*
X160493124Y-81931524D01*
X160641149Y-81992838D01*
X160800000Y-82013751D01*
X160831699Y-82009578D01*
X160848144Y-82008500D01*
X162795761Y-82008500D01*
X162863882Y-82028502D01*
X162884856Y-82045405D01*
X162964581Y-82125130D01*
X162998607Y-82187442D01*
X162993542Y-82258257D01*
X162950995Y-82315093D01*
X162884475Y-82339904D01*
X162867245Y-82339955D01*
X162818254Y-82336744D01*
X162814470Y-82336496D01*
X162810690Y-82336704D01*
X162810689Y-82336704D01*
X162712918Y-82342085D01*
X162482366Y-82354773D01*
X162478639Y-82355434D01*
X162478635Y-82355434D01*
X162275134Y-82391500D01*
X162154864Y-82412815D01*
X162151239Y-82413920D01*
X162151234Y-82413921D01*
X161946223Y-82476404D01*
X161836707Y-82509782D01*
X161833243Y-82511313D01*
X161833236Y-82511316D01*
X161741408Y-82551913D01*
X161532503Y-82644269D01*
X161529249Y-82646205D01*
X161529243Y-82646208D01*
X161323205Y-82768788D01*
X161246659Y-82814328D01*
X161243658Y-82816643D01*
X161243654Y-82816646D01*
X161165063Y-82877279D01*
X160983316Y-83017496D01*
X160943599Y-83056594D01*
X160806945Y-83191118D01*
X160746288Y-83250829D01*
X160635211Y-83390222D01*
X160557856Y-83487298D01*
X160539009Y-83510949D01*
X160537018Y-83514179D01*
X160441760Y-83668716D01*
X160388988Y-83716209D01*
X160318916Y-83727633D01*
X160253792Y-83699359D01*
X160214293Y-83640365D01*
X160208500Y-83602600D01*
X160208500Y-81968626D01*
X160228502Y-81900505D01*
X160282158Y-81854012D01*
X160352432Y-81843908D01*
X160411203Y-81868664D01*
G37*
%TD.AperFunction*%
%TA.AperFunction,NonConductor*%
G36*
X174444159Y-79655980D02*
G01*
X174448313Y-79656863D01*
X174448322Y-79656864D01*
X174454777Y-79658236D01*
X174610142Y-79658236D01*
X174678263Y-79678238D01*
X174699237Y-79695141D01*
X178815000Y-83810905D01*
X178849026Y-83873217D01*
X178843961Y-83944033D01*
X178815000Y-83989095D01*
X178630496Y-84173599D01*
X178568184Y-84207625D01*
X178497369Y-84202560D01*
X178440533Y-84160013D01*
X178417568Y-84101436D01*
X178417190Y-84101516D01*
X178416705Y-84099234D01*
X178416091Y-84097668D01*
X178415928Y-84096119D01*
X178415126Y-84088488D01*
X178356111Y-83906860D01*
X178352151Y-83900000D01*
X178312444Y-83831226D01*
X178260624Y-83741472D01*
X178232352Y-83710072D01*
X178137259Y-83604461D01*
X178137258Y-83604460D01*
X178132837Y-83599550D01*
X177978336Y-83487298D01*
X177972307Y-83484614D01*
X177972304Y-83484612D01*
X177944710Y-83472327D01*
X177906863Y-83446315D01*
X174328869Y-79868321D01*
X174294844Y-79806010D01*
X174299909Y-79735195D01*
X174342456Y-79678359D01*
X174408976Y-79653548D01*
X174444159Y-79655980D01*
G37*
%TD.AperFunction*%
%TA.AperFunction,NonConductor*%
G36*
X175109827Y-82373133D02*
G01*
X175126819Y-82387368D01*
X176622467Y-83883015D01*
X176656492Y-83945327D01*
X176653205Y-84011045D01*
X176647037Y-84030029D01*
X176630083Y-84082205D01*
X176630082Y-84082209D01*
X176628042Y-84088488D01*
X176623825Y-84128612D01*
X176620417Y-84161039D01*
X176593404Y-84226696D01*
X176546355Y-84262976D01*
X176449281Y-84306195D01*
X176449274Y-84306199D01*
X176443248Y-84308882D01*
X176437907Y-84312762D01*
X176437906Y-84312763D01*
X176329533Y-84391501D01*
X176288747Y-84421134D01*
X176284334Y-84426036D01*
X176284332Y-84426037D01*
X176262926Y-84449811D01*
X176202480Y-84487050D01*
X176169290Y-84491500D01*
X175913174Y-84491500D01*
X175845053Y-84471498D01*
X175824079Y-84454595D01*
X174665998Y-83296514D01*
X174631972Y-83234202D01*
X174637037Y-83163387D01*
X174661457Y-83123109D01*
X174734621Y-83041852D01*
X174734622Y-83041851D01*
X174739040Y-83036944D01*
X174834527Y-82871556D01*
X174893542Y-82689928D01*
X174899193Y-82636167D01*
X174912814Y-82506565D01*
X174913504Y-82500000D01*
X174912415Y-82489638D01*
X174912814Y-82487456D01*
X174912814Y-82486830D01*
X174912928Y-82486830D01*
X174925184Y-82419799D01*
X174973684Y-82367951D01*
X175042516Y-82350554D01*
X175109827Y-82373133D01*
G37*
%TD.AperFunction*%
%TA.AperFunction,NonConductor*%
G36*
X164256577Y-75728502D02*
G01*
X164303070Y-75782158D01*
X164308289Y-75795562D01*
X164365473Y-75971556D01*
X164460960Y-76136944D01*
X164465378Y-76141851D01*
X164465379Y-76141852D01*
X164547173Y-76232693D01*
X164588747Y-76278866D01*
X164743248Y-76391118D01*
X164749276Y-76393802D01*
X164749278Y-76393803D01*
X164850216Y-76438743D01*
X164917712Y-76468794D01*
X165011112Y-76488647D01*
X165098056Y-76507128D01*
X165098061Y-76507128D01*
X165104513Y-76508500D01*
X165295487Y-76508500D01*
X165301939Y-76507128D01*
X165301944Y-76507128D01*
X165388888Y-76488647D01*
X165482288Y-76468794D01*
X165549784Y-76438743D01*
X165650722Y-76393803D01*
X165650724Y-76393802D01*
X165656752Y-76391118D01*
X165811253Y-76278866D01*
X165820518Y-76268577D01*
X165880964Y-76231339D01*
X165951947Y-76232693D01*
X166003246Y-76263795D01*
X169144694Y-79405243D01*
X169178720Y-79467555D01*
X169173655Y-79538370D01*
X169131108Y-79595206D01*
X169081796Y-79617584D01*
X169051356Y-79624055D01*
X169024170Y-79629833D01*
X169024167Y-79629834D01*
X169017712Y-79631206D01*
X169011682Y-79633891D01*
X169011681Y-79633891D01*
X168849278Y-79706197D01*
X168849276Y-79706198D01*
X168843248Y-79708882D01*
X168688747Y-79821134D01*
X168560960Y-79963056D01*
X168465473Y-80128444D01*
X168406458Y-80310072D01*
X168405768Y-80316633D01*
X168405768Y-80316635D01*
X168394075Y-80427890D01*
X168386496Y-80500000D01*
X168387186Y-80506565D01*
X168403891Y-80665500D01*
X168406458Y-80689928D01*
X168465473Y-80871556D01*
X168560960Y-81036944D01*
X168565378Y-81041851D01*
X168565379Y-81041852D01*
X168668219Y-81156067D01*
X168688747Y-81178866D01*
X168843248Y-81291118D01*
X168849276Y-81293802D01*
X168849278Y-81293803D01*
X169011681Y-81366109D01*
X169017712Y-81368794D01*
X169111113Y-81388647D01*
X169198056Y-81407128D01*
X169198061Y-81407128D01*
X169204513Y-81408500D01*
X169260405Y-81408500D01*
X169328526Y-81428502D01*
X169349501Y-81445405D01*
X170252879Y-82348784D01*
X170286904Y-82411096D01*
X170289093Y-82424709D01*
X170303891Y-82565500D01*
X170306458Y-82589928D01*
X170365473Y-82771556D01*
X170460960Y-82936944D01*
X170465378Y-82941851D01*
X170465379Y-82941852D01*
X170545852Y-83031226D01*
X170588747Y-83078866D01*
X170687843Y-83150864D01*
X170726385Y-83178866D01*
X170743248Y-83191118D01*
X170749276Y-83193802D01*
X170749278Y-83193803D01*
X170884037Y-83253801D01*
X170917712Y-83268794D01*
X171011113Y-83288647D01*
X171098056Y-83307128D01*
X171098061Y-83307128D01*
X171104513Y-83308500D01*
X171160406Y-83308500D01*
X171228527Y-83328502D01*
X171249501Y-83345405D01*
X171705345Y-83801249D01*
X171712889Y-83809539D01*
X171717002Y-83816020D01*
X171722779Y-83821445D01*
X171766669Y-83862660D01*
X171769511Y-83865415D01*
X171789232Y-83885136D01*
X171792427Y-83887614D01*
X171801449Y-83895320D01*
X171833681Y-83925588D01*
X171840630Y-83929408D01*
X171851434Y-83935348D01*
X171867958Y-83946201D01*
X171883961Y-83958615D01*
X171924545Y-83976178D01*
X171935175Y-83981385D01*
X171973942Y-84002697D01*
X171981619Y-84004668D01*
X171981624Y-84004670D01*
X171993560Y-84007734D01*
X172012268Y-84014139D01*
X172030857Y-84022183D01*
X172038685Y-84023423D01*
X172038692Y-84023425D01*
X172074526Y-84029101D01*
X172086146Y-84031507D01*
X172121291Y-84040530D01*
X172128972Y-84042502D01*
X172149226Y-84042502D01*
X172168936Y-84044053D01*
X172188945Y-84047222D01*
X172196838Y-84046476D01*
X172196840Y-84046476D01*
X172210533Y-84045182D01*
X172280233Y-84058686D01*
X172307220Y-84079517D01*
X172308098Y-84078542D01*
X172313010Y-84082965D01*
X172317425Y-84087868D01*
X172333069Y-84099234D01*
X172458208Y-84190153D01*
X172471926Y-84200120D01*
X172477954Y-84202804D01*
X172477956Y-84202805D01*
X172640359Y-84275111D01*
X172646390Y-84277796D01*
X172731736Y-84295937D01*
X172826734Y-84316130D01*
X172826739Y-84316130D01*
X172833191Y-84317502D01*
X173024165Y-84317502D01*
X173030617Y-84316130D01*
X173030622Y-84316130D01*
X173125620Y-84295937D01*
X173210966Y-84277796D01*
X173216997Y-84275111D01*
X173379400Y-84202805D01*
X173379402Y-84202804D01*
X173385430Y-84200120D01*
X173399149Y-84190153D01*
X173483852Y-84128612D01*
X173539931Y-84087868D01*
X173544353Y-84082956D01*
X173549255Y-84078543D01*
X173550132Y-84079518D01*
X173604557Y-84045992D01*
X173675541Y-84047348D01*
X173726835Y-84078449D01*
X175144620Y-85496234D01*
X175155487Y-85508625D01*
X175174948Y-85533987D01*
X175181498Y-85539013D01*
X175206856Y-85558471D01*
X175206872Y-85558485D01*
X175219716Y-85568340D01*
X175302059Y-85631524D01*
X175450084Y-85692838D01*
X175458272Y-85693916D01*
X175529510Y-85703295D01*
X175608935Y-85713751D01*
X175640634Y-85709578D01*
X175657079Y-85708500D01*
X175958075Y-85708500D01*
X176026196Y-85728502D01*
X176072689Y-85782158D01*
X176082793Y-85852432D01*
X176053299Y-85917012D01*
X176009323Y-85949607D01*
X176003098Y-85952378D01*
X176003091Y-85952382D01*
X175997065Y-85955065D01*
X175991724Y-85958945D01*
X175991723Y-85958946D01*
X175977292Y-85969431D01*
X175842564Y-86067317D01*
X175838143Y-86072227D01*
X175838142Y-86072228D01*
X175789907Y-86125799D01*
X175714777Y-86209239D01*
X175711476Y-86214957D01*
X175627666Y-86360120D01*
X175619290Y-86374627D01*
X175560275Y-86556255D01*
X175540313Y-86746183D01*
X175541003Y-86752748D01*
X175558042Y-86914861D01*
X175560275Y-86936111D01*
X175619290Y-87117739D01*
X175714777Y-87283127D01*
X175719195Y-87288034D01*
X175719196Y-87288035D01*
X175804175Y-87382414D01*
X175842564Y-87425049D01*
X175997065Y-87537301D01*
X176003093Y-87539985D01*
X176003095Y-87539986D01*
X176165498Y-87612292D01*
X176171529Y-87614977D01*
X176264929Y-87634830D01*
X176351873Y-87653311D01*
X176351878Y-87653311D01*
X176358330Y-87654683D01*
X176549304Y-87654683D01*
X176555756Y-87653311D01*
X176555761Y-87653311D01*
X176642705Y-87634830D01*
X176736105Y-87614977D01*
X176742136Y-87612292D01*
X176904539Y-87539986D01*
X176904541Y-87539985D01*
X176910569Y-87537301D01*
X177065070Y-87425049D01*
X177103459Y-87382414D01*
X177150715Y-87349572D01*
X177153731Y-87348378D01*
X177164959Y-87344534D01*
X177174201Y-87341849D01*
X177207410Y-87332201D01*
X177214229Y-87328168D01*
X177214234Y-87328166D01*
X177224845Y-87321890D01*
X177242593Y-87313195D01*
X177261434Y-87305735D01*
X177297204Y-87279747D01*
X177307124Y-87273231D01*
X177338352Y-87254763D01*
X177338355Y-87254761D01*
X177345179Y-87250725D01*
X177359500Y-87236404D01*
X177374534Y-87223563D01*
X177384511Y-87216314D01*
X177390924Y-87211655D01*
X177419115Y-87177578D01*
X177427105Y-87168799D01*
X179670068Y-84925836D01*
X179732380Y-84891810D01*
X179803195Y-84896875D01*
X179860031Y-84939422D01*
X179881658Y-84987076D01*
X179881958Y-84989928D01*
X179883999Y-84996209D01*
X179883999Y-84996210D01*
X179895878Y-85032768D01*
X179940973Y-85171556D01*
X179944276Y-85177278D01*
X179944277Y-85177279D01*
X179959164Y-85203064D01*
X180036460Y-85336944D01*
X180040878Y-85341851D01*
X180040879Y-85341852D01*
X180140354Y-85452330D01*
X180164247Y-85478866D01*
X180231099Y-85527437D01*
X180287396Y-85568339D01*
X180318748Y-85591118D01*
X180324776Y-85593802D01*
X180324778Y-85593803D01*
X180416599Y-85634684D01*
X180493212Y-85668794D01*
X180586612Y-85688647D01*
X180673556Y-85707128D01*
X180673561Y-85707128D01*
X180680013Y-85708500D01*
X180740500Y-85708500D01*
X180808621Y-85728502D01*
X180855114Y-85782158D01*
X180866500Y-85834500D01*
X180866500Y-87585405D01*
X180846498Y-87653526D01*
X180829595Y-87674500D01*
X179774500Y-88729595D01*
X179712188Y-88763621D01*
X179685405Y-88766500D01*
X175878767Y-88766500D01*
X175867584Y-88765973D01*
X175860091Y-88764298D01*
X175852165Y-88764547D01*
X175852164Y-88764547D01*
X175792014Y-88766438D01*
X175788055Y-88766500D01*
X175760144Y-88766500D01*
X175756210Y-88766997D01*
X175756209Y-88766997D01*
X175756144Y-88767005D01*
X175744307Y-88767938D01*
X175712049Y-88768952D01*
X175708030Y-88769078D01*
X175700111Y-88769327D01*
X175680657Y-88774979D01*
X175661300Y-88778987D01*
X175649070Y-88780532D01*
X175649069Y-88780532D01*
X175641203Y-88781526D01*
X175633832Y-88784445D01*
X175633830Y-88784445D01*
X175600088Y-88797804D01*
X175588858Y-88801649D01*
X175554017Y-88811771D01*
X175554016Y-88811771D01*
X175546407Y-88813982D01*
X175539588Y-88818015D01*
X175539583Y-88818017D01*
X175528972Y-88824293D01*
X175511224Y-88832988D01*
X175492383Y-88840448D01*
X175485967Y-88845110D01*
X175485966Y-88845110D01*
X175456613Y-88866436D01*
X175446693Y-88872952D01*
X175415465Y-88891420D01*
X175415462Y-88891422D01*
X175408638Y-88895458D01*
X175394317Y-88909779D01*
X175379284Y-88922619D01*
X175362893Y-88934528D01*
X175357842Y-88940634D01*
X175334702Y-88968605D01*
X175326712Y-88977384D01*
X174998332Y-89305764D01*
X174936020Y-89339790D01*
X174875730Y-89338132D01*
X173369497Y-88922620D01*
X172200000Y-88600000D01*
X167900000Y-92200000D01*
X167896359Y-92204384D01*
X167896358Y-92204385D01*
X167106032Y-93156002D01*
X167047123Y-93195627D01*
X167009102Y-93201500D01*
X164864600Y-93201500D01*
X164861354Y-93201837D01*
X164861350Y-93201837D01*
X164765692Y-93211762D01*
X164765688Y-93211763D01*
X164758834Y-93212474D01*
X164752298Y-93214655D01*
X164752296Y-93214655D01*
X164661543Y-93244933D01*
X164591054Y-93268450D01*
X164440652Y-93361522D01*
X164315695Y-93486697D01*
X164311855Y-93492927D01*
X164311854Y-93492928D01*
X164246817Y-93598438D01*
X164222885Y-93637262D01*
X164220581Y-93644209D01*
X164180888Y-93763881D01*
X164167203Y-93805139D01*
X164156500Y-93909600D01*
X164156500Y-96010400D01*
X164167474Y-96116166D01*
X164223450Y-96283946D01*
X164297144Y-96403033D01*
X164297354Y-96403373D01*
X164316192Y-96471825D01*
X164295031Y-96539595D01*
X164287140Y-96550178D01*
X163662025Y-97302868D01*
X163000000Y-98100000D01*
X163000053Y-98112757D01*
X163002391Y-98673988D01*
X162982673Y-98742192D01*
X162965487Y-98763608D01*
X159399500Y-102329595D01*
X159337188Y-102363621D01*
X159310405Y-102366500D01*
X159309394Y-102366500D01*
X159241273Y-102346498D01*
X159206181Y-102312771D01*
X159099357Y-102160211D01*
X159099355Y-102160208D01*
X159096198Y-102155700D01*
X158934300Y-101993802D01*
X158929792Y-101990645D01*
X158929789Y-101990643D01*
X158767654Y-101877115D01*
X158746749Y-101862477D01*
X158741767Y-101860154D01*
X158739973Y-101859118D01*
X158690981Y-101807734D01*
X158677546Y-101738021D01*
X158703934Y-101672110D01*
X158739973Y-101640882D01*
X158741767Y-101639846D01*
X158746749Y-101637523D01*
X158863833Y-101555540D01*
X158929789Y-101509357D01*
X158929792Y-101509355D01*
X158934300Y-101506198D01*
X159096198Y-101344300D01*
X159227523Y-101156749D01*
X159229846Y-101151767D01*
X159229849Y-101151762D01*
X159321961Y-100954225D01*
X159321961Y-100954224D01*
X159324284Y-100949243D01*
X159383543Y-100728087D01*
X159403498Y-100500000D01*
X159383543Y-100271913D01*
X159324284Y-100050757D01*
X159321961Y-100045775D01*
X159229849Y-99848238D01*
X159229846Y-99848233D01*
X159227523Y-99843251D01*
X159096198Y-99655700D01*
X159029593Y-99589095D01*
X158995567Y-99526783D01*
X159000632Y-99455968D01*
X159029593Y-99410905D01*
X159096198Y-99344300D01*
X159227523Y-99156749D01*
X159229846Y-99151767D01*
X159229849Y-99151762D01*
X159321961Y-98954225D01*
X159321961Y-98954224D01*
X159324284Y-98949243D01*
X159353406Y-98840561D01*
X159382119Y-98733402D01*
X159382119Y-98733400D01*
X159383543Y-98728087D01*
X159403498Y-98500000D01*
X159383543Y-98271913D01*
X159337479Y-98100000D01*
X159325707Y-98056067D01*
X159325706Y-98056065D01*
X159324284Y-98050757D01*
X159321961Y-98045775D01*
X159229849Y-97848238D01*
X159229846Y-97848233D01*
X159227523Y-97843251D01*
X159096198Y-97655700D01*
X158950498Y-97510000D01*
X158916472Y-97447688D01*
X158921537Y-97376873D01*
X158964084Y-97320037D01*
X159000737Y-97302868D01*
X159000316Y-97301745D01*
X159128297Y-97253767D01*
X159136705Y-97250615D01*
X159253261Y-97163261D01*
X159340615Y-97046705D01*
X159391745Y-96910316D01*
X159398500Y-96848134D01*
X159398500Y-95151866D01*
X159391745Y-95089684D01*
X159340615Y-94953295D01*
X159253261Y-94836739D01*
X159136705Y-94749385D01*
X159000316Y-94698255D01*
X158938134Y-94691500D01*
X157241866Y-94691500D01*
X157238469Y-94691869D01*
X157187542Y-94697401D01*
X157187539Y-94697402D01*
X157179684Y-94698255D01*
X157172283Y-94701029D01*
X157171650Y-94701180D01*
X157100750Y-94697478D01*
X157048867Y-94662908D01*
X157015668Y-94626037D01*
X157015666Y-94626036D01*
X157011253Y-94621134D01*
X156861356Y-94512227D01*
X156861354Y-94512225D01*
X156856752Y-94508882D01*
X156857363Y-94508041D01*
X156812594Y-94461090D01*
X156799156Y-94391376D01*
X156825542Y-94325465D01*
X156834102Y-94315666D01*
X156914686Y-94232509D01*
X156917669Y-94229431D01*
X156920202Y-94225983D01*
X156920206Y-94225978D01*
X157077257Y-94012178D01*
X157079795Y-94008723D01*
X157107154Y-93958334D01*
X157208418Y-93771830D01*
X157208419Y-93771828D01*
X157210468Y-93768054D01*
X157274560Y-93598438D01*
X157305751Y-93515895D01*
X157305752Y-93515891D01*
X157307269Y-93511877D01*
X157368407Y-93244933D01*
X157371110Y-93214655D01*
X157392531Y-92974627D01*
X157392531Y-92974625D01*
X157392751Y-92972161D01*
X157393193Y-92930000D01*
X157381768Y-92762404D01*
X157374859Y-92661055D01*
X157374858Y-92661049D01*
X157374567Y-92656778D01*
X157319032Y-92388612D01*
X157227617Y-92130465D01*
X157102013Y-91887112D01*
X157092040Y-91872921D01*
X156947008Y-91666562D01*
X156944545Y-91663057D01*
X156758125Y-91462445D01*
X156754810Y-91459731D01*
X156754806Y-91459728D01*
X156549523Y-91291706D01*
X156546205Y-91288990D01*
X156312704Y-91145901D01*
X156199150Y-91096054D01*
X156065873Y-91037549D01*
X156065869Y-91037548D01*
X156061945Y-91035825D01*
X155937995Y-91000517D01*
X155804981Y-90962627D01*
X155744946Y-90924728D01*
X155714932Y-90860388D01*
X155713500Y-90841448D01*
X155713500Y-86776599D01*
X155733502Y-86708478D01*
X155787158Y-86661985D01*
X155824363Y-86651512D01*
X155852971Y-86648050D01*
X155857235Y-86647534D01*
X156122127Y-86578041D01*
X156126087Y-86576401D01*
X156126092Y-86576399D01*
X156248632Y-86525641D01*
X156375136Y-86473241D01*
X156533138Y-86380912D01*
X156607879Y-86337237D01*
X156607880Y-86337236D01*
X156611582Y-86335073D01*
X156827089Y-86166094D01*
X156868809Y-86123043D01*
X157014686Y-85972509D01*
X157017669Y-85969431D01*
X157020202Y-85965983D01*
X157020206Y-85965978D01*
X157177257Y-85752178D01*
X157179795Y-85748723D01*
X157201049Y-85709578D01*
X157308418Y-85511830D01*
X157308419Y-85511828D01*
X157310468Y-85508054D01*
X157358869Y-85379965D01*
X157405751Y-85255895D01*
X157405752Y-85255891D01*
X157407269Y-85251877D01*
X157456141Y-85038491D01*
X157467449Y-84989117D01*
X157467450Y-84989113D01*
X157468407Y-84984933D01*
X157473682Y-84925836D01*
X157492531Y-84714627D01*
X157492531Y-84714625D01*
X157492751Y-84712161D01*
X157493193Y-84670000D01*
X157492594Y-84661212D01*
X157474859Y-84401055D01*
X157474858Y-84401049D01*
X157474567Y-84396778D01*
X157457866Y-84316130D01*
X157419901Y-84132809D01*
X157419032Y-84128612D01*
X157327617Y-83870465D01*
X157261039Y-83741472D01*
X157203976Y-83630915D01*
X157203975Y-83630914D01*
X157202013Y-83627112D01*
X157199551Y-83623610D01*
X157198960Y-83622633D01*
X157180780Y-83554004D01*
X157202590Y-83486440D01*
X157217639Y-83468266D01*
X157776752Y-82909152D01*
X157839065Y-82875127D01*
X157898461Y-82876541D01*
X157956594Y-82892119D01*
X157956608Y-82892121D01*
X157961913Y-82893543D01*
X158190000Y-82913498D01*
X158418087Y-82893543D01*
X158423400Y-82892119D01*
X158423402Y-82892119D01*
X158633933Y-82835707D01*
X158633935Y-82835706D01*
X158639243Y-82834284D01*
X158812250Y-82753610D01*
X158882442Y-82742949D01*
X158947255Y-82771929D01*
X158986111Y-82831349D01*
X158991500Y-82867805D01*
X158991500Y-86351864D01*
X158990422Y-86368307D01*
X158986250Y-86400000D01*
X158991500Y-86439880D01*
X158991500Y-86439885D01*
X158996032Y-86474308D01*
X159007162Y-86558851D01*
X159068476Y-86706876D01*
X159073503Y-86713427D01*
X159073504Y-86713429D01*
X159141520Y-86802069D01*
X159141526Y-86802075D01*
X159166013Y-86833987D01*
X159172568Y-86839017D01*
X159191379Y-86853452D01*
X159203770Y-86864319D01*
X160835685Y-88496234D01*
X160846552Y-88508625D01*
X160866013Y-88533987D01*
X160897925Y-88558474D01*
X160897928Y-88558477D01*
X160993124Y-88631524D01*
X161141149Y-88692838D01*
X161149336Y-88693916D01*
X161149337Y-88693916D01*
X161160542Y-88695391D01*
X161191738Y-88699498D01*
X161260115Y-88708500D01*
X161260118Y-88708500D01*
X161260126Y-88708501D01*
X161291811Y-88712672D01*
X161300000Y-88713750D01*
X161331693Y-88709578D01*
X161348136Y-88708500D01*
X163751864Y-88708500D01*
X163768307Y-88709578D01*
X163800000Y-88713750D01*
X163808189Y-88712672D01*
X163839874Y-88708501D01*
X163839884Y-88708500D01*
X163839885Y-88708500D01*
X163839901Y-88708498D01*
X163939457Y-88695391D01*
X163950664Y-88693916D01*
X163950666Y-88693915D01*
X163958851Y-88692838D01*
X164106876Y-88631524D01*
X164202072Y-88558477D01*
X164202075Y-88558474D01*
X164233987Y-88533987D01*
X164239017Y-88527432D01*
X164253452Y-88508621D01*
X164264319Y-88496230D01*
X167115144Y-85645405D01*
X167177456Y-85611379D01*
X167204239Y-85608500D01*
X168451864Y-85608500D01*
X168468307Y-85609578D01*
X168500000Y-85613750D01*
X168508189Y-85612672D01*
X168539874Y-85608501D01*
X168539884Y-85608500D01*
X168539885Y-85608500D01*
X168639457Y-85595391D01*
X168658851Y-85592838D01*
X168666475Y-85589680D01*
X168666479Y-85589679D01*
X168731848Y-85562602D01*
X168806262Y-85555764D01*
X168859962Y-85567178D01*
X168871885Y-85569712D01*
X169062859Y-85569712D01*
X169069311Y-85568340D01*
X169069316Y-85568340D01*
X169156260Y-85549859D01*
X169249660Y-85530006D01*
X169255691Y-85527321D01*
X169418094Y-85455015D01*
X169418096Y-85455014D01*
X169424124Y-85452330D01*
X169432716Y-85446088D01*
X169479529Y-85412076D01*
X169578625Y-85340078D01*
X169654424Y-85255895D01*
X169701993Y-85203064D01*
X169701994Y-85203063D01*
X169706412Y-85198156D01*
X169801899Y-85032768D01*
X169860914Y-84851140D01*
X169880876Y-84661212D01*
X169874839Y-84603770D01*
X169861604Y-84477847D01*
X169861604Y-84477845D01*
X169860914Y-84471284D01*
X169801899Y-84289656D01*
X169793502Y-84275111D01*
X169750205Y-84200120D01*
X169706412Y-84124268D01*
X169681086Y-84096140D01*
X169583047Y-83987257D01*
X169583046Y-83987256D01*
X169578625Y-83982346D01*
X169465286Y-83900000D01*
X169429466Y-83873975D01*
X169429465Y-83873974D01*
X169424124Y-83870094D01*
X169418096Y-83867410D01*
X169418094Y-83867409D01*
X169255691Y-83795103D01*
X169255690Y-83795103D01*
X169249660Y-83792418D01*
X169156259Y-83772565D01*
X169069316Y-83754084D01*
X169069311Y-83754084D01*
X169062859Y-83752712D01*
X168871885Y-83752712D01*
X168865433Y-83754084D01*
X168865428Y-83754084D01*
X168778484Y-83772565D01*
X168685084Y-83792418D01*
X168679054Y-83795103D01*
X168679053Y-83795103D01*
X168516650Y-83867409D01*
X168516648Y-83867410D01*
X168510620Y-83870094D01*
X168505279Y-83873974D01*
X168505278Y-83873975D01*
X168469458Y-83900000D01*
X168356119Y-83982346D01*
X168351698Y-83987256D01*
X168351697Y-83987257D01*
X168253659Y-84096140D01*
X168228332Y-84124268D01*
X168184539Y-84200120D01*
X168141243Y-84275111D01*
X168132845Y-84289656D01*
X168128043Y-84304436D01*
X168087971Y-84363040D01*
X168022575Y-84390678D01*
X168008210Y-84391500D01*
X166948136Y-84391500D01*
X166931693Y-84390422D01*
X166900000Y-84386250D01*
X166891811Y-84387328D01*
X166860126Y-84391499D01*
X166860117Y-84391500D01*
X166860115Y-84391500D01*
X166860109Y-84391501D01*
X166860107Y-84391501D01*
X166760543Y-84404609D01*
X166749336Y-84406084D01*
X166749334Y-84406085D01*
X166741149Y-84407162D01*
X166593124Y-84468476D01*
X166586573Y-84473503D01*
X166586571Y-84473504D01*
X166497928Y-84541523D01*
X166497925Y-84541526D01*
X166466013Y-84566013D01*
X166460983Y-84572568D01*
X166446548Y-84591379D01*
X166435681Y-84603770D01*
X165777204Y-85262247D01*
X165714892Y-85296273D01*
X165644077Y-85291208D01*
X165587241Y-85248661D01*
X165562430Y-85182141D01*
X165562524Y-85162941D01*
X165562936Y-85157875D01*
X165563542Y-85100000D01*
X165557285Y-84996210D01*
X165543755Y-84771772D01*
X165543754Y-84771765D01*
X165543527Y-84767997D01*
X165493029Y-84491500D01*
X165484451Y-84444530D01*
X165484450Y-84444525D01*
X165483770Y-84440803D01*
X165482647Y-84437186D01*
X165482643Y-84437170D01*
X165446712Y-84321454D01*
X165445613Y-84250466D01*
X165483068Y-84190153D01*
X165547185Y-84159665D01*
X165605980Y-84164257D01*
X165611686Y-84166111D01*
X165617712Y-84168794D01*
X165624162Y-84170165D01*
X165624165Y-84170166D01*
X165798056Y-84207128D01*
X165798061Y-84207128D01*
X165804513Y-84208500D01*
X165995487Y-84208500D01*
X166001939Y-84207128D01*
X166001944Y-84207128D01*
X166088887Y-84188647D01*
X166182288Y-84168794D01*
X166188319Y-84166109D01*
X166350722Y-84093803D01*
X166350724Y-84093802D01*
X166356752Y-84091118D01*
X166372720Y-84079517D01*
X166449923Y-84023425D01*
X166511253Y-83978866D01*
X166564112Y-83920160D01*
X166634621Y-83841852D01*
X166634622Y-83841851D01*
X166639040Y-83836944D01*
X166734527Y-83671556D01*
X166793542Y-83489928D01*
X166799169Y-83436396D01*
X166812814Y-83306565D01*
X166813504Y-83300000D01*
X166808056Y-83248166D01*
X166794232Y-83116635D01*
X166794232Y-83116633D01*
X166793542Y-83110072D01*
X166734527Y-82928444D01*
X166725622Y-82913019D01*
X166680985Y-82835707D01*
X166639040Y-82763056D01*
X166530705Y-82642737D01*
X166515675Y-82626045D01*
X166515674Y-82626044D01*
X166511253Y-82621134D01*
X166356752Y-82508882D01*
X166350724Y-82506198D01*
X166350722Y-82506197D01*
X166188319Y-82433891D01*
X166188318Y-82433891D01*
X166182288Y-82431206D01*
X166087678Y-82411096D01*
X166001944Y-82392872D01*
X166001939Y-82392872D01*
X165995487Y-82391500D01*
X165904239Y-82391500D01*
X165836118Y-82371498D01*
X165815144Y-82354595D01*
X165664315Y-82203766D01*
X165653448Y-82191375D01*
X165639013Y-82172563D01*
X165633987Y-82166013D01*
X165602075Y-82141526D01*
X165602072Y-82141523D01*
X165506876Y-82068476D01*
X165358851Y-82007162D01*
X165350664Y-82006084D01*
X165350663Y-82006084D01*
X165339458Y-82004609D01*
X165308262Y-82000502D01*
X165239885Y-81991500D01*
X165239882Y-81991500D01*
X165239874Y-81991499D01*
X165208189Y-81987328D01*
X165200000Y-81986250D01*
X165168307Y-81990422D01*
X165151864Y-81991500D01*
X164604239Y-81991500D01*
X164536118Y-81971498D01*
X164515144Y-81954595D01*
X163564315Y-81003766D01*
X163553448Y-80991375D01*
X163539013Y-80972563D01*
X163533987Y-80966013D01*
X163502075Y-80941526D01*
X163502072Y-80941523D01*
X163498449Y-80938743D01*
X163413429Y-80873504D01*
X163413427Y-80873503D01*
X163406876Y-80868476D01*
X163258851Y-80807162D01*
X163250664Y-80806084D01*
X163250663Y-80806084D01*
X163239458Y-80804609D01*
X163208262Y-80800502D01*
X163139885Y-80791500D01*
X163139882Y-80791500D01*
X163139874Y-80791499D01*
X163108189Y-80787328D01*
X163100000Y-80786250D01*
X163068307Y-80790422D01*
X163051864Y-80791500D01*
X161334500Y-80791500D01*
X161266379Y-80771498D01*
X161219886Y-80717842D01*
X161208500Y-80665500D01*
X161208500Y-78604239D01*
X161228502Y-78536118D01*
X161245405Y-78515144D01*
X164015144Y-75745405D01*
X164077456Y-75711379D01*
X164104239Y-75708500D01*
X164188456Y-75708500D01*
X164256577Y-75728502D01*
G37*
%TD.AperFunction*%
%TA.AperFunction,NonConductor*%
G36*
X155922012Y-97190866D02*
G01*
X155930482Y-97199855D01*
X155930656Y-97199681D01*
X155930659Y-97199684D01*
X155935210Y-97204873D01*
X155939461Y-97209385D01*
X155941523Y-97212072D01*
X155941526Y-97212075D01*
X155966013Y-97243987D01*
X155972568Y-97249017D01*
X155991379Y-97263452D01*
X156003770Y-97274319D01*
X156788319Y-98058868D01*
X156822345Y-98121180D01*
X156820931Y-98180574D01*
X156797881Y-98266598D01*
X156796457Y-98271913D01*
X156776502Y-98500000D01*
X156796457Y-98728087D01*
X156797881Y-98733400D01*
X156797881Y-98733402D01*
X156826595Y-98840561D01*
X156855716Y-98949243D01*
X156858039Y-98954224D01*
X156858039Y-98954225D01*
X156950151Y-99151762D01*
X156950154Y-99151767D01*
X156952477Y-99156749D01*
X157083802Y-99344300D01*
X157150407Y-99410905D01*
X157184433Y-99473217D01*
X157179368Y-99544032D01*
X157150407Y-99589095D01*
X157083802Y-99655700D01*
X156952477Y-99843251D01*
X156950154Y-99848233D01*
X156950151Y-99848238D01*
X156858039Y-100045775D01*
X156855716Y-100050757D01*
X156796457Y-100271913D01*
X156776502Y-100500000D01*
X156796457Y-100728087D01*
X156855716Y-100949243D01*
X156858039Y-100954224D01*
X156858039Y-100954225D01*
X156950151Y-101151762D01*
X156950154Y-101151767D01*
X156952477Y-101156749D01*
X157083802Y-101344300D01*
X157245700Y-101506198D01*
X157250208Y-101509355D01*
X157250211Y-101509357D01*
X157316167Y-101555540D01*
X157433251Y-101637523D01*
X157438233Y-101639846D01*
X157440027Y-101640882D01*
X157489019Y-101692266D01*
X157502454Y-101761979D01*
X157476066Y-101827890D01*
X157440027Y-101859118D01*
X157438233Y-101860154D01*
X157433251Y-101862477D01*
X157412346Y-101877115D01*
X157250211Y-101990643D01*
X157250208Y-101990645D01*
X157245700Y-101993802D01*
X157083802Y-102155700D01*
X157080645Y-102160208D01*
X157080643Y-102160211D01*
X156973819Y-102312771D01*
X156918362Y-102357099D01*
X156870606Y-102366500D01*
X156468768Y-102366500D01*
X156457585Y-102365973D01*
X156450092Y-102364298D01*
X156442166Y-102364547D01*
X156442165Y-102364547D01*
X156382002Y-102366438D01*
X156378044Y-102366500D01*
X156350144Y-102366500D01*
X156346154Y-102367004D01*
X156334320Y-102367936D01*
X156290111Y-102369326D01*
X156282497Y-102371538D01*
X156282492Y-102371539D01*
X156270659Y-102374977D01*
X156251296Y-102378988D01*
X156231203Y-102381526D01*
X156223836Y-102384443D01*
X156223831Y-102384444D01*
X156190092Y-102397802D01*
X156178865Y-102401646D01*
X156136407Y-102413982D01*
X156129581Y-102418019D01*
X156118972Y-102424293D01*
X156101224Y-102432988D01*
X156082383Y-102440448D01*
X156075967Y-102445110D01*
X156075966Y-102445110D01*
X156046613Y-102466436D01*
X156036693Y-102472952D01*
X156005465Y-102491420D01*
X156005462Y-102491422D01*
X155998638Y-102495458D01*
X155984317Y-102509779D01*
X155969284Y-102522619D01*
X155952893Y-102534528D01*
X155947843Y-102540632D01*
X155947838Y-102540637D01*
X155936585Y-102554240D01*
X155877751Y-102593979D01*
X155806773Y-102595601D01*
X155746186Y-102558591D01*
X155715225Y-102494701D01*
X155713500Y-102473925D01*
X155713500Y-97286090D01*
X155733502Y-97217969D01*
X155787158Y-97171476D01*
X155857432Y-97161372D01*
X155922012Y-97190866D01*
G37*
%TD.AperFunction*%
%TA.AperFunction,NonConductor*%
G36*
X162929338Y-100695732D02*
G01*
X162986174Y-100738279D01*
X163010985Y-100804799D01*
X163011305Y-100813263D01*
X163059458Y-112369975D01*
X163039740Y-112438178D01*
X162986278Y-112484895D01*
X162933459Y-112496500D01*
X155839500Y-112496500D01*
X155771379Y-112476498D01*
X155724886Y-112422842D01*
X155713500Y-112370500D01*
X155713500Y-108156216D01*
X155733502Y-108088095D01*
X155787158Y-108041602D01*
X155807525Y-108034341D01*
X156022127Y-107978041D01*
X156026087Y-107976401D01*
X156026092Y-107976399D01*
X156149887Y-107925121D01*
X156275136Y-107873241D01*
X156511582Y-107735073D01*
X156727089Y-107566094D01*
X156768809Y-107523043D01*
X156914686Y-107372509D01*
X156917669Y-107369431D01*
X156920202Y-107365983D01*
X156920206Y-107365978D01*
X157077257Y-107152178D01*
X157079795Y-107148723D01*
X157107154Y-107098334D01*
X157208418Y-106911830D01*
X157208419Y-106911828D01*
X157210468Y-106908054D01*
X157282976Y-106716166D01*
X157305751Y-106655895D01*
X157305752Y-106655891D01*
X157307269Y-106651877D01*
X157368407Y-106384933D01*
X157385379Y-106194770D01*
X157392531Y-106114627D01*
X157392531Y-106114625D01*
X157392751Y-106112161D01*
X157393193Y-106070000D01*
X157389107Y-106010060D01*
X157374859Y-105801055D01*
X157374858Y-105801049D01*
X157374567Y-105796778D01*
X157319032Y-105528612D01*
X157227617Y-105270465D01*
X157102013Y-105027112D01*
X157092040Y-105012921D01*
X156947008Y-104806562D01*
X156944545Y-104803057D01*
X156819867Y-104668887D01*
X156761046Y-104605588D01*
X156761043Y-104605585D01*
X156758125Y-104602445D01*
X156754810Y-104599731D01*
X156754806Y-104599728D01*
X156549523Y-104431706D01*
X156546205Y-104428990D01*
X156312704Y-104285901D01*
X156264209Y-104264613D01*
X156209874Y-104218917D01*
X156188869Y-104151099D01*
X156207864Y-104082690D01*
X156225760Y-104060145D01*
X156615500Y-103670405D01*
X156677812Y-103636379D01*
X156704595Y-103633500D01*
X156870606Y-103633500D01*
X156938727Y-103653502D01*
X156973819Y-103687229D01*
X157080643Y-103839789D01*
X157083802Y-103844300D01*
X157245700Y-104006198D01*
X157250208Y-104009355D01*
X157250211Y-104009357D01*
X157322744Y-104060145D01*
X157433251Y-104137523D01*
X157438233Y-104139846D01*
X157438238Y-104139849D01*
X157602593Y-104216488D01*
X157640757Y-104234284D01*
X157646065Y-104235706D01*
X157646067Y-104235707D01*
X157856598Y-104292119D01*
X157856600Y-104292119D01*
X157861913Y-104293543D01*
X158090000Y-104313498D01*
X158318087Y-104293543D01*
X158323400Y-104292119D01*
X158323402Y-104292119D01*
X158533933Y-104235707D01*
X158533935Y-104235706D01*
X158539243Y-104234284D01*
X158577407Y-104216488D01*
X158741762Y-104139849D01*
X158741767Y-104139846D01*
X158746749Y-104137523D01*
X158857256Y-104060145D01*
X158929789Y-104009357D01*
X158929792Y-104009355D01*
X158934300Y-104006198D01*
X159096198Y-103844300D01*
X159099357Y-103839789D01*
X159206181Y-103687229D01*
X159261638Y-103642901D01*
X159309394Y-103633500D01*
X159546233Y-103633500D01*
X159557416Y-103634027D01*
X159564909Y-103635702D01*
X159572835Y-103635453D01*
X159572836Y-103635453D01*
X159632986Y-103633562D01*
X159636945Y-103633500D01*
X159664856Y-103633500D01*
X159668791Y-103633003D01*
X159668856Y-103632995D01*
X159680693Y-103632062D01*
X159712951Y-103631048D01*
X159716970Y-103630922D01*
X159724889Y-103630673D01*
X159744343Y-103625021D01*
X159763700Y-103621013D01*
X159775930Y-103619468D01*
X159775931Y-103619468D01*
X159783797Y-103618474D01*
X159791168Y-103615555D01*
X159791170Y-103615555D01*
X159824912Y-103602196D01*
X159836142Y-103598351D01*
X159870983Y-103588229D01*
X159870984Y-103588229D01*
X159878593Y-103586018D01*
X159885412Y-103581985D01*
X159885417Y-103581983D01*
X159896028Y-103575707D01*
X159913776Y-103567012D01*
X159932617Y-103559552D01*
X159968387Y-103533564D01*
X159978307Y-103527048D01*
X160009535Y-103508580D01*
X160009538Y-103508578D01*
X160016362Y-103504542D01*
X160030683Y-103490221D01*
X160045717Y-103477380D01*
X160055694Y-103470131D01*
X160062107Y-103465472D01*
X160090298Y-103431395D01*
X160098288Y-103422616D01*
X162796211Y-100724693D01*
X162858523Y-100690667D01*
X162929338Y-100695732D01*
G37*
%TD.AperFunction*%
%TA.AperFunction,NonConductor*%
G36*
X163007910Y-113783502D02*
G01*
X163054403Y-113837158D01*
X163065787Y-113888972D01*
X163071966Y-115371830D01*
X163072250Y-115439975D01*
X163052532Y-115508179D01*
X162999070Y-115554895D01*
X162946251Y-115566500D01*
X159568767Y-115566500D01*
X159557584Y-115565973D01*
X159550091Y-115564298D01*
X159542165Y-115564547D01*
X159542164Y-115564547D01*
X159482014Y-115566438D01*
X159478055Y-115566500D01*
X159450144Y-115566500D01*
X159446210Y-115566997D01*
X159446209Y-115566997D01*
X159446144Y-115567005D01*
X159434307Y-115567938D01*
X159402049Y-115568952D01*
X159398030Y-115569078D01*
X159390111Y-115569327D01*
X159370657Y-115574979D01*
X159351300Y-115578987D01*
X159339070Y-115580532D01*
X159339069Y-115580532D01*
X159331203Y-115581526D01*
X159323832Y-115584445D01*
X159323830Y-115584445D01*
X159290088Y-115597804D01*
X159278858Y-115601649D01*
X159244017Y-115611771D01*
X159244016Y-115611771D01*
X159236407Y-115613982D01*
X159229588Y-115618015D01*
X159229583Y-115618017D01*
X159218972Y-115624293D01*
X159201224Y-115632988D01*
X159182383Y-115640448D01*
X159175967Y-115645110D01*
X159175966Y-115645110D01*
X159146613Y-115666436D01*
X159136693Y-115672952D01*
X159105465Y-115691420D01*
X159105462Y-115691422D01*
X159098638Y-115695458D01*
X159084317Y-115709779D01*
X159069284Y-115722619D01*
X159052893Y-115734528D01*
X159047842Y-115740634D01*
X159024702Y-115768605D01*
X159016712Y-115777384D01*
X158539501Y-116254595D01*
X158477189Y-116288621D01*
X158450406Y-116291500D01*
X157241866Y-116291500D01*
X157179684Y-116298255D01*
X157043295Y-116349385D01*
X156926739Y-116436739D01*
X156839385Y-116553295D01*
X156788255Y-116689684D01*
X156781500Y-116751866D01*
X156781500Y-118448134D01*
X156788255Y-118510316D01*
X156839385Y-118646705D01*
X156926739Y-118763261D01*
X157043295Y-118850615D01*
X157051703Y-118853767D01*
X157179684Y-118901745D01*
X157178954Y-118903691D01*
X157231205Y-118933545D01*
X157264021Y-118996503D01*
X157257591Y-119067207D01*
X157229502Y-119110000D01*
X157083802Y-119255700D01*
X156952477Y-119443251D01*
X156950154Y-119448233D01*
X156950151Y-119448238D01*
X156871690Y-119616500D01*
X156855716Y-119650757D01*
X156796457Y-119871913D01*
X156776502Y-120100000D01*
X156796457Y-120328087D01*
X156797881Y-120333400D01*
X156797881Y-120333402D01*
X156842764Y-120500904D01*
X156855716Y-120549243D01*
X156858039Y-120554224D01*
X156858039Y-120554225D01*
X156950151Y-120751762D01*
X156950154Y-120751767D01*
X156952477Y-120756749D01*
X157018612Y-120851199D01*
X157035836Y-120875797D01*
X157083802Y-120944300D01*
X157150407Y-121010905D01*
X157184433Y-121073217D01*
X157179368Y-121144032D01*
X157150407Y-121189095D01*
X157083802Y-121255700D01*
X156952477Y-121443251D01*
X156950154Y-121448233D01*
X156950151Y-121448238D01*
X156890349Y-121576485D01*
X156855716Y-121650757D01*
X156796457Y-121871913D01*
X156776502Y-122100000D01*
X156796457Y-122328087D01*
X156855716Y-122549243D01*
X156858039Y-122554224D01*
X156858039Y-122554225D01*
X156950151Y-122751762D01*
X156950154Y-122751767D01*
X156952477Y-122756749D01*
X157083802Y-122944300D01*
X157245700Y-123106198D01*
X157250208Y-123109355D01*
X157250211Y-123109357D01*
X157324249Y-123161199D01*
X157433251Y-123237523D01*
X157438233Y-123239846D01*
X157440027Y-123240882D01*
X157489019Y-123292266D01*
X157502454Y-123361979D01*
X157476066Y-123427890D01*
X157440027Y-123459118D01*
X157438233Y-123460154D01*
X157433251Y-123462477D01*
X157428747Y-123465631D01*
X157250211Y-123590643D01*
X157250208Y-123590645D01*
X157245700Y-123593802D01*
X157083802Y-123755700D01*
X157080645Y-123760208D01*
X157080643Y-123760211D01*
X156973819Y-123912771D01*
X156918362Y-123957099D01*
X156870606Y-123966500D01*
X156468768Y-123966500D01*
X156457585Y-123965973D01*
X156450092Y-123964298D01*
X156442166Y-123964547D01*
X156442165Y-123964547D01*
X156382002Y-123966438D01*
X156378044Y-123966500D01*
X156350144Y-123966500D01*
X156346154Y-123967004D01*
X156334320Y-123967936D01*
X156290111Y-123969326D01*
X156282497Y-123971538D01*
X156282492Y-123971539D01*
X156270659Y-123974977D01*
X156251296Y-123978988D01*
X156231203Y-123981526D01*
X156223836Y-123984443D01*
X156223831Y-123984444D01*
X156190092Y-123997802D01*
X156178865Y-124001646D01*
X156136407Y-124013982D01*
X156129581Y-124018019D01*
X156118972Y-124024293D01*
X156101224Y-124032988D01*
X156082383Y-124040448D01*
X156075967Y-124045110D01*
X156075966Y-124045110D01*
X156046613Y-124066436D01*
X156036693Y-124072952D01*
X156005465Y-124091420D01*
X156005462Y-124091422D01*
X155998638Y-124095458D01*
X155984317Y-124109779D01*
X155969284Y-124122619D01*
X155952893Y-124134528D01*
X155947843Y-124140632D01*
X155947838Y-124140637D01*
X155936585Y-124154240D01*
X155877751Y-124193979D01*
X155806773Y-124195601D01*
X155746186Y-124158591D01*
X155715225Y-124094701D01*
X155713500Y-124073925D01*
X155713500Y-116616216D01*
X155733502Y-116548095D01*
X155787158Y-116501602D01*
X155807525Y-116494341D01*
X156022127Y-116438041D01*
X156026087Y-116436401D01*
X156026092Y-116436399D01*
X156223158Y-116354771D01*
X156275136Y-116333241D01*
X156433643Y-116240617D01*
X156507879Y-116197237D01*
X156507880Y-116197236D01*
X156511582Y-116195073D01*
X156727089Y-116026094D01*
X156768809Y-115983043D01*
X156865272Y-115883500D01*
X156917669Y-115829431D01*
X156920202Y-115825983D01*
X156920206Y-115825978D01*
X157077257Y-115612178D01*
X157079795Y-115608723D01*
X157095102Y-115580532D01*
X157208418Y-115371830D01*
X157208419Y-115371828D01*
X157210468Y-115368054D01*
X157307269Y-115111877D01*
X157368407Y-114844933D01*
X157372582Y-114798160D01*
X157392531Y-114574627D01*
X157392531Y-114574625D01*
X157392751Y-114572161D01*
X157393193Y-114530000D01*
X157374567Y-114256778D01*
X157319032Y-113988612D01*
X157317604Y-113984579D01*
X157317601Y-113984569D01*
X157298829Y-113931559D01*
X157294945Y-113860669D01*
X157330003Y-113798932D01*
X157392874Y-113765950D01*
X157417602Y-113763500D01*
X162939789Y-113763500D01*
X163007910Y-113783502D01*
G37*
%TD.AperFunction*%
%TA.AperFunction,NonConductor*%
G36*
X163020701Y-116853502D02*
G01*
X163067194Y-116907158D01*
X163078579Y-116958975D01*
X163099957Y-122089689D01*
X163098366Y-122110181D01*
X161809957Y-130137966D01*
X161807973Y-130150325D01*
X161777429Y-130214415D01*
X161760008Y-130230520D01*
X160312016Y-131335567D01*
X158014572Y-133088879D01*
X157982862Y-133106508D01*
X155884231Y-133903456D01*
X155813447Y-133908940D01*
X155750934Y-133875285D01*
X155716540Y-133813175D01*
X155713500Y-133785663D01*
X155713500Y-129756216D01*
X155733502Y-129688095D01*
X155787158Y-129641602D01*
X155807525Y-129634341D01*
X156022127Y-129578041D01*
X156026087Y-129576401D01*
X156026092Y-129576399D01*
X156240067Y-129487767D01*
X156275136Y-129473241D01*
X156511582Y-129335073D01*
X156727089Y-129166094D01*
X156768809Y-129123043D01*
X156914686Y-128972509D01*
X156917669Y-128969431D01*
X156920202Y-128965983D01*
X156920206Y-128965978D01*
X157077257Y-128752178D01*
X157079795Y-128748723D01*
X157107154Y-128698334D01*
X157208418Y-128511830D01*
X157208419Y-128511828D01*
X157210468Y-128508054D01*
X157307269Y-128251877D01*
X157368407Y-127984933D01*
X157369229Y-127975729D01*
X157392531Y-127714627D01*
X157392531Y-127714625D01*
X157392751Y-127712161D01*
X157393193Y-127670000D01*
X157393024Y-127667519D01*
X157374859Y-127401055D01*
X157374858Y-127401049D01*
X157374567Y-127396778D01*
X157319032Y-127128612D01*
X157227617Y-126870465D01*
X157102013Y-126627112D01*
X157092040Y-126612921D01*
X156947008Y-126406562D01*
X156944545Y-126403057D01*
X156758125Y-126202445D01*
X156754810Y-126199731D01*
X156754806Y-126199728D01*
X156549523Y-126031706D01*
X156546205Y-126028990D01*
X156312704Y-125885901D01*
X156264209Y-125864613D01*
X156209874Y-125818917D01*
X156188869Y-125751099D01*
X156207864Y-125682690D01*
X156225760Y-125660145D01*
X156615500Y-125270405D01*
X156677812Y-125236379D01*
X156704595Y-125233500D01*
X156870606Y-125233500D01*
X156938727Y-125253502D01*
X156973819Y-125287229D01*
X157070063Y-125424679D01*
X157083802Y-125444300D01*
X157245700Y-125606198D01*
X157250208Y-125609355D01*
X157250211Y-125609357D01*
X157322744Y-125660145D01*
X157433251Y-125737523D01*
X157438233Y-125739846D01*
X157438238Y-125739849D01*
X157602593Y-125816488D01*
X157640757Y-125834284D01*
X157646065Y-125835706D01*
X157646067Y-125835707D01*
X157856598Y-125892119D01*
X157856600Y-125892119D01*
X157861913Y-125893543D01*
X158090000Y-125913498D01*
X158318087Y-125893543D01*
X158323400Y-125892119D01*
X158323402Y-125892119D01*
X158533933Y-125835707D01*
X158533935Y-125835706D01*
X158539243Y-125834284D01*
X158577407Y-125816488D01*
X158741762Y-125739849D01*
X158741767Y-125739846D01*
X158746749Y-125737523D01*
X158857256Y-125660145D01*
X158929789Y-125609357D01*
X158929792Y-125609355D01*
X158934300Y-125606198D01*
X159096198Y-125444300D01*
X159227523Y-125256749D01*
X159229846Y-125251767D01*
X159229849Y-125251762D01*
X159321961Y-125054225D01*
X159321961Y-125054224D01*
X159324284Y-125049243D01*
X159383543Y-124828087D01*
X159403498Y-124600000D01*
X159383543Y-124371913D01*
X159366363Y-124307797D01*
X159325707Y-124156067D01*
X159325706Y-124156065D01*
X159324284Y-124150757D01*
X159311164Y-124122620D01*
X159229849Y-123948238D01*
X159229846Y-123948233D01*
X159227523Y-123943251D01*
X159096198Y-123755700D01*
X158934300Y-123593802D01*
X158929792Y-123590645D01*
X158929789Y-123590643D01*
X158751253Y-123465631D01*
X158746749Y-123462477D01*
X158741767Y-123460154D01*
X158739973Y-123459118D01*
X158690981Y-123407734D01*
X158677546Y-123338021D01*
X158703934Y-123272110D01*
X158739973Y-123240882D01*
X158741767Y-123239846D01*
X158746749Y-123237523D01*
X158855751Y-123161199D01*
X158929789Y-123109357D01*
X158929792Y-123109355D01*
X158934300Y-123106198D01*
X159096198Y-122944300D01*
X159227523Y-122756749D01*
X159229846Y-122751767D01*
X159229849Y-122751762D01*
X159321961Y-122554225D01*
X159321961Y-122554224D01*
X159324284Y-122549243D01*
X159383543Y-122328087D01*
X159403498Y-122100000D01*
X159383543Y-121871913D01*
X159324284Y-121650757D01*
X159289651Y-121576485D01*
X159229849Y-121448238D01*
X159229846Y-121448233D01*
X159227523Y-121443251D01*
X159096198Y-121255700D01*
X159029593Y-121189095D01*
X158995567Y-121126783D01*
X159000632Y-121055968D01*
X159029593Y-121010905D01*
X159096198Y-120944300D01*
X159144165Y-120875797D01*
X159161388Y-120851199D01*
X159227523Y-120756749D01*
X159229846Y-120751767D01*
X159229849Y-120751762D01*
X159321961Y-120554225D01*
X159321961Y-120554224D01*
X159324284Y-120549243D01*
X159337237Y-120500904D01*
X159382119Y-120333402D01*
X159382119Y-120333400D01*
X159383543Y-120328087D01*
X159403498Y-120100000D01*
X159383543Y-119871913D01*
X159324284Y-119650757D01*
X159308310Y-119616500D01*
X159229849Y-119448238D01*
X159229846Y-119448233D01*
X159227523Y-119443251D01*
X159096198Y-119255700D01*
X158950498Y-119110000D01*
X158916472Y-119047688D01*
X158921537Y-118976873D01*
X158964084Y-118920037D01*
X159000737Y-118902868D01*
X159000316Y-118901745D01*
X159128297Y-118853767D01*
X159136705Y-118850615D01*
X159253261Y-118763261D01*
X159340615Y-118646705D01*
X159391745Y-118510316D01*
X159398500Y-118448134D01*
X159398500Y-117239595D01*
X159418502Y-117171474D01*
X159435405Y-117150500D01*
X159715500Y-116870405D01*
X159777812Y-116836379D01*
X159804595Y-116833500D01*
X162952580Y-116833500D01*
X163020701Y-116853502D01*
G37*
%TD.AperFunction*%
%TA.AperFunction,NonConductor*%
G36*
X182496868Y-59528502D02*
G01*
X182543361Y-59582158D01*
X182550985Y-59603940D01*
X182597113Y-59788451D01*
X182600673Y-59811882D01*
X182603305Y-59858381D01*
X182587185Y-59927521D01*
X182536242Y-59976972D01*
X182477506Y-59991500D01*
X173648136Y-59991500D01*
X173631693Y-59990422D01*
X173600000Y-59986250D01*
X173591811Y-59987328D01*
X173560126Y-59991499D01*
X173560117Y-59991500D01*
X173560115Y-59991500D01*
X173560109Y-59991501D01*
X173560107Y-59991501D01*
X173460543Y-60004609D01*
X173449336Y-60006084D01*
X173449334Y-60006085D01*
X173441149Y-60007162D01*
X173293124Y-60068476D01*
X173286573Y-60073503D01*
X173286571Y-60073504D01*
X173212768Y-60130136D01*
X173166013Y-60166013D01*
X173160987Y-60172563D01*
X173146548Y-60191380D01*
X173135681Y-60203771D01*
X170703766Y-62635685D01*
X170691375Y-62646552D01*
X170666013Y-62666013D01*
X170641526Y-62697925D01*
X170641523Y-62697928D01*
X170641517Y-62697936D01*
X170579417Y-62778866D01*
X170568476Y-62793124D01*
X170520848Y-62908109D01*
X170507162Y-62941150D01*
X170491500Y-63060115D01*
X170491500Y-63060120D01*
X170486250Y-63100000D01*
X170487328Y-63108188D01*
X170490422Y-63131690D01*
X170491500Y-63148136D01*
X170491500Y-68495761D01*
X170471498Y-68563882D01*
X170454595Y-68584856D01*
X166884856Y-72154595D01*
X166822544Y-72188621D01*
X166795761Y-72191500D01*
X166704513Y-72191500D01*
X166698061Y-72192872D01*
X166698056Y-72192872D01*
X166611113Y-72211353D01*
X166517712Y-72231206D01*
X166511682Y-72233891D01*
X166511681Y-72233891D01*
X166349278Y-72306197D01*
X166349276Y-72306198D01*
X166343248Y-72308882D01*
X166188747Y-72421134D01*
X166184326Y-72426044D01*
X166184325Y-72426045D01*
X166068395Y-72554799D01*
X166060960Y-72563056D01*
X165982979Y-72698123D01*
X165931598Y-72747115D01*
X165861884Y-72760551D01*
X165795973Y-72734165D01*
X165784766Y-72724217D01*
X165049719Y-71989170D01*
X165015693Y-71926858D01*
X165013159Y-71903284D01*
X165013504Y-71900000D01*
X165001578Y-71786533D01*
X164994232Y-71716635D01*
X164994232Y-71716633D01*
X164993542Y-71710072D01*
X164934527Y-71528444D01*
X164839040Y-71363056D01*
X164728400Y-71240177D01*
X164715675Y-71226045D01*
X164715674Y-71226044D01*
X164711253Y-71221134D01*
X164556752Y-71108882D01*
X164550724Y-71106198D01*
X164550722Y-71106197D01*
X164388319Y-71033891D01*
X164388318Y-71033891D01*
X164382288Y-71031206D01*
X164288888Y-71011353D01*
X164201944Y-70992872D01*
X164201939Y-70992872D01*
X164195487Y-70991500D01*
X164004513Y-70991500D01*
X163998061Y-70992872D01*
X163998056Y-70992872D01*
X163911112Y-71011353D01*
X163817712Y-71031206D01*
X163811682Y-71033891D01*
X163811681Y-71033891D01*
X163649278Y-71106197D01*
X163649276Y-71106198D01*
X163643248Y-71108882D01*
X163488747Y-71221134D01*
X163484326Y-71226044D01*
X163484325Y-71226045D01*
X163471601Y-71240177D01*
X163360960Y-71363056D01*
X163265473Y-71528444D01*
X163206458Y-71710072D01*
X163205768Y-71716633D01*
X163205768Y-71716635D01*
X163198422Y-71786533D01*
X163186496Y-71900000D01*
X163206458Y-72089928D01*
X163265473Y-72271556D01*
X163360960Y-72436944D01*
X163365378Y-72441851D01*
X163365379Y-72441852D01*
X163467077Y-72554799D01*
X163488747Y-72578866D01*
X163534597Y-72612178D01*
X163606184Y-72664189D01*
X163643248Y-72691118D01*
X163649276Y-72693802D01*
X163649278Y-72693803D01*
X163811681Y-72766109D01*
X163817712Y-72768794D01*
X163906709Y-72787711D01*
X163998056Y-72807128D01*
X163998061Y-72807128D01*
X164004513Y-72808500D01*
X164095761Y-72808500D01*
X164163882Y-72828502D01*
X164184856Y-72845405D01*
X164238235Y-72898784D01*
X164272261Y-72961096D01*
X164267196Y-73031911D01*
X164242777Y-73072189D01*
X164160960Y-73163056D01*
X164065473Y-73328444D01*
X164006458Y-73510072D01*
X164005768Y-73516633D01*
X164005768Y-73516635D01*
X164001915Y-73553295D01*
X163986496Y-73700000D01*
X164006458Y-73889928D01*
X164065473Y-74071556D01*
X164160960Y-74236944D01*
X164200801Y-74281192D01*
X164231517Y-74345198D01*
X164222752Y-74415651D01*
X164177289Y-74470182D01*
X164107163Y-74491500D01*
X163848136Y-74491500D01*
X163831690Y-74490422D01*
X163808188Y-74487328D01*
X163800000Y-74486250D01*
X163791812Y-74487328D01*
X163760129Y-74491499D01*
X163760120Y-74491500D01*
X163760115Y-74491500D01*
X163641150Y-74507162D01*
X163493125Y-74568476D01*
X163493123Y-74568477D01*
X163493124Y-74568477D01*
X163397928Y-74641523D01*
X163397925Y-74641526D01*
X163366013Y-74666013D01*
X163360983Y-74672568D01*
X163346548Y-74691379D01*
X163335681Y-74703770D01*
X160203766Y-77835685D01*
X160191375Y-77846552D01*
X160166013Y-77866013D01*
X160141526Y-77897925D01*
X160141523Y-77897928D01*
X160141517Y-77897936D01*
X160091976Y-77962499D01*
X160068476Y-77993124D01*
X160007162Y-78141149D01*
X160007162Y-78141150D01*
X159991500Y-78260115D01*
X159991500Y-78260120D01*
X159986250Y-78300000D01*
X159987328Y-78308188D01*
X159990422Y-78331690D01*
X159991500Y-78348136D01*
X159991500Y-79736761D01*
X159971498Y-79804882D01*
X159917842Y-79851375D01*
X159847568Y-79861479D01*
X159782988Y-79831985D01*
X159776405Y-79825856D01*
X159491681Y-79541132D01*
X159457655Y-79478820D01*
X159459069Y-79419426D01*
X159482119Y-79333402D01*
X159482119Y-79333400D01*
X159483543Y-79328087D01*
X159503498Y-79100000D01*
X159483543Y-78871913D01*
X159456055Y-78769326D01*
X159425707Y-78656067D01*
X159425706Y-78656065D01*
X159424284Y-78650757D01*
X159421961Y-78645775D01*
X159329849Y-78448238D01*
X159329846Y-78448233D01*
X159327523Y-78443251D01*
X159196198Y-78255700D01*
X159129593Y-78189095D01*
X159095567Y-78126783D01*
X159100632Y-78055968D01*
X159129593Y-78010905D01*
X159196198Y-77944300D01*
X159327523Y-77756749D01*
X159329846Y-77751767D01*
X159329849Y-77751762D01*
X159421961Y-77554225D01*
X159421961Y-77554224D01*
X159424284Y-77549243D01*
X159483543Y-77328087D01*
X159503498Y-77100000D01*
X159483543Y-76871913D01*
X159424284Y-76650757D01*
X159407828Y-76615467D01*
X159329849Y-76448238D01*
X159329846Y-76448233D01*
X159327523Y-76443251D01*
X159212419Y-76278866D01*
X159199357Y-76260211D01*
X159199355Y-76260208D01*
X159196198Y-76255700D01*
X159050498Y-76110000D01*
X159016472Y-76047688D01*
X159021537Y-75976873D01*
X159064084Y-75920037D01*
X159100737Y-75902868D01*
X159100316Y-75901745D01*
X159228297Y-75853767D01*
X159236705Y-75850615D01*
X159353261Y-75763261D01*
X159440615Y-75646705D01*
X159491745Y-75510316D01*
X159498500Y-75448134D01*
X159498500Y-75359500D01*
X159518502Y-75291379D01*
X159572158Y-75244886D01*
X159624500Y-75233500D01*
X160321233Y-75233500D01*
X160332416Y-75234027D01*
X160339909Y-75235702D01*
X160347835Y-75235453D01*
X160347836Y-75235453D01*
X160407986Y-75233562D01*
X160411945Y-75233500D01*
X160439856Y-75233500D01*
X160443791Y-75233003D01*
X160443856Y-75232995D01*
X160455693Y-75232062D01*
X160487951Y-75231048D01*
X160491970Y-75230922D01*
X160499889Y-75230673D01*
X160519343Y-75225021D01*
X160538700Y-75221013D01*
X160550930Y-75219468D01*
X160550931Y-75219468D01*
X160558797Y-75218474D01*
X160566168Y-75215555D01*
X160566170Y-75215555D01*
X160599912Y-75202196D01*
X160611142Y-75198351D01*
X160645983Y-75188229D01*
X160645984Y-75188229D01*
X160653593Y-75186018D01*
X160660412Y-75181985D01*
X160660417Y-75181983D01*
X160671028Y-75175707D01*
X160688776Y-75167012D01*
X160707617Y-75159552D01*
X160743387Y-75133564D01*
X160753307Y-75127048D01*
X160784535Y-75108580D01*
X160784538Y-75108578D01*
X160791362Y-75104542D01*
X160805683Y-75090221D01*
X160820717Y-75077380D01*
X160830694Y-75070131D01*
X160837107Y-75065472D01*
X160865298Y-75031395D01*
X160873288Y-75022616D01*
X162692247Y-73203657D01*
X162700537Y-73196113D01*
X162707018Y-73192000D01*
X162728829Y-73168774D01*
X162753658Y-73142333D01*
X162756413Y-73139491D01*
X162776134Y-73119770D01*
X162778612Y-73116575D01*
X162786318Y-73107553D01*
X162811158Y-73081101D01*
X162816586Y-73075321D01*
X162826346Y-73057568D01*
X162837199Y-73041045D01*
X162844753Y-73031306D01*
X162849613Y-73025041D01*
X162867176Y-72984457D01*
X162872383Y-72973827D01*
X162893695Y-72935060D01*
X162895666Y-72927383D01*
X162895668Y-72927378D01*
X162898732Y-72915442D01*
X162905138Y-72896730D01*
X162910034Y-72885417D01*
X162913181Y-72878145D01*
X162920097Y-72834481D01*
X162922504Y-72822860D01*
X162931528Y-72787711D01*
X162931528Y-72787710D01*
X162933500Y-72780030D01*
X162933500Y-72759769D01*
X162935051Y-72740058D01*
X162935985Y-72734165D01*
X162938219Y-72720057D01*
X162934059Y-72676046D01*
X162933500Y-72664189D01*
X162933500Y-68902524D01*
X162953502Y-68834403D01*
X162965858Y-68818221D01*
X163039040Y-68736944D01*
X163134527Y-68571556D01*
X163193542Y-68389928D01*
X163213504Y-68200000D01*
X163193542Y-68010072D01*
X163134527Y-67828444D01*
X163107112Y-67780959D01*
X163042341Y-67668774D01*
X163039040Y-67663056D01*
X162911253Y-67521134D01*
X162812157Y-67449136D01*
X162762094Y-67412763D01*
X162762093Y-67412762D01*
X162756752Y-67408882D01*
X162750724Y-67406198D01*
X162750722Y-67406197D01*
X162588319Y-67333891D01*
X162588318Y-67333891D01*
X162582288Y-67331206D01*
X162487090Y-67310971D01*
X162401944Y-67292872D01*
X162401939Y-67292872D01*
X162395487Y-67291500D01*
X162204513Y-67291500D01*
X162198061Y-67292872D01*
X162198056Y-67292872D01*
X162112910Y-67310971D01*
X162017712Y-67331206D01*
X162011682Y-67333891D01*
X162011681Y-67333891D01*
X161849278Y-67406197D01*
X161849276Y-67406198D01*
X161843248Y-67408882D01*
X161837907Y-67412762D01*
X161837906Y-67412763D01*
X161787843Y-67449136D01*
X161688747Y-67521134D01*
X161560960Y-67663056D01*
X161557659Y-67668774D01*
X161492889Y-67780959D01*
X161465473Y-67828444D01*
X161406458Y-68010072D01*
X161386496Y-68200000D01*
X161406458Y-68389928D01*
X161465473Y-68571556D01*
X161560960Y-68736944D01*
X161634137Y-68818215D01*
X161664853Y-68882221D01*
X161666500Y-68902524D01*
X161666500Y-72385405D01*
X161646498Y-72453526D01*
X161629595Y-72474500D01*
X160174500Y-73929595D01*
X160112188Y-73963621D01*
X160085405Y-73966500D01*
X159624500Y-73966500D01*
X159556379Y-73946498D01*
X159509886Y-73892842D01*
X159498500Y-73840500D01*
X159498500Y-73751866D01*
X159491745Y-73689684D01*
X159440615Y-73553295D01*
X159353261Y-73436739D01*
X159236705Y-73349385D01*
X159100316Y-73298255D01*
X159038134Y-73291500D01*
X157341866Y-73291500D01*
X157279684Y-73298255D01*
X157143295Y-73349385D01*
X157026739Y-73436739D01*
X156939385Y-73553295D01*
X156888255Y-73689684D01*
X156881500Y-73751866D01*
X156881500Y-75448134D01*
X156888255Y-75510316D01*
X156939385Y-75646705D01*
X157026739Y-75763261D01*
X157143295Y-75850615D01*
X157151703Y-75853767D01*
X157279684Y-75901745D01*
X157278954Y-75903691D01*
X157331205Y-75933545D01*
X157364021Y-75996503D01*
X157357591Y-76067207D01*
X157329502Y-76110000D01*
X157183802Y-76255700D01*
X157180645Y-76260208D01*
X157180643Y-76260211D01*
X157167581Y-76278866D01*
X157052477Y-76443251D01*
X157050154Y-76448233D01*
X157050151Y-76448238D01*
X156972172Y-76615467D01*
X156955716Y-76650757D01*
X156896457Y-76871913D01*
X156876502Y-77100000D01*
X156896457Y-77328087D01*
X156955716Y-77549243D01*
X156958039Y-77554224D01*
X156958039Y-77554225D01*
X157050151Y-77751762D01*
X157050154Y-77751767D01*
X157052477Y-77756749D01*
X157183802Y-77944300D01*
X157250407Y-78010905D01*
X157284433Y-78073217D01*
X157279368Y-78144032D01*
X157250407Y-78189095D01*
X157183802Y-78255700D01*
X157052477Y-78443251D01*
X157050154Y-78448233D01*
X157050151Y-78448238D01*
X156958039Y-78645775D01*
X156955716Y-78650757D01*
X156954294Y-78656065D01*
X156954293Y-78656067D01*
X156923945Y-78769326D01*
X156896457Y-78871913D01*
X156876502Y-79100000D01*
X156896457Y-79328087D01*
X156897881Y-79333400D01*
X156897881Y-79333402D01*
X156953543Y-79541132D01*
X156955716Y-79549243D01*
X156958039Y-79554224D01*
X156958039Y-79554225D01*
X157050151Y-79751762D01*
X157050154Y-79751767D01*
X157052477Y-79756749D01*
X157183802Y-79944300D01*
X157345700Y-80106198D01*
X157350208Y-80109355D01*
X157350211Y-80109357D01*
X157369297Y-80122721D01*
X157533251Y-80237523D01*
X157538233Y-80239846D01*
X157540027Y-80240882D01*
X157589019Y-80292266D01*
X157602454Y-80361979D01*
X157576066Y-80427890D01*
X157540027Y-80459118D01*
X157538233Y-80460154D01*
X157533251Y-80462477D01*
X157489039Y-80493435D01*
X157350211Y-80590643D01*
X157350208Y-80590645D01*
X157345700Y-80593802D01*
X157183802Y-80755700D01*
X157180645Y-80760208D01*
X157180643Y-80760211D01*
X157147768Y-80807162D01*
X157052477Y-80943251D01*
X157050154Y-80948233D01*
X157050151Y-80948238D01*
X157006499Y-81041852D01*
X156955716Y-81150757D01*
X156954294Y-81156065D01*
X156954293Y-81156067D01*
X156899232Y-81361555D01*
X156896457Y-81371913D01*
X156876502Y-81600000D01*
X156896457Y-81828087D01*
X156897879Y-81833392D01*
X156897881Y-81833406D01*
X156913459Y-81891539D01*
X156911771Y-81962516D01*
X156880848Y-82013248D01*
X156328595Y-82565500D01*
X156266283Y-82599525D01*
X156195467Y-82594460D01*
X156138632Y-82551913D01*
X156113821Y-82485393D01*
X156113500Y-82476404D01*
X156113500Y-73525805D01*
X156133502Y-73457684D01*
X156191282Y-73409396D01*
X156193608Y-73408433D01*
X156375136Y-73333241D01*
X156596892Y-73203657D01*
X156607879Y-73197237D01*
X156607880Y-73197236D01*
X156611582Y-73195073D01*
X156827089Y-73026094D01*
X156835161Y-73017765D01*
X157014686Y-72832509D01*
X157017669Y-72829431D01*
X157020202Y-72825983D01*
X157020206Y-72825978D01*
X157177257Y-72612178D01*
X157179795Y-72608723D01*
X157207255Y-72558148D01*
X157308418Y-72371830D01*
X157308419Y-72371828D01*
X157310468Y-72368054D01*
X157407269Y-72111877D01*
X157432107Y-72003427D01*
X157467449Y-71849117D01*
X157467450Y-71849113D01*
X157468407Y-71844933D01*
X157492751Y-71572161D01*
X157493193Y-71530000D01*
X157474567Y-71256778D01*
X157468203Y-71226045D01*
X157419901Y-70992809D01*
X157419032Y-70988612D01*
X157327617Y-70730465D01*
X157202013Y-70487112D01*
X157192040Y-70472921D01*
X157047008Y-70266562D01*
X157044545Y-70263057D01*
X156858125Y-70062445D01*
X156854810Y-70059731D01*
X156854806Y-70059728D01*
X156682259Y-69918500D01*
X156646205Y-69888990D01*
X156440845Y-69763146D01*
X156416366Y-69748145D01*
X156416365Y-69748145D01*
X156412704Y-69745901D01*
X156408768Y-69744173D01*
X156165873Y-69637549D01*
X156165869Y-69637548D01*
X156161945Y-69635825D01*
X155898566Y-69560800D01*
X155894324Y-69560196D01*
X155894318Y-69560195D01*
X155693834Y-69531662D01*
X155627443Y-69522213D01*
X155483589Y-69521460D01*
X155357877Y-69520802D01*
X155357871Y-69520802D01*
X155353591Y-69520780D01*
X155349347Y-69521339D01*
X155349343Y-69521339D01*
X155230302Y-69537011D01*
X155082078Y-69556525D01*
X155077938Y-69557658D01*
X155077936Y-69557658D01*
X155033373Y-69569849D01*
X154817928Y-69628788D01*
X154813980Y-69630472D01*
X154569982Y-69734546D01*
X154569978Y-69734548D01*
X154566030Y-69736232D01*
X154527478Y-69759305D01*
X154334725Y-69874664D01*
X154334721Y-69874667D01*
X154331043Y-69876868D01*
X154117318Y-70048094D01*
X153928808Y-70246742D01*
X153769002Y-70469136D01*
X153640857Y-70711161D01*
X153639385Y-70715184D01*
X153639383Y-70715188D01*
X153632314Y-70734506D01*
X153546743Y-70968337D01*
X153488404Y-71235907D01*
X153466917Y-71508918D01*
X153482682Y-71782320D01*
X153483507Y-71786525D01*
X153483508Y-71786533D01*
X153494127Y-71840657D01*
X153535405Y-72051053D01*
X153536792Y-72055103D01*
X153536793Y-72055108D01*
X153622723Y-72306088D01*
X153624112Y-72310144D01*
X153747160Y-72554799D01*
X153749586Y-72558328D01*
X153749589Y-72558334D01*
X153895178Y-72770166D01*
X153902274Y-72780490D01*
X153905161Y-72783663D01*
X153905162Y-72783664D01*
X154066612Y-72961096D01*
X154086582Y-72983043D01*
X154089877Y-72985798D01*
X154089878Y-72985799D01*
X154134382Y-73023010D01*
X154296675Y-73158707D01*
X154300316Y-73160991D01*
X154525024Y-73301951D01*
X154525028Y-73301953D01*
X154528664Y-73304234D01*
X154772352Y-73414264D01*
X154826205Y-73460526D01*
X154846500Y-73529100D01*
X154846500Y-82673362D01*
X154826498Y-82741483D01*
X154769935Y-82789259D01*
X154569982Y-82874546D01*
X154569978Y-82874548D01*
X154566030Y-82876232D01*
X154504563Y-82913019D01*
X154334725Y-83014664D01*
X154334721Y-83014667D01*
X154331043Y-83016868D01*
X154117318Y-83188094D01*
X153928808Y-83386742D01*
X153769002Y-83609136D01*
X153640857Y-83851161D01*
X153639385Y-83855184D01*
X153639383Y-83855188D01*
X153550647Y-84097668D01*
X153546743Y-84108337D01*
X153488404Y-84375907D01*
X153482211Y-84454595D01*
X153471446Y-84591379D01*
X153466917Y-84648918D01*
X153482682Y-84922320D01*
X153483507Y-84926525D01*
X153483508Y-84926533D01*
X153503118Y-85026483D01*
X153535405Y-85191053D01*
X153536792Y-85195103D01*
X153536793Y-85195108D01*
X153557605Y-85255895D01*
X153624112Y-85450144D01*
X153651217Y-85504036D01*
X153732731Y-85666109D01*
X153747160Y-85694799D01*
X153749586Y-85698328D01*
X153749589Y-85698334D01*
X153843174Y-85834500D01*
X153902274Y-85920490D01*
X153905161Y-85923663D01*
X153905162Y-85923664D01*
X154040344Y-86072228D01*
X154086582Y-86123043D01*
X154296675Y-86298707D01*
X154300316Y-86300991D01*
X154387456Y-86355654D01*
X154434534Y-86408797D01*
X154446500Y-86462391D01*
X154446500Y-91076488D01*
X154426498Y-91144609D01*
X154385207Y-91184603D01*
X154307624Y-91231035D01*
X154234725Y-91274664D01*
X154234721Y-91274667D01*
X154231043Y-91276868D01*
X154017318Y-91448094D01*
X153828808Y-91646742D01*
X153669002Y-91869136D01*
X153540857Y-92111161D01*
X153539385Y-92115184D01*
X153539383Y-92115188D01*
X153500665Y-92220989D01*
X153446743Y-92368337D01*
X153388404Y-92635907D01*
X153366917Y-92908918D01*
X153382682Y-93182320D01*
X153383507Y-93186525D01*
X153383508Y-93186533D01*
X153399125Y-93266132D01*
X153435405Y-93451053D01*
X153436792Y-93455103D01*
X153436793Y-93455108D01*
X153499159Y-93637262D01*
X153524112Y-93710144D01*
X153647160Y-93954799D01*
X153649586Y-93958328D01*
X153649589Y-93958334D01*
X153793364Y-94167526D01*
X153802274Y-94180490D01*
X153986582Y-94383043D01*
X154196675Y-94558707D01*
X154298228Y-94622411D01*
X154387456Y-94678384D01*
X154434534Y-94731527D01*
X154446500Y-94785121D01*
X154446500Y-104216488D01*
X154426498Y-104284609D01*
X154385206Y-104324604D01*
X154234725Y-104414664D01*
X154234721Y-104414667D01*
X154231043Y-104416868D01*
X154017318Y-104588094D01*
X153828808Y-104786742D01*
X153669002Y-105009136D01*
X153540857Y-105251161D01*
X153539385Y-105255184D01*
X153539383Y-105255188D01*
X153532314Y-105274506D01*
X153446743Y-105508337D01*
X153388404Y-105775907D01*
X153366917Y-106048918D01*
X153382682Y-106322320D01*
X153383507Y-106326525D01*
X153383508Y-106326533D01*
X153394127Y-106380657D01*
X153435405Y-106591053D01*
X153436792Y-106595103D01*
X153436793Y-106595108D01*
X153457605Y-106655895D01*
X153524112Y-106850144D01*
X153647160Y-107094799D01*
X153649586Y-107098328D01*
X153649589Y-107098334D01*
X153793364Y-107307526D01*
X153802274Y-107320490D01*
X153805161Y-107323663D01*
X153805162Y-107323664D01*
X153843665Y-107365978D01*
X153986582Y-107523043D01*
X154196675Y-107698707D01*
X154200316Y-107700991D01*
X154387456Y-107818384D01*
X154434534Y-107871527D01*
X154446500Y-107925121D01*
X154446500Y-112676488D01*
X154426498Y-112744609D01*
X154385207Y-112784603D01*
X154307624Y-112831035D01*
X154234725Y-112874664D01*
X154234721Y-112874667D01*
X154231043Y-112876868D01*
X154017318Y-113048094D01*
X153828808Y-113246742D01*
X153669002Y-113469136D01*
X153540857Y-113711161D01*
X153539385Y-113715184D01*
X153539383Y-113715188D01*
X153508737Y-113798932D01*
X153446743Y-113968337D01*
X153388404Y-114235907D01*
X153366917Y-114508918D01*
X153382682Y-114782320D01*
X153383507Y-114786525D01*
X153383508Y-114786533D01*
X153394127Y-114840657D01*
X153435405Y-115051053D01*
X153436792Y-115055103D01*
X153436793Y-115055108D01*
X153486401Y-115200000D01*
X153524112Y-115310144D01*
X153647160Y-115554799D01*
X153649586Y-115558328D01*
X153649589Y-115558334D01*
X153788501Y-115760451D01*
X153802274Y-115780490D01*
X153986582Y-115983043D01*
X154196675Y-116158707D01*
X154200316Y-116160991D01*
X154387456Y-116278384D01*
X154434534Y-116331527D01*
X154446500Y-116385121D01*
X154446500Y-125816488D01*
X154426498Y-125884609D01*
X154385206Y-125924604D01*
X154234725Y-126014664D01*
X154234721Y-126014667D01*
X154231043Y-126016868D01*
X154017318Y-126188094D01*
X153828808Y-126386742D01*
X153669002Y-126609136D01*
X153540857Y-126851161D01*
X153539385Y-126855184D01*
X153539383Y-126855188D01*
X153448214Y-127104317D01*
X153446743Y-127108337D01*
X153388404Y-127375907D01*
X153366917Y-127648918D01*
X153382682Y-127922320D01*
X153383507Y-127926525D01*
X153383508Y-127926533D01*
X153393160Y-127975729D01*
X153435405Y-128191053D01*
X153436792Y-128195103D01*
X153436793Y-128195108D01*
X153480511Y-128322796D01*
X153524112Y-128450144D01*
X153647160Y-128694799D01*
X153649586Y-128698328D01*
X153649589Y-128698334D01*
X153799843Y-128916953D01*
X153802274Y-128920490D01*
X153805161Y-128923663D01*
X153805162Y-128923664D01*
X153817064Y-128936744D01*
X153986582Y-129123043D01*
X154196675Y-129298707D01*
X154200316Y-129300991D01*
X154387456Y-129418384D01*
X154434534Y-129471527D01*
X154446500Y-129525121D01*
X154446500Y-134362499D01*
X154426498Y-134430620D01*
X154372842Y-134477113D01*
X154365231Y-134480292D01*
X150140440Y-136084643D01*
X150069656Y-136090127D01*
X150058654Y-136087278D01*
X147521835Y-135306718D01*
X143716605Y-134135879D01*
X143657380Y-134096728D01*
X143628723Y-134031772D01*
X143632101Y-133982298D01*
X144262438Y-131671061D01*
X147636610Y-131671061D01*
X147653147Y-132003255D01*
X147653788Y-132006986D01*
X147653789Y-132006994D01*
X147703368Y-132295521D01*
X147709474Y-132331057D01*
X147710562Y-132334696D01*
X147710563Y-132334699D01*
X147799238Y-132631206D01*
X147804774Y-132649718D01*
X147806287Y-132653189D01*
X147806289Y-132653195D01*
X147855318Y-132765685D01*
X147937666Y-132954622D01*
X148106226Y-133241352D01*
X148108527Y-133244367D01*
X148305712Y-133502742D01*
X148305717Y-133502748D01*
X148308012Y-133505755D01*
X148540102Y-133744002D01*
X148799132Y-133952640D01*
X148881035Y-134003719D01*
X149076478Y-134125608D01*
X149081352Y-134128648D01*
X149382672Y-134269476D01*
X149471737Y-134298673D01*
X149666437Y-134362499D01*
X149698729Y-134373085D01*
X150024944Y-134437973D01*
X150028716Y-134438260D01*
X150028724Y-134438261D01*
X150352815Y-134462914D01*
X150352820Y-134462914D01*
X150356592Y-134463201D01*
X150688869Y-134448403D01*
X150693401Y-134447649D01*
X151013220Y-134394417D01*
X151013225Y-134394416D01*
X151016961Y-134393794D01*
X151336116Y-134300164D01*
X151339583Y-134298674D01*
X151339587Y-134298673D01*
X151638228Y-134170366D01*
X151638230Y-134170365D01*
X151641712Y-134168869D01*
X151929321Y-134001813D01*
X151932343Y-133999532D01*
X151932347Y-133999529D01*
X152191753Y-133803697D01*
X152191754Y-133803696D01*
X152194777Y-133801414D01*
X152434235Y-133570575D01*
X152644227Y-133312641D01*
X152785410Y-133088879D01*
X152819683Y-133034560D01*
X152819685Y-133034557D01*
X152821710Y-133031347D01*
X152964114Y-132730767D01*
X152971416Y-132708882D01*
X153068180Y-132418844D01*
X153069377Y-132415257D01*
X153135972Y-132089386D01*
X153162936Y-131757875D01*
X153163542Y-131700000D01*
X153162026Y-131674853D01*
X153143755Y-131371772D01*
X153143754Y-131371765D01*
X153143527Y-131367997D01*
X153083770Y-131040803D01*
X153037671Y-130892337D01*
X152986261Y-130726771D01*
X152985139Y-130723157D01*
X152849061Y-130419662D01*
X152725492Y-130214415D01*
X152679466Y-130137966D01*
X152679462Y-130137960D01*
X152677507Y-130134713D01*
X152675180Y-130131729D01*
X152675175Y-130131722D01*
X152475294Y-129875425D01*
X152475288Y-129875418D01*
X152472963Y-129872437D01*
X152238392Y-129636634D01*
X151977191Y-129430720D01*
X151693144Y-129257677D01*
X151572046Y-129202617D01*
X151393817Y-129121580D01*
X151393809Y-129121577D01*
X151390365Y-129120011D01*
X151073240Y-129019718D01*
X150787465Y-128965978D01*
X150750087Y-128958949D01*
X150750085Y-128958949D01*
X150746364Y-128958249D01*
X150414470Y-128936496D01*
X150410690Y-128936704D01*
X150410689Y-128936704D01*
X150312918Y-128942085D01*
X150082366Y-128954773D01*
X150078639Y-128955434D01*
X150078635Y-128955434D01*
X149819510Y-129001358D01*
X149754864Y-129012815D01*
X149751239Y-129013920D01*
X149751234Y-129013921D01*
X149543683Y-129077178D01*
X149436707Y-129109782D01*
X149433243Y-129111313D01*
X149433236Y-129111316D01*
X149303335Y-129168745D01*
X149132503Y-129244269D01*
X149129249Y-129246205D01*
X149129243Y-129246208D01*
X148921410Y-129369856D01*
X148846659Y-129414328D01*
X148843658Y-129416643D01*
X148843654Y-129416646D01*
X148770297Y-129473241D01*
X148583316Y-129617496D01*
X148580617Y-129620152D01*
X148580618Y-129620152D01*
X148355695Y-129841569D01*
X148346288Y-129850829D01*
X148139009Y-130110949D01*
X147964481Y-130394086D01*
X147825232Y-130696140D01*
X147824073Y-130699740D01*
X147824070Y-130699747D01*
X147802133Y-130767869D01*
X147723280Y-131012735D01*
X147722561Y-131016451D01*
X147722559Y-131016459D01*
X147660819Y-131335567D01*
X147660100Y-131339285D01*
X147659833Y-131343061D01*
X147659832Y-131343066D01*
X147658067Y-131367997D01*
X147636610Y-131671061D01*
X144262438Y-131671061D01*
X144319067Y-131463422D01*
X144320526Y-131458473D01*
X144499273Y-130895045D01*
X144499274Y-130895040D01*
X144499698Y-130893705D01*
X144500061Y-130892358D01*
X144500067Y-130892337D01*
X144714003Y-130098119D01*
X144714368Y-130096764D01*
X144893707Y-129291137D01*
X144899274Y-129259646D01*
X144988974Y-128752178D01*
X145037369Y-128478389D01*
X145138221Y-127712161D01*
X145144895Y-127661454D01*
X145144896Y-127661444D01*
X145145073Y-127660100D01*
X145145192Y-127658735D01*
X145214566Y-126861356D01*
X145215397Y-126854489D01*
X145216356Y-126850421D01*
X145217321Y-126837905D01*
X145214398Y-126800260D01*
X145213590Y-126789853D01*
X145213212Y-126779884D01*
X145283207Y-85782158D01*
X145310743Y-69653566D01*
X145312490Y-69632876D01*
X145313291Y-69628120D01*
X145315910Y-69612552D01*
X145316063Y-69600000D01*
X145313289Y-69580628D01*
X145312074Y-69558968D01*
X145315393Y-69449123D01*
X145315961Y-69440391D01*
X145364814Y-68951856D01*
X145486236Y-67737641D01*
X145488413Y-67723757D01*
X145580908Y-67292872D01*
X145603278Y-67188663D01*
X145605100Y-67181273D01*
X145679644Y-66913870D01*
X145766749Y-66601411D01*
X145769003Y-66594176D01*
X145826118Y-66428663D01*
X159421500Y-66428663D01*
X159436235Y-66573727D01*
X159438144Y-66579818D01*
X159492556Y-66753451D01*
X159492558Y-66753456D01*
X159494465Y-66759541D01*
X159588870Y-66929850D01*
X159593019Y-66934691D01*
X159593022Y-66934695D01*
X159652282Y-67003834D01*
X159715591Y-67077698D01*
X159720633Y-67081609D01*
X159720634Y-67081610D01*
X159794549Y-67138944D01*
X159869453Y-67197046D01*
X159875176Y-67199862D01*
X159875179Y-67199864D01*
X160038444Y-67280200D01*
X160044171Y-67283018D01*
X160050349Y-67284627D01*
X160050351Y-67284628D01*
X160226425Y-67330492D01*
X160226428Y-67330492D01*
X160232607Y-67332102D01*
X160316597Y-67336504D01*
X160420683Y-67341959D01*
X160420687Y-67341959D01*
X160427064Y-67342293D01*
X160582413Y-67318799D01*
X160613285Y-67314130D01*
X160613286Y-67314130D01*
X160619599Y-67313175D01*
X160625585Y-67310972D01*
X160625591Y-67310971D01*
X160796360Y-67248140D01*
X160796365Y-67248138D01*
X160802346Y-67245937D01*
X160967840Y-67143326D01*
X161003505Y-67109600D01*
X161104685Y-67013919D01*
X161109322Y-67009534D01*
X161221011Y-66850025D01*
X161262802Y-66753451D01*
X161295810Y-66677175D01*
X161295811Y-66677171D01*
X161298345Y-66671316D01*
X161299651Y-66665066D01*
X161337176Y-66485443D01*
X161337177Y-66485438D01*
X161338165Y-66480707D01*
X161338500Y-66474315D01*
X161338500Y-66218770D01*
X161358502Y-66150649D01*
X161412158Y-66104156D01*
X161482432Y-66094052D01*
X161507592Y-66100368D01*
X161618685Y-66140803D01*
X161758769Y-66158500D01*
X161855610Y-66158500D01*
X161990255Y-66143397D01*
X162022555Y-66132149D01*
X162154894Y-66086064D01*
X162154897Y-66086062D01*
X162161552Y-66083745D01*
X162169741Y-66078628D01*
X162309402Y-65991359D01*
X162315376Y-65987626D01*
X162327612Y-65975475D01*
X162439085Y-65864778D01*
X162439088Y-65864774D01*
X162444082Y-65859815D01*
X162541273Y-65706666D01*
X162580807Y-65595642D01*
X162599757Y-65542425D01*
X162599758Y-65542420D01*
X162602119Y-65535790D01*
X162603463Y-65524526D01*
X162622762Y-65362673D01*
X162623596Y-65355680D01*
X162621586Y-65336559D01*
X162605372Y-65182288D01*
X162605371Y-65182286D01*
X162604636Y-65175288D01*
X162546182Y-65003579D01*
X162507750Y-64941109D01*
X162454834Y-64855095D01*
X162454832Y-64855092D01*
X162451138Y-64849088D01*
X162446207Y-64844053D01*
X162446205Y-64844050D01*
X162329157Y-64724525D01*
X162329156Y-64724524D01*
X162324229Y-64719493D01*
X162171762Y-64621235D01*
X162165142Y-64618826D01*
X162165139Y-64618824D01*
X162007934Y-64561606D01*
X162007933Y-64561606D01*
X162001315Y-64559197D01*
X161861231Y-64541500D01*
X161764390Y-64541500D01*
X161629745Y-64556603D01*
X161623092Y-64558920D01*
X161623091Y-64558920D01*
X161465106Y-64613936D01*
X161465103Y-64613938D01*
X161458448Y-64616255D01*
X161452469Y-64619991D01*
X161410724Y-64646076D01*
X161304624Y-64712374D01*
X161303777Y-64711018D01*
X161245774Y-64734489D01*
X161176011Y-64721312D01*
X161137663Y-64691103D01*
X161044409Y-64582302D01*
X161046536Y-64580479D01*
X161017083Y-64529591D01*
X161013500Y-64499755D01*
X161013500Y-62834413D01*
X161033502Y-62766292D01*
X161052927Y-62742865D01*
X161104681Y-62693924D01*
X161104687Y-62693917D01*
X161109322Y-62689534D01*
X161142938Y-62641526D01*
X161217346Y-62535259D01*
X161221011Y-62530025D01*
X161290494Y-62369459D01*
X161335904Y-62314885D01*
X161406130Y-62293500D01*
X167996143Y-62293500D01*
X168064264Y-62313502D01*
X168110757Y-62367158D01*
X168116377Y-62381822D01*
X168132555Y-62433448D01*
X168132557Y-62433453D01*
X168134465Y-62439541D01*
X168228870Y-62609850D01*
X168233019Y-62614691D01*
X168233022Y-62614695D01*
X168355591Y-62757698D01*
X168353464Y-62759521D01*
X168382917Y-62810409D01*
X168386500Y-62840245D01*
X168386500Y-64505587D01*
X168366498Y-64573708D01*
X168347073Y-64597135D01*
X168295317Y-64646078D01*
X168295312Y-64646084D01*
X168290678Y-64650466D01*
X168287019Y-64655692D01*
X168268946Y-64681502D01*
X168213488Y-64725831D01*
X168142869Y-64733139D01*
X168097481Y-64715144D01*
X167951762Y-64621235D01*
X167945142Y-64618826D01*
X167945139Y-64618824D01*
X167787934Y-64561606D01*
X167787933Y-64561606D01*
X167781315Y-64559197D01*
X167641231Y-64541500D01*
X167544390Y-64541500D01*
X167409745Y-64556603D01*
X167403092Y-64558920D01*
X167403091Y-64558920D01*
X167245106Y-64613936D01*
X167245103Y-64613938D01*
X167238448Y-64616255D01*
X167232469Y-64619991D01*
X167224367Y-64625054D01*
X167084624Y-64712374D01*
X167079628Y-64717335D01*
X167079627Y-64717336D01*
X166960915Y-64835222D01*
X166960912Y-64835226D01*
X166955918Y-64840185D01*
X166858727Y-64993334D01*
X166856362Y-64999976D01*
X166800243Y-65157575D01*
X166800242Y-65157580D01*
X166797881Y-65164210D01*
X166797048Y-65171198D01*
X166797047Y-65171201D01*
X166789495Y-65234533D01*
X166776404Y-65344320D01*
X166777140Y-65351323D01*
X166777140Y-65351324D01*
X166787877Y-65453475D01*
X166795364Y-65524712D01*
X166853818Y-65696421D01*
X166874659Y-65730297D01*
X166913659Y-65793690D01*
X166948862Y-65850912D01*
X166953793Y-65855947D01*
X166953795Y-65855950D01*
X167070843Y-65975475D01*
X167075771Y-65980507D01*
X167228238Y-66078765D01*
X167234858Y-66081174D01*
X167234861Y-66081176D01*
X167374908Y-66132149D01*
X167398685Y-66140803D01*
X167538769Y-66158500D01*
X167635610Y-66158500D01*
X167770255Y-66143397D01*
X167894065Y-66100282D01*
X167964972Y-66096768D01*
X168026524Y-66132149D01*
X168059177Y-66195191D01*
X168061500Y-66219273D01*
X168061500Y-66428663D01*
X168076235Y-66573727D01*
X168078144Y-66579818D01*
X168132556Y-66753451D01*
X168132558Y-66753456D01*
X168134465Y-66759541D01*
X168228870Y-66929850D01*
X168233019Y-66934691D01*
X168233022Y-66934695D01*
X168292282Y-67003834D01*
X168355591Y-67077698D01*
X168360633Y-67081609D01*
X168360634Y-67081610D01*
X168434549Y-67138944D01*
X168509453Y-67197046D01*
X168515176Y-67199862D01*
X168515179Y-67199864D01*
X168678444Y-67280200D01*
X168684171Y-67283018D01*
X168690349Y-67284627D01*
X168690351Y-67284628D01*
X168866425Y-67330492D01*
X168866428Y-67330492D01*
X168872607Y-67332102D01*
X168956597Y-67336504D01*
X169060683Y-67341959D01*
X169060687Y-67341959D01*
X169067064Y-67342293D01*
X169222413Y-67318799D01*
X169253285Y-67314130D01*
X169253286Y-67314130D01*
X169259599Y-67313175D01*
X169265585Y-67310972D01*
X169265591Y-67310971D01*
X169436360Y-67248140D01*
X169436365Y-67248138D01*
X169442346Y-67245937D01*
X169607840Y-67143326D01*
X169643505Y-67109600D01*
X169744685Y-67013919D01*
X169749322Y-67009534D01*
X169861011Y-66850025D01*
X169902802Y-66753451D01*
X169935810Y-66677175D01*
X169935811Y-66677171D01*
X169938345Y-66671316D01*
X169939651Y-66665066D01*
X169977176Y-66485443D01*
X169977177Y-66485438D01*
X169978165Y-66480707D01*
X169978500Y-66474315D01*
X169978500Y-65231337D01*
X169963765Y-65086273D01*
X169937851Y-65003579D01*
X169907444Y-64906549D01*
X169907442Y-64906544D01*
X169905535Y-64900459D01*
X169811130Y-64730150D01*
X169806981Y-64725309D01*
X169806978Y-64725305D01*
X169684409Y-64582302D01*
X169686536Y-64580479D01*
X169657083Y-64529591D01*
X169653500Y-64499755D01*
X169653500Y-62834413D01*
X169673502Y-62766292D01*
X169692927Y-62742865D01*
X169744681Y-62693924D01*
X169744687Y-62693917D01*
X169749322Y-62689534D01*
X169782938Y-62641526D01*
X169857346Y-62535259D01*
X169861011Y-62530025D01*
X169888277Y-62467017D01*
X169935810Y-62357175D01*
X169935811Y-62357171D01*
X169938345Y-62351316D01*
X169939651Y-62345066D01*
X169977176Y-62165443D01*
X169977177Y-62165438D01*
X169978165Y-62160707D01*
X169978500Y-62154315D01*
X169978500Y-61211337D01*
X169963765Y-61066273D01*
X169944599Y-61005115D01*
X169907444Y-60886549D01*
X169907442Y-60886544D01*
X169905535Y-60880459D01*
X169811130Y-60710150D01*
X169806981Y-60705309D01*
X169806978Y-60705305D01*
X169688560Y-60567145D01*
X169684409Y-60562302D01*
X169530547Y-60442954D01*
X169524824Y-60440138D01*
X169524821Y-60440136D01*
X169361556Y-60359800D01*
X169355829Y-60356982D01*
X169349651Y-60355373D01*
X169349649Y-60355372D01*
X169173575Y-60309508D01*
X169173572Y-60309508D01*
X169167393Y-60307898D01*
X169083403Y-60303496D01*
X168979317Y-60298041D01*
X168979313Y-60298041D01*
X168972936Y-60297707D01*
X168858115Y-60315072D01*
X168786715Y-60325870D01*
X168786714Y-60325870D01*
X168780401Y-60326825D01*
X168774415Y-60329028D01*
X168774409Y-60329029D01*
X168603640Y-60391860D01*
X168603635Y-60391862D01*
X168597654Y-60394063D01*
X168432160Y-60496674D01*
X168427527Y-60501055D01*
X168427526Y-60501056D01*
X168322895Y-60600000D01*
X168290678Y-60630466D01*
X168178989Y-60789975D01*
X168139834Y-60880459D01*
X168109507Y-60950540D01*
X168064096Y-61005115D01*
X167993870Y-61026500D01*
X161403857Y-61026500D01*
X161335736Y-61006498D01*
X161289243Y-60952842D01*
X161283623Y-60938178D01*
X161267445Y-60886552D01*
X161267443Y-60886547D01*
X161265535Y-60880459D01*
X161171130Y-60710150D01*
X161166981Y-60705309D01*
X161166978Y-60705305D01*
X161048560Y-60567145D01*
X161044409Y-60562302D01*
X160890547Y-60442954D01*
X160884824Y-60440138D01*
X160884821Y-60440136D01*
X160721556Y-60359800D01*
X160715829Y-60356982D01*
X160709651Y-60355373D01*
X160709649Y-60355372D01*
X160533575Y-60309508D01*
X160533572Y-60309508D01*
X160527393Y-60307898D01*
X160443403Y-60303496D01*
X160339317Y-60298041D01*
X160339313Y-60298041D01*
X160332936Y-60297707D01*
X160218115Y-60315072D01*
X160146715Y-60325870D01*
X160146714Y-60325870D01*
X160140401Y-60326825D01*
X160134415Y-60329028D01*
X160134409Y-60329029D01*
X159963640Y-60391860D01*
X159963635Y-60391862D01*
X159957654Y-60394063D01*
X159792160Y-60496674D01*
X159787527Y-60501055D01*
X159787526Y-60501056D01*
X159682895Y-60600000D01*
X159650678Y-60630466D01*
X159538989Y-60789975D01*
X159536452Y-60795838D01*
X159464535Y-60962029D01*
X159461655Y-60968684D01*
X159460350Y-60974931D01*
X159460349Y-60974934D01*
X159441268Y-61066273D01*
X159421835Y-61159293D01*
X159421500Y-61165685D01*
X159421500Y-62108663D01*
X159436235Y-62253727D01*
X159445523Y-62283365D01*
X159492556Y-62433451D01*
X159492558Y-62433456D01*
X159494465Y-62439541D01*
X159588870Y-62609850D01*
X159593019Y-62614691D01*
X159593022Y-62614695D01*
X159715591Y-62757698D01*
X159713464Y-62759521D01*
X159742917Y-62810409D01*
X159746500Y-62840245D01*
X159746500Y-64505587D01*
X159726498Y-64573708D01*
X159707073Y-64597135D01*
X159655319Y-64646076D01*
X159655313Y-64646083D01*
X159650678Y-64650466D01*
X159647019Y-64655692D01*
X159647015Y-64655697D01*
X159598275Y-64725305D01*
X159538989Y-64809975D01*
X159461655Y-64988684D01*
X159460350Y-64994931D01*
X159460349Y-64994934D01*
X159424064Y-65168624D01*
X159421835Y-65179293D01*
X159421500Y-65185685D01*
X159421500Y-66428663D01*
X145826118Y-66428663D01*
X145965382Y-66025092D01*
X145968076Y-66017989D01*
X145972196Y-66008044D01*
X146130916Y-65624860D01*
X146198441Y-65461841D01*
X146201565Y-65454900D01*
X146465089Y-64913675D01*
X146468626Y-64906936D01*
X146651720Y-64582302D01*
X146764353Y-64382600D01*
X146768286Y-64376094D01*
X146860228Y-64233891D01*
X147095123Y-63870586D01*
X147099443Y-63864326D01*
X147456219Y-63379455D01*
X147460913Y-63373464D01*
X147846301Y-62911035D01*
X147851348Y-62905338D01*
X148129503Y-62609850D01*
X148263967Y-62467007D01*
X148269328Y-62461646D01*
X148580926Y-62168328D01*
X148707662Y-62049027D01*
X148713359Y-62043980D01*
X149175796Y-61658587D01*
X149181788Y-61653893D01*
X149208842Y-61633987D01*
X149666640Y-61297134D01*
X149672904Y-61292810D01*
X150178427Y-60965966D01*
X150184940Y-60962029D01*
X150709271Y-60666308D01*
X150716010Y-60662771D01*
X150844930Y-60600000D01*
X151257251Y-60399241D01*
X151264149Y-60396137D01*
X151820334Y-60165759D01*
X151827430Y-60163068D01*
X151911205Y-60134159D01*
X151993557Y-60105742D01*
X151998863Y-60104041D01*
X153097906Y-59778399D01*
X153107256Y-59776014D01*
X153579569Y-59674627D01*
X153587056Y-59673255D01*
X154182180Y-59582681D01*
X154189735Y-59581764D01*
X154783717Y-59527789D01*
X154786739Y-59527551D01*
X154795904Y-59526940D01*
X154800480Y-59526718D01*
X155071844Y-59518519D01*
X155357681Y-59509883D01*
X155380865Y-59511326D01*
X155384888Y-59511952D01*
X155387185Y-59512310D01*
X155387187Y-59512310D01*
X155396056Y-59513691D01*
X155404958Y-59512527D01*
X155404960Y-59512527D01*
X155420009Y-59510559D01*
X155427618Y-59509564D01*
X155443953Y-59508500D01*
X182428747Y-59508500D01*
X182496868Y-59528502D01*
G37*
%TD.AperFunction*%
%TA.AperFunction,Conductor*%
%TO.N,GND*%
G36*
X245458527Y-72353502D02*
G01*
X245505020Y-72407158D01*
X245515124Y-72477432D01*
X245510238Y-72498438D01*
X245508498Y-72503792D01*
X245508497Y-72503797D01*
X245506458Y-72510072D01*
X245505768Y-72516633D01*
X245505768Y-72516635D01*
X245496533Y-72604501D01*
X245486496Y-72700000D01*
X245487186Y-72706565D01*
X245503996Y-72866500D01*
X245506458Y-72889928D01*
X245565473Y-73071556D01*
X245660960Y-73236944D01*
X245788747Y-73378866D01*
X245887843Y-73450864D01*
X245926385Y-73478866D01*
X245943248Y-73491118D01*
X245949276Y-73493802D01*
X245949278Y-73493803D01*
X246085820Y-73554595D01*
X246117712Y-73568794D01*
X246204479Y-73587237D01*
X246298056Y-73607128D01*
X246298061Y-73607128D01*
X246304513Y-73608500D01*
X246360406Y-73608500D01*
X246428527Y-73628502D01*
X246449501Y-73645405D01*
X246795458Y-73991362D01*
X248496348Y-75692253D01*
X248503888Y-75700539D01*
X248508000Y-75707018D01*
X248513777Y-75712443D01*
X248557651Y-75753643D01*
X248560493Y-75756398D01*
X248580230Y-75776135D01*
X248583427Y-75778615D01*
X248592447Y-75786318D01*
X248624679Y-75816586D01*
X248631625Y-75820405D01*
X248631628Y-75820407D01*
X248642434Y-75826348D01*
X248658953Y-75837199D01*
X248674959Y-75849614D01*
X248682228Y-75852759D01*
X248682232Y-75852762D01*
X248715537Y-75867174D01*
X248726187Y-75872391D01*
X248764940Y-75893695D01*
X248772615Y-75895666D01*
X248772616Y-75895666D01*
X248784562Y-75898733D01*
X248803266Y-75905137D01*
X248811038Y-75908500D01*
X248821855Y-75913181D01*
X248829678Y-75914420D01*
X248829688Y-75914423D01*
X248865524Y-75920099D01*
X248877144Y-75922505D01*
X248900503Y-75928502D01*
X248919970Y-75933500D01*
X248940224Y-75933500D01*
X248959934Y-75935051D01*
X248979943Y-75938220D01*
X248987835Y-75937474D01*
X248999263Y-75936394D01*
X249023962Y-75934059D01*
X249035819Y-75933500D01*
X249690406Y-75933500D01*
X249758527Y-75953502D01*
X249805020Y-76007158D01*
X249815124Y-76077432D01*
X249810238Y-76098438D01*
X249808498Y-76103792D01*
X249808497Y-76103797D01*
X249806458Y-76110072D01*
X249805768Y-76116633D01*
X249805768Y-76116635D01*
X249793871Y-76229834D01*
X249786496Y-76300000D01*
X249787186Y-76306565D01*
X249799228Y-76421134D01*
X249806458Y-76489928D01*
X249865473Y-76671556D01*
X249868776Y-76677278D01*
X249868777Y-76677279D01*
X249892807Y-76718900D01*
X249960960Y-76836944D01*
X249965378Y-76841851D01*
X249965379Y-76841852D01*
X250021152Y-76903794D01*
X250088747Y-76978866D01*
X250243248Y-77091118D01*
X250249276Y-77093802D01*
X250249278Y-77093803D01*
X250373406Y-77149068D01*
X250417712Y-77168794D01*
X250498744Y-77186018D01*
X250598056Y-77207128D01*
X250598061Y-77207128D01*
X250604513Y-77208500D01*
X250660406Y-77208500D01*
X250728527Y-77228502D01*
X250749501Y-77245405D01*
X251029595Y-77525499D01*
X251063621Y-77587811D01*
X251066500Y-77614594D01*
X251066500Y-78897476D01*
X251046498Y-78965597D01*
X251034142Y-78981779D01*
X250960960Y-79063056D01*
X250865473Y-79228444D01*
X250806458Y-79410072D01*
X250805768Y-79416633D01*
X250805768Y-79416635D01*
X250798819Y-79482749D01*
X250786496Y-79600000D01*
X250806458Y-79789928D01*
X250865473Y-79971556D01*
X250960960Y-80136944D01*
X250965378Y-80141851D01*
X250965379Y-80141852D01*
X251037454Y-80221899D01*
X251088747Y-80278866D01*
X251243248Y-80391118D01*
X251249276Y-80393802D01*
X251249278Y-80393803D01*
X251411681Y-80466109D01*
X251417712Y-80468794D01*
X251511112Y-80488647D01*
X251598056Y-80507128D01*
X251598061Y-80507128D01*
X251604513Y-80508500D01*
X251795487Y-80508500D01*
X251801939Y-80507128D01*
X251801944Y-80507128D01*
X251888887Y-80488647D01*
X251982288Y-80468794D01*
X251988319Y-80466109D01*
X252150722Y-80393803D01*
X252150724Y-80393802D01*
X252156752Y-80391118D01*
X252311253Y-80278866D01*
X252362546Y-80221899D01*
X252434621Y-80141852D01*
X252434622Y-80141851D01*
X252439040Y-80136944D01*
X252534527Y-79971556D01*
X252593542Y-79789928D01*
X252613504Y-79600000D01*
X252601181Y-79482749D01*
X252594232Y-79416635D01*
X252594232Y-79416633D01*
X252593542Y-79410072D01*
X252534527Y-79228444D01*
X252439040Y-79063056D01*
X252365863Y-78981785D01*
X252335147Y-78917779D01*
X252333500Y-78897476D01*
X252333500Y-77378768D01*
X252334027Y-77367585D01*
X252335702Y-77360092D01*
X252333562Y-77292001D01*
X252333500Y-77288044D01*
X252333500Y-77260144D01*
X252332996Y-77256153D01*
X252332063Y-77244311D01*
X252331793Y-77235702D01*
X252330674Y-77200111D01*
X252325021Y-77180652D01*
X252321012Y-77161293D01*
X252319739Y-77151218D01*
X252318474Y-77141203D01*
X252315558Y-77133837D01*
X252315556Y-77133831D01*
X252302200Y-77100098D01*
X252298355Y-77088868D01*
X252288230Y-77054017D01*
X252288230Y-77054016D01*
X252286019Y-77046407D01*
X252275705Y-77028966D01*
X252267008Y-77011213D01*
X252262472Y-76999758D01*
X252259552Y-76992383D01*
X252233563Y-76956612D01*
X252227047Y-76946692D01*
X252216991Y-76929688D01*
X252204542Y-76908638D01*
X252190221Y-76894317D01*
X252177380Y-76879283D01*
X252170131Y-76869306D01*
X252165472Y-76862893D01*
X252131395Y-76834702D01*
X252122616Y-76826712D01*
X251647122Y-76351218D01*
X251613096Y-76288906D01*
X251610907Y-76275293D01*
X251607216Y-76240169D01*
X251593542Y-76110072D01*
X251591503Y-76103797D01*
X251591502Y-76103792D01*
X251589762Y-76098438D01*
X251587733Y-76027471D01*
X251624394Y-75966672D01*
X251688106Y-75935346D01*
X251709594Y-75933500D01*
X256010004Y-75933500D01*
X256078125Y-75953502D01*
X256099099Y-75970405D01*
X256665177Y-76536483D01*
X256699203Y-76598795D01*
X256701392Y-76612408D01*
X256715971Y-76751117D01*
X256718757Y-76777629D01*
X256777772Y-76959257D01*
X256873259Y-77124645D01*
X256877677Y-77129552D01*
X256877678Y-77129553D01*
X256948762Y-77208500D01*
X257001046Y-77266567D01*
X257082159Y-77325499D01*
X257120254Y-77353177D01*
X257163608Y-77409399D01*
X257169683Y-77480136D01*
X257135288Y-77544208D01*
X256756687Y-77922809D01*
X256694375Y-77956835D01*
X256623560Y-77951770D01*
X256566724Y-77909223D01*
X256558474Y-77896715D01*
X256542344Y-77868778D01*
X256542341Y-77868774D01*
X256539040Y-77863056D01*
X256532826Y-77856154D01*
X256415675Y-77726045D01*
X256415674Y-77726044D01*
X256411253Y-77721134D01*
X256287506Y-77631226D01*
X256262094Y-77612763D01*
X256262093Y-77612762D01*
X256256752Y-77608882D01*
X256250724Y-77606198D01*
X256250722Y-77606197D01*
X256088319Y-77533891D01*
X256088318Y-77533891D01*
X256082288Y-77531206D01*
X255976115Y-77508638D01*
X255901944Y-77492872D01*
X255901939Y-77492872D01*
X255895487Y-77491500D01*
X255704513Y-77491500D01*
X255698061Y-77492872D01*
X255698056Y-77492872D01*
X255623885Y-77508638D01*
X255517712Y-77531206D01*
X255511682Y-77533891D01*
X255511681Y-77533891D01*
X255349278Y-77606197D01*
X255349276Y-77606198D01*
X255343248Y-77608882D01*
X255337907Y-77612762D01*
X255337906Y-77612763D01*
X255312494Y-77631226D01*
X255188747Y-77721134D01*
X255184326Y-77726044D01*
X255184325Y-77726045D01*
X255067175Y-77856154D01*
X255060960Y-77863056D01*
X254965473Y-78028444D01*
X254906458Y-78210072D01*
X254901405Y-78258154D01*
X254900851Y-78263421D01*
X254873838Y-78329078D01*
X254864636Y-78339346D01*
X245496545Y-87707436D01*
X245434235Y-87741461D01*
X245384760Y-87742280D01*
X244410969Y-87563980D01*
X243736807Y-87440542D01*
X243673402Y-87408598D01*
X243637334Y-87347446D01*
X243633500Y-87316602D01*
X243633500Y-77100000D01*
X244386496Y-77100000D01*
X244387186Y-77106565D01*
X244404003Y-77266567D01*
X244406458Y-77289928D01*
X244465473Y-77471556D01*
X244468776Y-77477278D01*
X244468777Y-77477279D01*
X244476988Y-77491500D01*
X244560960Y-77636944D01*
X244565378Y-77641851D01*
X244565379Y-77641852D01*
X244633269Y-77717251D01*
X244688747Y-77778866D01*
X244843248Y-77891118D01*
X244849276Y-77893802D01*
X244849278Y-77893803D01*
X245011681Y-77966109D01*
X245017712Y-77968794D01*
X245111112Y-77988647D01*
X245198056Y-78007128D01*
X245198061Y-78007128D01*
X245204513Y-78008500D01*
X245260404Y-78008500D01*
X245328525Y-78028502D01*
X245349499Y-78045405D01*
X245374104Y-78070010D01*
X245408130Y-78132322D01*
X245403065Y-78203137D01*
X245378647Y-78243412D01*
X245360960Y-78263056D01*
X245335130Y-78307795D01*
X245278924Y-78405147D01*
X245265473Y-78428444D01*
X245206458Y-78610072D01*
X245205768Y-78616633D01*
X245205768Y-78616635D01*
X245199105Y-78680030D01*
X245186496Y-78800000D01*
X245206458Y-78989928D01*
X245265473Y-79171556D01*
X245360960Y-79336944D01*
X245488747Y-79478866D01*
X245643248Y-79591118D01*
X245649276Y-79593802D01*
X245649278Y-79593803D01*
X245811681Y-79666109D01*
X245817712Y-79668794D01*
X245911112Y-79688647D01*
X245998056Y-79707128D01*
X245998061Y-79707128D01*
X246004513Y-79708500D01*
X246195487Y-79708500D01*
X246201939Y-79707128D01*
X246201944Y-79707128D01*
X246288888Y-79688647D01*
X246382288Y-79668794D01*
X246388319Y-79666109D01*
X246550722Y-79593803D01*
X246550724Y-79593802D01*
X246556752Y-79591118D01*
X246711253Y-79478866D01*
X246839040Y-79336944D01*
X246934527Y-79171556D01*
X246993542Y-78989928D01*
X247013504Y-78800000D01*
X247000895Y-78680030D01*
X246994232Y-78616635D01*
X246994232Y-78616633D01*
X246993542Y-78610072D01*
X246934527Y-78428444D01*
X246921077Y-78405147D01*
X246864870Y-78307795D01*
X246839040Y-78263056D01*
X246765863Y-78181785D01*
X246735147Y-78117779D01*
X246733500Y-78097476D01*
X246733500Y-77978767D01*
X246734027Y-77967584D01*
X246735702Y-77960091D01*
X246735441Y-77951770D01*
X246733562Y-77892001D01*
X246733500Y-77888043D01*
X246733500Y-77860144D01*
X246732996Y-77856153D01*
X246732063Y-77844311D01*
X246730923Y-77808036D01*
X246730674Y-77800111D01*
X246728462Y-77792497D01*
X246728461Y-77792492D01*
X246725023Y-77780659D01*
X246721012Y-77761295D01*
X246719467Y-77749064D01*
X246718474Y-77741203D01*
X246715557Y-77733836D01*
X246715556Y-77733831D01*
X246702198Y-77700092D01*
X246698354Y-77688865D01*
X246688230Y-77654022D01*
X246686018Y-77646407D01*
X246681697Y-77639100D01*
X246675707Y-77628972D01*
X246667012Y-77611224D01*
X246659552Y-77592383D01*
X246633564Y-77556613D01*
X246627048Y-77546693D01*
X246608580Y-77515465D01*
X246608578Y-77515462D01*
X246604542Y-77508638D01*
X246590221Y-77494317D01*
X246577380Y-77479283D01*
X246570131Y-77469306D01*
X246565472Y-77462893D01*
X246559367Y-77457842D01*
X246559362Y-77457837D01*
X246531402Y-77434706D01*
X246522624Y-77426719D01*
X246385833Y-77289928D01*
X246247122Y-77151218D01*
X246213097Y-77088905D01*
X246210907Y-77075292D01*
X246194232Y-76916635D01*
X246194232Y-76916633D01*
X246193542Y-76910072D01*
X246134527Y-76728444D01*
X246039040Y-76563056D01*
X245911253Y-76421134D01*
X245756752Y-76308882D01*
X245750724Y-76306198D01*
X245750722Y-76306197D01*
X245588319Y-76233891D01*
X245588318Y-76233891D01*
X245582288Y-76231206D01*
X245488887Y-76211353D01*
X245401944Y-76192872D01*
X245401939Y-76192872D01*
X245395487Y-76191500D01*
X245204513Y-76191500D01*
X245198061Y-76192872D01*
X245198056Y-76192872D01*
X245111113Y-76211353D01*
X245017712Y-76231206D01*
X245011682Y-76233891D01*
X245011681Y-76233891D01*
X244849278Y-76306197D01*
X244849276Y-76306198D01*
X244843248Y-76308882D01*
X244688747Y-76421134D01*
X244560960Y-76563056D01*
X244465473Y-76728444D01*
X244406458Y-76910072D01*
X244405768Y-76916633D01*
X244405768Y-76916635D01*
X244398819Y-76982749D01*
X244386496Y-77100000D01*
X243633500Y-77100000D01*
X243633500Y-72980801D01*
X243653502Y-72912680D01*
X243707158Y-72866187D01*
X243777432Y-72856083D01*
X243805375Y-72864144D01*
X243805400Y-72864068D01*
X243807665Y-72864804D01*
X243810747Y-72865693D01*
X243817712Y-72868794D01*
X243911113Y-72888647D01*
X243998056Y-72907128D01*
X243998061Y-72907128D01*
X244004513Y-72908500D01*
X244195487Y-72908500D01*
X244201939Y-72907128D01*
X244201944Y-72907128D01*
X244288888Y-72888647D01*
X244382288Y-72868794D01*
X244392903Y-72864068D01*
X244550722Y-72793803D01*
X244550724Y-72793802D01*
X244556752Y-72791118D01*
X244566500Y-72784036D01*
X244643973Y-72727748D01*
X244711253Y-72678866D01*
X244775847Y-72607127D01*
X244834621Y-72541852D01*
X244834622Y-72541851D01*
X244839040Y-72536944D01*
X244842339Y-72531231D01*
X244842342Y-72531226D01*
X244920126Y-72396500D01*
X244971509Y-72347507D01*
X245029245Y-72333500D01*
X245390406Y-72333500D01*
X245458527Y-72353502D01*
G37*
%TD.AperFunction*%
%TA.AperFunction,Conductor*%
G36*
X250342012Y-68338370D02*
G01*
X250348595Y-68344499D01*
X251329595Y-69325499D01*
X251363621Y-69387811D01*
X251366500Y-69414594D01*
X251366500Y-69897476D01*
X251346498Y-69965597D01*
X251334142Y-69981779D01*
X251260960Y-70063056D01*
X251165473Y-70228444D01*
X251106458Y-70410072D01*
X251105768Y-70416633D01*
X251105768Y-70416635D01*
X251098275Y-70487931D01*
X251086496Y-70600000D01*
X251087186Y-70606565D01*
X251102957Y-70756614D01*
X251106458Y-70789928D01*
X251165473Y-70971556D01*
X251168776Y-70977278D01*
X251168777Y-70977279D01*
X251180261Y-70997169D01*
X251260960Y-71136944D01*
X251265378Y-71141851D01*
X251265379Y-71141852D01*
X251379107Y-71268160D01*
X251388747Y-71278866D01*
X251543248Y-71391118D01*
X251549276Y-71393802D01*
X251549278Y-71393803D01*
X251587113Y-71410648D01*
X251717712Y-71468794D01*
X251811112Y-71488647D01*
X251898056Y-71507128D01*
X251898061Y-71507128D01*
X251904513Y-71508500D01*
X252095487Y-71508500D01*
X252101939Y-71507128D01*
X252101944Y-71507128D01*
X252188887Y-71488647D01*
X252282288Y-71468794D01*
X252412887Y-71410648D01*
X252450722Y-71393803D01*
X252450724Y-71393802D01*
X252456752Y-71391118D01*
X252516107Y-71347994D01*
X252582972Y-71324137D01*
X252641413Y-71334824D01*
X252717712Y-71368794D01*
X252724167Y-71370166D01*
X252724176Y-71370169D01*
X252752639Y-71376219D01*
X252815112Y-71409947D01*
X252849433Y-71472097D01*
X252844705Y-71542936D01*
X252815536Y-71588560D01*
X251831945Y-72572150D01*
X250849500Y-73554595D01*
X250787188Y-73588621D01*
X250760405Y-73591500D01*
X250704513Y-73591500D01*
X250698061Y-73592872D01*
X250698056Y-73592872D01*
X250611112Y-73611353D01*
X250517712Y-73631206D01*
X250511682Y-73633891D01*
X250511681Y-73633891D01*
X250349278Y-73706197D01*
X250349276Y-73706198D01*
X250343248Y-73708882D01*
X250337907Y-73712762D01*
X250337906Y-73712763D01*
X250333561Y-73715920D01*
X250266693Y-73739779D01*
X250197542Y-73723698D01*
X250148061Y-73672784D01*
X250133500Y-73613984D01*
X250133500Y-68433594D01*
X250153502Y-68365473D01*
X250207158Y-68318980D01*
X250277432Y-68308876D01*
X250342012Y-68338370D01*
G37*
%TD.AperFunction*%
%TD*%
M02*
