%TF.GenerationSoftware,KiCad,Pcbnew,(6.0.5)*%
%TF.CreationDate,2022-06-01T14:10:51+01:00*%
%TF.ProjectId,Project Fauxbow,50726f6a-6563-4742-9046-617578626f77,rev?*%
%TF.SameCoordinates,Original*%
%TF.FileFunction,Legend,Top*%
%TF.FilePolarity,Positive*%
%FSLAX46Y46*%
G04 Gerber Fmt 4.6, Leading zero omitted, Abs format (unit mm)*
G04 Created by KiCad (PCBNEW (6.0.5)) date 2022-06-01 14:10:51*
%MOMM*%
%LPD*%
G01*
G04 APERTURE LIST*
G04 Aperture macros list*
%AMRoundRect*
0 Rectangle with rounded corners*
0 $1 Rounding radius*
0 $2 $3 $4 $5 $6 $7 $8 $9 X,Y pos of 4 corners*
0 Add a 4 corners polygon primitive as box body*
4,1,4,$2,$3,$4,$5,$6,$7,$8,$9,$2,$3,0*
0 Add four circle primitives for the rounded corners*
1,1,$1+$1,$2,$3*
1,1,$1+$1,$4,$5*
1,1,$1+$1,$6,$7*
1,1,$1+$1,$8,$9*
0 Add four rect primitives between the rounded corners*
20,1,$1+$1,$2,$3,$4,$5,0*
20,1,$1+$1,$4,$5,$6,$7,0*
20,1,$1+$1,$6,$7,$8,$9,0*
20,1,$1+$1,$8,$9,$2,$3,0*%
%AMRotRect*
0 Rectangle, with rotation*
0 The origin of the aperture is its center*
0 $1 length*
0 $2 width*
0 $3 Rotation angle, in degrees counterclockwise*
0 Add horizontal line*
21,1,$1,$2,0,0,$3*%
G04 Aperture macros list end*
%ADD10C,0.150000*%
%ADD11C,0.120000*%
%ADD12RoundRect,0.250000X0.132583X-0.503814X0.503814X-0.132583X-0.132583X0.503814X-0.503814X0.132583X0*%
%ADD13RoundRect,0.250000X0.167938X-0.751301X0.751301X-0.167938X-0.167938X0.751301X-0.751301X0.167938X0*%
%ADD14RoundRect,0.075000X-0.521491X0.415425X0.415425X-0.521491X0.521491X-0.415425X-0.415425X0.521491X0*%
%ADD15RoundRect,0.075000X-0.521491X-0.415425X-0.415425X-0.521491X0.521491X0.415425X0.415425X0.521491X0*%
%ADD16C,4.500000*%
%ADD17RoundRect,0.250000X0.262500X0.450000X-0.262500X0.450000X-0.262500X-0.450000X0.262500X-0.450000X0*%
%ADD18RoundRect,0.250000X-0.250000X-0.475000X0.250000X-0.475000X0.250000X0.475000X-0.250000X0.475000X0*%
%ADD19RotRect,1.950000X1.650000X135.000000*%
%ADD20RoundRect,0.250000X-0.400000X-0.625000X0.400000X-0.625000X0.400000X0.625000X-0.400000X0.625000X0*%
%ADD21C,0.600000*%
%ADD22R,0.600000X1.160000*%
%ADD23R,0.300000X1.160000*%
%ADD24O,0.900000X1.700000*%
%ADD25O,0.900000X2.000000*%
%ADD26C,3.048000*%
%ADD27C,3.987800*%
%ADD28RotRect,1.500000X0.550000X315.000000*%
%ADD29RotRect,1.500000X0.550000X45.000000*%
%ADD30RoundRect,0.250000X0.159099X-0.512652X0.512652X-0.159099X-0.159099X0.512652X-0.512652X0.159099X0*%
%ADD31R,1.400000X1.200000*%
%ADD32C,3.000000*%
%ADD33C,1.600000*%
%ADD34R,1.600000X1.600000*%
%ADD35RoundRect,0.250000X-0.262500X-0.450000X0.262500X-0.450000X0.262500X0.450000X-0.262500X0.450000X0*%
%ADD36R,1.500000X2.000000*%
%ADD37R,3.800000X2.000000*%
%ADD38C,2.100000*%
%ADD39C,1.200000*%
%ADD40C,1.750000*%
%ADD41C,3.300000*%
G04 APERTURE END LIST*
D10*
%TO.C,R5*%
X177735304Y-84871006D02*
X177162884Y-84769991D01*
X177331243Y-85275067D02*
X176624136Y-84567961D01*
X176893510Y-84298586D01*
X176994525Y-84264915D01*
X177061869Y-84264915D01*
X177162884Y-84298586D01*
X177263899Y-84399602D01*
X177297571Y-84500617D01*
X177297571Y-84567961D01*
X177263899Y-84668976D01*
X176994525Y-84938350D01*
X177667961Y-83524136D02*
X177331243Y-83860854D01*
X177634289Y-84231243D01*
X177634289Y-84163899D01*
X177667961Y-84062884D01*
X177836319Y-83894525D01*
X177937335Y-83860854D01*
X178004678Y-83860854D01*
X178105693Y-83894525D01*
X178274052Y-84062884D01*
X178307724Y-84163899D01*
X178307724Y-84231243D01*
X178274052Y-84332258D01*
X178105693Y-84500617D01*
X178004678Y-84534289D01*
X177937335Y-84534289D01*
%TO.C,C1*%
X238726539Y-76962241D02*
X238726539Y-77029584D01*
X238659195Y-77164271D01*
X238591852Y-77231615D01*
X238457164Y-77298958D01*
X238322477Y-77298958D01*
X238221462Y-77265287D01*
X238053103Y-77164271D01*
X237952088Y-77063256D01*
X237851073Y-76894897D01*
X237817401Y-76793882D01*
X237817401Y-76659195D01*
X237884745Y-76524508D01*
X237952088Y-76457164D01*
X238086775Y-76389821D01*
X238154119Y-76389821D01*
X239467317Y-76356149D02*
X239063256Y-76760210D01*
X239265287Y-76558180D02*
X238558180Y-75851073D01*
X238591852Y-76019432D01*
X238591852Y-76154119D01*
X238558180Y-76255134D01*
%TO.C,U3*%
X177388097Y-77389398D02*
X177960517Y-76816978D01*
X177994189Y-76715963D01*
X177994189Y-76648619D01*
X177960517Y-76547604D01*
X177825830Y-76412917D01*
X177724815Y-76379245D01*
X177657471Y-76379245D01*
X177556456Y-76412917D01*
X176984036Y-76985337D01*
X176714662Y-76715963D02*
X176276930Y-76278230D01*
X176782006Y-76244558D01*
X176680991Y-76143543D01*
X176647319Y-76042528D01*
X176647319Y-75975184D01*
X176680991Y-75874169D01*
X176849349Y-75705810D01*
X176950365Y-75672138D01*
X177017708Y-75672138D01*
X177118723Y-75705810D01*
X177320754Y-75907841D01*
X177354426Y-76008856D01*
X177354426Y-76076199D01*
%TO.C,H1*%
X162038095Y-82302380D02*
X162038095Y-81302380D01*
X162038095Y-81778571D02*
X162609523Y-81778571D01*
X162609523Y-82302380D02*
X162609523Y-81302380D01*
X163609523Y-82302380D02*
X163038095Y-82302380D01*
X163323809Y-82302380D02*
X163323809Y-81302380D01*
X163228571Y-81445238D01*
X163133333Y-81540476D01*
X163038095Y-81588095D01*
%TO.C,R3*%
X161733333Y-72002380D02*
X161400000Y-71526190D01*
X161161904Y-72002380D02*
X161161904Y-71002380D01*
X161542857Y-71002380D01*
X161638095Y-71050000D01*
X161685714Y-71097619D01*
X161733333Y-71192857D01*
X161733333Y-71335714D01*
X161685714Y-71430952D01*
X161638095Y-71478571D01*
X161542857Y-71526190D01*
X161161904Y-71526190D01*
X162066666Y-71002380D02*
X162685714Y-71002380D01*
X162352380Y-71383333D01*
X162495238Y-71383333D01*
X162590476Y-71430952D01*
X162638095Y-71478571D01*
X162685714Y-71573809D01*
X162685714Y-71811904D01*
X162638095Y-71907142D01*
X162590476Y-71954761D01*
X162495238Y-72002380D01*
X162209523Y-72002380D01*
X162114285Y-71954761D01*
X162066666Y-71907142D01*
%TO.C,C3*%
X180133333Y-61557142D02*
X180085714Y-61604761D01*
X179942857Y-61652380D01*
X179847619Y-61652380D01*
X179704761Y-61604761D01*
X179609523Y-61509523D01*
X179561904Y-61414285D01*
X179514285Y-61223809D01*
X179514285Y-61080952D01*
X179561904Y-60890476D01*
X179609523Y-60795238D01*
X179704761Y-60700000D01*
X179847619Y-60652380D01*
X179942857Y-60652380D01*
X180085714Y-60700000D01*
X180133333Y-60747619D01*
X180466666Y-60652380D02*
X181085714Y-60652380D01*
X180752380Y-61033333D01*
X180895238Y-61033333D01*
X180990476Y-61080952D01*
X181038095Y-61128571D01*
X181085714Y-61223809D01*
X181085714Y-61461904D01*
X181038095Y-61557142D01*
X180990476Y-61604761D01*
X180895238Y-61652380D01*
X180609523Y-61652380D01*
X180514285Y-61604761D01*
X180466666Y-61557142D01*
%TO.C,H3*%
X177042763Y-125207048D02*
X177042763Y-124207048D01*
X177042763Y-124683239D02*
X177614191Y-124683239D01*
X177614191Y-125207048D02*
X177614191Y-124207048D01*
X177995144Y-124207048D02*
X178614191Y-124207048D01*
X178280858Y-124588001D01*
X178423715Y-124588001D01*
X178518953Y-124635620D01*
X178566572Y-124683239D01*
X178614191Y-124778477D01*
X178614191Y-125016572D01*
X178566572Y-125111810D01*
X178518953Y-125159429D01*
X178423715Y-125207048D01*
X178138001Y-125207048D01*
X178042763Y-125159429D01*
X177995144Y-125111810D01*
%TO.C,H2*%
X239538095Y-64202380D02*
X239538095Y-63202380D01*
X239538095Y-63678571D02*
X240109523Y-63678571D01*
X240109523Y-64202380D02*
X240109523Y-63202380D01*
X240538095Y-63297619D02*
X240585714Y-63250000D01*
X240680952Y-63202380D01*
X240919047Y-63202380D01*
X241014285Y-63250000D01*
X241061904Y-63297619D01*
X241109523Y-63392857D01*
X241109523Y-63488095D01*
X241061904Y-63630952D01*
X240490476Y-64202380D01*
X241109523Y-64202380D01*
%TO.C,Y1*%
X241351594Y-83321840D02*
X241688312Y-82985122D01*
X241216907Y-83927931D02*
X241351594Y-83321840D01*
X240745503Y-83456527D01*
X240846518Y-82143329D02*
X241250579Y-82547390D01*
X241048548Y-82345359D02*
X240341442Y-83052466D01*
X240509800Y-83018794D01*
X240644487Y-83018794D01*
X240745503Y-83052466D01*
%TO.C,R1*%
X246133333Y-146932380D02*
X245800000Y-146456190D01*
X245561904Y-146932380D02*
X245561904Y-145932380D01*
X245942857Y-145932380D01*
X246038095Y-145980000D01*
X246085714Y-146027619D01*
X246133333Y-146122857D01*
X246133333Y-146265714D01*
X246085714Y-146360952D01*
X246038095Y-146408571D01*
X245942857Y-146456190D01*
X245561904Y-146456190D01*
X247085714Y-146932380D02*
X246514285Y-146932380D01*
X246800000Y-146932380D02*
X246800000Y-145932380D01*
X246704761Y-146075238D01*
X246609523Y-146170476D01*
X246514285Y-146218095D01*
%TO.C,H5*%
X257938095Y-101502380D02*
X257938095Y-100502380D01*
X257938095Y-100978571D02*
X258509523Y-100978571D01*
X258509523Y-101502380D02*
X258509523Y-100502380D01*
X259461904Y-100502380D02*
X258985714Y-100502380D01*
X258938095Y-100978571D01*
X258985714Y-100930952D01*
X259080952Y-100883333D01*
X259319047Y-100883333D01*
X259414285Y-100930952D01*
X259461904Y-100978571D01*
X259509523Y-101073809D01*
X259509523Y-101311904D01*
X259461904Y-101407142D01*
X259414285Y-101454761D01*
X259319047Y-101502380D01*
X259080952Y-101502380D01*
X258985714Y-101454761D01*
X258938095Y-101407142D01*
%TO.C,J1*%
X164366666Y-67932380D02*
X164366666Y-68646666D01*
X164319047Y-68789523D01*
X164223809Y-68884761D01*
X164080952Y-68932380D01*
X163985714Y-68932380D01*
X165366666Y-68932380D02*
X164795238Y-68932380D01*
X165080952Y-68932380D02*
X165080952Y-67932380D01*
X164985714Y-68075238D01*
X164890476Y-68170476D01*
X164795238Y-68218095D01*
%TO.C,U1*%
X257219468Y-67458027D02*
X257791888Y-66885607D01*
X257825560Y-66784592D01*
X257825560Y-66717248D01*
X257791888Y-66616233D01*
X257657201Y-66481546D01*
X257556186Y-66447874D01*
X257488842Y-66447874D01*
X257387827Y-66481546D01*
X256815407Y-67053966D01*
X256815407Y-65639752D02*
X257219468Y-66043813D01*
X257017438Y-65841783D02*
X256310331Y-66548889D01*
X256478690Y-66515218D01*
X256613377Y-66515218D01*
X256714392Y-66548889D01*
%TO.C,H4*%
X242042763Y-127407048D02*
X242042763Y-126407048D01*
X242042763Y-126883239D02*
X242614191Y-126883239D01*
X242614191Y-127407048D02*
X242614191Y-126407048D01*
X243518953Y-126740382D02*
X243518953Y-127407048D01*
X243280858Y-126359429D02*
X243042763Y-127073715D01*
X243661810Y-127073715D01*
%TO.C,C4*%
X171214586Y-72390490D02*
X171214586Y-72457833D01*
X171147242Y-72592520D01*
X171079899Y-72659864D01*
X170945211Y-72727207D01*
X170810524Y-72727207D01*
X170709509Y-72693536D01*
X170541150Y-72592520D01*
X170440135Y-72491505D01*
X170339120Y-72323146D01*
X170305448Y-72222131D01*
X170305448Y-72087444D01*
X170372792Y-71952757D01*
X170440135Y-71885413D01*
X170574822Y-71818070D01*
X170642166Y-71818070D01*
X171416616Y-71380337D02*
X171888021Y-71851742D01*
X170978883Y-71279322D02*
X171315601Y-71952757D01*
X171753334Y-71515024D01*
%TO.C,Y2*%
X163923809Y-81526190D02*
X163923809Y-82002380D01*
X163590476Y-81002380D02*
X163923809Y-81526190D01*
X164257142Y-81002380D01*
X164542857Y-81097619D02*
X164590476Y-81050000D01*
X164685714Y-81002380D01*
X164923809Y-81002380D01*
X165019047Y-81050000D01*
X165066666Y-81097619D01*
X165114285Y-81192857D01*
X165114285Y-81288095D01*
X165066666Y-81430952D01*
X164495238Y-82002380D01*
X165114285Y-82002380D01*
%TO.C,J3*%
X159802380Y-99833333D02*
X160516666Y-99833333D01*
X160659523Y-99880952D01*
X160754761Y-99976190D01*
X160802380Y-100119047D01*
X160802380Y-100214285D01*
X159802380Y-99452380D02*
X159802380Y-98833333D01*
X160183333Y-99166666D01*
X160183333Y-99023809D01*
X160230952Y-98928571D01*
X160278571Y-98880952D01*
X160373809Y-98833333D01*
X160611904Y-98833333D01*
X160707142Y-98880952D01*
X160754761Y-98928571D01*
X160802380Y-99023809D01*
X160802380Y-99309523D01*
X160754761Y-99404761D01*
X160707142Y-99452380D01*
%TO.C,R4*%
X166933333Y-68602380D02*
X166600000Y-68126190D01*
X166361904Y-68602380D02*
X166361904Y-67602380D01*
X166742857Y-67602380D01*
X166838095Y-67650000D01*
X166885714Y-67697619D01*
X166933333Y-67792857D01*
X166933333Y-67935714D01*
X166885714Y-68030952D01*
X166838095Y-68078571D01*
X166742857Y-68126190D01*
X166361904Y-68126190D01*
X167790476Y-67935714D02*
X167790476Y-68602380D01*
X167552380Y-67554761D02*
X167314285Y-68269047D01*
X167933333Y-68269047D01*
%TO.C,C2*%
X249434687Y-83970390D02*
X249434687Y-84037733D01*
X249367343Y-84172420D01*
X249300000Y-84239764D01*
X249165312Y-84307107D01*
X249030625Y-84307107D01*
X248929610Y-84273436D01*
X248761251Y-84172420D01*
X248660236Y-84071405D01*
X248559221Y-83903046D01*
X248525549Y-83802031D01*
X248525549Y-83667344D01*
X248592893Y-83532657D01*
X248660236Y-83465313D01*
X248794923Y-83397970D01*
X248862267Y-83397970D01*
X249131641Y-83128596D02*
X249131641Y-83061252D01*
X249165312Y-82960237D01*
X249333671Y-82791878D01*
X249434687Y-82758207D01*
X249502030Y-82758207D01*
X249603045Y-82791878D01*
X249670389Y-82859222D01*
X249737732Y-82993909D01*
X249737732Y-83802031D01*
X250175465Y-83364298D01*
%TO.C,U2*%
X180252380Y-68761904D02*
X181061904Y-68761904D01*
X181157142Y-68714285D01*
X181204761Y-68666666D01*
X181252380Y-68571428D01*
X181252380Y-68380952D01*
X181204761Y-68285714D01*
X181157142Y-68238095D01*
X181061904Y-68190476D01*
X180252380Y-68190476D01*
X180347619Y-67761904D02*
X180300000Y-67714285D01*
X180252380Y-67619047D01*
X180252380Y-67380952D01*
X180300000Y-67285714D01*
X180347619Y-67238095D01*
X180442857Y-67190476D01*
X180538095Y-67190476D01*
X180680952Y-67238095D01*
X181252380Y-67809523D01*
X181252380Y-67190476D01*
%TO.C,SW1*%
X246612261Y-142508333D02*
X246659880Y-142365476D01*
X246659880Y-142127380D01*
X246612261Y-142032142D01*
X246564642Y-141984523D01*
X246469404Y-141936904D01*
X246374166Y-141936904D01*
X246278928Y-141984523D01*
X246231309Y-142032142D01*
X246183690Y-142127380D01*
X246136071Y-142317857D01*
X246088452Y-142413095D01*
X246040833Y-142460714D01*
X245945595Y-142508333D01*
X245850357Y-142508333D01*
X245755119Y-142460714D01*
X245707500Y-142413095D01*
X245659880Y-142317857D01*
X245659880Y-142079761D01*
X245707500Y-141936904D01*
X245659880Y-141603571D02*
X246659880Y-141365476D01*
X245945595Y-141175000D01*
X246659880Y-140984523D01*
X245659880Y-140746428D01*
X246659880Y-139841666D02*
X246659880Y-140413095D01*
X246659880Y-140127380D02*
X245659880Y-140127380D01*
X245802738Y-140222619D01*
X245897976Y-140317857D01*
X245945595Y-140413095D01*
%TO.C,J4*%
X159902380Y-78433333D02*
X160616666Y-78433333D01*
X160759523Y-78480952D01*
X160854761Y-78576190D01*
X160902380Y-78719047D01*
X160902380Y-78814285D01*
X160235714Y-77528571D02*
X160902380Y-77528571D01*
X159854761Y-77766666D02*
X160569047Y-78004761D01*
X160569047Y-77385714D01*
%TO.C,J2*%
X159802380Y-121433333D02*
X160516666Y-121433333D01*
X160659523Y-121480952D01*
X160754761Y-121576190D01*
X160802380Y-121719047D01*
X160802380Y-121814285D01*
X159897619Y-121004761D02*
X159850000Y-120957142D01*
X159802380Y-120861904D01*
X159802380Y-120623809D01*
X159850000Y-120528571D01*
X159897619Y-120480952D01*
X159992857Y-120433333D01*
X160088095Y-120433333D01*
X160230952Y-120480952D01*
X160802380Y-121052380D01*
X160802380Y-120433333D01*
%TO.C,H6*%
X149638095Y-128902380D02*
X149638095Y-127902380D01*
X149638095Y-128378571D02*
X150209523Y-128378571D01*
X150209523Y-128902380D02*
X150209523Y-127902380D01*
X151114285Y-127902380D02*
X150923809Y-127902380D01*
X150828571Y-127950000D01*
X150780952Y-127997619D01*
X150685714Y-128140476D01*
X150638095Y-128330952D01*
X150638095Y-128711904D01*
X150685714Y-128807142D01*
X150733333Y-128854761D01*
X150828571Y-128902380D01*
X151019047Y-128902380D01*
X151114285Y-128854761D01*
X151161904Y-128807142D01*
X151209523Y-128711904D01*
X151209523Y-128473809D01*
X151161904Y-128378571D01*
X151114285Y-128330952D01*
X151019047Y-128283333D01*
X150828571Y-128283333D01*
X150733333Y-128330952D01*
X150685714Y-128378571D01*
X150638095Y-128473809D01*
D11*
%TO.C,R5*%
X179059165Y-86280282D02*
X179380282Y-85959165D01*
X178019718Y-85240835D02*
X178340835Y-84919718D01*
%TO.C,C1*%
X238753602Y-77759464D02*
X239759464Y-76753602D01*
X240040536Y-79046398D02*
X241046398Y-78040536D01*
%TO.C,U3*%
X173100000Y-75494689D02*
X172781802Y-75812887D01*
X178205311Y-80600000D02*
X177887113Y-80918198D01*
X167994689Y-80600000D02*
X168312887Y-80281802D01*
X173418198Y-75812887D02*
X173100000Y-75494689D01*
X168312887Y-80918198D02*
X167994689Y-80600000D01*
X173100000Y-85705311D02*
X173418198Y-85387113D01*
X172781802Y-75812887D02*
X171869634Y-74900719D01*
X172781802Y-85387113D02*
X173100000Y-85705311D01*
X177887113Y-80281802D02*
X178205311Y-80600000D01*
%TO.C,R3*%
X162127064Y-69165000D02*
X161672936Y-69165000D01*
X162127064Y-70635000D02*
X161672936Y-70635000D01*
%TO.C,C3*%
X177238748Y-60565000D02*
X177761252Y-60565000D01*
X177238748Y-62035000D02*
X177761252Y-62035000D01*
%TO.C,Y1*%
X246405724Y-81200520D02*
X242799480Y-77594276D01*
X243400520Y-84205724D02*
X246405724Y-81200520D01*
%TO.C,R1*%
X245572936Y-147390000D02*
X247027064Y-147390000D01*
X245572936Y-149210000D02*
X247027064Y-149210000D01*
%TO.C,J1*%
X160230000Y-64570000D02*
X160230000Y-62770000D01*
X160230000Y-59060000D02*
X169170000Y-59060000D01*
X169170000Y-59060000D02*
X169170000Y-60520000D01*
X169170000Y-64570000D02*
X169170000Y-62770000D01*
X160230000Y-59060000D02*
X160230000Y-60520000D01*
D10*
%TO.C,U1*%
X251800000Y-79118555D02*
X252277297Y-78641258D01*
X259118555Y-71800000D02*
X258641258Y-72277297D01*
X244481445Y-71800000D02*
X244958742Y-72277297D01*
X251800000Y-64481445D02*
X252277297Y-64958742D01*
X259118555Y-71800000D02*
X258641258Y-71322703D01*
X251800000Y-64481445D02*
X251393414Y-64888031D01*
X251393414Y-64888031D02*
X250491852Y-63986470D01*
X251800000Y-79118555D02*
X251322703Y-78641258D01*
X244481445Y-71800000D02*
X244958742Y-71322703D01*
D11*
%TO.C,C4*%
X169434990Y-74704457D02*
X169804457Y-74334990D01*
X168395543Y-73665010D02*
X168765010Y-73295543D01*
%TO.C,Y2*%
X166400000Y-77450000D02*
X162400000Y-77450000D01*
X166400000Y-80750000D02*
X166400000Y-77450000D01*
%TO.C,J3*%
X159350000Y-95500000D02*
X159350000Y-96500000D01*
X145600000Y-92250000D02*
X145100000Y-92250000D01*
X145600000Y-93250000D02*
X145600000Y-92250000D01*
X145600000Y-105750000D02*
X153600000Y-105750000D01*
X145100000Y-92250000D02*
X145100000Y-106750000D01*
X159100000Y-105750000D02*
X159100000Y-93250000D01*
X157100000Y-105750000D02*
X159100000Y-105750000D01*
X145600000Y-106750000D02*
X145600000Y-105750000D01*
X153600000Y-93250000D02*
X145600000Y-93250000D01*
X145100000Y-106750000D02*
X145600000Y-106750000D01*
X159100000Y-93250000D02*
X157100000Y-93250000D01*
%TO.C,R4*%
X166872936Y-69065000D02*
X167327064Y-69065000D01*
X166872936Y-70535000D02*
X167327064Y-70535000D01*
%TO.C,C2*%
X244753602Y-83959464D02*
X245759464Y-82953602D01*
X246040536Y-85246398D02*
X247046398Y-84240536D01*
%TO.C,U2*%
X179710000Y-69910000D02*
X178450000Y-69910000D01*
X172890000Y-66150000D02*
X172890000Y-69910000D01*
X179710000Y-63900000D02*
X179710000Y-69910000D01*
X172890000Y-69910000D02*
X174150000Y-69910000D01*
%TO.C,SW1*%
X250587500Y-145035000D02*
X246687500Y-145035000D01*
X250587500Y-137315000D02*
X250587500Y-145035000D01*
X246917500Y-137835000D02*
X246687500Y-137835000D01*
X246917500Y-139475000D02*
X246917500Y-142875000D01*
X246917500Y-144515000D02*
X246687500Y-144515000D01*
X246917500Y-143975000D02*
X246917500Y-144515000D01*
X250587500Y-137315000D02*
X246687500Y-137315000D01*
X246917500Y-137835000D02*
X246917500Y-138375000D01*
%TO.C,J4*%
X153700000Y-71850000D02*
X145700000Y-71850000D01*
X145700000Y-85350000D02*
X145700000Y-84350000D01*
X145200000Y-70850000D02*
X145200000Y-85350000D01*
X145700000Y-70850000D02*
X145200000Y-70850000D01*
X157200000Y-84350000D02*
X159200000Y-84350000D01*
X159450000Y-74100000D02*
X159450000Y-75100000D01*
X145700000Y-71850000D02*
X145700000Y-70850000D01*
X145200000Y-85350000D02*
X145700000Y-85350000D01*
X145700000Y-84350000D02*
X153700000Y-84350000D01*
X159200000Y-84350000D02*
X159200000Y-71850000D01*
X159200000Y-71850000D02*
X157200000Y-71850000D01*
%TO.C,J2*%
X145600000Y-127350000D02*
X153600000Y-127350000D01*
X159350000Y-117100000D02*
X159350000Y-118100000D01*
X159100000Y-127350000D02*
X159100000Y-114850000D01*
X145600000Y-114850000D02*
X145600000Y-113850000D01*
X145600000Y-128350000D02*
X145600000Y-127350000D01*
X145100000Y-113850000D02*
X145100000Y-128350000D01*
X159100000Y-114850000D02*
X157100000Y-114850000D01*
X145600000Y-113850000D02*
X145100000Y-113850000D01*
X157100000Y-127350000D02*
X159100000Y-127350000D01*
X145100000Y-128350000D02*
X145600000Y-128350000D01*
X153600000Y-114850000D02*
X145600000Y-114850000D01*
%TD*%
%LPC*%
D12*
%TO.C,R5*%
X178054765Y-86245235D03*
X179345235Y-84954765D03*
%TD*%
D13*
%TO.C,C1*%
X238795146Y-79004854D03*
X241004854Y-76795146D03*
%TD*%
D14*
%TO.C,U3*%
X172101212Y-75712124D03*
X171747658Y-76065678D03*
X171394105Y-76419231D03*
X171040551Y-76772785D03*
X170686998Y-77126338D03*
X170333445Y-77479891D03*
X169979891Y-77833445D03*
X169626338Y-78186998D03*
X169272785Y-78540551D03*
X168919231Y-78894105D03*
X168565678Y-79247658D03*
X168212124Y-79601212D03*
D15*
X168212124Y-81598788D03*
X168565678Y-81952342D03*
X168919231Y-82305895D03*
X169272785Y-82659449D03*
X169626338Y-83013002D03*
X169979891Y-83366555D03*
X170333445Y-83720109D03*
X170686998Y-84073662D03*
X171040551Y-84427215D03*
X171394105Y-84780769D03*
X171747658Y-85134322D03*
X172101212Y-85487876D03*
D14*
X174098788Y-85487876D03*
X174452342Y-85134322D03*
X174805895Y-84780769D03*
X175159449Y-84427215D03*
X175513002Y-84073662D03*
X175866555Y-83720109D03*
X176220109Y-83366555D03*
X176573662Y-83013002D03*
X176927215Y-82659449D03*
X177280769Y-82305895D03*
X177634322Y-81952342D03*
X177987876Y-81598788D03*
D15*
X177987876Y-79601212D03*
X177634322Y-79247658D03*
X177280769Y-78894105D03*
X176927215Y-78540551D03*
X176573662Y-78186998D03*
X176220109Y-77833445D03*
X175866555Y-77479891D03*
X175513002Y-77126338D03*
X175159449Y-76772785D03*
X174805895Y-76419231D03*
X174452342Y-76065678D03*
X174098788Y-75712124D03*
%TD*%
D16*
%TO.C,H1*%
X162800000Y-85100000D03*
%TD*%
D17*
%TO.C,R3*%
X162812500Y-69900000D03*
X160987500Y-69900000D03*
%TD*%
D18*
%TO.C,C3*%
X176550000Y-61300000D03*
X178450000Y-61300000D03*
%TD*%
D16*
%TO.C,H3*%
X177804668Y-128004668D03*
%TD*%
%TO.C,H2*%
X240300000Y-67000000D03*
%TD*%
D19*
%TO.C,Y1*%
X244850089Y-81094454D03*
X242905546Y-79149911D03*
X241349911Y-80705546D03*
X243294454Y-82650089D03*
%TD*%
D20*
%TO.C,R1*%
X244750000Y-148300000D03*
X247850000Y-148300000D03*
%TD*%
D16*
%TO.C,H5*%
X258700000Y-104300000D03*
%TD*%
D21*
%TO.C,J1*%
X167590000Y-65350000D03*
X161810000Y-65350000D03*
D22*
X167900000Y-66410000D03*
X167100000Y-66410000D03*
D23*
X165950000Y-66410000D03*
X164950000Y-66410000D03*
X164450000Y-66410000D03*
X163450000Y-66410000D03*
D22*
X162300000Y-66410000D03*
X161500000Y-66410000D03*
X161500000Y-66410000D03*
X162300000Y-66410000D03*
D23*
X162950000Y-66410000D03*
X163950000Y-66410000D03*
X165450000Y-66410000D03*
X166450000Y-66410000D03*
D22*
X167100000Y-66410000D03*
X167900000Y-66410000D03*
D24*
X160380000Y-61660000D03*
D25*
X160380000Y-65830000D03*
X169020000Y-65830000D03*
D24*
X169020000Y-61660000D03*
%TD*%
D26*
%TO.C,REF\u002A\u002A*%
X145201053Y-143308606D03*
D27*
X152821053Y-156506833D03*
D26*
X165823283Y-131402356D03*
D27*
X173443283Y-144600583D03*
%TD*%
D28*
%TO.C,U1*%
X250597918Y-64941064D03*
X250032233Y-65506750D03*
X249466548Y-66072435D03*
X248900862Y-66638120D03*
X248335177Y-67203806D03*
X247769491Y-67769491D03*
X247203806Y-68335177D03*
X246638120Y-68900862D03*
X246072435Y-69466548D03*
X245506750Y-70032233D03*
X244941064Y-70597918D03*
D29*
X244941064Y-73002082D03*
X245506750Y-73567767D03*
X246072435Y-74133452D03*
X246638120Y-74699138D03*
X247203806Y-75264823D03*
X247769491Y-75830509D03*
X248335177Y-76396194D03*
X248900862Y-76961880D03*
X249466548Y-77527565D03*
X250032233Y-78093250D03*
X250597918Y-78658936D03*
D28*
X253002082Y-78658936D03*
X253567767Y-78093250D03*
X254133452Y-77527565D03*
X254699138Y-76961880D03*
X255264823Y-76396194D03*
X255830509Y-75830509D03*
X256396194Y-75264823D03*
X256961880Y-74699138D03*
X257527565Y-74133452D03*
X258093250Y-73567767D03*
X258658936Y-73002082D03*
D29*
X258658936Y-70597918D03*
X258093250Y-70032233D03*
X257527565Y-69466548D03*
X256961880Y-68900862D03*
X256396194Y-68335177D03*
X255830509Y-67769491D03*
X255264823Y-67203806D03*
X254699138Y-66638120D03*
X254133452Y-66072435D03*
X253567767Y-65506750D03*
X253002082Y-64941064D03*
%TD*%
D16*
%TO.C,H4*%
X242804668Y-130204668D03*
%TD*%
D30*
%TO.C,C4*%
X168428249Y-74671751D03*
X169771751Y-73328249D03*
%TD*%
D31*
%TO.C,Y2*%
X165500000Y-78250000D03*
X163300000Y-78250000D03*
X163300000Y-79950000D03*
X165500000Y-79950000D03*
%TD*%
D32*
%TO.C,J3*%
X155380000Y-92930000D03*
X155380000Y-106070000D03*
D33*
X158090000Y-103000000D03*
X158090000Y-100500000D03*
X158090000Y-98500000D03*
D34*
X158090000Y-96000000D03*
%TD*%
D35*
%TO.C,R4*%
X166187500Y-69800000D03*
X168012500Y-69800000D03*
%TD*%
D13*
%TO.C,C2*%
X244795146Y-85204854D03*
X247004854Y-82995146D03*
%TD*%
D36*
%TO.C,U2*%
X174000000Y-64850000D03*
X176300000Y-64850000D03*
D37*
X176300000Y-71150000D03*
D36*
X178600000Y-64850000D03*
%TD*%
D38*
%TO.C,SW1*%
X245397500Y-137675000D03*
D39*
X249097500Y-141175000D03*
D38*
X245397500Y-144685000D03*
D40*
X247887500Y-138675000D03*
X247887500Y-143675000D03*
%TD*%
D32*
%TO.C,J4*%
X155480000Y-71530000D03*
X155480000Y-84670000D03*
D33*
X158190000Y-81600000D03*
X158190000Y-79100000D03*
X158190000Y-77100000D03*
D34*
X158190000Y-74600000D03*
%TD*%
%TO.C,J2*%
X158090000Y-117600000D03*
D33*
X158090000Y-120100000D03*
X158090000Y-122100000D03*
X158090000Y-124600000D03*
D32*
X155380000Y-114530000D03*
X155380000Y-127670000D03*
%TD*%
D16*
%TO.C,H6*%
X150400000Y-131700000D03*
%TD*%
D27*
%TO.C,K3*%
X191300000Y-108100000D03*
D40*
X186220000Y-108100000D03*
X196380000Y-108100000D03*
D41*
X187490000Y-105560000D03*
X193840000Y-103020000D03*
%TD*%
D27*
%TO.C,K2*%
X191300000Y-88300000D03*
D40*
X196380000Y-88300000D03*
X186220000Y-88300000D03*
D41*
X187490000Y-85760000D03*
X193840000Y-83220000D03*
%TD*%
D40*
%TO.C,K15*%
X232165000Y-142100000D03*
X222005000Y-142100000D03*
D27*
X227085000Y-142100000D03*
D41*
X223275000Y-139560000D03*
X229625000Y-137020000D03*
%TD*%
D40*
%TO.C,K18*%
X240220000Y-97500000D03*
X250380000Y-97500000D03*
D27*
X245300000Y-97500000D03*
D41*
X241490000Y-94960000D03*
X247840000Y-92420000D03*
%TD*%
D27*
%TO.C,K20*%
X159035048Y-143371440D03*
D40*
X163434457Y-140831440D03*
X154635639Y-145911440D03*
D41*
X154465491Y-143076735D03*
X158694753Y-137702031D03*
%TD*%
D40*
%TO.C,K5*%
X196380000Y-142100000D03*
D27*
X191300000Y-142100000D03*
D40*
X186220000Y-142100000D03*
D41*
X187490000Y-139560000D03*
X193840000Y-137020000D03*
%TD*%
D27*
%TO.C,K8*%
X209300000Y-108100000D03*
D40*
X214380000Y-108100000D03*
X204220000Y-108100000D03*
D41*
X205490000Y-105560000D03*
X211840000Y-103020000D03*
%TD*%
D40*
%TO.C,K9*%
X204220000Y-125100000D03*
D27*
X209300000Y-125100000D03*
D40*
X214380000Y-125100000D03*
D41*
X205490000Y-122560000D03*
X211840000Y-120020000D03*
%TD*%
D40*
%TO.C,K16*%
X178380000Y-97500000D03*
X168220000Y-97500000D03*
D27*
X173300000Y-97500000D03*
D41*
X169490000Y-94960000D03*
X175840000Y-92420000D03*
%TD*%
D40*
%TO.C,K17*%
X168315000Y-114500000D03*
X178475000Y-114500000D03*
D27*
X173395000Y-114500000D03*
D41*
X169585000Y-111960000D03*
X175935000Y-109420000D03*
%TD*%
D40*
%TO.C,K12*%
X232380000Y-88300000D03*
D27*
X227300000Y-88300000D03*
D40*
X222220000Y-88300000D03*
D41*
X223490000Y-85760000D03*
X229840000Y-83220000D03*
%TD*%
%TO.C,K1*%
X193840000Y-65620000D03*
X187490000Y-68160000D03*
D27*
X191300000Y-70700000D03*
D40*
X196380000Y-70700000D03*
X186220000Y-70700000D03*
%TD*%
%TO.C,K4*%
X196380000Y-125100000D03*
X186220000Y-125100000D03*
D27*
X191300000Y-125100000D03*
D41*
X187490000Y-122560000D03*
X193840000Y-120020000D03*
%TD*%
D40*
%TO.C,K10*%
X214380000Y-142100000D03*
X204220000Y-142100000D03*
D27*
X209300000Y-142100000D03*
D41*
X205490000Y-139560000D03*
X211840000Y-137020000D03*
%TD*%
D40*
%TO.C,K6*%
X204220000Y-70700000D03*
X214380000Y-70700000D03*
D27*
X209300000Y-70700000D03*
D41*
X205490000Y-68160000D03*
X211840000Y-65620000D03*
%TD*%
D27*
%TO.C,K7*%
X209300000Y-88300000D03*
D40*
X204220000Y-88300000D03*
X214380000Y-88300000D03*
D41*
X205490000Y-85760000D03*
X211840000Y-83220000D03*
%TD*%
D40*
%TO.C,K14*%
X222220000Y-125100000D03*
D27*
X227300000Y-125100000D03*
D40*
X232380000Y-125100000D03*
D41*
X223490000Y-122560000D03*
X229840000Y-120020000D03*
%TD*%
D40*
%TO.C,K11*%
X232380000Y-70700000D03*
D27*
X227300000Y-70700000D03*
D40*
X222220000Y-70700000D03*
D41*
X223490000Y-68160000D03*
X229840000Y-65620000D03*
%TD*%
D40*
%TO.C,K19*%
X250315000Y-114500000D03*
X240155000Y-114500000D03*
D27*
X245235000Y-114500000D03*
D41*
X241425000Y-111960000D03*
X247775000Y-109420000D03*
%TD*%
D40*
%TO.C,K13*%
X222220000Y-108100000D03*
X232380000Y-108100000D03*
D27*
X227300000Y-108100000D03*
D41*
X223490000Y-105560000D03*
X229840000Y-103020000D03*
%TD*%
M02*
