%TF.GenerationSoftware,KiCad,Pcbnew,(6.0.5)*%
%TF.CreationDate,2022-06-01T14:10:51+01:00*%
%TF.ProjectId,Project Fauxbow,50726f6a-6563-4742-9046-617578626f77,rev?*%
%TF.SameCoordinates,Original*%
%TF.FileFunction,Paste,Bot*%
%TF.FilePolarity,Positive*%
%FSLAX46Y46*%
G04 Gerber Fmt 4.6, Leading zero omitted, Abs format (unit mm)*
G04 Created by KiCad (PCBNEW (6.0.5)) date 2022-06-01 14:10:51*
%MOMM*%
%LPD*%
G01*
G04 APERTURE LIST*
G04 Aperture macros list*
%AMRoundRect*
0 Rectangle with rounded corners*
0 $1 Rounding radius*
0 $2 $3 $4 $5 $6 $7 $8 $9 X,Y pos of 4 corners*
0 Add a 4 corners polygon primitive as box body*
4,1,4,$2,$3,$4,$5,$6,$7,$8,$9,$2,$3,0*
0 Add four circle primitives for the rounded corners*
1,1,$1+$1,$2,$3*
1,1,$1+$1,$4,$5*
1,1,$1+$1,$6,$7*
1,1,$1+$1,$8,$9*
0 Add four rect primitives between the rounded corners*
20,1,$1+$1,$2,$3,$4,$5,0*
20,1,$1+$1,$4,$5,$6,$7,0*
20,1,$1+$1,$6,$7,$8,$9,0*
20,1,$1+$1,$8,$9,$2,$3,0*%
%AMFreePoly0*
4,1,18,-0.410000,0.593000,-0.403758,0.624380,-0.385983,0.650983,-0.359380,0.668758,-0.328000,0.675000,0.328000,0.675000,0.359380,0.668758,0.385983,0.650983,0.403758,0.624380,0.410000,0.593000,0.410000,-0.593000,0.403758,-0.624380,0.385983,-0.650983,0.359380,-0.668758,0.328000,-0.675000,0.000000,-0.675000,-0.410000,-0.265000,-0.410000,0.593000,-0.410000,0.593000,$1*%
G04 Aperture macros list end*
%ADD10FreePoly0,270.000000*%
%ADD11RoundRect,0.082000X-0.593000X0.328000X-0.593000X-0.328000X0.593000X-0.328000X0.593000X0.328000X0*%
%ADD12RoundRect,0.250000X1.025000X1.000000X-1.025000X1.000000X-1.025000X-1.000000X1.025000X-1.000000X0*%
%ADD13RoundRect,0.250000X0.387676X1.378525X-1.387676X0.353525X-0.387676X-1.378525X1.387676X-0.353525X0*%
%ADD14RoundRect,0.082000X-0.677553X-0.012444X-0.349553X-0.580556X0.677553X0.012444X0.349553X0.580556X0*%
%ADD15FreePoly0,300.000000*%
G04 APERTURE END LIST*
D10*
%TO.C,D21*%
X188675000Y-75230000D03*
D11*
X188675000Y-76730000D03*
X194125000Y-75230000D03*
X194125000Y-76730000D03*
%TD*%
%TO.C,D36*%
X176025000Y-103330000D03*
X176025000Y-101830000D03*
X170575000Y-103330000D03*
D10*
X170575000Y-101830000D03*
%TD*%
D12*
%TO.C,K3*%
X183940000Y-105560000D03*
X197390000Y-103020000D03*
%TD*%
%TO.C,K2*%
X183940000Y-85760000D03*
X197390000Y-83220000D03*
%TD*%
%TO.C,K15*%
X219725000Y-139560000D03*
X233175000Y-137020000D03*
%TD*%
%TO.C,K18*%
X237940000Y-94960000D03*
X251390000Y-92420000D03*
%TD*%
D11*
%TO.C,D26*%
X212025000Y-76530000D03*
X212025000Y-75030000D03*
X206575000Y-76530000D03*
D10*
X206575000Y-75030000D03*
%TD*%
D13*
%TO.C,K20*%
X151391101Y-144851735D03*
X161769143Y-135927031D03*
%TD*%
D12*
%TO.C,K5*%
X183940000Y-139560000D03*
X197390000Y-137020000D03*
%TD*%
D11*
%TO.C,D31*%
X230025000Y-76530000D03*
X230025000Y-75030000D03*
X224575000Y-76530000D03*
D10*
X224575000Y-75030000D03*
%TD*%
D12*
%TO.C,K8*%
X201940000Y-105560000D03*
X215390000Y-103020000D03*
%TD*%
%TO.C,K9*%
X201940000Y-122560000D03*
X215390000Y-120020000D03*
%TD*%
D11*
%TO.C,D32*%
X230025000Y-94130000D03*
X230025000Y-92630000D03*
X224575000Y-94130000D03*
D10*
X224575000Y-92630000D03*
%TD*%
D12*
%TO.C,K16*%
X165940000Y-94960000D03*
X179390000Y-92420000D03*
%TD*%
%TO.C,K17*%
X166035000Y-111960000D03*
X179485000Y-109420000D03*
%TD*%
D11*
%TO.C,D30*%
X212025000Y-147930000D03*
X212025000Y-146430000D03*
X206575000Y-147930000D03*
D10*
X206575000Y-146430000D03*
%TD*%
D12*
%TO.C,K12*%
X219940000Y-85760000D03*
X233390000Y-83220000D03*
%TD*%
%TO.C,K1*%
X197390000Y-65620000D03*
X183940000Y-68160000D03*
%TD*%
D11*
%TO.C,D33*%
X230025000Y-113930000D03*
X230025000Y-112430000D03*
X224575000Y-113930000D03*
D10*
X224575000Y-112430000D03*
%TD*%
D11*
%TO.C,D37*%
X176060000Y-120250000D03*
X176060000Y-118750000D03*
X170610000Y-120250000D03*
D10*
X170610000Y-118750000D03*
%TD*%
D12*
%TO.C,K4*%
X183940000Y-122560000D03*
X197390000Y-120020000D03*
%TD*%
D11*
%TO.C,D25*%
X194025000Y-147930000D03*
X194025000Y-146430000D03*
X188575000Y-147930000D03*
D10*
X188575000Y-146430000D03*
%TD*%
D11*
%TO.C,D22*%
X194025000Y-94130000D03*
X194025000Y-92630000D03*
X188575000Y-94130000D03*
D10*
X188575000Y-92630000D03*
%TD*%
D11*
%TO.C,D38*%
X248025000Y-103330000D03*
X248025000Y-101830000D03*
X242575000Y-103330000D03*
D10*
X242575000Y-101830000D03*
%TD*%
D12*
%TO.C,K10*%
X201940000Y-139560000D03*
X215390000Y-137020000D03*
%TD*%
D11*
%TO.C,D34*%
X230025000Y-130930000D03*
X230025000Y-129430000D03*
X224575000Y-130930000D03*
D10*
X224575000Y-129430000D03*
%TD*%
D12*
%TO.C,K6*%
X201940000Y-68160000D03*
X215390000Y-65620000D03*
%TD*%
%TO.C,K7*%
X201940000Y-85760000D03*
X215390000Y-83220000D03*
%TD*%
%TO.C,K14*%
X219940000Y-122560000D03*
X233390000Y-120020000D03*
%TD*%
%TO.C,K11*%
X219940000Y-68160000D03*
X233390000Y-65620000D03*
%TD*%
D11*
%TO.C,D28*%
X212025000Y-113930000D03*
X212025000Y-112430000D03*
X206575000Y-113930000D03*
D10*
X206575000Y-112430000D03*
%TD*%
D11*
%TO.C,D24*%
X194025000Y-130930000D03*
X194025000Y-129430000D03*
X188575000Y-130930000D03*
D10*
X188575000Y-129430000D03*
%TD*%
D14*
%TO.C,D40*%
X164309967Y-147057868D03*
X163559967Y-145758830D03*
X159590129Y-149782868D03*
D15*
X158840129Y-148483830D03*
%TD*%
D11*
%TO.C,D27*%
X212025000Y-94130000D03*
X212025000Y-92630000D03*
X206575000Y-94130000D03*
D10*
X206575000Y-92630000D03*
%TD*%
D11*
%TO.C,D39*%
X247925000Y-120390000D03*
X247925000Y-118890000D03*
X242475000Y-120390000D03*
D10*
X242475000Y-118890000D03*
%TD*%
D12*
%TO.C,K19*%
X237875000Y-111960000D03*
X251325000Y-109420000D03*
%TD*%
D11*
%TO.C,D23*%
X194025000Y-113930000D03*
X194025000Y-112430000D03*
X188575000Y-113930000D03*
D10*
X188575000Y-112430000D03*
%TD*%
D12*
%TO.C,K13*%
X219940000Y-105560000D03*
X233390000Y-103020000D03*
%TD*%
D11*
%TO.C,D29*%
X212025000Y-130930000D03*
X212025000Y-129430000D03*
X206575000Y-130930000D03*
D10*
X206575000Y-129430000D03*
%TD*%
D11*
%TO.C,D35*%
X230010000Y-147930000D03*
X230010000Y-146430000D03*
X224560000Y-147930000D03*
D10*
X224560000Y-146430000D03*
%TD*%
M02*
