%FSLAX45Y45*%
G04 Gerber Fmt 4.5, Leading zero omitted, Abs format (unit mm)*
G04 Created by KiCad (PCBNEW (6.0.5)) date 2022-06-01 14:16:08*
%MOMM*%
%LPD*%
G01*
G04 APERTURE LIST*
%TA.AperFunction,Profile*%
%ADD10C,0.200000*%
%TD*%
%ADD11C,0.200000*%
G04 APERTURE END LIST*
D10*
X14559767Y-10750000D02*
X14569533Y-5029533D01*
X14539769Y-14169999D02*
G75*
G03*
X15236050Y-14372546I439471J212689D01*
G01*
X26359767Y-12640000D02*
X26369066Y-5029533D01*
X14049767Y-11900000D02*
G75*
G03*
X14559767Y-10750000I-1307236J1267817D01*
G01*
X16879767Y-13590000D02*
X25409767Y-13580000D01*
X15629533Y-3969533D02*
X25309066Y-3969533D01*
X15236050Y-14372546D02*
X16224026Y-13801649D01*
X16879767Y-13590001D02*
G75*
G03*
X16224026Y-13801649I55013J-1292099D01*
G01*
X14539767Y-14170000D02*
X13759300Y-12819533D01*
X26369067Y-5029533D02*
G75*
G03*
X25309066Y-3969533I-1060007J-7D01*
G01*
X15629533Y-3969533D02*
G75*
G03*
X14569533Y-5029533I0J-1060000D01*
G01*
X25409767Y-13580000D02*
G75*
G03*
X26359767Y-12640000I30217J919515D01*
G01*
X14049767Y-11900001D02*
G75*
G03*
X13759300Y-12819533I566393J-684559D01*
G01*
D11*
X13975285Y-14766019D02*
X13975285Y-14566019D01*
X14022904Y-14566019D01*
X14051475Y-14575543D01*
X14070523Y-14594591D01*
X14080047Y-14613638D01*
X14089571Y-14651734D01*
X14089571Y-14680305D01*
X14080047Y-14718400D01*
X14070523Y-14737448D01*
X14051475Y-14756496D01*
X14022904Y-14766019D01*
X13975285Y-14766019D01*
X14175285Y-14766019D02*
X14175285Y-14632686D01*
X14175285Y-14670781D02*
X14184809Y-14651734D01*
X14194333Y-14642210D01*
X14213380Y-14632686D01*
X14232428Y-14632686D01*
X14299094Y-14766019D02*
X14299094Y-14632686D01*
X14299094Y-14566019D02*
X14289571Y-14575543D01*
X14299094Y-14585067D01*
X14308618Y-14575543D01*
X14299094Y-14566019D01*
X14299094Y-14585067D01*
X14422904Y-14766019D02*
X14403856Y-14756496D01*
X14394333Y-14737448D01*
X14394333Y-14566019D01*
X14527666Y-14766019D02*
X14508618Y-14756496D01*
X14499094Y-14737448D01*
X14499094Y-14566019D01*
X14756237Y-14766019D02*
X14756237Y-14566019D01*
X14822904Y-14708877D01*
X14889571Y-14566019D01*
X14889571Y-14766019D01*
X15070523Y-14766019D02*
X15070523Y-14661257D01*
X15060999Y-14642210D01*
X15041952Y-14632686D01*
X15003856Y-14632686D01*
X14984809Y-14642210D01*
X15070523Y-14756496D02*
X15051475Y-14766019D01*
X15003856Y-14766019D01*
X14984809Y-14756496D01*
X14975285Y-14737448D01*
X14975285Y-14718400D01*
X14984809Y-14699353D01*
X15003856Y-14689829D01*
X15051475Y-14689829D01*
X15070523Y-14680305D01*
X15165761Y-14632686D02*
X15165761Y-14832686D01*
X15165761Y-14642210D02*
X15184809Y-14632686D01*
X15222904Y-14632686D01*
X15241952Y-14642210D01*
X15251475Y-14651734D01*
X15260999Y-14670781D01*
X15260999Y-14727924D01*
X15251475Y-14746972D01*
X15241952Y-14756496D01*
X15222904Y-14766019D01*
X15184809Y-14766019D01*
X15165761Y-14756496D01*
X15346714Y-14746972D02*
X15356237Y-14756496D01*
X15346714Y-14766019D01*
X15337190Y-14756496D01*
X15346714Y-14746972D01*
X15346714Y-14766019D01*
X15346714Y-14642210D02*
X15356237Y-14651734D01*
X15346714Y-14661257D01*
X15337190Y-14651734D01*
X15346714Y-14642210D01*
X15346714Y-14661257D01*
M02*
